<?xml version="1.0" standalone="no"?>
<!DOCTYPE svg PUBLIC "-//W3C//DTD SVG 1.1//EN" "http://www.w3.org/Graphics/SVG/1.1/DTD/svg11.dtd" >
<svg xmlns="http://www.w3.org/2000/svg" xmlns:xlink="http://www.w3.org/1999/xlink" version="1.1">
<metadata></metadata>
<defs>
<font id="pf_agora_sans_prothin" horiz-adv-x="1058" >
<font-face units-per-em="2048" ascent="1536" descent="-512" />
<missing-glyph horiz-adv-x="532" />
<glyph unicode="&#xfb01;" horiz-adv-x="1013" d="M61 926v51q6 2 27 5t45.5 7t46 7t25.5 5v166q0 92 26.5 152.5t73.5 96.5t110.5 49.5t135.5 13.5q66 0 136.5 -8.5t129.5 -18.5q-4 -10 -8 -34.5t-6 -35.5q-59 10 -124 16.5t-118 6.5q-74 0 -126 -11.5t-86 -41t-49 -79.5t-15 -128v-148h587v-997h-86v926h-501v-926h-82 v926h-142z" />
<glyph unicode="&#xfb02;" horiz-adv-x="1021" d="M66 926v51q6 2 26.5 5t45 7t45 7t26.5 5v160q0 94 26.5 154.5t73.5 95.5t111.5 49.5t138.5 14.5q61 -2 131 -8.5t125 -16.5l64 14v-99.5v-170.5v-220t-1 -243t-1 -242.5v-219v-171v-98.5h-82v1378q-55 10 -118 15.5t-114 5.5q-74 0 -125 -11.5t-85 -40t-49 -78.5 t-15 -128v-144h319v-71h-319v-92v-167.5t-1 -203t-1 -203.5v-166.5v-93.5h-80v926h-141z" />
<glyph horiz-adv-x="0" />
<glyph horiz-adv-x="682" />
<glyph unicode=" "  horiz-adv-x="532" />
<glyph unicode="&#x09;" horiz-adv-x="532" />
<glyph unicode="&#xa0;" horiz-adv-x="532" />
<glyph unicode="!" horiz-adv-x="403" d="M133 59q0 31 23.5 52.5t54.5 21.5t53.5 -21.5t22.5 -52.5q0 -35 -22.5 -57t-51.5 -22q-33 0 -56.5 22.5t-23.5 56.5zM166 1417h86l-2 -641l-12 -444h-54l-14 444z" />
<glyph unicode="&#x22;" horiz-adv-x="421" d="M82 1399h90l-20 -377h-46zM260 1399h88l-20 -377h-49z" />
<glyph unicode="#" horiz-adv-x="1044" d="M90 420l12 55h150q6 33 17.5 86t23.5 110.5t24.5 111t18.5 87.5h-158l15 54h155q6 29 16.5 77t21.5 100t21.5 100t16.5 77h59l-75 -354h352q6 29 16 77t21.5 100t21.5 100t17 77h61l-76 -354h162l-12 -54h-162q-6 -35 -18.5 -88t-24.5 -110.5t-23.5 -110.5t-17.5 -86h168 l-12 -55h-168q-8 -37 -20.5 -93.5t-25 -116.5t-24.5 -116.5t-18 -93.5h-62l88 420h-352q-6 -37 -18.5 -93.5t-24.5 -116.5t-24.5 -116.5t-20.5 -93.5h-61l90 420h-150zM311 475h353q6 33 17 86t23.5 110.5t24.5 111t19 87.5h-353z" />
<glyph unicode="$" d="M121 104l33 68q92 -47 155.5 -64.5t116.5 -25.5v618q-61 23 -113.5 49.5t-91.5 63.5t-61.5 88t-22.5 121q0 141 83 224t206 110v135h53v-1647h-53v164q-82 8 -163 34t-142 62zM217 1032q0 -55 16.5 -95t44 -68.5t65.5 -48t83 -38.5v498q-88 -23 -148.5 -82.5 t-60.5 -165.5zM553 -156v1647h53v-129q61 -4 128 -21.5t120 -50.5l-27 -67q-70 35 -121 47t-100 18v-563q63 -27 125 -55.5t109 -68.5t75.5 -96t28.5 -138q0 -80 -25.5 -141.5t-71.5 -104.5t-107.5 -69.5t-133.5 -37.5v-170h-53zM606 86q123 20 190.5 89t67.5 200 q0 53 -19.5 94t-54 72.5t-81.5 56.5t-103 45v-557z" />
<glyph unicode="%" horiz-adv-x="1597" d="M63 944q0 66 11.5 139.5t45.5 137t97.5 104.5t165.5 41q104 0 164.5 -43t91.5 -107.5t39 -137.5t8 -132q0 -72 -14.5 -143.5t-49 -131t-94 -96t-149.5 -36.5q-102 0 -164.5 35.5t-96.5 93t-44.5 130t-10.5 146.5zM139 940q0 -70 9.5 -132.5t35 -108.5t73.5 -72.5 t126 -26.5q70 0 115 32t70.5 81t34.5 110.5t9 120.5q0 45 -5 107.5t-27.5 118t-68.5 94.5t-128 39t-130 -37t-73.5 -92.5t-33 -119t-7.5 -114.5zM471 -47l580 1477h65l-575 -1477h-70zM909 397q0 66 11.5 140.5t45 137t97 104.5t166.5 42q104 0 164.5 -43t91.5 -107.5 t39 -138.5t8 -133q0 -70 -14.5 -142.5t-49 -130.5t-94 -96t-149.5 -38q-102 0 -165 35.5t-96.5 93t-44 130.5t-10.5 146zM985 395q0 -72 9.5 -133t35 -108.5t73.5 -74t126 -26.5q70 0 115 32t70.5 82t34.5 110.5t9 119.5q0 47 -5 109.5t-27.5 118t-68.5 94.5t-128 39 t-130 -37t-74 -92.5t-33 -119t-7 -114.5z" />
<glyph unicode="&#x26;" horiz-adv-x="1423" d="M55 362q0 141 94.5 248t262.5 201q-63 84 -91 161t-28 128q0 59 18.5 110.5t53 88t84 58t110.5 21.5q66 0 115 -19.5t81.5 -53t49 -79.5t16.5 -98q0 -98 -76.5 -184t-224.5 -164q94 -141 201.5 -278t226.5 -260q51 49 96.5 105t80 126t57 154t30.5 188h72 q-12 -217 -91 -366.5t-192 -255.5q72 -72 158 -130.5t160 -91.5l-37 -63q-33 14 -76 39.5t-89 57.5t-92 68t-85 74q-104 -82 -226 -123.5t-237 -41.5q-88 0 -164.5 23.5t-134 70.5t-90.5 118.5t-33 167.5zM135 367q0 -82 26.5 -141.5t73 -99.5t106.5 -59.5t128 -19.5 q100 0 202.5 31t219.5 117q-53 55 -101.5 112.5t-95.5 112.5q-66 82 -128 164t-115 164q-68 -37 -126.5 -77t-100.5 -86t-65.5 -100.5t-23.5 -117.5zM377 1110q0 -59 27.5 -124.5t80.5 -143.5q53 25 100.5 56.5t82 68.5t55 76.5t20.5 82.5q0 80 -50 130.5t-142 50.5 q-49 0 -83 -20.5t-54.5 -50.5t-28.5 -63.5t-8 -62.5z" />
<glyph unicode="'" horiz-adv-x="307" d="M109 1399h90l-21 -377h-47z" />
<glyph unicode="(" horiz-adv-x="538" d="M121 588q0 174 34.5 319.5t82 257t95.5 186t73 109.5l34 -24q-23 -33 -60.5 -106t-76.5 -180.5t-66.5 -248.5t-27.5 -313q0 -195 27.5 -347.5t65.5 -266t77 -188.5t61 -114l-34 -24q-23 33 -71 109.5t-95 194.5t-83 276.5t-36 359.5z" />
<glyph unicode=")" horiz-adv-x="538" d="M92 -328q23 39 62 114t76.5 188.5t65.5 266t28 347.5q0 172 -28 313t-65.5 248.5t-76.5 180.5t-60 106l35 24q25 -35 72 -109.5t94 -186t82 -257t35 -319.5q0 -201 -36 -359.5t-83 -276.5t-94 -194.5t-70 -109.5z" />
<glyph unicode="*" horiz-adv-x="698" d="M80 1159q2 29 9 54.5t24 46.5l223 -105l-33 244q27 6 55 6q14 0 26.5 -1t25.5 -5l-35 -244q55 25 111.5 49.5t111.5 50.5q16 -23 23.5 -47t7.5 -51q-61 -10 -123 -20.5t-123 -20.5l168 -178q-33 -47 -82 -61l-117 217l-110 -217q-51 14 -86 59l166 182z" />
<glyph unicode="+" d="M156 571v72h340v334h73v-334h338v-72h-338v-346h-73v346h-340z" />
<glyph unicode="," horiz-adv-x="296" d="M68 -188q35 41 49 91t16 91q-29 4 -45 21t-16 44q0 31 20.5 53.5t50.5 22.5q35 0 57.5 -24.5t22.5 -69.5q0 -29 -9 -64.5t-26.5 -71.5t-41 -68t-54.5 -52z" />
<glyph unicode="-" horiz-adv-x="684" d="M104 481v80h476v-80h-476z" />
<glyph unicode="." horiz-adv-x="327" d="M90 66q0 29 21.5 50t50.5 21t50 -21t21 -50t-21.5 -51.5t-49.5 -22.5q-29 0 -50.5 22.5t-21.5 51.5z" />
<glyph unicode="/" horiz-adv-x="645" d="M18 -53l531 1483h67l-526 -1483h-72z" />
<glyph unicode="0" d="M57 664q0 111 17.5 235.5t69 231t145.5 177t250 70.5q106 0 181 -33.5t127 -91t83 -131t46 -151.5t20 -156.5t5 -144.5q0 -117 -21.5 -239t-74.5 -221t-143 -161.5t-225 -62.5q-156 0 -250 59t-145.5 156.5t-68 218.5t-16.5 244zM143 659q0 -123 15.5 -232.5t58.5 -191 t120 -130t202 -48.5q115 0 187.5 55.5t114.5 143.5t58 196t16 212q0 55 -3 123.5t-15 140t-35.5 138.5t-65.5 120t-104.5 85t-152.5 32q-133 0 -212 -66t-120 -163t-52.5 -209.5t-11.5 -205.5z" />
<glyph unicode="1" d="M213 1223v61l315 72h86v-1356h-82v1260z" />
<glyph unicode="2" d="M61 0v68l175 163q100 96 197 195.5t174 199t123 196t46 186.5q0 76 -23.5 129t-64.5 88t-96 51t-119 16q-78 0 -170 -26.5t-182 -87.5l-37 61q98 70 202.5 100.5t196.5 30.5q80 0 149.5 -20.5t122 -63.5t82 -108.5t29.5 -157.5q0 -109 -53 -219.5t-135 -216t-177 -202.5 t-182 -179q-35 -33 -68.5 -65t-66.5 -66l734 -2v-70h-857z" />
<glyph unicode="3" d="M74 51l24 66q113 -37 202 -48.5t146 -11.5q86 0 159 21.5t126 65.5t83 112t30 162q0 150 -107.5 229.5t-300.5 79.5q-37 0 -68.5 -2t-64.5 -8l-24 59l485 498l-6 6h-631v74h750l16 -60l-483 -489l2 -4q16 2 32.5 2h32.5q104 0 188.5 -24.5t143.5 -74t92 -121t33 -165.5 q0 -109 -37 -190t-101.5 -135t-149.5 -81.5t-179 -27.5q-117 0 -212 16t-181 51z" />
<glyph unicode="4" d="M45 391v76q168 223 337 443t337 444h90v-891h203v-72h-203q0 -98 1 -195.5t1 -195.5h-86v391h-680zM131 463h596v780q-10 -10 -53 -66.5t-103.5 -135t-130 -171t-133 -175.5t-112 -146.5t-64.5 -85.5z" />
<glyph unicode="5" d="M94 53l27 66q102 -35 186 -48.5t146 -13.5q188 0 298.5 87t110.5 276q0 84 -28.5 147.5t-78.5 105.5t-117 62.5t-142 20.5q-59 0 -127 -16.5t-125 -45.5l-60 39q10 156 17.5 310.5t15.5 310.5h676v-74h-602l-29 -506q18 6 40 15.5t52.5 18.5t72.5 15t101 6 q74 0 150 -21.5t136 -70.5t99 -127t39 -190q0 -113 -36.5 -195t-100 -136t-147.5 -80.5t-179 -26.5q-225 0 -395 71z" />
<glyph unicode="6" d="M106 621q0 166 33 305t96.5 238.5t158.5 154.5t220 55q98 0 169 -18.5t118 -40.5l-27 -66q-80 31 -145 41t-117 10q-84 0 -147.5 -31.5t-108.5 -81.5t-75.5 -114.5t-49 -128t-26.5 -121t-10 -96.5l6 -6q72 45 168 76.5t213 31.5q78 0 149.5 -21.5t126.5 -70.5t88 -128 t33 -191q0 -100 -30.5 -180t-87 -136.5t-136.5 -86t-176 -29.5q-133 0 -219 50t-135.5 137t-69 203t-19.5 245zM195 580q0 -74 10 -164t47 -170t108.5 -134.5t192.5 -54.5q80 0 143.5 26t107.5 73t67.5 110.5t23.5 141.5q0 76 -17.5 140t-55.5 110.5t-100.5 72t-152.5 25.5 q-86 0 -153.5 -18.5t-115.5 -40t-74.5 -41t-30.5 -21.5v-55z" />
<glyph unicode="7" d="M125 1282v74h786v-74l-573 -1282h-86l577 1282h-704z" />
<glyph unicode="8" d="M78 322q0 125 66.5 245.5t209.5 206.5q-102 53 -153 120t-51 159q0 63 27.5 122.5t78.5 104.5t123 71.5t160 26.5q68 0 136 -17.5t124.5 -55t92.5 -97t36 -143.5t-48.5 -178t-172.5 -182q117 -57 183 -142.5t66 -208.5q0 -72 -27.5 -138t-82.5 -117.5t-137 -82 t-191 -30.5q-117 0 -199.5 28.5t-136 75.5t-79 107.5t-25.5 124.5zM164 332q0 -49 18.5 -98.5t61.5 -89.5t111.5 -64.5t168.5 -24.5q90 0 155.5 27t108.5 69t63.5 95t20.5 106q0 86 -34.5 143.5t-96 98.5t-143.5 74.5t-176 70.5q-137 -84 -197.5 -193.5t-60.5 -213.5z M238 1053q0 -66 35.5 -113t92 -83t127 -64.5t138.5 -55.5q121 86 168 167t47 147q0 43 -16.5 88t-53.5 81.5t-96 61.5t-148 25q-84 0 -141 -28t-91 -68t-48 -82.5t-14 -75.5z" />
<glyph unicode="9" d="M74 942q0 100 30.5 180t87 136.5t135.5 86t177 29.5q133 0 218 -50t134 -137t68.5 -203t19.5 -245q0 -166 -32.5 -304t-96 -237.5t-159 -154.5t-220.5 -55q-98 0 -179 17.5t-128 39.5l27 66q80 -31 155.5 -41.5t126.5 -10.5q84 0 147.5 32t108.5 82t76 114.5t49.5 128 t26.5 121t10 96.5q-2 2 -2 3t-4 3q-70 -47 -167 -79t-212 -32q-80 0 -151.5 22.5t-126 72t-87 128t-32.5 191.5zM158 952q0 -78 16 -141t54 -109.5t100.5 -72t152.5 -25.5q86 0 155 18.5t116 40t73.5 41t30.5 21.5v55q0 72 -10 162t-47 170t-107.5 134t-191.5 54 q-164 0 -253 -97t-89 -251z" />
<glyph unicode=":" horiz-adv-x="325" d="M92 68q0 29 21.5 50t50.5 21t50.5 -21t21.5 -50t-20.5 -51.5t-49.5 -22.5q-31 0 -52.5 22.5t-21.5 51.5zM92 700q0 29 21.5 50.5t50.5 21.5t50.5 -21.5t21.5 -50.5q0 -31 -20.5 -52t-49.5 -21q-31 0 -52.5 22.5t-21.5 50.5z" />
<glyph unicode=";" horiz-adv-x="325" d="M84 -186q35 41 49 90t17 90q-27 4 -43.5 21t-16.5 44q0 31 19.5 53.5t52.5 22.5q35 0 57.5 -24.5t22.5 -69.5q0 -29 -9.5 -64.5t-27 -70.5t-42 -68t-54.5 -53zM92 700q0 29 21.5 50.5t50.5 21.5t50.5 -21.5t21.5 -50.5q0 -31 -20.5 -52t-49.5 -21q-31 0 -52.5 22.5 t-21.5 50.5z" />
<glyph unicode="&#x3c;" d="M156 569v74l753 389v-82l-680 -342l680 -346v-84z" />
<glyph unicode="=" d="M147 436v70h762v-70h-762zM147 723v72h762v-72h-762z" />
<glyph unicode="&#x3e;" d="M156 178v84l680 346l-680 342v82l753 -389v-74z" />
<glyph unicode="?" horiz-adv-x="847" d="M88 1376q92 33 182 46.5t162 13.5q182 0 272.5 -69.5t90.5 -192.5q0 -96 -57.5 -170t-131.5 -134q-133 -109 -203.5 -190.5t-70.5 -175.5q0 -66 18 -152q-20 -4 -37.5 -7t-36.5 -7q-12 59 -17 103t-5 75q0 98 63.5 187.5t202.5 197.5q84 68 133 129.5t49 138.5 q0 53 -20 90t-56 59.5t-84 33t-106 10.5q-63 0 -142 -11.5t-183 -43.5q-14 39 -23 69zM276 59q0 29 23 50.5t53 21.5q31 0 53.5 -21.5t22.5 -50.5q0 -35 -22.5 -54t-51.5 -19q-31 0 -54.5 20.5t-23.5 52.5z" />
<glyph unicode="@" horiz-adv-x="1753" d="M152 680q0 156 61 288t166.5 228t246 149.5t296.5 53.5q162 0 291.5 -46t219 -131t137.5 -205t48 -269q0 -109 -29.5 -187t-77 -129t-103.5 -75.5t-112 -24.5q-31 0 -63.5 5t-62 17.5t-53 35t-38.5 56.5q-47 -45 -121.5 -79.5t-162.5 -34.5q-63 0 -104.5 21.5t-64 53 t-31.5 69.5t-9 71q0 55 19.5 94t54 65.5t80.5 41t102 18.5l223 16v74q0 109 -39 151t-137 42q-113 0 -236 -45q-4 6 -10 25.5t-8 27.5q59 29 131 44t143 15q109 0 166.5 -53t57.5 -176v-342q0 -72 43 -112t120 -40q43 0 89.5 19.5t83 61.5t60 108.5t23.5 162.5 q0 143 -45 255t-128 188t-199.5 114.5t-257.5 38.5q-143 0 -271.5 -50t-225.5 -138t-153.5 -209t-56.5 -260q0 -143 49 -264t136 -209t206 -137t256 -49q57 0 113.5 7t124.5 29l18 -55q-49 -16 -115.5 -29.5t-132.5 -13.5q-158 0 -288.5 53.5t-227 148.5t-149.5 227t-53 288 zM657 551q0 -70 37 -115t121 -45q57 0 123 26.5t127 80.5v229l-231 -18q-76 -4 -126.5 -45t-50.5 -113z" />
<glyph unicode="A" horiz-adv-x="1093" d="M35 0l452 1397h117l453 -1397h-92q-33 98 -64 195.5t-63 195.5h-588q-33 -98 -62.5 -195.5t-60.5 -195.5h-92zM274 465h541l-182 573q-23 70 -43.5 137.5t-42.5 139.5h-6q-41 -141 -86 -277z" />
<glyph unicode="B" horiz-adv-x="1167" d="M164 0v1397h444q100 0 174 -25.5t123 -72t74 -110t25 -138.5q0 -35 -6.5 -77t-28 -85t-60.5 -83t-106 -71v-10q74 -23 121 -63.5t74.5 -90t39 -102.5t11.5 -98q0 -84 -29 -152.5t-79 -117t-117.5 -75t-143.5 -26.5h-516zM254 74h395q82 0 141.5 25.5t96.5 67.5t54 98.5 t17 117.5q0 59 -22.5 114.5t-64.5 97.5t-99 67.5t-127 25.5h-391v-614zM254 764h358q135 0 218 75.5t83 200.5q0 61 -18 112.5t-57 89.5t-99.5 59.5t-144.5 21.5h-340v-559z" />
<glyph unicode="C" horiz-adv-x="1136" d="M123 690q0 113 23.5 241t86 236.5t173 180t284.5 71.5q111 0 200 -15t146 -38l-22 -72q-78 25 -161 37t-155 12q-127 0 -218 -47t-150.5 -133t-87 -206.5t-27.5 -270.5q0 -119 17.5 -231.5t68.5 -199.5t146.5 -140.5t248.5 -53.5q27 0 69 3.5t89 8.5t96 14t90 22l21 -66 q-35 -12 -82 -23.5t-98.5 -18.5t-102.5 -11t-96 -4q-154 0 -260.5 49t-173 141t-96 222t-29.5 292z" />
<glyph unicode="D" horiz-adv-x="1249" d="M164 0v1399h416q162 0 267 -56.5t167.5 -151.5t87 -222t24.5 -267q0 -145 -26.5 -272t-92 -223t-175 -151.5t-275.5 -55.5h-393zM254 76h289q31 0 79 3t102 19.5t109.5 53t100.5 104.5t72.5 172t27.5 258q0 156 -25.5 264.5t-66.5 179t-93 110.5t-105.5 58.5t-101.5 22.5 t-83 4h-305v-1249z" />
<glyph unicode="E" horiz-adv-x="1048" d="M164 0v1399h776v-74h-686v-547h594v-73h-594v-631h721v-74h-811z" />
<glyph unicode="F" horiz-adv-x="991" d="M164 0v1399h774v-76h-684v-547h590v-76h-590v-700h-90z" />
<glyph unicode="G" horiz-adv-x="1222" d="M123 690q0 113 26.5 241t94 236.5t182.5 180t293 71.5q109 0 202 -15t150 -38l-18 -70q-84 23 -170 35t-158 12q-129 0 -225.5 -47t-160 -133t-94 -207.5t-30.5 -271.5q0 -119 18.5 -230.5t70.5 -198.5t147.5 -139.5t250.5 -52.5q29 0 67 3.5t78 8.5t78 12t66 17v596h88 v-657q-98 -31 -196.5 -44t-196.5 -13q-154 0 -261.5 49t-174 141t-97 222t-30.5 292z" />
<glyph unicode="H" horiz-adv-x="1249" d="M164 0v1399h92v-621h737v621h92v-1399h-92v700h-737v-700h-92z" />
<glyph unicode="I" horiz-adv-x="456" d="M184 0v1399h88v-1399h-88z" />
<glyph unicode="J" horiz-adv-x="548" d="M-84 -299q90 53 154.5 103.5t105.5 110.5t60.5 134t19.5 174v1176h88v-1172q0 -121 -26.5 -212t-77 -161.5t-125 -123t-168.5 -97.5z" />
<glyph unicode="K" horiz-adv-x="1091" d="M164 0v1399h90v-697l682 697h113l-555 -561l563 -838h-103l-520 772l-180 -180v-592h-90z" />
<glyph unicode="L" horiz-adv-x="1079" d="M201 0v1399h90l2 -1325h751v-74h-843z" />
<glyph unicode="M" horiz-adv-x="1593" d="M164 0v1397h100q113 -246 221.5 -490.5t221.5 -492.5l86 -199h8l90 201l219 487q55 125 110.5 248t112.5 246h94v-1397h-86q0 303 -1 604t-1 606h-6l-78 -174l-413 -913h-92l-412 905l-82 189h-6v-1217h-86z" />
<glyph unicode="N" horiz-adv-x="1318" d="M164 0v1399h94l662 -1026l137 -215h8v1241h90l-2 -1399h-88l-653 1010l-152 243q-2 0 -4 -1t-4 -1v-1251h-88z" />
<glyph unicode="O" horiz-adv-x="1357" d="M123 686q0 143 28.5 275.5t94 233.5t175 162.5t271.5 61.5q164 0 269.5 -61.5t166 -162.5t84 -232.5t23.5 -270.5q0 -152 -34 -279.5t-102.5 -222t-170 -148.5t-236.5 -56q-158 0 -266.5 48t-176 139t-97 220t-29.5 293zM215 682q0 -305 110.5 -465t356.5 -160 q117 0 204 49.5t143 135.5t84 200.5t28 243.5q0 109 -16.5 225.5t-63.5 214t-136 160t-233 62.5q-145 0 -237.5 -57.5t-145.5 -152t-73.5 -213t-20.5 -243.5z" />
<glyph unicode="P" horiz-adv-x="1040" d="M164 0v1399h418q84 0 158.5 -23.5t130 -72t87 -122t31.5 -173.5q0 -61 -16.5 -133t-60.5 -132.5t-119.5 -101.5t-194.5 -41h-344l2 -600h-92zM254 674h338q55 0 109.5 15.5t98.5 53t70.5 100t26.5 158.5q0 82 -24.5 143.5t-66.5 101.5t-98.5 59.5t-121.5 19.5h-332v-651z " />
<glyph unicode="Q" horiz-adv-x="1357" d="M123 686q0 143 28.5 275.5t94 233.5t175 162.5t271.5 61.5q164 0 269.5 -61.5t166 -162.5t84 -232.5t23.5 -270.5q0 -123 -22.5 -232.5t-68.5 -196.5t-113.5 -150.5t-158.5 -96.5l349 -88l-35 -92q-12 4 -46 15.5t-80 25.5t-98.5 31.5t-98.5 32t-80.5 25.5t-45.5 16 q-10 2 -22.5 1t-22.5 1q-158 2 -266.5 51t-176 139t-97 219t-29.5 293zM215 682q0 -305 110.5 -465t356.5 -160q117 0 204 49.5t143 135.5t84 200.5t28 243.5q0 109 -16.5 225.5t-63.5 213t-136 159t-233 62.5q-145 0 -237.5 -57.5t-145.5 -151t-73.5 -213t-20.5 -242.5z " />
<glyph unicode="R" horiz-adv-x="1124" d="M164 0v1399h418q109 0 186.5 -29t126.5 -79t72.5 -117.5t23.5 -143.5q0 -57 -14 -116.5t-45 -109.5t-79 -88t-116 -54q86 -27 128 -88.5t67 -147.5l123 -426h-92l-119 410q-23 70 -52.5 113.5t-67.5 69t-83 36t-94 10.5h-293v-639h-90zM254 713h332q141 0 227 74.5 t86 236.5q0 76 -23.5 132t-66.5 93t-101.5 55.5t-127.5 18.5h-326v-610z" />
<glyph unicode="S" horiz-adv-x="1089" d="M88 86l33 70q115 -57 210 -76t181 -19q188 0 292.5 71t104.5 241q0 74 -26.5 124t-72.5 83.5t-109.5 56t-139.5 43.5q-90 23 -170 49.5t-141.5 66.5t-97 99t-35.5 149t31.5 161t90 119t138.5 72.5t176 24.5q70 0 166 -12t188 -51l-28 -74q-104 35 -184.5 47t-151.5 12 q-72 0 -132.5 -18t-105.5 -55t-69.5 -93.5t-24.5 -132.5q0 -68 30.5 -112.5t81 -75.5t115 -51.5t131.5 -38.5q76 -20 153 -45t139.5 -68t101 -109.5t38.5 -172.5q0 -104 -37.5 -177t-103 -119t-154 -67.5t-188.5 -21.5q-109 0 -223.5 23.5t-206.5 76.5z" />
<glyph unicode="T" horiz-adv-x="1064" d="M39 1323v76h985v-76h-446l-3 -1323h-86v1323h-450z" />
<glyph unicode="U" horiz-adv-x="1325" d="M160 494v905h86l2 -901q0 -438 414 -439q205 0 310 111t105 328v901h90v-905q0 -113 -31.5 -206t-94 -161t-158 -104.5t-224.5 -36.5q-262 0 -380.5 135t-118.5 373z" />
<glyph unicode="V" horiz-adv-x="1050" d="M35 1399h94l315 -1039l78 -268h8l80 275l316 1032h90l-434 -1399h-113z" />
<glyph unicode="W" horiz-adv-x="1615" d="M35 1397h88q10 -43 34.5 -146.5t56.5 -237.5t66.5 -282.5t65.5 -277.5t53.5 -225.5t28.5 -125.5h8l96 414l209 881h93q25 -92 56.5 -208t63 -234.5t63.5 -232.5t56 -204q2 -10 11.5 -42t20.5 -74t24.5 -90t24.5 -91t19.5 -75.5t10.5 -43.5h8q25 106 50.5 212t47.5 214 q53 217 102.5 434.5t102.5 434.5h86q-86 -358 -170 -706.5t-168 -690.5h-113q-57 217 -114.5 428t-116.5 432q-27 100 -52.5 198.5t-53.5 198.5h-11l-92 -397q-39 -160 -89 -374t-112 -486h-116z" />
<glyph unicode="X" horiz-adv-x="1046" d="M33 0l436 723l-408 674h99l362 -606l365 606h96q-102 -170 -204.5 -338t-205.5 -338q111 -182 219.5 -361.5t219.5 -359.5h-101l-391 653l-391 -653h-96z" />
<glyph unicode="Y" horiz-adv-x="980" d="M27 1399h98l233 -443l121 -239h8l121 227l248 455h96l-422 -760v-639h-92v633z" />
<glyph unicode="Z" horiz-adv-x="991" d="M35 0v78l782 1245h-733v76h838v-78l-781 -1243h815v-78h-921z" />
<glyph unicode="[" horiz-adv-x="481" d="M123 -328v1753h283v-73h-197v-1606h197v-74h-283z" />
<glyph unicode="\" horiz-adv-x="645" d="M18 1430h68l530 -1483h-69z" />
<glyph unicode="]" horiz-adv-x="481" d="M80 -254h196v1606h-196v73h280v-1753h-280v74z" />
<glyph unicode="^" horiz-adv-x="866" d="M55 813q8 16 36 60.5t62.5 104.5t74.5 126.5t75 127t61.5 104.5t34.5 61h74q8 -14 33.5 -59.5t59.5 -106t73 -127t72.5 -126.5t59.5 -105.5t36 -59.5h-80l-295 512l-293 -512h-84z" />
<glyph unicode="_" horiz-adv-x="1024" d="M0 -184h1024v-60h-1024v60z" />
<glyph unicode="`" horiz-adv-x="966" d="M272 1397l76 65l219 -303l-45 -37z" />
<glyph unicode="a" horiz-adv-x="1007" d="M82 260q0 70 25.5 122t70.5 88t108.5 55.5t139.5 23.5q12 0 55 3t93.5 5t93.5 4t53 2v92q0 76 -10.5 129.5t-38 87t-73.5 49t-116 15.5q-76 0 -155.5 -17.5t-155.5 -46.5l-22 62q86 35 178 54.5t174 19.5q147 0 225 -73t78 -249v-614h135q4 -12 4 -25.5t2 -26.5 q-35 -16 -71.5 -22t-65.5 -6q-59 0 -74.5 29.5t-15.5 93.5l-4 2q-66 -49 -120 -76t-99 -38t-79 -13t-59 -2q-82 0 -135 25.5t-85 65.5t-44 88t-12 93zM170 270q0 -215 225 -215q76 0 157 38t169 110v297l-299 -17q-123 -6 -187.5 -62t-64.5 -151z" />
<glyph unicode="b" horiz-adv-x="989" d="M121 66v1386h84v-344v-41t-1 -52.5t-1 -53v-41.5l4 -5q104 53 180 75t143 22q104 0 173 -40t111 -109.5t58.5 -165t16.5 -208.5q0 -104 -20.5 -195t-66.5 -159.5t-123 -107.5t-187 -39q-106 0 -198.5 21.5t-172.5 56.5zM205 115q78 -33 148.5 -45.5t131.5 -12.5 q147 0 232.5 97.5t85.5 330.5q0 131 -19.5 219.5t-56.5 140.5t-88.5 73.5t-114.5 21.5q-84 0 -169 -33t-150 -69v-723z" />
<glyph unicode="c" horiz-adv-x="899" d="M100 481q0 76 16.5 168t62.5 173t129 135.5t216 54.5q72 0 143.5 -11.5t133.5 -37.5l-25 -68q-76 29 -137 37t-109 8q-88 0 -152.5 -33t-106.5 -93t-62.5 -144.5t-20.5 -186.5q0 -86 15.5 -163.5t52.5 -136t98.5 -92.5t155.5 -34q84 0 151.5 17.5t151.5 52.5l23 -61 q-59 -33 -144.5 -56.5t-181.5 -23.5q-113 0 -190.5 36.5t-127 103.5t-71 157t-21.5 198z" />
<glyph unicode="d" horiz-adv-x="991" d="M100 475q0 113 20.5 211t66.5 170t120 113t178 41q59 0 138 -17.5t161 -64.5v522h82v-1450h-82v106q-2 0 -2 1.5t-2 1.5q-70 -55 -153.5 -88t-169.5 -33q-100 0 -169 37.5t-110 103.5t-59.5 155t-18.5 191zM188 473q0 -119 20.5 -198.5t58.5 -128t92.5 -69t119.5 -20.5 q37 0 79 10.5t83 29t79 42t64 49.5v662q-53 33 -132 59.5t-160 26.5q-63 0 -119 -23.5t-96.5 -78t-64.5 -143.5t-24 -218z" />
<glyph unicode="e" horiz-adv-x="972" d="M100 492q0 59 13.5 147t55.5 171t123 141.5t216 58.5q96 0 160.5 -29t105.5 -74t62.5 -100t31 -108.5t10.5 -97.5t1 -69v-47h-691q0 -86 13.5 -162.5t49.5 -136t98.5 -94.5t158.5 -35q90 0 161.5 17.5t155.5 59.5l25 -60q-84 -45 -164 -66.5t-176 -21.5q-123 0 -203 40 t-126 109.5t-63.5 161.5t-17.5 195zM190 551h605q0 86 -14.5 157.5t-47.5 124t-88 82t-137 29.5q-86 0 -143.5 -32.5t-94.5 -88t-55 -126t-25 -146.5z" />
<glyph unicode="f" horiz-adv-x="655" d="M76 928v49l141 27v184q0 147 76 214.5t213 67.5q35 0 79 -4t85 -14l-13 -63q-33 4 -70.5 8t-66.5 4q-113 0 -167 -46t-54 -163v-195h299v-69h-299l-2 -928h-80v928h-141z" />
<glyph unicode="g" horiz-adv-x="1036" d="M92 -156q0 88 40 158t91 102q-66 8 -95.5 43t-29.5 89q0 45 17.5 73.5t44 46t58.5 24.5t63 9l2 4q-61 29 -106.5 99.5t-45.5 177.5q0 92 33 157.5t85 106.5t116.5 59.5t128.5 18.5q43 0 88 -4t88 -19h299v-65h-185l-2 -6q53 -41 78 -105.5t25 -136.5q0 -160 -107.5 -248 t-285.5 -88h-123q-39 0 -74 -3t-60.5 -13.5t-41 -27.5t-15.5 -48q0 -86 131 -86h281q184 0 267 -77t83 -208q0 -78 -34 -137t-93 -101t-141 -63.5t-178 -21.5q-117 0 -195 24.5t-124 64.5t-64.5 92t-18.5 109zM176 -137q0 -47 13.5 -90t50 -77t100 -53.5t166.5 -19.5 q76 0 140.5 17.5t110.5 49t72.5 79t26.5 106.5q0 37 -9 75t-39 70.5t-85 53t-145 20.5h-254q-35 -14 -63 -39.5t-46 -57.5t-28.5 -66.5t-10.5 -67.5zM215 672q0 -119 73.5 -191.5t190.5 -72.5q145 0 233.5 66.5t88.5 201.5q0 43 -14.5 91t-48 87t-91 64.5t-141.5 25.5 q-141 0 -216 -73.5t-75 -198.5z" />
<glyph unicode="h" horiz-adv-x="974" d="M121 0v1452h84v-293v-59.5t-1 -70.5t-2 -69.5t-1 -58.5l8 -6q104 55 203.5 86t171.5 31q98 0 152.5 -30t81 -74t31.5 -97t5 -102v-709h-86v678q0 57 -6 105t-26.5 83t-61.5 53.5t-109 18.5q-86 0 -184 -37t-176 -80v-821h-84z" />
<glyph unicode="i" horiz-adv-x="425" d="M145 1249q0 29 19.5 49.5t46.5 20.5q29 0 49.5 -20.5t20.5 -49.5q0 -27 -20.5 -46t-49.5 -19q-27 0 -46.5 19.5t-19.5 45.5zM170 0l2 997h82v-997h-84z" />
<glyph unicode="j" horiz-adv-x="442" d="M-53 -381q74 39 120 77t72.5 79t36.5 89t10 111l-2 1022h84v-1007q-2 -84 -15 -147.5t-47 -114t-90.5 -91t-142.5 -77.5q-4 10 -13 30.5t-13 28.5zM160 1249q0 29 19.5 49.5t45.5 20.5q29 0 49.5 -20.5t20.5 -49.5q0 -27 -20.5 -46t-49.5 -19q-27 0 -46 19t-19 46z" />
<glyph unicode="k" horiz-adv-x="849" d="M121 0v1450h84v-672l-4 -262q4 0 5 -1t3 -1l147 145l342 336h103l-395 -387l61 -82q12 -16 40 -57t63.5 -94t74.5 -111.5t75 -112t63.5 -94.5t39.5 -57h-96q-96 139 -189.5 277.5t-187.5 279.5q-35 -37 -72.5 -72.5t-72.5 -72.5v-412h-84z" />
<glyph unicode="l" horiz-adv-x="391" d="M152 0v1452h86v-1452h-86z" />
<glyph unicode="m" horiz-adv-x="1587" d="M123 0v997h80q0 -18 1 -48.5t1 -47.5q2 0 4 -2t4 -2q96 55 189.5 85t166.5 30q104 0 160.5 -35t81.5 -94q113 66 209 97.5t170 31.5q96 0 150.5 -27t82 -69t34.5 -92t7 -97v-727h-84v676q0 59 -5 107t-25.5 83t-61.5 53.5t-112 18.5q-41 0 -87.5 -10t-92.5 -27.5t-89 -38 t-80 -41.5q4 -27 6.5 -53.5t2.5 -48.5v-719h-86v686q0 57 -6.5 103.5t-27 79t-59.5 50t-104 17.5q-86 0 -178 -36t-168 -79v-821h-84z" />
<glyph unicode="n" horiz-adv-x="974" d="M123 0v997h82q0 -18 1 -47.5t1 -48.5q0 -2 2 -2t2 -1t2 -1q96 55 197.5 85t173.5 30q94 0 148 -25.5t81 -66.5t34 -91.5t7 -97.5v-731h-86v676q0 59 -4 107t-23.5 83t-60.5 53.5t-113 18.5q-41 0 -89 -10t-95 -27.5t-93 -38t-83 -41.5v-821h-84z" />
<glyph unicode="o" horiz-adv-x="1007" d="M100 487q0 96 21.5 189.5t71 167.5t128 120t193.5 46q117 0 193.5 -45t120.5 -119t61.5 -167t17.5 -187q0 -92 -17.5 -182.5t-63.5 -162t-124.5 -116.5t-199.5 -45q-117 0 -195 42t-124 111.5t-64.5 159.5t-18.5 188zM188 485q0 -84 12.5 -160.5t47.5 -136t98.5 -95.5 t167.5 -36q94 0 154.5 39t94.5 101.5t46 139t12 150.5t-11 154t-45 146.5t-93.5 109.5t-157.5 43t-160.5 -41t-99.5 -105.5t-51.5 -146.5t-14.5 -162z" />
<glyph unicode="p" horiz-adv-x="989" d="M121 -432v1429h78q0 -20 1 -53t1 -51l6 -6q72 55 154.5 89t168.5 34q100 0 169 -38t110 -104.5t59.5 -155.5t18.5 -194q0 -113 -20.5 -209t-66.5 -167.5t-120 -112.5t-178 -41q-59 0 -138 16t-161 64v-500h-82zM203 145q53 -35 132 -61.5t161 -26.5q63 0 118.5 23.5 t96.5 79t64.5 144.5t23.5 218q0 117 -20.5 197t-58.5 128t-92.5 68.5t-119.5 20.5q-37 0 -79 -10.5t-83 -28.5t-79 -42t-64 -50v-660z" />
<glyph unicode="q" horiz-adv-x="991" d="M102 494q0 106 20.5 200t67 165t123 112t189.5 41q109 0 199 -22.5t167 -57.5v-1364h-82l-2 266q0 59 1 118.5t1 119.5l-8 6q-102 -53 -176 -73.5t-139 -20.5q-104 0 -174 37.5t-111 106.5t-58.5 162t-17.5 204zM186 508q0 -131 19.5 -218t56.5 -139.5t89.5 -75 t115.5 -22.5q82 0 167 34t150 69v729q-76 33 -145.5 44t-130.5 11q-147 0 -233.5 -100.5t-88.5 -331.5z" />
<glyph unicode="r" horiz-adv-x="600" d="M143 0v997h86q0 -23 -2 -65.5t-2 -65.5l8 -2q29 25 71 52.5t86 50t86 37t73 14.5q12 0 22.5 -6t10.5 -27q0 -14 -8.5 -43t-20.5 -45q-12 -2 -59.5 -13.5t-101.5 -24.5t-101 -24.5t-60 -13.5v-821h-88z" />
<glyph unicode="s" horiz-adv-x="856" d="M88 59l31 62q86 -43 158.5 -55.5t128.5 -12.5q59 0 110 12.5t89 37t59.5 62.5t21.5 91q0 47 -21.5 81t-56.5 59.5t-80 43t-92 33.5q-61 20 -119.5 43t-103.5 54.5t-71.5 75.5t-26.5 106q0 70 25.5 119t70.5 79.5t103.5 45t123.5 14.5q47 0 124 -11.5t143 -44.5 q-4 -8 -13.5 -32.5t-13.5 -32.5q-72 29 -132.5 40t-109.5 11q-102 0 -170.5 -45t-68.5 -145q0 -41 23.5 -73t58 -55.5t76.5 -40t79 -28.5q61 -20 121.5 -42t108 -53.5t76 -79.5t28.5 -120t-28.5 -123t-78 -85t-115 -49t-136.5 -15q-86 0 -172 17t-150 56z" />
<glyph unicode="t" horiz-adv-x="655" d="M61 928v47l144 31l26 188l56 8v-205h291v-69h-291v-697q0 -37 6 -67.5t22.5 -53t47 -35t77.5 -12.5q74 0 191 35l16 -57q-49 -23 -106.5 -36t-114.5 -13q-47 0 -88 11t-70.5 35.5t-47 65.5t-17.5 101v723h-142z" />
<glyph unicode="u" horiz-adv-x="958" d="M123 281v716h84v-686q0 -61 5 -109t25.5 -82t60.5 -51.5t110 -17.5q68 0 164 37t182 115l-2 794h84v-997h-82v125l-6 4q-59 -49 -112.5 -79t-100 -45t-83 -20t-59.5 -5q-102 0 -156.5 28.5t-80 73.5t-29.5 98t-4 101z" />
<glyph unicode="v" horiz-adv-x="819" d="M27 995h88q51 -162 104 -326.5t107 -338.5q18 -61 37.5 -127t39.5 -127h9q14 45 35.5 115.5t46.5 146.5q53 166 108 335t103 322h88q-88 -262 -171 -509.5t-165 -485.5h-105q-78 242 -157.5 486.5t-167.5 508.5z" />
<glyph unicode="w" horiz-adv-x="1363" d="M27 997h86l166 -610l77 -305h9l90 324l172 591h86l207 -651l79 -264h9l71 274l172 641h86l-280 -997h-103l-198 621l-82 272h-6l-70 -250l-188 -643h-105z" />
<glyph unicode="x" horiz-adv-x="800" d="M16 0q84 131 165 263t167 263q-74 119 -148.5 236t-146.5 233h94l250 -407l250 407h92l-295 -465l338 -530h-96l-289 469l-288 -469h-93z" />
<glyph unicode="y" horiz-adv-x="858" d="M-16 -418l14 68q63 -12 97 -17.5t69 -5.5q27 0 51.5 3t45 17.5t39.5 45.5t38 86l72 223h-45q-8 25 -34 101.5t-59.5 179t-72.5 217t-74 217t-60.5 179.5t-33.5 101h84q4 -14 19.5 -62t37 -112.5t45 -137.5t45 -137.5l37.5 -112.5t20 -62l103 -316h8q4 10 13.5 39t22.5 72 t29.5 96t34.5 113l197 620h86q-6 -23 -25.5 -81t-46 -142t-59.5 -184.5t-65.5 -204.5t-65.5 -204.5t-60.5 -183.5t-46 -142.5t-26.5 -79.5q-33 -102 -83 -161.5t-149 -59.5q-31 2 -81 6t-121 22z" />
<glyph unicode="z" horiz-adv-x="811" d="M31 0v66l616 854l-4 6h-561v71h668v-73l-613 -848l4 -8l629 2v-70h-739z" />
<glyph unicode="{" horiz-adv-x="483" d="M63 582v57q45 8 73 31.5t42.5 56.5t19.5 71t5 76v340q0 35 6 74t22.5 71t45 52.5t73.5 20.5h80v-74h-45q-53 0 -74.5 -33t-21.5 -96v-359q0 -39 -5 -79.5t-17.5 -75.5t-35 -62.5t-57.5 -40.5q39 -20 62.5 -47.5t35 -61.5t14.5 -76t3 -91v-471q0 -27 2 -49.5t11 -40 t26.5 -27.5t46.5 -10h55v-72h-84q-43 0 -70.5 16.5t-44 43t-22.5 59.5t-6 65v498q0 33 -4 70t-17.5 70.5t-41 58t-77.5 35.5z" />
<glyph unicode="|" horiz-adv-x="430" d="M176 -279v1706h72v-1706h-72z" />
<glyph unicode="}" horiz-adv-x="483" d="M61 -262h56q57 0 70.5 37t13.5 90v471q0 100 18.5 167.5t97.5 108.5q-37 12 -59 40t-34.5 63t-17.5 75.5t-5 79.5v359q0 63 -20.5 96t-74.5 33h-45v74h78q45 0 74 -20.5t45 -52.5t22.5 -71t6.5 -74v-340q0 -39 5 -76.5t20.5 -70.5t42 -56.5t71.5 -31.5v-57 q-49 -10 -76.5 -35t-41 -58.5t-17.5 -70.5t-4 -70v-498q0 -33 -6.5 -65.5t-21.5 -59t-44 -43t-72 -16.5h-82v72z" />
<glyph unicode="~" d="M141 530q33 68 69 100t89 32q45 0 112.5 -12.5t138.5 -28t135.5 -27.5t102.5 -12l103 82l37 -27q-29 -66 -64 -97.5t-86 -31.5q-55 0 -121.5 12t-133 27.5t-128 28t-106.5 12.5l-107 -86z" />
<glyph unicode="&#xa1;" horiz-adv-x="403" d="M133 932q0 35 23.5 57.5t56.5 22.5q29 0 51.5 -22.5t22.5 -57.5q0 -31 -22.5 -52.5t-53.5 -21.5t-54.5 21.5t-23.5 52.5zM166 -426q0 12 1 60.5t1 112v136v136t1 110.5t1 61l14 469h54l12 -503v-48.5v-107.5t1 -136t1 -136.5v-106.5v-47h-86z" />
<glyph unicode="&#xa2;" d="M166 481q0 72 14.5 159t54 166t113.5 136t191 68v153h59v-151q72 0 139.5 -12.5t126.5 -36.5l-24 -68q-72 29 -133.5 37t-108.5 8v-883q74 2 137.5 19.5t141.5 50.5l22 -61q-57 -31 -135 -52.5t-166 -25.5v-168h-59v168q-104 6 -175 45t-115 104.5t-63.5 152.5t-19.5 191 zM252 483q0 -84 13.5 -157.5t46 -131t88 -93t139.5 -42.5v875q-147 -20 -217 -141.5t-70 -309.5z" />
<glyph unicode="&#xa3;" d="M96 0l2 74q47 20 79 62t50.5 95.5t27.5 111.5t11 112l10 204h-145v66h150l10 250q4 80 23.5 150.5t61.5 125t110.5 85t170.5 30.5q82 0 168 -14.5t144 -40.5l-27 -68q-82 29 -148.5 39t-131.5 10q-86 0 -141.5 -24.5t-86.5 -68.5t-44 -103.5t-17 -128.5l-11 -242h412v-66 h-416l-8 -204q-2 -53 -10 -108.5t-23.5 -108t-39 -96.5t-58.5 -70h733v-72h-856z" />
<glyph unicode="&#xa4;" horiz-adv-x="1054" d="M104 260l134 127q-53 61 -70.5 122.5t-17.5 115.5q0 61 19 124.5t69 116.5l-132 131l50 50l131 -129q104 86 241 86q66 0 126.5 -23t113.5 -63l131 129l49 -52l-135 -127q49 -59 68.5 -117.5t19.5 -121.5q0 -129 -88 -242l137 -123l-51 -55l-133 129 q-59 -49 -118.5 -67.5t-119.5 -18.5q-61 0 -120.5 18.5t-118.5 67.5l-133 -131zM217 627q0 -63 24.5 -119.5t66.5 -97.5t98.5 -66t119.5 -25q61 0 117.5 25t97.5 66t65.5 97t24.5 120q0 61 -24.5 117.5t-65.5 97.5t-96 65.5t-119 24.5q-63 0 -119.5 -24.5t-98.5 -65.5 t-66.5 -97.5t-24.5 -117.5z" />
<glyph unicode="&#xa5;" d="M92 1356h94q4 -10 20.5 -43t38 -77t46 -95t47 -95.5t39 -77t20.5 -42.5l127 -250h6q6 8 24.5 45t40 79t41 78.5t23.5 47.5q2 4 18.5 35.5t40 78.5t52.5 100.5t52.5 100.5t40 79t18.5 36h92q-8 -16 -38 -72.5t-70 -130.5t-85 -158t-84 -157.5t-68.5 -129t-37.5 -71.5h328 v-59h-779v59h324zM139 430v55h779v-55h-349v-430h-86l-2 430h-342z" />
<glyph unicode="&#xa6;" horiz-adv-x="430" d="M176 -279v795h72v-795h-72zM176 721v706h72v-706h-72z" />
<glyph unicode="&#xa7;" horiz-adv-x="913" d="M123 649q0 72 39 144.5t125 134.5q-76 51 -106.5 103t-30.5 116q0 70 25.5 124t71.5 91t109.5 55.5t139.5 18.5q96 0 157.5 -13.5t116.5 -29.5l-22 -68q-72 23 -128.5 33t-123.5 10q-47 0 -95.5 -12.5t-86.5 -38t-61.5 -67.5t-23.5 -103q0 -47 27 -83t70 -66.5t95 -56.5 t105 -50q150 -74 209.5 -142.5t59.5 -156.5q0 -131 -144 -262q53 -35 85 -71t48.5 -69.5t21.5 -61.5t5 -46q0 -80 -31.5 -138.5t-85 -96t-121 -55t-141.5 -17.5q-96 0 -163.5 15t-127.5 34l21 63q88 -27 149.5 -37t124.5 -10q59 0 113.5 14.5t94.5 44t63.5 72.5t23.5 101 q0 47 -19.5 85t-51 68.5t-74.5 55t-90 45.5q-66 29 -131.5 57.5t-120 64t-88 84t-33.5 117.5zM201 666q0 -61 35.5 -104.5t93 -75t126 -60.5t134.5 -64q68 61 97.5 120t29.5 106q0 49 -25.5 89t-73 75.5t-116 70.5t-156.5 76q-31 -25 -56.5 -54.5t-46 -60t-31.5 -61 t-11 -57.5z" />
<glyph unicode="&#xa8;" horiz-adv-x="956" d="M233 1241q0 29 18.5 46.5t43.5 17.5q29 0 47 -17.5t18 -46.5q0 -27 -18 -44t-47 -17q-27 0 -44.5 17t-17.5 44zM539 1241q0 29 18 46.5t43 17.5q29 0 47.5 -17.5t18.5 -46.5q0 -27 -18.5 -44t-47.5 -17q-27 0 -44 17t-17 44z" />
<glyph unicode="&#xa9;" horiz-adv-x="1687" d="M115 684q0 150 58 283t157.5 232t233.5 156.5t288 57.5q152 0 287 -57.5t236.5 -156.5t159.5 -232t58 -283q0 -152 -58 -285t-159.5 -232t-236.5 -156.5t-287 -57.5q-154 0 -288 57.5t-233.5 156.5t-157.5 232t-58 285zM172 684q0 -139 54.5 -261t146.5 -213t216 -144.5 t263 -53.5q141 0 265 53.5t216 144.5t145.5 213t53.5 261t-53.5 262t-145.5 214t-216 143.5t-265 52.5q-139 0 -263 -52.5t-216 -143.5t-146.5 -214t-54.5 -262zM446 668q0 78 18.5 170t66 172t130 134t211.5 54q82 0 144.5 -11t103.5 -28l-18 -61q-61 23 -117.5 31 t-107.5 8q-90 0 -157 -34t-111 -95.5t-66.5 -148.5t-22.5 -193q0 -90 14.5 -171t54.5 -142.5t108.5 -98.5t179.5 -37q43 0 112.5 8t128.5 27l17 -55q-47 -20 -124 -31.5t-145 -11.5q-113 0 -192.5 35.5t-129.5 102t-74 162t-24 214.5z" />
<glyph unicode="&#xaa;" horiz-adv-x="659" d="M39 723q0 47 18.5 82t49 58.5t72.5 35.5t91 16t100.5 6.5t100.5 4.5v51q0 92 -31.5 132t-122.5 40q-51 0 -106 -12.5t-111 -32.5l-20 55q63 25 128.5 38t123.5 13q104 0 158.5 -48t54.5 -169v-381h96l4 -51q-27 -10 -56.5 -15t-49.5 -5q-41 0 -53.5 20.5t-16.5 56.5 q-43 -29 -78 -45t-64.5 -24t-52 -10t-36.5 -2q-59 0 -98.5 17t-62 44t-30.5 60.5t-8 64.5zM115 729q0 -131 143 -131q47 0 102.5 23.5t110.5 62.5v184q-47 -2 -93 -4t-93 -6q-80 -4 -125 -37t-45 -92z" />
<glyph unicode="&#xab;" horiz-adv-x="788" d="M135 338v68l283 299l39 -33l-228 -301l230 -299l-39 -33zM369 338v68l282 299l39 -33l-229 -301l231 -299l-39 -33z" />
<glyph unicode="&#xac;" d="M156 571v72h751v-418h-73v346h-678z" />
<glyph unicode="&#xad;" horiz-adv-x="684" d="M104 481v80h476v-80h-476z" />
<glyph unicode="&#xae;" horiz-adv-x="1163" d="M94 971q0 98 38 184t102.5 150.5t151.5 102.5t185 38t185.5 -38t153 -102.5t103.5 -150.5t38 -184q0 -100 -38 -186.5t-103.5 -150t-152.5 -99t-186 -35.5q-98 0 -185 34.5t-151.5 98t-102.5 149.5t-38 189zM145 971q0 -90 33 -168t90.5 -134.5t135 -89t167.5 -32.5 t168 31.5t136.5 88t92 134.5t33.5 170q0 88 -33.5 165.5t-92 136t-137.5 92.5t-167 34t-164.5 -34t-135 -92.5t-92.5 -136t-34 -165.5zM412 678v594h182q78 0 130 -38t52 -124q0 -43 -23.5 -91t-95.5 -71l125 -270h-63l-121 266h-129v-266h-57zM469 991h127q47 0 84 22.5 t37 94.5q0 66 -36 91.5t-85 25.5h-127v-234z" />
<glyph unicode="&#xaf;" horiz-adv-x="976" d="M174 1225v75h612v-75h-612z" />
<glyph unicode="&#xb0;" horiz-adv-x="684" d="M94 1116q0 49 19.5 94t53.5 80t80 55.5t97 20.5t95 -20.5t77 -55.5t52.5 -80t19.5 -94q0 -51 -19.5 -96t-52.5 -78t-77 -51.5t-95 -18.5q-119 0 -184.5 70t-65.5 174zM156 1114q0 -37 14 -69.5t40 -58t59.5 -40t70.5 -14.5t69.5 14.5t58.5 40t41 58t15 69.5t-15 72 t-41 60.5t-58.5 41t-69.5 15.5t-70.5 -15.5t-59.5 -41t-40 -60.5t-14 -72z" />
<glyph unicode="&#xb1;" d="M147 29v69h766v-69h-766zM156 569v74h340v332h73v-332h338v-74h-338v-342h-73v342h-340z" />
<glyph unicode="&#xb2;" horiz-adv-x="690" d="M35 729v55q82 70 164 140.5t147.5 139.5t105.5 135.5t40 127.5q0 82 -53.5 118t-131.5 36q-49 0 -108.5 -17.5t-122.5 -54.5l-31 55q68 45 138.5 63.5t129.5 18.5q53 0 100.5 -12t82 -38t55 -65.5t20.5 -95.5q0 -74 -46 -151.5t-111.5 -149t-138 -134t-125.5 -107.5h452 v-64h-567z" />
<glyph unicode="&#xb3;" horiz-adv-x="690" d="M37 764q6 16 12 29.5t10 29.5q84 -27 142.5 -33t95.5 -6q51 0 94 12.5t76 37t51.5 62.5t18.5 89q0 82 -69 125t-181 43q-49 0 -92 -6l-25 45q76 70 149.5 140.5t147.5 140.5l-393 2v63h501l15 -47l-299 -277h22q59 0 113.5 -13t95.5 -40.5t65.5 -72t24.5 -105.5 q0 -66 -24.5 -115t-66.5 -81.5t-98 -50t-118 -17.5q-152 0 -268 45z" />
<glyph unicode="&#xb4;" horiz-adv-x="968" d="M311 1157l219 303l74 -63l-250 -275z" />
<glyph unicode="&#xb5;" horiz-adv-x="962" d="M121 -432v1429h84v-704q0 -61 8 -106.5t32.5 -75t67.5 -45t113 -15.5q61 0 153.5 38t176.5 114v794h82v-997h-82v129l-4 2q-59 -51 -110.5 -81t-96.5 -45t-82 -19t-64 -4q-63 0 -108 11t-76 42l-10 -2v-465h-84z" />
<glyph unicode="&#xb6;" horiz-adv-x="964" d="M115 1081q0 70 25.5 131.5t69.5 107.5t104.5 73.5t129.5 27.5h340v-1775h-71v1706h-158v-1706h-74v1108h-37q-72 0 -132 25.5t-104 69.5t-68.5 104.5t-24.5 127.5z" />
<glyph unicode="&#xb7;" horiz-adv-x="337" d="M96 575q0 31 23.5 54.5t56.5 23.5q29 0 53.5 -23.5t24.5 -54.5q0 -33 -24.5 -56t-53.5 -23q-31 0 -55.5 23.5t-24.5 55.5z" />
<glyph unicode="&#xb8;" horiz-adv-x="1038" d="M420 -444q145 10 203.5 52t58.5 95q0 47 -48 71.5t-118 24.5h-53q-14 16 -21 31q43 53 84 105.5t86 103.5l39 -27q-31 -39 -63.5 -77.5t-63.5 -79.5q102 0 172 -33t70 -113t-82 -140.5t-262 -60.5q0 12 -1 23.5t-1 24.5z" />
<glyph unicode="&#xb9;" horiz-adv-x="690" d="M109 1483l231 57h70v-811h-76v731l-217 -30z" />
<glyph unicode="&#xba;" horiz-adv-x="686" d="M61 868q0 63 14.5 125t48.5 111t89 78.5t135 29.5q82 0 136.5 -29.5t85 -77.5t43 -110t12.5 -125q0 -59 -12.5 -119.5t-44 -107.5t-86 -76.5t-140.5 -29.5q-84 0 -137 27.5t-86 73.5t-45.5 106.5t-12.5 123.5zM137 868q0 -51 7.5 -99t31 -85t64.5 -59.5t108 -22.5 q63 0 102 24.5t60.5 62.5t30 85t8.5 94q0 45 -7 95.5t-28.5 92.5t-61.5 69.5t-104 27.5q-63 0 -104 -25.5t-64.5 -67.5t-33 -92t-9.5 -100z" />
<glyph unicode="&#xbb;" horiz-adv-x="788" d="M119 72l229 299l-227 301l39 33l282 -299v-68l-284 -299zM352 72l230 299l-230 301l41 33l281 -299v-68l-283 -299z" />
<glyph unicode="&#xbc;" horiz-adv-x="1597" d="M162 1298l231 58h70v-811h-76v731l-217 -31zM434 -47l580 1477h65l-575 -1477h-70zM803 231v58q37 47 95 116.5t121.5 144.5t122 144.5t97.5 116.5h74v-518h129v-62h-129v-231h-78l2 231h-434zM889 293h348v416h-2q-35 -41 -80 -95.5t-92 -112t-93 -112.5t-81 -96z" />
<glyph unicode="&#xbd;" horiz-adv-x="1597" d="M147 1298l232 58h70v-811h-76v731l-217 -31zM367 -47l579 1477h66l-576 -1477h-69zM881 0v55q78 66 158.5 135.5t147 139t108.5 137.5t42 131q0 82 -53 118t-131 36q-49 0 -108.5 -17.5t-122.5 -54.5l-31 55q68 43 138.5 62.5t129.5 19.5q53 0 100.5 -12t82 -38t55 -67 t20.5 -96q0 -74 -46 -150.5t-111.5 -148.5t-138 -134t-126.5 -108h453v-63h-567z" />
<glyph unicode="&#xbe;" horiz-adv-x="1597" d="M94 580q6 16 12.5 29.5t10.5 29.5q84 -27 142 -33t95 -6q51 0 94.5 12.5t76 37t51 62.5t18.5 89q0 82 -68.5 125t-181.5 43q-49 0 -92 -6l-25 45q76 70 150 140.5t147 139.5l-393 2v64h502l14 -47l-299 -277h23q59 0 113.5 -13t95.5 -41t65.5 -72t24.5 -105 q0 -66 -24.5 -115t-66.5 -82t-98.5 -50t-118.5 -17q-152 0 -268 45zM522 -47l580 1477h65l-575 -1477h-70zM883 231v58q37 47 95 116.5t121.5 144.5t122 144.5t97.5 116.5h74v-518h129v-62h-129v-231h-78l2 231h-434zM969 293h348v416h-2q-35 -41 -80 -95.5t-92 -112 t-93 -112.5t-81 -96z" />
<glyph unicode="&#xbf;" horiz-adv-x="847" d="M68 -182q0 96 56 168.5t130 132.5q74 57 126 105t86 92t49 86t15 90q0 66 -18 149l74 14q12 -59 17 -103t5 -73q0 -98 -64.5 -189t-201.5 -202q-86 -66 -134 -124t-48 -138q0 -53 20.5 -90t56 -59.5t84 -33t105.5 -10.5q63 0 143 11.5t187 44.5l18 -68q-92 -33 -182 -48 t-162 -15q-180 0 -270 68.5t-92 191.5zM434 936q0 33 22.5 55.5t51.5 22.5q31 0 54.5 -22.5t23.5 -55.5q0 -31 -22.5 -52.5t-53.5 -21.5t-53.5 21.5t-22.5 52.5z" />
<glyph unicode="&#xc0;" horiz-adv-x="1093" d="M35 0l452 1397h117l453 -1397h-92q-33 98 -64 195.5t-63 195.5h-588q-33 -98 -62.5 -195.5t-60.5 -195.5h-92zM274 465h541l-182 573q-23 70 -43.5 137.5t-42.5 139.5h-6q-41 -141 -86 -277zM301 1743l74 65l219 -303l-45 -35z" />
<glyph unicode="&#xc1;" horiz-adv-x="1093" d="M35 0l452 1397h117l453 -1397h-92q-33 98 -64 195.5t-63 195.5h-588q-33 -98 -62.5 -195.5t-60.5 -195.5h-92zM274 465h541l-182 573q-23 70 -43.5 137.5t-42.5 139.5h-6q-41 -141 -86 -277zM500 1503l219 305l74 -65l-248 -273z" />
<glyph unicode="&#xc2;" horiz-adv-x="1093" d="M35 0l452 1397h117l453 -1397h-92q-33 98 -64 195.5t-63 195.5h-588q-33 -98 -62.5 -195.5t-60.5 -195.5h-92zM231 1487l277 260h74l278 -258l-31 -35l-284 201l-283 -203zM274 465h541l-182 573q-23 70 -43.5 137.5t-42.5 139.5h-6q-41 -141 -86 -277z" />
<glyph unicode="&#xc3;" horiz-adv-x="1093" d="M35 0l452 1397h117l453 -1397h-92q-33 98 -64 195.5t-63 195.5h-588q-33 -98 -62.5 -195.5t-60.5 -195.5h-92zM254 1552q20 57 60 92t89 35q33 0 73 -12t80 -25.5t78 -25.5t66 -12l101 82l35 -25q-20 -53 -56.5 -91t-85.5 -38q-33 0 -73.5 12t-81.5 27.5t-79 28t-65 12.5 l-104 -84zM274 465h541l-182 573q-23 70 -43.5 137.5t-42.5 139.5h-6q-41 -141 -86 -277z" />
<glyph unicode="&#xc4;" horiz-adv-x="1093" d="M35 0l452 1397h117l453 -1397h-92q-33 98 -64 195.5t-63 195.5h-588q-33 -98 -62.5 -195.5t-60.5 -195.5h-92zM274 465h541l-182 573q-23 70 -43.5 137.5t-42.5 139.5h-6q-41 -141 -86 -277zM330 1556q0 27 18.5 45.5t42.5 18.5q29 0 47.5 -18.5t18.5 -45.5 q0 -29 -18.5 -46t-47.5 -17q-27 0 -44 17.5t-17 45.5zM635 1556q0 27 18.5 45.5t42.5 18.5q29 0 47.5 -18.5t18.5 -45.5q0 -29 -18.5 -46t-47.5 -17q-27 0 -44 17.5t-17 45.5z" />
<glyph unicode="&#xc5;" horiz-adv-x="1093" d="M35 0l452 1397h117l453 -1397h-92q-33 98 -64 195.5t-63 195.5h-588q-33 -98 -62.5 -195.5t-60.5 -195.5h-92zM274 465h541l-182 573q-23 70 -43.5 137.5t-42.5 139.5h-6q-41 -141 -86 -277zM356 1626q0 74 53.5 128t135.5 54t132 -53t50 -129t-51 -128t-131 -52 q-86 0 -137.5 53t-51.5 127zM420 1622q0 -55 32.5 -89t92.5 -34q55 0 88 34t33 89t-33 91t-88 36q-59 0 -92 -35t-33 -92z" />
<glyph unicode="&#xc6;" horiz-adv-x="1806" d="M20 0l891 1399h783v-74h-643l-2 -547h555v-73h-555v-631h680v-74h-771l3 408h-582l-258 -408h-101zM424 483h537v834h-9z" />
<glyph unicode="&#xc7;" horiz-adv-x="1136" d="M123 690q0 113 23.5 241t86 236.5t173 180t284.5 71.5q111 0 200 -15t146 -38l-22 -72q-78 25 -161 37t-155 12q-127 0 -218 -47t-150.5 -133t-87 -206.5t-27.5 -270.5q0 -119 17.5 -231.5t68.5 -199.5t146.5 -140.5t248.5 -53.5q27 0 69 3.5t89 8.5t96 14t90 22l21 -66 q-33 -12 -77 -22.5t-93 -17.5t-99.5 -12t-93.5 -5q-29 -35 -57.5 -70t-56.5 -72q102 0 171.5 -32.5t69.5 -112.5t-81.5 -140.5t-262.5 -60.5q0 12 -1 23.5t-1 23.5q145 10 203.5 52.5t58.5 95.5q0 47 -48 71.5t-118 24.5h-53q-14 16 -20 31l133 168q-141 6 -238.5 58 t-158 143.5t-88 218.5t-27.5 282z" />
<glyph unicode="&#xc8;" horiz-adv-x="1048" d="M164 0v1399h776v-74h-686v-547h594v-73h-594v-631h721v-74h-811zM356 1743l74 65l219 -303l-45 -35z" />
<glyph unicode="&#xc9;" horiz-adv-x="1048" d="M164 0v1399h776v-74h-686v-547h594v-73h-594v-631h721v-74h-811zM479 1503l219 305l74 -65l-248 -273z" />
<glyph unicode="&#xca;" horiz-adv-x="1048" d="M164 0v1399h776v-74h-686v-547h594v-73h-594v-631h721v-74h-811zM229 1509l277 260h74l278 -258l-31 -34l-284 200l-283 -202z" />
<glyph unicode="&#xcb;" horiz-adv-x="1048" d="M164 0v1399h776v-74h-686v-547h594v-73h-594v-631h721v-74h-811zM342 1567q0 27 18.5 45t42.5 18q29 0 47.5 -18t18.5 -45q0 -29 -18.5 -46.5t-47.5 -17.5q-27 0 -44 17.5t-17 46.5zM647 1567q0 27 18.5 45t43.5 18q29 0 47 -18t18 -45q0 -29 -18.5 -46.5t-46.5 -17.5 q-27 0 -44.5 17.5t-17.5 46.5z" />
<glyph unicode="&#xcc;" horiz-adv-x="456" d="M-23 1743l74 65l219 -303l-45 -35zM184 0v1399h88v-1399h-88z" />
<glyph unicode="&#xcd;" horiz-adv-x="456" d="M174 1503l219 305l74 -65l-248 -273zM184 0v1399h88v-1399h-88z" />
<glyph unicode="&#xce;" horiz-adv-x="456" d="M-86 1491l276 260h74l279 -258l-31 -35l-285 201l-282 -203zM184 0v1399h88v-1399h-88z" />
<glyph unicode="&#xcf;" horiz-adv-x="456" d="M16 1571q0 27 18.5 45t43.5 18q29 0 47 -18t18 -45q0 -29 -18.5 -46.5t-46.5 -17.5q-27 0 -44.5 17.5t-17.5 46.5zM184 0v1399h88v-1399h-88zM322 1571q0 27 18 45t43 18q29 0 47.5 -18t18.5 -45q0 -29 -18.5 -46.5t-47.5 -17.5q-27 0 -44 17.5t-17 46.5z" />
<glyph unicode="&#xd0;" horiz-adv-x="1249" d="M31 700v68h133v631h416q162 0 267 -56.5t167.5 -151.5t87 -222t24.5 -267q0 -145 -26.5 -272t-92 -223t-175 -151.5t-275.5 -55.5h-393v700h-133zM254 76h289q31 0 79 3t102 19.5t109.5 53t100.5 104.5t72.5 172t27.5 258q0 156 -25.5 264.5t-66.5 179t-93 110.5 t-105.5 58.5t-101.5 22.5t-83 4h-305v-557h399v-68h-399v-624z" />
<glyph unicode="&#xd1;" horiz-adv-x="1318" d="M164 0v1399h94l662 -1026l137 -215h8v1241h90l-2 -1399h-88l-653 1010l-152 243q-2 0 -4 -1t-4 -1v-1251h-88zM379 1546q20 57 60 92t89 35q33 0 73 -12t80 -25.5t78 -26t66 -12.5l101 82l35 -24q-20 -53 -56.5 -91t-85.5 -38q-33 0 -73.5 12t-81.5 27.5t-79 28t-65 12.5 l-104 -84z" />
<glyph unicode="&#xd2;" horiz-adv-x="1357" d="M123 686q0 143 28.5 275.5t94 233.5t175 162.5t271.5 61.5q164 0 269.5 -61.5t166 -162.5t84 -232.5t23.5 -270.5q0 -152 -34 -279.5t-102.5 -222t-170 -148.5t-236.5 -56q-158 0 -266.5 48t-176 139t-97 220t-29.5 293zM215 682q0 -305 110.5 -465t356.5 -160 q117 0 204 49.5t143 135.5t84 200.5t28 243.5q0 109 -16.5 225.5t-63.5 214t-136 160t-233 62.5q-145 0 -237.5 -57.5t-145.5 -152t-73.5 -213t-20.5 -243.5zM453 1743l73 65l219 -303l-45 -35z" />
<glyph unicode="&#xd3;" horiz-adv-x="1357" d="M123 686q0 143 28.5 275.5t94 233.5t175 162.5t271.5 61.5q164 0 269.5 -61.5t166 -162.5t84 -232.5t23.5 -270.5q0 -152 -34 -279.5t-102.5 -222t-170 -148.5t-236.5 -56q-158 0 -266.5 48t-176 139t-97 220t-29.5 293zM215 682q0 -305 110.5 -465t356.5 -160 q117 0 204 49.5t143 135.5t84 200.5t28 243.5q0 109 -16.5 225.5t-63.5 214t-136 160t-233 62.5q-145 0 -237.5 -57.5t-145.5 -152t-73.5 -213t-20.5 -243.5zM641 1503l219 305l74 -65l-248 -273z" />
<glyph unicode="&#xd4;" horiz-adv-x="1357" d="M123 686q0 143 28.5 275.5t94 233.5t175 162.5t271.5 61.5q164 0 269.5 -61.5t166 -162.5t84 -232.5t23.5 -270.5q0 -152 -34 -279.5t-102.5 -222t-170 -148.5t-236.5 -56q-158 0 -266.5 48t-176 139t-97 220t-29.5 293zM215 682q0 -305 110.5 -465t356.5 -160 q117 0 204 49.5t143 135.5t84 200.5t28 243.5q0 109 -16.5 225.5t-63.5 214t-136 160t-233 62.5q-145 0 -237.5 -57.5t-145.5 -152t-73.5 -213t-20.5 -243.5zM383 1509l276 260h74l279 -258l-31 -34l-285 200l-282 -202z" />
<glyph unicode="&#xd5;" horiz-adv-x="1357" d="M123 686q0 143 28.5 275.5t94 233.5t175 162.5t271.5 61.5q164 0 269.5 -61.5t166 -162.5t84 -232.5t23.5 -270.5q0 -152 -34 -279.5t-102.5 -222t-170 -148.5t-236.5 -56q-158 0 -266.5 48t-176 139t-97 220t-29.5 293zM215 682q0 -305 110.5 -465t356.5 -160 q117 0 204 49.5t143 135.5t84 200.5t28 243.5q0 109 -16.5 225.5t-63.5 214t-136 160t-233 62.5q-145 0 -237.5 -57.5t-145.5 -152t-73.5 -213t-20.5 -243.5zM401 1587q20 57 60.5 92t89.5 35q33 0 73 -12t79.5 -25.5t77.5 -26t67 -12.5l100 82l35 -24q-20 -53 -56 -91 t-85 -38q-33 0 -74 12t-82 27.5t-79 28t-64 12.5l-105 -84z" />
<glyph unicode="&#xd6;" horiz-adv-x="1357" d="M123 686q0 143 28.5 275.5t94 233.5t175 162.5t271.5 61.5q164 0 269.5 -61.5t166 -162.5t84 -232.5t23.5 -270.5q0 -152 -34 -279.5t-102.5 -222t-170 -148.5t-236.5 -56q-158 0 -266.5 48t-176 139t-97 220t-29.5 293zM215 682q0 -305 110.5 -465t356.5 -160 q117 0 204 49.5t143 135.5t84 200.5t28 243.5q0 109 -16.5 225.5t-63.5 214t-136 160t-233 62.5q-145 0 -237.5 -57.5t-145.5 -152t-73.5 -213t-20.5 -243.5zM479 1591q0 27 18.5 45.5t43.5 18.5q29 0 47 -18.5t18 -45.5q0 -29 -18.5 -46t-46.5 -17q-27 0 -44.5 17.5 t-17.5 45.5zM784 1591q0 27 18.5 45.5t43.5 18.5q29 0 47 -18.5t18 -45.5q0 -29 -18.5 -46t-46.5 -17q-27 0 -44.5 17.5t-17.5 45.5z" />
<glyph unicode="&#xd7;" horiz-adv-x="1103" d="M236 842l51 51l258 -258l243 256l54 -53l-244 -256l258 -256l-51 -52l-256 258l-256 -260l-53 54l254 258z" />
<glyph unicode="&#xd8;" horiz-adv-x="1316" d="M102 -10l131 178q-70 90 -100.5 221t-30.5 297q0 143 29 275.5t94.5 233.5t175 162.5t271.5 61.5q129 0 219 -39t151 -104l107 145h74l-140 -190q74 -104 102.5 -244.5t28.5 -294.5q0 -152 -33.5 -279.5t-102 -222t-170 -148.5t-236.5 -56q-266 0 -402 139l-98 -135h-70z M195 682q0 -141 23.5 -250.5t72.5 -187.5l698 960q-51 66 -129 105t-188 39q-145 0 -237.5 -57.5t-145.5 -152t-73.5 -213t-20.5 -243.5zM324 195q113 -137 338 -138q117 0 203.5 49.5t143 135.5t84 200.5t27.5 243.5q0 117 -19.5 242t-78.5 225z" />
<glyph unicode="&#xd9;" horiz-adv-x="1325" d="M160 494v905h86l2 -901q0 -438 414 -439q205 0 310 111t105 328v901h90v-905q0 -113 -31.5 -206t-94 -161t-158 -104.5t-224.5 -36.5q-262 0 -380.5 135t-118.5 373zM442 1743l74 65l219 -303l-45 -35z" />
<glyph unicode="&#xda;" horiz-adv-x="1325" d="M160 494v905h86l2 -901q0 -438 414 -439q205 0 310 111t105 328v901h90v-905q0 -113 -31.5 -206t-94 -161t-158 -104.5t-224.5 -36.5q-262 0 -380.5 135t-118.5 373zM586 1503l219 305l74 -65l-248 -273z" />
<glyph unicode="&#xdb;" horiz-adv-x="1325" d="M160 494v905h86l2 -901q0 -438 414 -439q205 0 310 111t105 328v901h90v-905q0 -113 -31.5 -206t-94 -161t-158 -104.5t-224.5 -36.5q-262 0 -380.5 135t-118.5 373zM330 1509l288 254h76l289 -252l-31 -34l-297 196l-293 -198z" />
<glyph unicode="&#xdc;" horiz-adv-x="1325" d="M160 494v905h86l2 -901q0 -438 414 -439q205 0 310 111t105 328v901h90v-905q0 -113 -31.5 -206t-94 -161t-158 -104.5t-224.5 -36.5q-262 0 -380.5 135t-118.5 373zM449 1567q0 27 18 45t43 18q29 0 47 -18t18 -45q0 -29 -18 -46.5t-47 -17.5q-27 0 -44 17.5t-17 46.5z M754 1567q0 27 18.5 45t42.5 18q29 0 47.5 -18t18.5 -45q0 -29 -18.5 -46.5t-47.5 -17.5q-27 0 -44 17.5t-17 46.5z" />
<glyph unicode="&#xdd;" horiz-adv-x="980" d="M27 1399h98l233 -443l121 -239h8l121 227l248 455h96l-422 -760v-639h-92v633zM420 1491l219 305l74 -65l-248 -273z" />
<glyph unicode="&#xde;" horiz-adv-x="1040" d="M164 0v1399h90v-262h328q84 0 158.5 -23.5t130 -72t87 -122.5t31.5 -174q0 -61 -16.5 -132.5t-60.5 -132t-119.5 -101.5t-194.5 -41h-344v-338h-90zM254 412h338q55 0 109.5 15t98.5 52t70.5 100.5t26.5 159.5q0 82 -24.5 142.5t-66.5 100.5t-98.5 59.5t-121.5 19.5h-332 v-649z" />
<glyph unicode="&#xdf;" horiz-adv-x="1122" d="M61 805v67h152v244q0 45 13.5 105.5t51 114t104.5 91t175 37.5q90 0 150.5 -24.5t96.5 -60.5t51 -77.5t15 -78.5q0 -74 -35.5 -128.5t-79.5 -99.5t-80 -87t-36 -91q0 -29 15.5 -58.5t42 -61t61.5 -63.5t73 -63q41 -33 81 -67.5t71 -74.5t50.5 -90t19.5 -114 q0 -43 -16.5 -87t-52.5 -81t-93 -60.5t-143 -23.5q-72 0 -148 13.5t-127 33.5l23 70q104 -37 162.5 -43t93.5 -6q106 0 160.5 54.5t54.5 125.5v4q0 49 -15.5 87t-40 71t-55.5 60.5t-59 54.5q-41 35 -84 72.5t-79 76.5t-59.5 81t-23.5 85q0 55 36 104.5t80 96.5t79.5 94 t35.5 100q0 12 -3 43t-25.5 63t-70.5 55.5t-136 23.5q-63 0 -110.5 -21.5t-79 -58.5t-47 -86t-15.5 -103v-1124h-82v805h-152z" />
<glyph unicode="&#xe0;" horiz-adv-x="1007" d="M82 260q0 70 25.5 122t70.5 88t108.5 55.5t139.5 23.5q12 0 55 3t93.5 5t93.5 4t53 2v92q0 76 -10.5 129.5t-38 87t-73.5 49t-116 15.5q-76 0 -155.5 -17.5t-155.5 -46.5l-22 62q86 35 178 54.5t174 19.5q147 0 225 -73t78 -249v-614h135q4 -12 4 -25.5t2 -26.5 q-35 -16 -71.5 -22t-65.5 -6q-59 0 -74.5 29.5t-15.5 93.5l-4 2q-66 -49 -120 -76t-99 -38t-79 -13t-59 -2q-82 0 -135 25.5t-85 65.5t-44 88t-12 93zM170 270q0 -215 225 -215q76 0 157 38t169 110v297l-299 -17q-123 -6 -187.5 -62t-64.5 -151zM266 1397l76 65l219 -303 l-45 -37z" />
<glyph unicode="&#xe1;" horiz-adv-x="1007" d="M82 260q0 70 25.5 122t70.5 88t108.5 55.5t139.5 23.5q12 0 55 3t93.5 5t93.5 4t53 2v92q0 76 -10.5 129.5t-38 87t-73.5 49t-116 15.5q-76 0 -155.5 -17.5t-155.5 -46.5l-22 62q86 35 178 54.5t174 19.5q147 0 225 -73t78 -249v-614h135q4 -12 4 -25.5t2 -26.5 q-35 -16 -71.5 -22t-65.5 -6q-59 0 -74.5 29.5t-15.5 93.5l-4 2q-66 -49 -120 -76t-99 -38t-79 -13t-59 -2q-82 0 -135 25.5t-85 65.5t-44 88t-12 93zM170 270q0 -215 225 -215q76 0 157 38t169 110v297l-299 -17q-123 -6 -187.5 -62t-64.5 -151zM408 1157l219 303l73 -63 l-249 -275z" />
<glyph unicode="&#xe2;" horiz-adv-x="1007" d="M82 260q0 70 25.5 122t70.5 88t108.5 55.5t139.5 23.5q12 0 55 3t93.5 5t93.5 4t53 2v92q0 76 -10.5 129.5t-38 87t-73.5 49t-116 15.5q-76 0 -155.5 -17.5t-155.5 -46.5l-22 62q86 35 178 54.5t174 19.5q147 0 225 -73t78 -249v-614h135q4 -12 4 -25.5t2 -26.5 q-35 -16 -71.5 -22t-65.5 -6q-59 0 -74.5 29.5t-15.5 93.5l-4 2q-66 -49 -120 -76t-99 -38t-79 -13t-59 -2q-82 0 -135 25.5t-85 65.5t-44 88t-12 93zM170 270q0 -215 225 -215q76 0 157 38t169 110v297l-299 -17q-123 -6 -187.5 -62t-64.5 -151zM186 1149l277 264h74 l276 -262l-29 -35l-284 205l-285 -207z" />
<glyph unicode="&#xe3;" horiz-adv-x="1007" d="M82 260q0 70 25.5 122t70.5 88t108.5 55.5t139.5 23.5q12 0 55 3t93.5 5t93.5 4t53 2v92q0 76 -10.5 129.5t-38 87t-73.5 49t-116 15.5q-76 0 -155.5 -17.5t-155.5 -46.5l-22 62q86 35 178 54.5t174 19.5q147 0 225 -73t78 -249v-614h135q4 -12 4 -25.5t2 -26.5 q-35 -16 -71.5 -22t-65.5 -6q-59 0 -74.5 29.5t-15.5 93.5l-4 2q-66 -49 -120 -76t-99 -38t-79 -13t-59 -2q-82 0 -135 25.5t-85 65.5t-44 88t-12 93zM170 270q0 -215 225 -215q76 0 157 38t169 110v297l-299 -17q-123 -6 -187.5 -62t-64.5 -151zM199 1208q20 57 60 92 t89 35q33 0 73 -12t80 -25.5t77.5 -25.5t66.5 -12l100 81l35 -24q-20 -53 -56 -91t-85 -38q-33 0 -74 12t-82 27.5t-78.5 28t-64.5 12.5l-104 -84z" />
<glyph unicode="&#xe4;" horiz-adv-x="1007" d="M82 260q0 70 25.5 122t70.5 88t108.5 55.5t139.5 23.5q12 0 55 3t93.5 5t93.5 4t53 2v92q0 76 -10.5 129.5t-38 87t-73.5 49t-116 15.5q-76 0 -155.5 -17.5t-155.5 -46.5l-22 62q86 35 178 54.5t174 19.5q147 0 225 -73t78 -249v-614h135q4 -12 4 -25.5t2 -26.5 q-35 -16 -71.5 -22t-65.5 -6q-59 0 -74.5 29.5t-15.5 93.5l-4 2q-66 -49 -120 -76t-99 -38t-79 -13t-59 -2q-82 0 -135 25.5t-85 65.5t-44 88t-12 93zM170 270q0 -215 225 -215q76 0 157 38t169 110v297l-299 -17q-123 -6 -187.5 -62t-64.5 -151zM289 1241q0 29 18.5 46.5 t42.5 17.5q29 0 47.5 -17.5t18.5 -46.5q0 -27 -18.5 -44t-47.5 -17q-27 0 -44 17t-17 44zM594 1241q0 29 18.5 46.5t42.5 17.5q29 0 47.5 -17.5t18.5 -46.5q0 -27 -18.5 -44t-47.5 -17q-27 0 -44 17t-17 44z" />
<glyph unicode="&#xe5;" horiz-adv-x="1007" d="M82 260q0 70 25.5 122t70.5 88t108.5 55.5t139.5 23.5q12 0 55 3t93.5 5t93.5 4t53 2v92q0 76 -10.5 129.5t-38 87t-73.5 49t-116 15.5q-76 0 -155.5 -17.5t-155.5 -46.5l-22 62q86 35 178 54.5t174 19.5q147 0 225 -73t78 -249v-614h135q4 -12 4 -25.5t2 -26.5 q-35 -16 -71.5 -22t-65.5 -6q-59 0 -74.5 29.5t-15.5 93.5l-4 2q-66 -49 -120 -76t-99 -38t-79 -13t-59 -2q-82 0 -135 25.5t-85 65.5t-44 88t-12 93zM170 270q0 -215 225 -215q76 0 157 38t169 110v297l-299 -17q-123 -6 -187.5 -62t-64.5 -151zM328 1300q0 74 53 128.5 t135 54.5t132 -53.5t50 -129.5t-51 -128t-131 -52q-86 0 -137 53.5t-51 126.5zM391 1296q0 -55 33 -88.5t92 -33.5q55 0 88 33.5t33 88.5t-33 91t-88 36q-59 0 -92 -34.5t-33 -92.5z" />
<glyph unicode="&#xe6;" horiz-adv-x="1572" d="M76 262q0 70 24.5 123t68.5 90t105.5 55.5t133.5 18.5h313v108q0 152 -52.5 216.5t-191.5 64.5q-76 0 -156.5 -18.5t-154.5 -45.5l-23 62q86 35 177.5 54.5t175.5 19.5q121 0 193.5 -51.5t94.5 -170.5q20 45 49 85t71 71t96 48.5t126 17.5q94 0 159 -29t106 -74 t62.5 -100t30.5 -108.5t10 -97.5t1 -69v-47h-688q0 -86 13.5 -162.5t49 -136t98 -94.5t158.5 -35q90 0 161 17.5t155 58.5l24 -59q-84 -45 -162.5 -66.5t-175.5 -21.5q-129 0 -206.5 42t-124.5 113q-78 -59 -145.5 -90t-124 -46t-100.5 -17t-73 -2q-84 0 -137 26.5t-85 66.5 t-44 89t-12 94zM164 272q0 -219 225 -219q37 0 83 7.5t97.5 24.5t102.5 44t98 66q-29 59 -39 132.5t-10 157.5h-301q-125 0 -190.5 -59t-65.5 -154zM809 549h602q0 86 -14.5 157.5t-47 124t-87 82t-136.5 29.5q-86 0 -143 -32.5t-94 -88t-55.5 -126t-24.5 -146.5z" />
<glyph unicode="&#xe7;" horiz-adv-x="899" d="M100 481q0 76 16.5 168t62.5 173t129 135.5t216 54.5q72 0 143.5 -11.5t133.5 -37.5l-25 -68q-76 29 -137 37t-109 8q-88 0 -152.5 -33t-106.5 -93t-62.5 -144.5t-20.5 -186.5q0 -86 15.5 -163.5t52.5 -136t98.5 -92.5t155.5 -34q84 0 151.5 17.5t151.5 52.5l23 -61 q-55 -31 -132 -52.5t-163 -25.5q-27 -33 -54.5 -66t-52.5 -67q102 0 172 -33t70 -113t-82 -140.5t-262 -60.5q0 12 -1 23.5t-1 24.5q145 10 203.5 52t58.5 95q0 47 -48 71.5t-118 24.5h-53q-14 16 -21 31q33 41 62.5 80t62.5 78q-104 4 -176 43t-116 104.5t-64.5 153.5 t-20.5 192z" />
<glyph unicode="&#xe8;" horiz-adv-x="972" d="M100 492q0 59 13.5 147t55.5 171t123 141.5t216 58.5q96 0 160.5 -29t105.5 -74t62.5 -100t31 -108.5t10.5 -97.5t1 -69v-47h-691q0 -86 13.5 -162.5t49.5 -136t98.5 -94.5t158.5 -35q90 0 161.5 17.5t155.5 58.5l25 -59q-84 -45 -164 -66.5t-176 -21.5q-123 0 -203 40 t-126 109.5t-63.5 161.5t-17.5 195zM190 551h605q0 86 -14.5 157.5t-47.5 124t-88 82t-137 29.5q-86 0 -143.5 -32.5t-94.5 -88t-55 -126t-25 -146.5zM272 1397l76 65l219 -303l-45 -37z" />
<glyph unicode="&#xe9;" horiz-adv-x="972" d="M100 492q0 59 13.5 147t55.5 171t123 141.5t216 58.5q96 0 160.5 -29t105.5 -74t62.5 -100t31 -108.5t10.5 -97.5t1 -69v-47h-691q0 -86 13.5 -162.5t49.5 -136t98.5 -94.5t158.5 -35q90 0 161.5 17.5t155.5 58.5l25 -59q-84 -45 -164 -66.5t-176 -21.5q-123 0 -203 40 t-126 109.5t-63.5 161.5t-17.5 195zM190 551h605q0 86 -14.5 157.5t-47.5 124t-88 82t-137 29.5q-86 0 -143.5 -32.5t-94.5 -88t-55 -126t-25 -146.5zM430 1157l219 303l74 -63l-250 -275z" />
<glyph unicode="&#xea;" horiz-adv-x="972" d="M100 492q0 59 13.5 147t55.5 171t123 141.5t216 58.5q96 0 160.5 -29t105.5 -74t62.5 -100t31 -108.5t10.5 -97.5t1 -69v-47h-691q0 -86 13.5 -162.5t49.5 -136t98.5 -94.5t158.5 -35q90 0 161.5 17.5t155.5 58.5l25 -59q-84 -45 -164 -66.5t-176 -21.5q-123 0 -203 40 t-126 109.5t-63.5 161.5t-17.5 195zM190 551h605q0 86 -14.5 157.5t-47.5 124t-88 82t-137 29.5q-86 0 -143.5 -32.5t-94.5 -88t-55 -126t-25 -146.5zM205 1124l276 265h74l276 -263l-28 -34l-285 204l-285 -206z" />
<glyph unicode="&#xeb;" horiz-adv-x="972" d="M100 492q0 59 13.5 147t55.5 171t123 141.5t216 58.5q96 0 160.5 -29t105.5 -74t62.5 -100t31 -108.5t10.5 -97.5t1 -69v-47h-691q0 -86 13.5 -162.5t49.5 -136t98.5 -94.5t158.5 -35q90 0 161.5 17.5t155.5 58.5l25 -59q-84 -45 -164 -66.5t-176 -21.5q-123 0 -203 40 t-126 109.5t-63.5 161.5t-17.5 195zM190 551h605q0 86 -14.5 157.5t-47.5 124t-88 82t-137 29.5q-86 0 -143.5 -32.5t-94.5 -88t-55 -126t-25 -146.5zM305 1241q0 29 18.5 46.5t43.5 17.5q29 0 47 -17.5t18 -46.5q0 -27 -18.5 -44t-46.5 -17q-27 0 -44.5 17t-17.5 44z M610 1241q0 29 18.5 46.5t43.5 17.5q29 0 47 -17.5t18 -46.5q0 -27 -18.5 -44t-46.5 -17q-27 0 -44.5 17t-17.5 44z" />
<glyph unicode="&#xec;" horiz-adv-x="425" d="M-25 1397l76 65l219 -303l-45 -37zM172 0v997h82v-997h-82z" />
<glyph unicode="&#xed;" horiz-adv-x="425" d="M164 1157l219 303l74 -63l-250 -275zM172 0v997h82v-997h-82z" />
<glyph unicode="&#xee;" horiz-adv-x="524" d="M-51 1147l276 264h74l276 -262l-28 -35l-285 205l-285 -207zM221 0v997h82v-997h-82z" />
<glyph unicode="&#xef;" horiz-adv-x="425" d="M-4 1241q0 29 18.5 46.5t42.5 17.5q29 0 47.5 -17.5t18.5 -46.5q0 -27 -18.5 -44t-47.5 -17q-27 0 -44 17t-17 44zM172 0v997h82v-997h-82zM301 1241q0 29 18.5 46.5t42.5 17.5q29 0 47.5 -17.5t18.5 -46.5q0 -27 -18.5 -44t-47.5 -17q-27 0 -44 17t-17 44z" />
<glyph unicode="&#xf0;" horiz-adv-x="964" d="M84 438q0 76 20.5 161t68.5 155.5t125 118t189 47.5q92 0 167 -32t122 -73q-27 98 -72 181t-104 153l-186 -127l-33 45l182 123q-117 119 -270 203l31 55q88 -45 162.5 -97.5t136.5 -117.5l163 110l33 -47l-157 -104q113 -129 172 -293t57 -360q0 -45 -6 -103.5 t-21.5 -120t-43 -121t-74 -105.5t-113 -74.5t-156.5 -28.5q-117 0 -192.5 44t-120.5 110.5t-62.5 146.5t-17.5 151zM168 442q0 -66 13.5 -134t49 -124.5t98 -92.5t160.5 -36q72 0 123.5 24.5t86 65.5t56 93.5t33 106.5t15.5 106.5t4 93.5q0 45 -4 86t-12 86 q-59 66 -139 100.5t-160 34.5q-92 0 -155 -40t-100.5 -100.5t-53 -133t-15.5 -136.5z" />
<glyph unicode="&#xf1;" horiz-adv-x="974" d="M123 0v997h82q0 -18 1 -47.5t1 -48.5q0 -2 2 -2t2 -1t2 -1q96 55 197.5 85t173.5 30q94 0 148 -25.5t81 -66.5t34 -91.5t7 -97.5v-731h-86v676q0 59 -4 107t-23.5 83t-60.5 53.5t-113 18.5q-41 0 -89 -10t-95 -27.5t-93 -38t-83 -41.5v-821h-84zM172 1235q20 57 60 92 t90 35q33 0 72.5 -12.5t79.5 -25.5t78 -25.5t66 -12.5l101 82l35 -25q-20 -53 -56.5 -91t-85.5 -38q-33 0 -73.5 12.5t-81.5 28t-79 27.5t-65 12l-104 -84z" />
<glyph unicode="&#xf2;" horiz-adv-x="1007" d="M100 487q0 96 21.5 189.5t71 167.5t128 120t193.5 46q117 0 193.5 -45t120.5 -119t61.5 -167t17.5 -187q0 -92 -17.5 -182.5t-63.5 -162t-124.5 -116.5t-199.5 -45q-117 0 -195 42t-124 111.5t-64.5 159.5t-18.5 188zM188 485q0 -84 12.5 -160.5t47.5 -136t98.5 -95.5 t167.5 -36q94 0 154.5 39t94.5 101.5t46 139t12 150.5t-11 154t-45 146.5t-93.5 109.5t-157.5 43t-160.5 -41t-99.5 -105.5t-51.5 -146.5t-14.5 -162zM281 1397l75 65l219 -303l-45 -37z" />
<glyph unicode="&#xf3;" horiz-adv-x="1007" d="M100 487q0 96 21.5 189.5t71 167.5t128 120t193.5 46q117 0 193.5 -45t120.5 -119t61.5 -167t17.5 -187q0 -92 -17.5 -182.5t-63.5 -162t-124.5 -116.5t-199.5 -45q-117 0 -195 42t-124 111.5t-64.5 159.5t-18.5 188zM188 485q0 -84 12.5 -160.5t47.5 -136t98.5 -95.5 t167.5 -36q94 0 154.5 39t94.5 101.5t46 139t12 150.5t-11 154t-45 146.5t-93.5 109.5t-157.5 43t-160.5 -41t-99.5 -105.5t-51.5 -146.5t-14.5 -162zM444 1157l220 303l73 -63l-250 -275z" />
<glyph unicode="&#xf4;" horiz-adv-x="1007" d="M100 487q0 96 21.5 189.5t71 167.5t128 120t193.5 46q117 0 193.5 -45t120.5 -119t61.5 -167t17.5 -187q0 -92 -17.5 -182.5t-63.5 -162t-124.5 -116.5t-199.5 -45q-117 0 -195 42t-124 111.5t-64.5 159.5t-18.5 188zM188 485q0 -84 12.5 -160.5t47.5 -136t98.5 -95.5 t167.5 -36q94 0 154.5 39t94.5 101.5t46 139t12 150.5t-11 154t-45 146.5t-93.5 109.5t-157.5 43t-160.5 -41t-99.5 -105.5t-51.5 -146.5t-14.5 -162zM205 1149l276 264h74l276 -262l-28 -35l-285 205l-285 -207z" />
<glyph unicode="&#xf5;" horiz-adv-x="1007" d="M100 487q0 96 21.5 189.5t71 167.5t128 120t193.5 46q117 0 193.5 -45t120.5 -119t61.5 -167t17.5 -187q0 -92 -17.5 -182.5t-63.5 -162t-124.5 -116.5t-199.5 -45q-117 0 -195 42t-124 111.5t-64.5 159.5t-18.5 188zM188 485q0 -84 12.5 -160.5t47.5 -136t98.5 -95.5 t167.5 -36q94 0 154.5 39t94.5 101.5t46 139t12 150.5t-11 154t-45 146.5t-93.5 109.5t-157.5 43t-160.5 -41t-99.5 -105.5t-51.5 -146.5t-14.5 -162zM227 1208q20 57 60.5 92t89.5 35q33 0 72.5 -12t79.5 -25.5t78 -25.5t67 -12l100 81l35 -24q-20 -53 -56 -91t-85 -38 q-33 0 -74 12t-82 27.5t-79 28t-64 12.5l-105 -84z" />
<glyph unicode="&#xf6;" horiz-adv-x="1007" d="M100 487q0 96 21.5 189.5t71 167.5t128 120t193.5 46q117 0 193.5 -45t120.5 -119t61.5 -167t17.5 -187q0 -92 -17.5 -182.5t-63.5 -162t-124.5 -116.5t-199.5 -45q-117 0 -195 42t-124 111.5t-64.5 159.5t-18.5 188zM188 485q0 -84 12.5 -160.5t47.5 -136t98.5 -95.5 t167.5 -36q94 0 154.5 39t94.5 101.5t46 139t12 150.5t-11 154t-45 146.5t-93.5 109.5t-157.5 43t-160.5 -41t-99.5 -105.5t-51.5 -146.5t-14.5 -162zM305 1241q0 29 18.5 46.5t43.5 17.5q29 0 47 -17.5t18 -46.5q0 -27 -18.5 -44t-46.5 -17q-27 0 -44.5 17t-17.5 44z M610 1241q0 29 18.5 46.5t43.5 17.5q29 0 47 -17.5t18 -46.5q0 -27 -18.5 -44t-46.5 -17q-27 0 -44.5 17t-17.5 44z" />
<glyph unicode="&#xf7;" d="M154 571v72h753v-72h-753zM459 319q0 29 22.5 50.5t53.5 21.5q29 0 50 -21.5t21 -50.5q0 -31 -21.5 -53t-49.5 -22q-31 0 -53.5 22.5t-22.5 52.5zM459 895q0 29 22.5 50.5t53.5 21.5q29 0 50 -21.5t21 -50.5q0 -33 -21.5 -54.5t-49.5 -21.5q-31 0 -53.5 22.5t-22.5 53.5z " />
<glyph unicode="&#xf8;" horiz-adv-x="968" d="M82 -12q4 6 18.5 24.5t29.5 41t29.5 41t18.5 24.5q-53 72 -74.5 168t-21.5 200q0 96 21.5 189.5t69.5 167.5t127 120t194 46q92 0 155.5 -28t108.5 -75q2 4 14 19.5t24.5 32t23.5 32t14 19.5h59q-4 -6 -18.5 -26.5t-32 -43t-32.5 -43t-19 -27.5q53 -76 74.5 -175 t21.5 -203q0 -92 -17.5 -182.5t-63.5 -162t-124 -116.5t-199 -45q-94 0 -160.5 25.5t-113.5 70.5l-68 -92q-8 0 -30.5 -1t-28.5 -1zM170 487q0 -86 12.5 -163.5t48.5 -137.5q10 12 47 62.5t86.5 119t105.5 146.5t105.5 146.5t86 118.5t47.5 65q-35 43 -87 69.5t-128 26.5 q-96 0 -159 -41t-99.5 -105.5t-51 -145.5t-14.5 -161zM258 145q37 -41 93.5 -64.5t142.5 -23.5q96 0 155.5 39t93 101.5t46 139t12.5 150.5q0 76 -13.5 161t-52.5 153z" />
<glyph unicode="&#xf9;" horiz-adv-x="958" d="M123 281v716h84v-686q0 -61 5 -109t25.5 -82t60.5 -51.5t110 -17.5q68 0 164 37t182 115l-2 794h84v-997h-82v125l-6 4q-59 -49 -112.5 -79t-100 -45t-83 -20t-59.5 -5q-102 0 -156.5 28.5t-80 73.5t-29.5 98t-4 101zM260 1397l76 65l219 -303l-45 -37z" />
<glyph unicode="&#xfa;" horiz-adv-x="958" d="M123 281v716h84v-686q0 -61 5 -109t25.5 -82t60.5 -51.5t110 -17.5q68 0 164 37t182 115l-2 794h84v-997h-82v125l-6 4q-59 -49 -112.5 -79t-100 -45t-83 -20t-59.5 -5q-102 0 -156.5 28.5t-80 73.5t-29.5 98t-4 101zM408 1157l219 303l73 -63l-249 -275z" />
<glyph unicode="&#xfb;" horiz-adv-x="958" d="M123 281v716h84v-686q0 -61 5 -109t25.5 -82t60.5 -51.5t110 -17.5q68 0 164 37t182 115l-2 794h84v-997h-82v125l-6 4q-59 -49 -112.5 -79t-100 -45t-83 -20t-59.5 -5q-102 0 -156.5 28.5t-80 73.5t-29.5 98t-4 101zM162 1149l276 264h74l276 -262l-28 -35l-285 205 l-285 -207z" />
<glyph unicode="&#xfc;" horiz-adv-x="958" d="M123 281v716h84v-686q0 -61 5 -109t25.5 -82t60.5 -51.5t110 -17.5q68 0 164 37t182 115l-2 794h84v-997h-82v125l-6 4q-59 -49 -112.5 -79t-100 -45t-83 -20t-59.5 -5q-102 0 -156.5 28.5t-80 73.5t-29.5 98t-4 101zM260 1241q0 29 18.5 46.5t43.5 17.5q29 0 47 -17.5 t18 -46.5q0 -27 -18.5 -44t-46.5 -17q-27 0 -44.5 17t-17.5 44zM565 1241q0 29 18.5 46.5t43.5 17.5q29 0 47 -17.5t18 -46.5q0 -27 -18.5 -44t-46.5 -17q-27 0 -44.5 17t-17.5 44z" />
<glyph unicode="&#xfd;" horiz-adv-x="858" d="M-16 -418l14 68q63 -12 97 -17.5t69 -5.5q27 0 51.5 3t45 17.5t39.5 45.5t38 86l72 223h-45q-8 25 -34 101.5t-59.5 179t-72.5 217t-74 217t-60.5 179.5t-33.5 101h84q4 -14 19.5 -62t37 -112.5t45 -137.5t45 -137.5l37.5 -112.5t20 -62l103 -316h8q4 10 13.5 39t22.5 72 t29.5 96t34.5 113l197 620h86q-6 -23 -25.5 -81t-46 -142t-59.5 -184.5t-65.5 -204.5t-65.5 -204.5t-60.5 -183.5t-46 -142.5t-26.5 -79.5q-33 -102 -83 -161.5t-149 -59.5q-31 2 -81 6t-121 22zM348 1157l219 303l74 -63l-250 -275z" />
<glyph unicode="&#xfe;" horiz-adv-x="989" d="M121 -432v1868h82v-553q70 55 154.5 90t170.5 35q100 0 169 -38t111 -104.5t60.5 -155.5t18.5 -192q0 -115 -21.5 -211t-67.5 -167.5t-120 -111.5t-178 -40q-59 0 -137 16t-160 64v-500h-82zM203 145q53 -35 131 -61.5t162 -26.5q63 0 118.5 23.5t96.5 79t64.5 144.5 t23.5 218q0 117 -20.5 197t-58.5 129t-92.5 69.5t-119.5 20.5q-37 0 -79 -10t-84 -28.5t-79 -42t-63 -50.5v-662z" />
<glyph unicode="&#xff;" horiz-adv-x="858" d="M-16 -418l14 68q63 -12 97 -17.5t69 -5.5q27 0 51.5 3t45 17.5t39.5 45.5t38 86l72 223h-45q-8 25 -34 101.5t-59.5 179t-72.5 217t-74 217t-60.5 179.5t-33.5 101h84q4 -14 19.5 -62t37 -112.5t45 -137.5t45 -137.5l37.5 -112.5t20 -62l103 -316h8q4 10 13.5 39t22.5 72 t29.5 96t34.5 113l197 620h86q-6 -23 -25.5 -81t-46 -142t-59.5 -184.5t-65.5 -204.5t-65.5 -204.5t-60.5 -183.5t-46 -142.5t-26.5 -79.5q-33 -102 -83 -161.5t-149 -59.5q-31 2 -81 6t-121 22zM221 1241q0 29 18.5 46.5t43.5 17.5q29 0 47 -17.5t18 -46.5q0 -27 -18.5 -44 t-46.5 -17q-27 0 -44.5 17t-17.5 44zM526 1241q0 29 18.5 46.5t43.5 17.5q29 0 47 -17.5t18 -46.5q0 -27 -18.5 -44t-46.5 -17q-27 0 -44.5 17t-17.5 44z" />
<glyph unicode="&#x100;" horiz-adv-x="1093" d="M35 0l452 1397h117l453 -1397h-92q-33 98 -64 195.5t-63 195.5h-588q-33 -98 -62.5 -195.5t-60.5 -195.5h-92zM244 1532v76h610v-76h-610zM274 465h541l-182 573q-23 70 -43.5 137.5t-42.5 139.5h-6q-41 -141 -86 -277z" />
<glyph unicode="&#x101;" horiz-adv-x="1007" d="M82 260q0 70 25.5 122t70.5 88t108.5 55.5t139.5 23.5q12 0 55 3t93.5 5t93.5 4t53 2v92q0 76 -10.5 129.5t-38 87t-73.5 49t-116 15.5q-76 0 -155.5 -17.5t-155.5 -46.5l-22 62q86 35 178 54.5t174 19.5q147 0 225 -73t78 -249v-614h135q4 -12 4 -25.5t2 -26.5 q-35 -16 -71.5 -22t-65.5 -6q-59 0 -74.5 29.5t-15.5 93.5l-4 2q-66 -49 -120 -76t-99 -38t-79 -13t-59 -2q-82 0 -135 25.5t-85 65.5t-44 88t-12 93zM170 270q0 -215 225 -215q76 0 157 38t169 110v297l-299 -17q-123 -6 -187.5 -62t-64.5 -151zM174 1225v75h612v-75h-612z " />
<glyph unicode="&#x102;" horiz-adv-x="1093" d="M35 0l452 1397h117l453 -1397h-92q-33 98 -64 195.5t-63 195.5h-588q-33 -98 -62.5 -195.5t-60.5 -195.5h-92zM238 1675l63 41q49 -72 111.5 -118t128.5 -46q49 0 117.5 31t160.5 123l35 -27q-84 -115 -164.5 -157.5t-154.5 -42.5q-47 0 -90.5 16t-81 44t-69.5 62.5 t-56 73.5zM274 465h541l-182 573q-23 70 -43.5 137.5t-42.5 139.5h-6q-41 -141 -86 -277z" />
<glyph unicode="&#x103;" horiz-adv-x="1007" d="M82 260q0 70 25.5 122t70.5 88t108.5 55.5t139.5 23.5q12 0 55 3t93.5 5t93.5 4t53 2v92q0 76 -10.5 129.5t-38 87t-73.5 49t-116 15.5q-76 0 -155.5 -17.5t-155.5 -46.5l-22 62q86 35 178 54.5t174 19.5q147 0 225 -73t78 -249v-614h135q4 -12 4 -25.5t2 -26.5 q-35 -16 -71.5 -22t-65.5 -6q-59 0 -74.5 29.5t-15.5 93.5l-4 2q-66 -49 -120 -76t-99 -38t-79 -13t-59 -2q-82 0 -135 25.5t-85 65.5t-44 88t-12 93zM170 270q0 -215 225 -215q76 0 157 38t169 110v297l-299 -17q-123 -6 -187.5 -62t-64.5 -151zM188 1348l64 41 q49 -72 111.5 -117t128.5 -45q49 0 117.5 30.5t160.5 120.5l35 -28q-84 -113 -165 -157t-155 -44q-47 0 -90 16.5t-81 44t-69.5 63.5t-56.5 75z" />
<glyph unicode="&#x104;" horiz-adv-x="1093" d="M35 0l452 1397h117l453 -1397h-72q-66 -68 -91.5 -131.5t-25.5 -104.5q0 -61 37 -82.5t90 -21.5q41 0 78 6t66 15l12 -39q-47 -25 -96 -36.5t-94 -11.5q-92 0 -134.5 40t-42.5 100q0 53 34 129t136 164l-116 364h-588q-33 -98 -62.5 -195.5t-60.5 -195.5h-92zM274 465 h541l-182 573q-23 70 -43.5 137.5t-42.5 139.5h-6q-41 -141 -86 -277z" />
<glyph unicode="&#x105;" horiz-adv-x="1007" d="M82 260q0 70 25.5 122t70.5 88t108.5 55.5t139.5 23.5q12 0 55 3t93.5 5t93.5 4t53 2v92q0 76 -10.5 129.5t-38 87t-73.5 49t-116 15.5q-76 0 -155.5 -17.5t-155.5 -46.5l-22 62q86 35 178 54.5t174 19.5q147 0 225 -73t78 -249v-614h135q4 -12 4 -25.5t2 -26.5 q-35 -16 -71.5 -22t-65.5 -6q-27 0 -41 6q-61 -66 -85 -126t-24 -101q0 -61 37 -83t90 -22q41 0 78 6t66 15l12 -39q-47 -25 -96 -36t-94 -11q-92 0 -134.5 40t-42.5 99q0 53 31 125t127 155q-10 16 -12 39t-2 56l-4 2q-66 -49 -120 -76t-99 -38t-79 -13t-59 -2 q-82 0 -135 25.5t-85 65.5t-44 88t-12 93zM170 270q0 -215 225 -215q76 0 157 38t169 110v297l-299 -17q-123 -6 -187.5 -62t-64.5 -151z" />
<glyph unicode="&#x106;" horiz-adv-x="1136" d="M123 690q0 113 23.5 241t86 236.5t173 180t284.5 71.5q111 0 200 -15t146 -38l-22 -72q-78 25 -161 37t-155 12q-127 0 -218 -47t-150.5 -133t-87 -206.5t-27.5 -270.5q0 -119 17.5 -231.5t68.5 -199.5t146.5 -140.5t248.5 -53.5q27 0 69 3.5t89 8.5t96 14t90 22l21 -66 q-35 -12 -82 -23.5t-98.5 -18.5t-102.5 -11t-96 -4q-154 0 -260.5 49t-173 141t-96 222t-29.5 292zM612 1503l219 305l74 -65l-248 -273z" />
<glyph unicode="&#x107;" horiz-adv-x="899" d="M100 481q0 76 16.5 168t62.5 173t129 135.5t216 54.5q72 0 143.5 -11.5t133.5 -37.5l-25 -68q-76 29 -137 37t-109 8q-88 0 -152.5 -33t-106.5 -93t-62.5 -144.5t-20.5 -186.5q0 -86 15.5 -163.5t52.5 -136t98.5 -92.5t155.5 -34q84 0 151.5 17.5t151.5 52.5l23 -61 q-59 -33 -144.5 -56.5t-181.5 -23.5q-113 0 -190.5 36.5t-127 103.5t-71 157t-21.5 198zM393 1157l219 303l74 -63l-250 -275z" />
<glyph unicode="&#x108;" horiz-adv-x="1136" d="M123 690q0 113 23.5 241t86 236.5t173 180t284.5 71.5q111 0 200 -15t146 -38l-22 -72q-78 25 -161 37t-155 12q-127 0 -218 -47t-150.5 -133t-87 -206.5t-27.5 -270.5q0 -119 17.5 -231.5t68.5 -199.5t146.5 -140.5t248.5 -53.5q27 0 69 3.5t89 8.5t96 14t90 22l21 -66 q-35 -12 -82 -23.5t-98.5 -18.5t-102.5 -11t-96 -4q-154 0 -260.5 49t-173 141t-96 222t-29.5 292zM346 1509l277 260h73l279 -258l-31 -34l-285 200l-282 -202z" />
<glyph unicode="&#x109;" horiz-adv-x="899" d="M100 481q0 76 16.5 168t62.5 173t129 135.5t216 54.5q72 0 143.5 -11.5t133.5 -37.5l-25 -68q-76 29 -137 37t-109 8q-88 0 -152.5 -33t-106.5 -93t-62.5 -144.5t-20.5 -186.5q0 -86 15.5 -163.5t52.5 -136t98.5 -92.5t155.5 -34q84 0 151.5 17.5t151.5 52.5l23 -61 q-59 -33 -144.5 -56.5t-181.5 -23.5q-113 0 -190.5 36.5t-127 103.5t-71 157t-21.5 198zM193 1149l276 264h74l276 -262l-28 -35l-285 205l-285 -207z" />
<glyph unicode="&#x10a;" horiz-adv-x="1136" d="M123 690q0 113 23.5 241t86 236.5t173 180t284.5 71.5q111 0 200 -15t146 -38l-22 -72q-78 25 -161 37t-155 12q-127 0 -218 -47t-150.5 -133t-87 -206.5t-27.5 -270.5q0 -119 17.5 -231.5t68.5 -199.5t146.5 -140.5t248.5 -53.5q27 0 69 3.5t89 8.5t96 14t90 22l21 -66 q-35 -12 -82 -23.5t-98.5 -18.5t-102.5 -11t-96 -4q-154 0 -260.5 49t-173 141t-96 222t-29.5 292zM590 1636q0 29 20.5 50.5t48.5 21.5q29 0 50.5 -21.5t21.5 -50.5t-21.5 -50t-50.5 -21t-49 21.5t-20 49.5z" />
<glyph unicode="&#x10b;" horiz-adv-x="899" d="M100 481q0 76 16.5 168t62.5 173t129 135.5t216 54.5q72 0 143.5 -11.5t133.5 -37.5l-25 -68q-76 29 -137 37t-109 8q-88 0 -152.5 -33t-106.5 -93t-62.5 -144.5t-20.5 -186.5q0 -86 15.5 -163.5t52.5 -136t98.5 -92.5t155.5 -34q84 0 151.5 17.5t151.5 52.5l23 -61 q-59 -33 -144.5 -56.5t-181.5 -23.5q-113 0 -190.5 36.5t-127 103.5t-71 157t-21.5 198zM440 1235q0 29 18.5 49.5t45.5 20.5q25 0 44 -20.5t19 -49.5t-19.5 -49.5t-43.5 -20.5q-27 0 -45.5 20.5t-18.5 49.5z" />
<glyph unicode="&#x10c;" horiz-adv-x="1136" d="M123 690q0 113 23.5 241t86 236.5t173 180t284.5 71.5q111 0 200 -15t146 -38l-22 -72q-78 25 -161 37t-155 12q-127 0 -218 -47t-150.5 -133t-87 -206.5t-27.5 -270.5q0 -119 17.5 -231.5t68.5 -199.5t146.5 -140.5t248.5 -53.5q27 0 69 3.5t89 8.5t96 14t90 22l21 -66 q-35 -12 -82 -23.5t-98.5 -18.5t-102.5 -11t-96 -4q-154 0 -260.5 49t-173 141t-96 222t-29.5 292zM334 1737l31 35l284 -205l283 202l31 -34l-279 -258h-72z" />
<glyph unicode="&#x10d;" horiz-adv-x="899" d="M100 481q0 76 16.5 168t62.5 173t129 135.5t216 54.5q72 0 143.5 -11.5t133.5 -37.5l-25 -68q-76 29 -137 37t-109 8q-88 0 -152.5 -33t-106.5 -93t-62.5 -144.5t-20.5 -186.5q0 -86 15.5 -163.5t52.5 -136t98.5 -92.5t155.5 -34q84 0 151.5 17.5t151.5 52.5l23 -61 q-59 -33 -144.5 -56.5t-181.5 -23.5q-113 0 -190.5 36.5t-127 103.5t-71 157t-21.5 198zM186 1403l29 33l285 -207l284 205l29 -35l-276 -262h-74z" />
<glyph unicode="&#x10e;" horiz-adv-x="1249" d="M164 0v1399h416q162 0 267 -56.5t167.5 -151.5t87 -222t24.5 -267q0 -145 -26.5 -272t-92 -223t-175 -151.5t-275.5 -55.5h-393zM219 1737l31 35l285 -205l282 202l31 -34l-279 -258h-71zM254 76h289q31 0 79 3t102 19.5t109.5 53t100.5 104.5t72.5 172t27.5 258 q0 156 -25.5 264.5t-66.5 179t-93 110.5t-105.5 58.5t-101.5 22.5t-83 4h-305v-1249z" />
<glyph unicode="&#x10f;" horiz-adv-x="1118" d="M100 475q0 113 20.5 211t66.5 170t120 113t178 41q59 0 138 -17.5t161 -64.5v522h82v-1450h-82v106q-2 0 -2 1.5t-2 1.5q-70 -55 -153.5 -88t-169.5 -33q-100 0 -169 37.5t-110 103.5t-59.5 155t-18.5 191zM188 473q0 -119 20.5 -198.5t58.5 -128t92.5 -69t119.5 -20.5 q37 0 79 10.5t83 29t79 42t64 49.5v662q-53 33 -132 59.5t-160 26.5q-63 0 -119 -23.5t-96.5 -78t-64.5 -143.5t-24 -218zM989 1386q0 29 19.5 50.5t52.5 21.5q35 0 56.5 -23.5t21.5 -66.5q-4 -113 -115 -194l-25 26q31 35 40.5 60.5t9.5 60.5q-27 4 -43.5 21t-16.5 44z" />
<glyph unicode="&#x110;" horiz-adv-x="1249" d="M31 700v68h133v631h416q162 0 267 -56.5t167.5 -151.5t87 -222t24.5 -267q0 -145 -26.5 -272t-92 -223t-175 -151.5t-275.5 -55.5h-393v700h-133zM254 76h289q31 0 79 3t102 19.5t109.5 53t100.5 104.5t72.5 172t27.5 258q0 156 -25.5 264.5t-66.5 179t-93 110.5 t-105.5 58.5t-101.5 22.5t-83 4h-305v-557h399v-68h-399v-624z" />
<glyph unicode="&#x111;" horiz-adv-x="991" d="M100 469q0 113 20.5 210t66.5 168t120 110.5t178 39.5q59 0 138 -17t161 -65v215h-333v62h333v258h82v-258h121v-62h-121v-1130h-82v113q-72 -57 -156.5 -91t-170.5 -34q-100 0 -169 36.5t-110 101t-59.5 153t-18.5 190.5zM188 467q0 -119 20.5 -198t58.5 -126 t92.5 -66.5t119.5 -19.5q37 0 79 10.5t83 29t79 42t64 49.5v650q-53 33 -132 59.5t-160 26.5q-63 0 -119 -22.5t-96.5 -76t-64.5 -141.5t-24 -217z" />
<glyph unicode="&#x112;" horiz-adv-x="1048" d="M164 0v1399h776v-74h-686v-547h594v-73h-594v-631h721v-74h-811zM256 1532v76h610v-76h-610z" />
<glyph unicode="&#x113;" horiz-adv-x="972" d="M100 492q0 59 13.5 147t55.5 171t123 141.5t216 58.5q96 0 160.5 -29t105.5 -74t62.5 -100t31 -108.5t10.5 -97.5t1 -69v-47h-691q0 -86 13.5 -162.5t49.5 -136t98.5 -94.5t158.5 -35q90 0 161.5 17.5t155.5 58.5l25 -59q-84 -45 -164 -66.5t-176 -21.5q-123 0 -203 40 t-126 109.5t-63.5 161.5t-17.5 195zM190 551h605q0 86 -14.5 157.5t-47.5 124t-88 82t-137 29.5q-86 0 -143.5 -32.5t-94.5 -88t-55 -126t-25 -146.5zM209 1225v75h612v-75h-612z" />
<glyph unicode="&#x114;" horiz-adv-x="1048" d="M164 0v1399h776v-74h-686v-547h594v-73h-594v-631h721v-74h-811zM254 1675l63 41q49 -72 112 -118t128 -46q49 0 117.5 31t161.5 123l34 -27q-84 -115 -164.5 -157.5t-154.5 -42.5q-47 0 -90 16t-81 44t-69.5 62.5t-56.5 73.5z" />
<glyph unicode="&#x115;" horiz-adv-x="972" d="M100 492q0 59 13.5 147t55.5 171t123 141.5t216 58.5q96 0 160.5 -29t105.5 -74t62.5 -100t31 -108.5t10.5 -97.5t1 -69v-47h-691q0 -86 13.5 -162.5t49.5 -136t98.5 -94.5t158.5 -35q90 0 161.5 17.5t155.5 58.5l25 -59q-84 -45 -164 -66.5t-176 -21.5q-123 0 -203 40 t-126 109.5t-63.5 161.5t-17.5 195zM190 551h605q0 86 -14.5 157.5t-47.5 124t-88 82t-137 29.5q-86 0 -143.5 -32.5t-94.5 -88t-55 -126t-25 -146.5zM195 1348l63 41q49 -72 111.5 -117t128.5 -45q49 0 117.5 30.5t160.5 120.5l35 -28q-84 -113 -164.5 -157t-154.5 -44 q-47 0 -90.5 16.5t-81 44t-69.5 63.5t-56 75z" />
<glyph unicode="&#x116;" horiz-adv-x="1048" d="M164 0v1399h776v-74h-686v-547h594v-73h-594v-631h721v-74h-811zM500 1620q0 29 20.5 50.5t48.5 21.5q29 0 50.5 -21.5t21.5 -50.5t-21.5 -50.5t-50.5 -21.5t-49 21.5t-20 50.5z" />
<glyph unicode="&#x117;" horiz-adv-x="972" d="M100 492q0 59 13.5 147t55.5 171t123 141.5t216 58.5q96 0 160.5 -29t105.5 -74t62.5 -100t31 -108.5t10.5 -97.5t1 -69v-47h-691q0 -86 13.5 -162.5t49.5 -136t98.5 -94.5t158.5 -35q90 0 161.5 17.5t155.5 58.5l25 -59q-84 -45 -164 -66.5t-176 -21.5q-123 0 -203 40 t-126 109.5t-63.5 161.5t-17.5 195zM190 551h605q0 86 -14.5 157.5t-47.5 124t-88 82t-137 29.5q-86 0 -143.5 -32.5t-94.5 -88t-55 -126t-25 -146.5zM440 1225q0 29 20.5 50t49.5 21t50.5 -21t21.5 -50t-21.5 -50.5t-50.5 -21.5t-49.5 21.5t-20.5 50.5z" />
<glyph unicode="&#x118;" horiz-adv-x="1048" d="M164 0v1399h776v-74h-686v-547h594v-73h-594v-631h721v-74h-45q-70 -70 -96.5 -134.5t-26.5 -107.5q0 -61 37 -82.5t90 -21.5q41 0 78 6t65 14l13 -39q-47 -25 -96.5 -36t-94.5 -11q-92 0 -134 40t-42 100q0 51 28.5 120.5t118.5 151.5h-706z" />
<glyph unicode="&#x119;" horiz-adv-x="972" d="M100 492q0 59 13.5 147t55.5 171t123 141.5t216 58.5q96 0 160.5 -29t105.5 -74t62.5 -100t31 -108.5t10.5 -97.5t1 -69v-47h-691q0 -86 13.5 -162.5t49.5 -136t98.5 -94.5t158.5 -35q90 0 161.5 17.5t155.5 58.5l25 -59q-27 -14 -52.5 -25.5t-52.5 -21.5 q-61 -66 -84.5 -126.5t-23.5 -101.5q0 -61 37 -82.5t90 -21.5q41 0 78 6t65 14l13 -39q-47 -25 -96.5 -36t-94.5 -11q-92 0 -134 40t-42 100q0 45 21.5 104t84.5 127q-35 -6 -71.5 -10t-77.5 -4q-123 0 -203 40t-126 109.5t-63.5 161.5t-17.5 195zM190 551h605 q0 86 -14.5 157.5t-47.5 124t-88 82t-137 29.5q-86 0 -143.5 -32.5t-94.5 -88t-55 -126t-25 -146.5z" />
<glyph unicode="&#x11a;" horiz-adv-x="1048" d="M164 0v1399h776v-74h-686v-547h594v-73h-594v-631h721v-74h-811zM233 1737l31 35l285 -205l282 202l31 -34l-278 -258h-72z" />
<glyph unicode="&#x11b;" horiz-adv-x="972" d="M100 492q0 59 13.5 147t55.5 171t123 141.5t216 58.5q96 0 160.5 -29t105.5 -74t62.5 -100t31 -108.5t10.5 -97.5t1 -69v-47h-691q0 -86 13.5 -162.5t49.5 -136t98.5 -94.5t158.5 -35q90 0 161.5 17.5t155.5 58.5l25 -59q-84 -45 -164 -66.5t-176 -21.5q-123 0 -203 40 t-126 109.5t-63.5 161.5t-17.5 195zM190 551h605q0 86 -14.5 157.5t-47.5 124t-88 82t-137 29.5q-86 0 -143.5 -32.5t-94.5 -88t-55 -126t-25 -146.5zM197 1386l28 33l285 -207l285 205l28 -35l-276 -262h-74z" />
<glyph unicode="&#x11c;" horiz-adv-x="1222" d="M123 690q0 113 26.5 241t94 236.5t182.5 180t293 71.5q109 0 202 -15t150 -38l-18 -70q-84 23 -170 35t-158 12q-129 0 -225.5 -47t-160 -133t-94 -207.5t-30.5 -271.5q0 -119 18.5 -230.5t70.5 -198.5t147.5 -139.5t250.5 -52.5q29 0 67 3.5t78 8.5t78 12t66 17v596h88 v-657q-98 -31 -196.5 -44t-196.5 -13q-154 0 -261.5 49t-174 141t-97 222t-30.5 292zM383 1509l276 260h74l279 -258l-31 -34l-285 200l-282 -202z" />
<glyph unicode="&#x11d;" horiz-adv-x="1036" d="M92 -156q0 88 40 158t91 102q-66 8 -95.5 43t-29.5 89q0 45 17.5 73.5t44 46t58.5 24.5t63 9l2 4q-61 29 -106.5 99.5t-45.5 177.5q0 92 33 157.5t85 106.5t116.5 59.5t128.5 18.5q43 0 88 -4t88 -19h299v-65h-185l-2 -6q53 -41 78 -105.5t25 -136.5q0 -160 -107.5 -248 t-285.5 -88h-123q-39 0 -74 -3t-60.5 -13.5t-41 -27.5t-15.5 -48q0 -86 131 -86h281q184 0 267 -77t83 -208q0 -78 -34 -137t-93 -101t-141 -63.5t-178 -21.5q-117 0 -195 24.5t-124 64.5t-64.5 92t-18.5 109zM176 -137q0 -47 13.5 -90t50 -77t100 -53.5t166.5 -19.5 q76 0 140.5 17.5t110.5 49t72.5 79t26.5 106.5q0 37 -9 75t-39 70.5t-85 53t-145 20.5h-254q-35 -14 -63 -39.5t-46 -57.5t-28.5 -66.5t-10.5 -67.5zM188 1149l277 264h74l276 -262l-29 -35l-284 205l-285 -207zM215 672q0 -119 73.5 -191.5t190.5 -72.5q145 0 233.5 66.5 t88.5 201.5q0 43 -14.5 91t-48 87t-91 64.5t-141.5 25.5q-141 0 -216 -73.5t-75 -198.5z" />
<glyph unicode="&#x11e;" horiz-adv-x="1222" d="M123 690q0 113 26.5 241t94 236.5t182.5 180t293 71.5q109 0 202 -15t150 -38l-18 -70q-84 23 -170 35t-158 12q-129 0 -225.5 -47t-160 -133t-94 -207.5t-30.5 -271.5q0 -119 18.5 -230.5t70.5 -198.5t147.5 -139.5t250.5 -52.5q29 0 67 3.5t78 8.5t78 12t66 17v596h88 v-657q-98 -31 -196.5 -44t-196.5 -13q-154 0 -261.5 49t-174 141t-97 222t-30.5 292zM387 1704l64 41q49 -72 111.5 -118t127.5 -46q49 0 118 30.5t161 123.5l35 -27q-84 -115 -165 -158t-155 -43q-47 0 -90 16.5t-81 44t-69.5 62.5t-56.5 74z" />
<glyph unicode="&#x11f;" horiz-adv-x="1036" d="M92 -156q0 88 40 158t91 102q-66 8 -95.5 43t-29.5 89q0 45 17.5 73.5t44 46t58.5 24.5t63 9l2 4q-61 29 -106.5 99.5t-45.5 177.5q0 92 33 157.5t85 106.5t116.5 59.5t128.5 18.5q43 0 88 -4t88 -19h299v-65h-185l-2 -6q53 -41 78 -105.5t25 -136.5q0 -160 -107.5 -248 t-285.5 -88h-123q-39 0 -74 -3t-60.5 -13.5t-41 -27.5t-15.5 -48q0 -86 131 -86h281q184 0 267 -77t83 -208q0 -78 -34 -137t-93 -101t-141 -63.5t-178 -21.5q-117 0 -195 24.5t-124 64.5t-64.5 92t-18.5 109zM176 -137q0 -47 13.5 -90t50 -77t100 -53.5t166.5 -19.5 q76 0 140.5 17.5t110.5 49t72.5 79t26.5 106.5q0 37 -9 75t-39 70.5t-85 53t-145 20.5h-254q-35 -14 -63 -39.5t-46 -57.5t-28.5 -66.5t-10.5 -67.5zM209 1348l63 41q49 -72 111.5 -117t128.5 -45q49 0 117.5 30.5t161.5 120.5l34 -28q-84 -113 -164.5 -157t-154.5 -44 q-47 0 -90 16.5t-81 44t-70 63.5t-56 75zM215 672q0 -119 73.5 -191.5t190.5 -72.5q145 0 233.5 66.5t88.5 201.5q0 43 -14.5 91t-48 87t-91 64.5t-141.5 25.5q-141 0 -216 -73.5t-75 -198.5z" />
<glyph unicode="&#x120;" horiz-adv-x="1222" d="M123 690q0 113 26.5 241t94 236.5t182.5 180t293 71.5q109 0 202 -15t150 -38l-18 -70q-84 23 -170 35t-158 12q-129 0 -225.5 -47t-160 -133t-94 -207.5t-30.5 -271.5q0 -119 18.5 -230.5t70.5 -198.5t147.5 -139.5t250.5 -52.5q29 0 67 3.5t78 8.5t78 12t66 17v596h88 v-657q-98 -31 -196.5 -44t-196.5 -13q-154 0 -261.5 49t-174 141t-97 222t-30.5 292zM639 1624q0 29 20.5 50.5t49.5 21.5t50 -21.5t21 -50.5t-21.5 -50.5t-49.5 -21.5q-29 0 -49.5 21.5t-20.5 50.5z" />
<glyph unicode="&#x121;" horiz-adv-x="1036" d="M92 -156q0 88 40 158t91 102q-66 8 -95.5 43t-29.5 89q0 45 17.5 73.5t44 46t58.5 24.5t63 9l2 4q-61 29 -106.5 99.5t-45.5 177.5q0 92 33 157.5t85 106.5t116.5 59.5t128.5 18.5q43 0 88 -4t88 -19h299v-65h-185l-2 -6q53 -41 78 -105.5t25 -136.5q0 -160 -107.5 -248 t-285.5 -88h-123q-39 0 -74 -3t-60.5 -13.5t-41 -27.5t-15.5 -48q0 -86 131 -86h281q184 0 267 -77t83 -208q0 -78 -34 -137t-93 -101t-141 -63.5t-178 -21.5q-117 0 -195 24.5t-124 64.5t-64.5 92t-18.5 109zM176 -137q0 -47 13.5 -90t50 -77t100 -53.5t166.5 -19.5 q76 0 140.5 17.5t110.5 49t72.5 79t26.5 106.5q0 37 -9 75t-39 70.5t-85 53t-145 20.5h-254q-35 -14 -63 -39.5t-46 -57.5t-28.5 -66.5t-10.5 -67.5zM215 672q0 -119 73.5 -191.5t190.5 -72.5q145 0 233.5 66.5t88.5 201.5q0 43 -14.5 91t-48 87t-91 64.5t-141.5 25.5 q-141 0 -216 -73.5t-75 -198.5zM430 1245q0 29 20.5 50.5t49.5 21.5t50 -21.5t21 -50.5t-21.5 -50t-49.5 -21q-29 0 -49.5 21.5t-20.5 49.5z" />
<glyph unicode="&#x122;" horiz-adv-x="1222" d="M123 690q0 113 26.5 241t94 236.5t182.5 180t293 71.5q109 0 202 -15t150 -38l-18 -70q-84 23 -170 35t-158 12q-129 0 -225.5 -47t-160 -133t-94 -207.5t-30.5 -271.5q0 -119 18.5 -230.5t70.5 -198.5t147.5 -139.5t250.5 -52.5q29 0 67 3.5t78 8.5t78 12t66 17v596h88 v-657q-98 -31 -196.5 -44t-196.5 -13q-154 0 -261.5 49t-174 141t-97 222t-30.5 292zM606 -211q0 29 19.5 50.5t52.5 21.5q35 0 56.5 -23.5t21.5 -66.5q-4 -113 -115 -195l-25 27q31 35 40.5 60.5t9.5 60.5q-27 4 -43.5 21t-16.5 44z" />
<glyph unicode="&#x123;" horiz-adv-x="1036" d="M92 -156q0 88 40 158t91 102q-66 8 -95.5 43t-29.5 89q0 45 17.5 73.5t44 46t58.5 24.5t63 9l2 4q-61 29 -106.5 99.5t-45.5 177.5q0 92 33 157.5t85 106.5t116.5 59.5t128.5 18.5q43 0 88 -4t88 -19h299v-65h-185l-2 -6q53 -41 78 -105.5t25 -136.5q0 -160 -107.5 -248 t-285.5 -88h-123q-39 0 -74 -3t-60.5 -13.5t-41 -27.5t-15.5 -48q0 -86 131 -86h281q184 0 267 -77t83 -208q0 -78 -34 -137t-93 -101t-141 -63.5t-178 -21.5q-117 0 -195 24.5t-124 64.5t-64.5 92t-18.5 109zM176 -137q0 -47 13.5 -90t50 -77t100 -53.5t166.5 -19.5 q76 0 140.5 17.5t110.5 49t72.5 79t26.5 106.5q0 37 -9 75t-39 70.5t-85 53t-145 20.5h-254q-35 -14 -63 -39.5t-46 -57.5t-28.5 -66.5t-10.5 -67.5zM215 672q0 -119 73.5 -191.5t190.5 -72.5q145 0 233.5 66.5t88.5 201.5q0 43 -14.5 91t-48 87t-91 64.5t-141.5 25.5 q-141 0 -216 -73.5t-75 -198.5zM428 1227v2q0 109 115 192q6 -8 11 -14t13 -12q-31 -35 -40 -59.5t-9 -59.5q27 -4 43.5 -21.5t16.5 -44.5q0 -31 -19.5 -52t-52.5 -21q-35 0 -56.5 23.5t-21.5 66.5z" />
<glyph unicode="&#x124;" horiz-adv-x="1249" d="M164 0v1399h92v-621h737v621h92v-1399h-92v700h-737v-700h-92zM305 1509l277 260h73l279 -258l-31 -34l-285 200l-282 -202z" />
<glyph unicode="&#x125;" horiz-adv-x="974" d="M-152 1530l277 264h74l276 -262l-29 -35l-284 205l-285 -207zM121 0v1452h84v-293v-59.5t-1 -70.5t-2 -69.5t-1 -58.5l8 -6q104 55 203.5 86t171.5 31q98 0 152.5 -30t81 -74t31.5 -97t5 -102v-709h-86v678q0 57 -6 105t-26.5 83t-61.5 53.5t-109 18.5q-86 0 -184 -37 t-176 -80v-821h-84z" />
<glyph unicode="&#x126;" horiz-adv-x="1249" d="M45 1059v61h119v279h92v-279h737v279h92v-279h123v-61h-123v-1059h-92v700h-737v-700h-92v1059h-119zM256 778h737v281h-737v-281z" />
<glyph unicode="&#x127;" horiz-adv-x="987" d="M0 1165v60h133v227h84v-227h416v-60h-416v-291q106 55 206.5 87t172.5 32q98 0 152.5 -29.5t80 -73.5t30.5 -97.5t5 -102.5v-690h-84v659q0 57 -6 105.5t-27.5 83.5t-61.5 53.5t-110 18.5q-84 0 -182 -37t-176 -80v-803h-84v1165h-133z" />
<glyph unicode="&#x128;" horiz-adv-x="456" d="M-61 1577q20 57 60 92t89 35q33 0 73 -12.5t80 -25.5t77.5 -25.5t66.5 -12.5l100 82l35 -24q-20 -53 -56 -91.5t-85 -38.5q-33 0 -74 12.5t-82 28t-79 27.5t-64 12l-105 -84zM184 0v1399h88v-1399h-88z" />
<glyph unicode="&#x129;" horiz-adv-x="425" d="M-74 1212q20 57 60.5 92t89.5 35q33 0 72.5 -12t79.5 -25.5t78 -25.5t67 -12l100 82l35 -25q-20 -53 -56 -91t-85 -38q-33 0 -74 12.5t-82 27.5t-79 27.5t-64 12.5l-105 -84zM172 0v997h82v-997h-82z" />
<glyph unicode="&#x12a;" horiz-adv-x="456" d="M-74 1532v76h611v-76h-611zM184 0v1399h88v-1399h-88z" />
<glyph unicode="&#x12b;" horiz-adv-x="530" d="M-41 1225v75h612v-75h-612zM225 0v997h82v-997h-82z" />
<glyph unicode="&#x12c;" horiz-adv-x="456" d="M-80 1681l64 41q49 -72 111.5 -117.5t127.5 -45.5q49 0 118 30.5t161 122.5l35 -26q-84 -115 -165 -158t-155 -43q-47 0 -90 16.5t-81 44t-69.5 62t-56.5 73.5zM184 0v1399h88v-1399h-88z" />
<glyph unicode="&#x12d;" horiz-adv-x="516" d="M-51 1348l63 41q49 -72 111.5 -117t128.5 -45q49 0 117.5 30.5t160.5 120.5l35 -28q-84 -113 -164.5 -157t-154.5 -44q-47 0 -90 16.5t-81 44t-70 63.5t-56 75zM209 0v997h82v-997h-82z" />
<glyph unicode="&#x12e;" horiz-adv-x="456" d="M2 -268q0 55 36 133t146 168v1366h88v-1399h-67q-68 -68 -93.5 -132.5t-25.5 -105.5q0 -61 37 -82.5t90 -21.5q41 0 78 6t65 14l13 -38q-47 -25 -96.5 -36.5t-94.5 -11.5q-92 0 -134 40t-42 100z" />
<glyph unicode="&#x12f;" horiz-adv-x="425" d="M8 -260q0 53 32 126t130 159l2 972h82v-997h-51q-63 -66 -87 -127t-24 -102q0 -61 37 -83t90 -22q41 0 78 6t65 15l13 -39q-47 -25 -96.5 -36t-94.5 -11q-92 0 -134 40t-42 99zM145 1249q0 29 19.5 49.5t46.5 20.5q29 0 49.5 -20.5t20.5 -49.5q0 -27 -20.5 -46t-49.5 -19 q-27 0 -46.5 19.5t-19.5 45.5z" />
<glyph unicode="&#x130;" horiz-adv-x="456" d="M160 1645q0 29 20.5 50t48.5 21q29 0 50.5 -21t21.5 -50t-21.5 -50.5t-50.5 -21.5t-49 21.5t-20 50.5zM184 0v1399h88v-1399h-88z" />
<glyph unicode="&#x131;" horiz-adv-x="425" d="M172 0v997h82v-997h-82z" />
<glyph unicode="&#x132;" horiz-adv-x="915" d="M184 0v1399h88v-1399h-88zM283 -299q90 53 154.5 103.5t105.5 110.5t60.5 134t19.5 174v1176h88v-1172q0 -121 -27 -212t-77 -161.5t-124.5 -123t-169.5 -97.5z" />
<glyph unicode="&#x133;" horiz-adv-x="811" d="M145 1249q0 29 19.5 49.5t46.5 20.5q29 0 49.5 -20.5t20.5 -49.5q0 -27 -20.5 -46t-49.5 -19q-27 0 -46.5 19.5t-19.5 45.5zM170 0l2 997h82v-997h-84zM330 -381q74 39 120 77t72.5 79t36.5 89t10 111l-2 1022h84v-1007q-2 -84 -15 -147.5t-47 -114t-90.5 -91 t-142.5 -77.5q-4 10 -13 30.5t-13 28.5zM543 1249q0 29 19.5 49.5t45.5 20.5q29 0 49.5 -20.5t20.5 -49.5q0 -27 -20.5 -46t-49.5 -19q-27 0 -46 19t-19 46z" />
<glyph unicode="&#x134;" horiz-adv-x="548" d="M-84 -297q90 53 154.5 103.5t105.5 110.5t60.5 134t19.5 174v1176h88v-1172q0 -121 -26.5 -212t-77 -161.5t-125 -122.5t-168.5 -98zM-12 1509l276 260h74l278 -258l-30 -34l-285 200l-283 -202z" />
<glyph unicode="&#x135;" horiz-adv-x="442" d="M-84 1149l274 264h74l277 -262q-6 -10 -14.5 -17.5t-14.5 -17.5l-285 203l-282 -205q-8 8 -14.5 16.5t-14.5 18.5zM-53 -379q72 39 118 76t72.5 78t36.5 89t10 111v1020h82v-1005q0 -84 -14 -146.5t-47 -114t-88.5 -91t-141.5 -76.5q-8 14 -14 28.5t-14 30.5z" />
<glyph unicode="&#x136;" horiz-adv-x="1091" d="M164 0v1399h90v-697l682 697h113l-555 -561l563 -838h-103l-520 772l-180 -180v-592h-90zM496 -174q0 29 19.5 50.5t51.5 21.5q35 0 56.5 -24t21.5 -67q-4 -113 -115 -194l-24 27q31 35 40 60.5t9 59.5q-27 4 -43 21.5t-16 44.5z" />
<glyph unicode="&#x137;" horiz-adv-x="849" d="M121 0v1450h84v-672l-4 -262q4 0 5 -1t3 -1l147 145l342 336h103l-395 -387l61 -82q12 -16 40 -57t63.5 -94t74.5 -111.5t75 -112t63.5 -94.5t39.5 -57h-96q-96 139 -189.5 277.5t-187.5 279.5q-35 -37 -72.5 -72.5t-72.5 -72.5v-412h-84zM373 -166q0 29 19.5 50.5 t51.5 21.5q35 0 56.5 -23.5t21.5 -66.5q-4 -113 -114 -195l-25 27q31 35 40 60.5t9 60.5q-27 4 -43 21t-16 44z" />
<glyph unicode="&#x138;" horiz-adv-x="849" d="M121 0v995h84v-196l-4 -283q4 0 5 -1t3 -1l147 145l342 336h103l-395 -387l61 -82q12 -16 40 -57t63.5 -94t74.5 -111.5t75 -112t63.5 -94.5t39.5 -57h-96q-96 139 -189.5 277.5t-187.5 279.5q-35 -37 -72.5 -72.5t-72.5 -72.5v-412h-84z" />
<glyph unicode="&#x139;" horiz-adv-x="1079" d="M201 0v1399h90l2 -1325h751v-74h-843zM219 1503l219 305l74 -65l-248 -273z" />
<glyph unicode="&#x13a;" horiz-adv-x="391" d="M143 1524l219 305l74 -66l-248 -272zM152 0v1452h86v-1452h-86z" />
<glyph unicode="&#x13b;" horiz-adv-x="1079" d="M201 0v1399h90l2 -1325h751v-74h-843zM524 -211q0 29 19.5 50.5t52.5 21.5q35 0 56.5 -23.5t21.5 -66.5q-4 -113 -115 -195l-24 27q31 35 40 60.5t9 60.5q-27 4 -43.5 21t-16.5 44z" />
<glyph unicode="&#x13c;" horiz-adv-x="391" d="M119 -211q0 29 19.5 50.5t51.5 21.5q35 0 56.5 -23.5t21.5 -66.5q-4 -113 -114 -195l-25 27q31 35 40 60.5t9 60.5q-27 4 -43 21t-16 44zM152 0v1452h86v-1452h-86z" />
<glyph unicode="&#x13d;" horiz-adv-x="1079" d="M201 0v1399h90l2 -1325h751v-74h-843zM711 1315q0 29 19.5 50t51.5 21q35 0 56.5 -23.5t21.5 -66.5q-4 -113 -115 -194l-24 26q31 35 40 60.5t9 60.5q-27 4 -43 21.5t-16 44.5z" />
<glyph unicode="&#x13e;" horiz-adv-x="503" d="M152 0v1452h86v-1452h-86zM365 1374q0 29 19 50.5t52 21.5q35 0 56.5 -23.5t21.5 -66.5q-4 -113 -115 -195l-24 27q31 35 40 60.5t9 60.5q-27 4 -43 21t-16 44z" />
<glyph unicode="&#x13f;" horiz-adv-x="1079" d="M201 0v1399h90l2 -1325h751v-74h-843zM678 801q0 29 20.5 50t49.5 21t50 -21t21 -50t-21.5 -50.5t-49.5 -21.5q-29 0 -49.5 21.5t-20.5 50.5z" />
<glyph unicode="&#x140;" horiz-adv-x="524" d="M152 0v1452h86v-1452h-86zM352 750q0 29 20.5 50t49.5 21t50.5 -21t21.5 -50t-21.5 -50.5t-50.5 -21.5t-49.5 21.5t-20.5 50.5z" />
<glyph unicode="&#x141;" horiz-adv-x="1079" d="M25 528l176 101v770h90v-717l280 162l33 -56l-313 -182l2 -532h751v-74h-843v553l-142 -82z" />
<glyph unicode="&#x142;" horiz-adv-x="391" d="M-76 571l228 131v750h86l-2 -700l217 122q4 -6 15 -27.5t15 -27.5q-8 -6 -44 -26.5t-78 -45t-78.5 -46t-46.5 -25.5v-676h-84v627q-6 -4 -36 -21.5t-63 -36t-62.5 -36t-35.5 -21.5q-4 8 -15.5 29.5t-15.5 29.5z" />
<glyph unicode="&#x143;" horiz-adv-x="1318" d="M164 0v1399h94l662 -1026l137 -215h8v1241h90l-2 -1399h-88l-653 1010l-152 243q-2 0 -4 -1t-4 -1v-1251h-88zM610 1495l219 305l74 -65l-248 -273z" />
<glyph unicode="&#x144;" horiz-adv-x="974" d="M123 0v997h82q0 -18 1 -47.5t1 -48.5q0 -2 2 -2t2 -1t2 -1q96 55 197.5 85t173.5 30q94 0 148 -25.5t81 -66.5t34 -91.5t7 -97.5v-731h-86v676q0 59 -4 107t-23.5 83t-60.5 53.5t-113 18.5q-41 0 -89 -10t-95 -27.5t-93 -38t-83 -41.5v-821h-84zM373 1157l219 303l74 -63 l-250 -275z" />
<glyph unicode="&#x145;" horiz-adv-x="1318" d="M164 0v1399h94l662 -1026l137 -215h8v1241h90l-2 -1399h-88l-653 1010l-152 243q-2 0 -4 -1t-4 -1v-1251h-88zM571 -195q0 29 19.5 50.5t52.5 21.5q35 0 56.5 -23.5t21.5 -66.5q-4 -113 -115 -195l-24 27q31 35 40 60.5t9 60.5q-27 4 -43.5 21t-16.5 44z" />
<glyph unicode="&#x146;" horiz-adv-x="974" d="M123 0v997h82q0 -18 1 -47.5t1 -48.5q0 -2 2 -2t2 -1t2 -1q96 55 197.5 85t173.5 30q94 0 148 -25.5t81 -66.5t34 -91.5t7 -97.5v-731h-86v676q0 59 -4 107t-23.5 83t-60.5 53.5t-113 18.5q-41 0 -89 -10t-95 -27.5t-93 -38t-83 -41.5v-821h-84zM424 -182q0 29 19.5 50 t52.5 21q35 0 56 -23.5t21 -66.5q-4 -113 -114 -194l-25 26q31 35 40 60.5t9 60.5q-27 4 -43 21.5t-16 44.5z" />
<glyph unicode="&#x147;" horiz-adv-x="1318" d="M164 0v1399h94l662 -1026l137 -215h8v1241h90l-2 -1399h-88l-653 1010l-152 243q-2 0 -4 -1t-4 -1v-1251h-88zM375 1737l31 35l284 -205l283 202l31 -34l-279 -258h-72z" />
<glyph unicode="&#x148;" horiz-adv-x="974" d="M123 0v997h82q0 -18 1 -47.5t1 -48.5q0 -2 2 -2t2 -1t2 -1q96 55 197.5 85t173.5 30q94 0 148 -25.5t81 -66.5t34 -91.5t7 -97.5v-731h-86v676q0 59 -4 107t-23.5 83t-60.5 53.5t-113 18.5q-41 0 -89 -10t-95 -27.5t-93 -38t-83 -41.5v-821h-84zM152 1403l28 33l285 -207 l285 205l28 -35l-276 -262h-74z" />
<glyph unicode="&#x149;" horiz-adv-x="1099" d="M23 1223q0 29 19 50t52 21q35 0 56.5 -23.5t21.5 -66.5q-4 -113 -115 -194l-24 26q31 35 40 60.5t9 60.5q-27 4 -43 21.5t-16 44.5zM248 0v997h82q0 -18 1 -47.5t1 -48.5q0 -2 2 -2t2 -1t2 -1q96 55 197.5 85t173.5 30q94 0 148 -25.5t81 -66.5t34 -91.5t7 -97.5v-731 h-86v676q0 59 -4 107t-23.5 83t-60.5 53.5t-113 18.5q-41 0 -89 -10t-95 -27.5t-93 -38t-83 -41.5v-821h-84z" />
<glyph unicode="&#x14a;" horiz-adv-x="1318" d="M164 0v1399h94l662 -1026l137 -215h8v1241h90l-2 -1536q0 -217 -231 -217q-33 0 -71 4t-75 14l12 68q31 -6 65 -9.5t58 -3.5q158 0 158 136v139l-657 1016l-152 243q-2 0 -4 -1t-4 -1v-1251h-88z" />
<glyph unicode="&#x14b;" horiz-adv-x="974" d="M121 995h86v-100h2q96 55 198.5 86t174.5 31q94 0 148 -25.5t81 -66.5t34 -91.5t7 -99.5l-2 -782q0 -53 -8 -98.5t-33 -79t-71 -53t-122 -19.5q-35 0 -68.5 4t-74.5 12q4 16 7 32.5t7 33.5q29 -8 61.5 -11.5t55.5 -3.5q84 0 124 34t40 108v770q0 59 -5 107t-24.5 82 t-60.5 52.5t-113 18.5q-41 0 -89 -10.5t-95 -26.5t-93 -36.5t-83 -41.5v-821h-82q0 250 -1 497.5t-1 497.5z" />
<glyph unicode="&#x14c;" horiz-adv-x="1357" d="M123 686q0 143 28.5 275.5t94 233.5t175 162.5t271.5 61.5q164 0 269.5 -61.5t166 -162.5t84 -232.5t23.5 -270.5q0 -152 -34 -279.5t-102.5 -222t-170 -148.5t-236.5 -56q-158 0 -266.5 48t-176 139t-97 220t-29.5 293zM215 682q0 -305 110.5 -465t356.5 -160 q117 0 204 49.5t143 135.5t84 200.5t28 243.5q0 109 -16.5 225.5t-63.5 214t-136 160t-233 62.5q-145 0 -237.5 -57.5t-145.5 -152t-73.5 -213t-20.5 -243.5zM377 1532v76h610v-76h-610z" />
<glyph unicode="&#x14d;" horiz-adv-x="1007" d="M100 487q0 96 21.5 189.5t71 167.5t128 120t193.5 46q117 0 193.5 -45t120.5 -119t61.5 -167t17.5 -187q0 -92 -17.5 -182.5t-63.5 -162t-124.5 -116.5t-199.5 -45q-117 0 -195 42t-124 111.5t-64.5 159.5t-18.5 188zM188 485q0 -84 12.5 -160.5t47.5 -136t98.5 -95.5 t167.5 -36q94 0 154.5 39t94.5 101.5t46 139t12 150.5t-11 154t-45 146.5t-93.5 109.5t-157.5 43t-160.5 -41t-99.5 -105.5t-51.5 -146.5t-14.5 -162zM203 1225v75h612v-75h-612z" />
<glyph unicode="&#x14e;" horiz-adv-x="1357" d="M123 686q0 143 28.5 275.5t94 233.5t175 162.5t271.5 61.5q164 0 269.5 -61.5t166 -162.5t84 -232.5t23.5 -270.5q0 -152 -34 -279.5t-102.5 -222t-170 -148.5t-236.5 -56q-158 0 -266.5 48t-176 139t-97 220t-29.5 293zM215 682q0 -305 110.5 -465t356.5 -160 q117 0 204 49.5t143 135.5t84 200.5t28 243.5q0 109 -16.5 225.5t-63.5 214t-136 160t-233 62.5q-145 0 -237.5 -57.5t-145.5 -152t-73.5 -213t-20.5 -243.5zM383 1698l63 41q49 -72 112 -118t128 -46q49 0 117.5 30.5t161.5 123.5l34 -27q-84 -115 -164.5 -158t-154.5 -43 q-47 0 -90 16.5t-81 44t-69.5 62.5t-56.5 74z" />
<glyph unicode="&#x14f;" horiz-adv-x="1007" d="M100 487q0 96 21.5 189.5t71 167.5t128 120t193.5 46q117 0 193.5 -45t120.5 -119t61.5 -167t17.5 -187q0 -92 -17.5 -182.5t-63.5 -162t-124.5 -116.5t-199.5 -45q-117 0 -195 42t-124 111.5t-64.5 159.5t-18.5 188zM188 485q0 -84 12.5 -160.5t47.5 -136t98.5 -95.5 t167.5 -36q94 0 154.5 39t94.5 101.5t46 139t12 150.5t-11 154t-45 146.5t-93.5 109.5t-157.5 43t-160.5 -41t-99.5 -105.5t-51.5 -146.5t-14.5 -162zM211 1348l63 41q47 -74 109.5 -119t126.5 -45q47 0 114.5 30.5t157.5 122.5l35 -28q-82 -115 -161.5 -160t-151.5 -45 q-47 0 -89 17.5t-79 45t-68.5 64.5t-56.5 76z" />
<glyph unicode="&#x150;" horiz-adv-x="1357" d="M123 686q0 143 28.5 275.5t94 233.5t175 162.5t271.5 61.5q164 0 269.5 -61.5t166 -162.5t84 -232.5t23.5 -270.5q0 -152 -34 -279.5t-102.5 -222t-170 -148.5t-236.5 -56q-158 0 -266.5 48t-176 139t-97 220t-29.5 293zM215 682q0 -305 110.5 -465t356.5 -160 q117 0 204 49.5t143 135.5t84 200.5t28 243.5q0 109 -16.5 225.5t-63.5 214t-136 160t-233 62.5q-145 0 -237.5 -57.5t-145.5 -152t-73.5 -213t-20.5 -243.5zM516 1505l215 307l76 -61l-246 -278zM721 1505l217 307l76 -61l-246 -278z" />
<glyph unicode="&#x151;" horiz-adv-x="1007" d="M100 487q0 96 21.5 189.5t71 167.5t128 120t193.5 46q117 0 193.5 -45t120.5 -119t61.5 -167t17.5 -187q0 -92 -17.5 -182.5t-63.5 -162t-124.5 -116.5t-199.5 -45q-117 0 -195 42t-124 111.5t-64.5 159.5t-18.5 188zM188 485q0 -84 12.5 -160.5t47.5 -136t98.5 -95.5 t167.5 -36q94 0 154.5 39t94.5 101.5t46 139t12 150.5t-11 154t-45 146.5t-93.5 109.5t-157.5 43t-160.5 -41t-99.5 -105.5t-51.5 -146.5t-14.5 -162zM322 1153l215 309l73 -63l-245 -277zM530 1153l215 309l74 -63l-246 -277z" />
<glyph unicode="&#x152;" horiz-adv-x="1564" d="M104 686q0 143 29 275.5t95.5 233.5t175 162.5t270.5 61.5q47 0 99 -6t89 -16h602v-72h-639v-549h547v-71h-547v-633h674v-72h-700q-53 -10 -125 -14q-158 0 -266.5 48t-176 139t-97.5 220t-30 293zM199 682q0 -305 110.5 -465t356.5 -160q16 0 34.5 1t34.5 3v1278 q-14 2 -29.5 4.5t-31.5 2.5q-143 0 -235.5 -57.5t-145.5 -151t-73.5 -213t-20.5 -242.5z" />
<glyph unicode="&#x153;" horiz-adv-x="1665" d="M88 487q0 96 21.5 189.5t70.5 167.5t127 120t193 46q78 0 137 -21.5t101 -58.5t70 -87t44 -108q18 51 47 101.5t72 88.5t104.5 61.5t143.5 23.5q94 0 157.5 -29t104.5 -74t63.5 -100t31.5 -107.5t10 -97.5t1 -67v-48h-690q0 -86 13.5 -163.5t49 -137t98 -94.5t159.5 -35 q90 0 160.5 17.5t154.5 58.5l24 -59q-84 -45 -162.5 -65.5t-174.5 -20.5q-82 0 -142.5 18.5t-105.5 52t-74 79.5t-47 104q-18 -53 -48 -100.5t-73 -82t-102.5 -54t-137.5 -19.5q-117 0 -194.5 42t-123.5 111.5t-64.5 159.5t-18.5 188zM176 485q0 -84 12.5 -160.5t47 -136 t98 -95.5t166.5 -36q96 0 155.5 39t93 101.5t46 139t12.5 150.5t-11.5 154t-44 146.5t-93 109.5t-158.5 43q-96 0 -158.5 -41t-99.5 -105.5t-51.5 -146.5t-14.5 -162zM899 549h604q0 86 -14 158.5t-48 125t-88.5 81t-135.5 28.5q-86 0 -143.5 -32.5t-94.5 -88t-55.5 -126 t-24.5 -146.5z" />
<glyph unicode="&#x154;" horiz-adv-x="1124" d="M164 0v1399h418q109 0 186.5 -29t126.5 -79t72.5 -117.5t23.5 -143.5q0 -57 -14 -116.5t-45 -109.5t-79 -88t-116 -54q86 -27 128 -88.5t67 -147.5l123 -426h-92l-119 410q-23 70 -52.5 113.5t-67.5 69t-83 36t-94 10.5h-293v-639h-90zM254 713h332q141 0 227 74.5 t86 236.5q0 76 -23.5 132t-66.5 93t-101.5 55.5t-127.5 18.5h-326v-610zM469 1503l219 305l74 -65l-248 -273z" />
<glyph unicode="&#x155;" horiz-adv-x="600" d="M143 0v997h86q0 -23 -2 -65.5t-2 -65.5l8 -2q29 25 71 52.5t86 50t86 37t73 14.5q12 0 22.5 -6t10.5 -27q0 -14 -8.5 -43t-20.5 -45q-12 -2 -59.5 -13.5t-101.5 -24.5t-101 -24.5t-60 -13.5v-821h-88zM160 1157l219 303l74 -63l-250 -275z" />
<glyph unicode="&#x156;" horiz-adv-x="1124" d="M164 0v1399h418q109 0 186.5 -29t126.5 -79t72.5 -117.5t23.5 -143.5q0 -57 -14 -116.5t-45 -109.5t-79 -88t-116 -54q86 -27 128 -88.5t67 -147.5l123 -426h-92l-119 410q-23 70 -52.5 113.5t-67.5 69t-83 36t-94 10.5h-293v-639h-90zM254 713h332q141 0 227 74.5 t86 236.5q0 76 -23.5 132t-66.5 93t-101.5 55.5t-127.5 18.5h-326v-610zM500 -184q0 29 19.5 50t51.5 21q35 0 56.5 -23.5t21.5 -66.5q-4 -113 -114 -194l-25 26q31 35 40 60.5t9 60.5q-27 4 -43 21.5t-16 44.5z" />
<glyph unicode="&#x157;" horiz-adv-x="600" d="M117 -188q0 29 19.5 50t51.5 21q35 0 56.5 -23.5t21.5 -66.5q-4 -113 -114 -194l-25 26q31 35 40 60.5t9 60.5q-27 4 -43 21.5t-16 44.5zM143 0v997h86q0 -23 -2 -65.5t-2 -65.5l8 -2q29 25 71 52.5t86 50t86 37t73 14.5q12 0 22.5 -6t10.5 -27q0 -14 -8.5 -43t-20.5 -45 q-12 -2 -59.5 -13.5t-101.5 -24.5t-101 -24.5t-60 -13.5v-821h-88z" />
<glyph unicode="&#x158;" horiz-adv-x="1124" d="M164 0v1399h418q109 0 186.5 -29t126.5 -79t72.5 -117.5t23.5 -143.5q0 -57 -14 -116.5t-45 -109.5t-79 -88t-116 -54q86 -27 128 -88.5t67 -147.5l123 -426h-92l-119 410q-23 70 -52.5 113.5t-67.5 69t-83 36t-94 10.5h-293v-639h-90zM197 1737l30 35l285 -205l283 202 l30 -34l-278 -258h-72zM254 713h332q141 0 227 74.5t86 236.5q0 76 -23.5 132t-66.5 93t-101.5 55.5t-127.5 18.5h-326v-610z" />
<glyph unicode="&#x159;" horiz-adv-x="600" d="M-35 1403l29 33l285 -207l284 205l29 -35l-277 -262h-73zM143 0v997h86q0 -23 -2 -65.5t-2 -65.5l8 -2q29 25 71 52.5t86 50t86 37t73 14.5q12 0 22.5 -6t10.5 -27q0 -14 -8.5 -43t-20.5 -45q-12 -2 -59.5 -13.5t-101.5 -24.5t-101 -24.5t-60 -13.5v-821h-88z" />
<glyph unicode="&#x15a;" horiz-adv-x="1089" d="M88 86l33 70q115 -57 210 -76t181 -19q188 0 292.5 71t104.5 241q0 74 -26.5 124t-72.5 83.5t-109.5 56t-139.5 43.5q-90 23 -170 49.5t-141.5 66.5t-97 99t-35.5 149t31.5 161t90 119t138.5 72.5t176 24.5q70 0 166 -12t188 -51l-28 -74q-104 35 -184.5 47t-151.5 12 q-72 0 -132.5 -18t-105.5 -55t-69.5 -93.5t-24.5 -132.5q0 -68 30.5 -112.5t81 -75.5t115 -51.5t131.5 -38.5q76 -20 153 -45t139.5 -68t101 -109.5t38.5 -172.5q0 -104 -37.5 -177t-103 -119t-154 -67.5t-188.5 -21.5q-109 0 -223.5 23.5t-206.5 76.5zM442 1499l220 305 l73 -65l-248 -273z" />
<glyph unicode="&#x15b;" horiz-adv-x="856" d="M88 59l31 62q86 -43 158.5 -55.5t128.5 -12.5q59 0 110 12.5t89 37t59.5 62.5t21.5 91q0 47 -21.5 81t-56.5 59.5t-80 43t-92 33.5q-61 20 -119.5 43t-103.5 54.5t-71.5 75.5t-26.5 106q0 70 25.5 119t70.5 79.5t103.5 45t123.5 14.5q47 0 124 -11.5t143 -44.5 q-4 -8 -13.5 -32.5t-13.5 -32.5q-72 29 -132.5 40t-109.5 11q-102 0 -170.5 -45t-68.5 -145q0 -41 23.5 -73t58 -55.5t76.5 -40t79 -28.5q61 -20 121.5 -42t108 -53.5t76 -79.5t28.5 -120t-28.5 -123t-78 -85t-115 -49t-136.5 -15q-86 0 -172 17t-150 56zM330 1157l219 303 l74 -63l-250 -275z" />
<glyph unicode="&#x15c;" horiz-adv-x="1089" d="M88 86l33 70q115 -57 210 -76t181 -19q188 0 292.5 71t104.5 241q0 74 -26.5 124t-72.5 83.5t-109.5 56t-139.5 43.5q-90 23 -170 49.5t-141.5 66.5t-97 99t-35.5 149t31.5 161t90 119t138.5 72.5t176 24.5q70 0 166 -12t188 -51l-28 -74q-104 35 -184.5 47t-151.5 12 q-72 0 -132.5 -18t-105.5 -55t-69.5 -93.5t-24.5 -132.5q0 -68 30.5 -112.5t81 -75.5t115 -51.5t131.5 -38.5q76 -20 153 -45t139.5 -68t101 -109.5t38.5 -172.5q0 -104 -37.5 -177t-103 -119t-154 -67.5t-188.5 -21.5q-109 0 -223.5 23.5t-206.5 76.5zM256 1509l276 260h74 l279 -258l-31 -34l-285 200l-282 -202z" />
<glyph unicode="&#x15d;" horiz-adv-x="856" d="M88 59l31 62q86 -43 158.5 -55.5t128.5 -12.5q59 0 110 12.5t89 37t59.5 62.5t21.5 91q0 47 -21.5 81t-56.5 59.5t-80 43t-92 33.5q-61 20 -119.5 43t-103.5 54.5t-71.5 75.5t-26.5 106q0 70 25.5 119t70.5 79.5t103.5 45t123.5 14.5q47 0 124 -11.5t143 -44.5 q-4 -8 -13.5 -32.5t-13.5 -32.5q-72 29 -132.5 40t-109.5 11q-102 0 -170.5 -45t-68.5 -145q0 -41 23.5 -73t58 -55.5t76.5 -40t79 -28.5q61 -20 121.5 -42t108 -53.5t76 -79.5t28.5 -120t-28.5 -123t-78 -85t-115 -49t-136.5 -15q-86 0 -172 17t-150 56zM127 1149l276 264 h74l277 -262l-29 -35l-285 205l-284 -207z" />
<glyph unicode="&#x15e;" horiz-adv-x="1089" d="M88 86l33 70q115 -57 210 -76t181 -19q188 0 292.5 71t104.5 241q0 74 -26.5 124t-72.5 83.5t-109.5 56t-139.5 43.5q-90 23 -170 49.5t-141.5 66.5t-97 99t-35.5 149t31.5 161t90 119t138.5 72.5t176 24.5q70 0 166 -12t188 -51l-28 -74q-104 35 -184.5 47t-151.5 12 q-72 0 -132.5 -18t-105.5 -55t-69.5 -93.5t-24.5 -132.5q0 -68 30.5 -112.5t81 -75.5t115 -51.5t131.5 -38.5q76 -20 153 -45t139.5 -68t101 -109.5t38.5 -172.5q0 -96 -32.5 -167t-91 -117t-137 -70.5t-171.5 -28.5l-106 -133q102 0 172 -33t70 -113t-82 -140.5t-263 -60.5 q0 12 -1 23.5t-1 24.5q145 10 204 52t59 95q0 47 -48.5 71.5t-117.5 24.5h-54q-14 16 -20 31l123 156q-104 2 -216 24.5t-200 75.5z" />
<glyph unicode="&#x15f;" horiz-adv-x="856" d="M88 59l31 62q86 -43 158.5 -55.5t128.5 -12.5q59 0 110 12.5t89 37t59.5 62.5t21.5 91q0 47 -21.5 81t-56.5 59.5t-80 43t-92 33.5q-61 20 -119.5 43t-103.5 54.5t-71.5 75.5t-26.5 106q0 70 25.5 119t70.5 79.5t103.5 45t123.5 14.5q47 0 124 -11.5t143 -44.5 q-4 -8 -13.5 -32.5t-13.5 -32.5q-72 29 -132.5 40t-109.5 11q-102 0 -170.5 -45t-68.5 -145q0 -41 23.5 -73t58 -55.5t76.5 -40t79 -28.5q61 -20 121.5 -42t108 -53.5t76 -79.5t28.5 -120q0 -66 -24.5 -114t-66.5 -81.5t-98.5 -52t-119.5 -22.5l-107 -133q102 0 172 -33 t70 -113t-82 -140.5t-262 -60.5q0 12 -1 23.5t-1 24.5q145 10 203.5 52t58.5 95q0 47 -48 71.5t-118 24.5h-53q-14 16 -21 31l123 156q-84 2 -165 19.5t-140 53.5z" />
<glyph unicode="&#x160;" horiz-adv-x="1089" d="M88 86l33 70q115 -57 210 -76t181 -19q188 0 292.5 71t104.5 241q0 74 -26.5 124t-72.5 83.5t-109.5 56t-139.5 43.5q-90 23 -170 49.5t-141.5 66.5t-97 99t-35.5 149t31.5 161t90 119t138.5 72.5t176 24.5q70 0 166 -12t188 -51l-28 -74q-104 35 -184.5 47t-151.5 12 q-72 0 -132.5 -18t-105.5 -55t-69.5 -93.5t-24.5 -132.5q0 -68 30.5 -112.5t81 -75.5t115 -51.5t131.5 -38.5q76 -20 153 -45t139.5 -68t101 -109.5t38.5 -172.5q0 -104 -37.5 -177t-103 -119t-154 -67.5t-188.5 -21.5q-109 0 -223.5 23.5t-206.5 76.5zM213 1737l31 35 l284 -205l283 202l31 -34l-279 -258h-71z" />
<glyph unicode="&#x161;" horiz-adv-x="856" d="M88 59l31 62q86 -43 158.5 -55.5t128.5 -12.5q59 0 110 12.5t89 37t59.5 62.5t21.5 91q0 47 -21.5 81t-56.5 59.5t-80 43t-92 33.5q-61 20 -119.5 43t-103.5 54.5t-71.5 75.5t-26.5 106q0 70 25.5 119t70.5 79.5t103.5 45t123.5 14.5q47 0 124 -11.5t143 -44.5 q-4 -8 -13.5 -32.5t-13.5 -32.5q-72 29 -132.5 40t-109.5 11q-102 0 -170.5 -45t-68.5 -145q0 -41 23.5 -73t58 -55.5t76.5 -40t79 -28.5q61 -20 121.5 -42t108 -53.5t76 -79.5t28.5 -120t-28.5 -123t-78 -85t-115 -49t-136.5 -15q-86 0 -172 17t-150 56zM106 1403l29 33 l285 -207l285 205l28 -35l-276 -262h-74z" />
<glyph unicode="&#x162;" horiz-adv-x="1064" d="M39 1323v76h985v-76h-446l-3 -1323h-86v1323h-450zM457 -211q0 29 19.5 50.5t51.5 21.5q35 0 56.5 -23.5t21.5 -66.5q-4 -113 -114 -195l-25 27q31 35 40 60.5t9 60.5q-27 4 -43 21t-16 44z" />
<glyph unicode="&#x163;" horiz-adv-x="655" d="M61 928v47l144 31l26 188l56 8v-205h291v-69h-291v-697q0 -37 6 -67.5t22.5 -53t47 -35t77.5 -12.5q74 0 191 35l16 -57q-49 -23 -106.5 -36t-114.5 -13q-47 0 -88 11t-70.5 35.5t-47 65.5t-17.5 101v723h-142zM295 -211q0 29 19.5 50.5t52.5 21.5q35 0 56 -23.5 t21 -66.5q-4 -113 -114 -195l-25 27q31 35 40 60.5t9 60.5q-27 4 -43 21t-16 44z" />
<glyph unicode="&#x164;" horiz-adv-x="1064" d="M39 1323v76h985v-76h-446l-3 -1323h-86v1323h-450zM221 1737l31 35l285 -205l282 202l31 -34l-279 -258h-71z" />
<glyph unicode="&#x165;" horiz-adv-x="772" d="M61 928v47l144 31l26 188l56 8v-205h291v-69h-291v-697q0 -37 6 -67.5t22.5 -53t47 -35t77.5 -12.5q74 0 191 35l16 -57q-49 -23 -106.5 -36t-114.5 -13q-47 0 -88 11t-70.5 35.5t-47 65.5t-17.5 101v723h-142zM602 1294q0 29 19.5 50.5t52.5 21.5q35 0 56.5 -23.5 t21.5 -66.5q-4 -113 -115 -195l-25 27q31 35 40.5 60.5t9.5 60.5q-27 4 -43.5 21t-16.5 44z" />
<glyph unicode="&#x166;" horiz-adv-x="1064" d="M39 1323v76h985v-76h-446l-3 -543h381v-63h-381v-717h-86v717h-372v63h372v543h-450z" />
<glyph unicode="&#x167;" horiz-adv-x="663" d="M53 928v47l144 31l26 188l56 8v-205h290v-69h-290v-199h272v-61h-272v-441q0 -72 29.5 -118t121.5 -46q41 0 88 9.5t105 25.5q2 -8 7 -28.5t9 -28.5q-51 -23 -108.5 -36t-112.5 -13q-47 0 -87 10t-71 34.5t-48 66.5t-17 104v461h-132v61h132v199h-142z" />
<glyph unicode="&#x168;" horiz-adv-x="1325" d="M160 494v905h86l2 -901q0 -438 414 -439q205 0 310 111t105 328v901h90v-905q0 -113 -31.5 -206t-94 -161t-158 -104.5t-224.5 -36.5q-262 0 -380.5 135t-118.5 373zM369 1587q20 57 60 92t89 35q33 0 73 -12t80 -25.5t77.5 -26t66.5 -12.5l100 82l35 -24 q-20 -53 -56 -91t-85 -38q-33 0 -74 12t-82 27.5t-78.5 28t-64.5 12.5l-104 -84z" />
<glyph unicode="&#x169;" horiz-adv-x="958" d="M123 281v716h84v-686q0 -61 5 -109t25.5 -82t60.5 -51.5t110 -17.5q68 0 164 37t182 115l-2 794h84v-997h-82v125l-6 4q-59 -49 -112.5 -79t-100 -45t-83 -20t-59.5 -5q-102 0 -156.5 28.5t-80 73.5t-29.5 98t-4 101zM184 1208q20 57 60.5 92t89.5 35q33 0 72.5 -12 t79.5 -25.5t78 -25.5t67 -12l100 81l35 -24q-20 -53 -56 -91t-85 -38q-33 0 -74 12t-82 27.5t-79 28t-64 12.5l-105 -84z" />
<glyph unicode="&#x16a;" horiz-adv-x="1325" d="M160 494v905h86l2 -901q0 -438 414 -439q205 0 310 111t105 328v901h90v-905q0 -113 -31.5 -206t-94 -161t-158 -104.5t-224.5 -36.5q-262 0 -380.5 135t-118.5 373zM348 1532v76h610v-76h-610z" />
<glyph unicode="&#x16b;" horiz-adv-x="958" d="M123 281v716h84v-686q0 -61 5 -109t25.5 -82t60.5 -51.5t110 -17.5q68 0 164 37t182 115l-2 794h84v-997h-82v125l-6 4q-59 -49 -112.5 -79t-100 -45t-83 -20t-59.5 -5q-102 0 -156.5 28.5t-80 73.5t-29.5 98t-4 101zM164 1225v75h612v-75h-612z" />
<glyph unicode="&#x16c;" horiz-adv-x="1325" d="M160 494v905h86l2 -901q0 -438 414 -439q205 0 310 111t105 328v901h90v-905q0 -113 -31.5 -206t-94 -161t-158 -104.5t-224.5 -36.5q-262 0 -380.5 135t-118.5 373zM367 1698l63 41q49 -72 111.5 -117t128.5 -45q49 0 117.5 30.5t160.5 121.5l35 -29 q-84 -113 -164.5 -157t-154.5 -44q-47 0 -90.5 16.5t-81 44t-69.5 63.5t-56 75z" />
<glyph unicode="&#x16d;" horiz-adv-x="958" d="M123 281v716h84v-686q0 -61 5 -109t25.5 -82t60.5 -51.5t110 -17.5q68 0 164 37t182 115l-2 794h84v-997h-82v125l-6 4q-59 -49 -112.5 -79t-100 -45t-83 -20t-59.5 -5q-102 0 -156.5 28.5t-80 73.5t-29.5 98t-4 101zM168 1348l63 41q49 -72 112 -117t128 -45 q49 0 117.5 30.5t161.5 120.5l34 -28q-84 -113 -164.5 -157t-154.5 -44q-47 0 -90 16.5t-81 44t-69.5 63.5t-56.5 75z" />
<glyph unicode="&#x16e;" horiz-adv-x="1325" d="M160 494v905h86l2 -901q0 -438 414 -439q205 0 310 111t105 328v901h90v-905q0 -113 -31.5 -206t-94 -161t-158 -104.5t-224.5 -36.5q-262 0 -380.5 135t-118.5 373zM481 1632q0 74 53.5 128.5t135.5 54.5t132 -53.5t50 -129.5t-51 -128t-131 -52q-86 0 -137.5 53.5 t-51.5 126.5zM545 1628q0 -55 32.5 -89t92.5 -34q55 0 88 34t33 89t-33 91t-88 36q-59 0 -92 -34.5t-33 -92.5z" />
<glyph unicode="&#x16f;" horiz-adv-x="958" d="M123 281v716h84v-686q0 -61 5 -109t25.5 -82t60.5 -51.5t110 -17.5q68 0 164 37t182 115l-2 794h84v-997h-82v125l-6 4q-59 -49 -112.5 -79t-100 -45t-83 -20t-59.5 -5q-102 0 -156.5 28.5t-80 73.5t-29.5 98t-4 101zM297 1300q0 74 53 128.5t135 54.5t132.5 -53.5 t50.5 -129.5t-51.5 -128t-131.5 -52q-86 0 -137 53.5t-51 126.5zM360 1296q0 -55 33 -88.5t92 -33.5q55 0 88 33.5t33 88.5t-33 91t-88 36q-59 0 -92 -34.5t-33 -92.5z" />
<glyph unicode="&#x170;" horiz-adv-x="1325" d="M160 494v905h86l2 -901q0 -438 414 -439q205 0 310 111t105 328v901h90v-905q0 -113 -31.5 -206t-94 -161t-158 -104.5t-224.5 -36.5q-262 0 -380.5 135t-118.5 373zM508 1505l215 307l76 -61l-246 -278zM713 1505l217 307l76 -61l-246 -278z" />
<glyph unicode="&#x171;" horiz-adv-x="958" d="M123 281v716h84v-686q0 -61 5 -109t25.5 -82t60.5 -51.5t110 -17.5q68 0 164 37t182 115l-2 794h84v-997h-82v125l-6 4q-59 -49 -112.5 -79t-100 -45t-83 -20t-59.5 -5q-102 0 -156.5 28.5t-80 73.5t-29.5 98t-4 101zM319 1153l216 309l73 -63l-246 -277zM528 1153 l215 309l74 -63l-246 -277z" />
<glyph unicode="&#x172;" horiz-adv-x="1325" d="M160 494v905h86l2 -901q0 -438 414 -439q205 0 310 111t105 328v901h90v-905q0 -109 -28.5 -199t-87 -156.5t-146.5 -105.5t-205 -45q-68 -70 -94 -135.5t-26 -106.5q0 -61 36.5 -82.5t90.5 -21.5q41 0 77.5 6t65.5 14l12 -39q-47 -25 -96 -36t-94 -11q-92 0 -134 40 t-42 99q0 51 28.5 121t116.5 150q-127 2 -218 37.5t-149.5 101t-86 159t-27.5 210.5z" />
<glyph unicode="&#x173;" horiz-adv-x="958" d="M123 281v716h84v-686q0 -61 5 -109t25.5 -82t60.5 -51.5t110 -17.5q68 0 164 37t182 115l-2 794h84v-997h-58q-61 -66 -84.5 -126t-23.5 -101q0 -61 36.5 -83t90.5 -22q41 0 77.5 6.5t65.5 14.5l12 -39q-47 -25 -96 -36t-94 -11q-92 0 -134 40t-42 99q0 53 32.5 128 t135.5 161v94l-6 4q-59 -49 -112.5 -79t-100 -45t-83 -20t-59.5 -5q-102 0 -156.5 28.5t-80 73.5t-29.5 98t-4 101z" />
<glyph unicode="&#x174;" horiz-adv-x="1615" d="M35 1397h88q10 -43 34.5 -146.5t56.5 -237.5t66.5 -282.5t65.5 -277.5t53.5 -225.5t28.5 -125.5h8l96 414l209 881h93q25 -92 56.5 -208t63 -234.5t63.5 -232.5t56 -204q2 -10 11.5 -42t20.5 -74t24.5 -90t24.5 -91t19.5 -75.5t10.5 -43.5h8q25 106 50.5 212t47.5 214 q53 217 102.5 434.5t102.5 434.5h86q-86 -358 -170 -706.5t-168 -690.5h-113q-57 217 -114.5 428t-116.5 432q-27 100 -52.5 198.5t-53.5 198.5h-11l-92 -397q-39 -160 -89 -374t-112 -486h-116zM475 1509l277 260h73l279 -258l-31 -34l-285 200l-282 -202z" />
<glyph unicode="&#x175;" horiz-adv-x="1363" d="M27 997h86l166 -610l77 -305h9l90 324l172 591h86l207 -651l79 -264h9l71 274l172 641h86l-280 -997h-103l-198 621l-82 272h-6l-70 -250l-188 -643h-105zM354 1149l277 264h74l276 -262l-29 -35l-284 205l-285 -207z" />
<glyph unicode="&#x176;" horiz-adv-x="980" d="M27 1399h98l233 -443l121 -239h8l121 227l248 455h96l-422 -760v-639h-92v633zM170 1509l276 260h74l279 -258l-31 -34l-285 200l-282 -202z" />
<glyph unicode="&#x177;" horiz-adv-x="858" d="M-16 -418l14 68q63 -12 97 -17.5t69 -5.5q27 0 51.5 3t45 17.5t39.5 45.5t38 86l72 223h-45q-8 25 -34 101.5t-59.5 179t-72.5 217t-74 217t-60.5 179.5t-33.5 101h84q4 -14 19.5 -62t37 -112.5t45 -137.5t45 -137.5l37.5 -112.5t20 -62l103 -316h8q4 10 13.5 39t22.5 72 t29.5 96t34.5 113l197 620h86q-6 -23 -25.5 -81t-46 -142t-59.5 -184.5t-65.5 -204.5t-65.5 -204.5t-60.5 -183.5t-46 -142.5t-26.5 -79.5q-33 -102 -83 -161.5t-149 -59.5q-31 2 -81 6t-121 22zM123 1149l276 264h74l277 -262l-29 -35l-285 205l-284 -207z" />
<glyph unicode="&#x178;" horiz-adv-x="980" d="M27 1399h98l233 -443l121 -239h8l121 227l248 455h96l-422 -760v-639h-92v633zM268 1542q0 27 18.5 45.5t43.5 18.5q29 0 47 -18.5t18 -45.5q0 -29 -18.5 -46t-46.5 -17q-27 0 -44.5 17t-17.5 46zM573 1542q0 27 18.5 45.5t43.5 18.5q29 0 47 -18.5t18 -45.5 q0 -29 -18 -46t-47 -17q-27 0 -44.5 17t-17.5 46z" />
<glyph unicode="&#x179;" horiz-adv-x="991" d="M35 0v78l782 1245h-733v76h838v-78l-781 -1243h815v-78h-921zM428 1503l219 305l74 -65l-248 -273z" />
<glyph unicode="&#x17a;" horiz-adv-x="811" d="M31 0v66l616 854l-4 6h-561v71h668v-73l-613 -848l4 -8l629 2v-70h-739zM313 1157l219 303l74 -63l-250 -275z" />
<glyph unicode="&#x17b;" horiz-adv-x="991" d="M35 0v78l782 1245h-733v76h838v-78l-781 -1243h815v-78h-921zM442 1614q0 29 20.5 50.5t49.5 21.5t50.5 -21.5t21.5 -50.5t-21.5 -50.5t-50.5 -21.5t-49.5 21.5t-20.5 50.5z" />
<glyph unicode="&#x17c;" horiz-adv-x="811" d="M31 0v66l616 854l-4 6h-561v71h668v-73l-613 -848l4 -8l629 2v-70h-739zM346 1219q0 29 20.5 50t49.5 21t50 -21t21 -50t-21.5 -50.5t-49.5 -21.5q-29 0 -49.5 21.5t-20.5 50.5z" />
<glyph unicode="&#x17d;" horiz-adv-x="991" d="M35 0v78l782 1245h-733v76h838v-78l-781 -1243h815v-78h-921zM211 1737l31 35l284 -205l283 202l31 -34l-279 -258h-72z" />
<glyph unicode="&#x17e;" horiz-adv-x="811" d="M31 0v66l616 854l-4 6h-561v71h668v-73l-613 -848l4 -8l629 2v-70h-739zM106 1403l29 33l285 -207l285 205l28 -35l-276 -262h-74z" />
<glyph unicode="&#x192;" d="M61 -223l27 59q37 -10 60.5 -14t50.5 -4q109 0 154.5 75.5t74.5 225.5q10 53 21.5 132t21.5 165t19.5 170t17.5 147h-195v66h203l29 213q10 80 31.5 146.5t56.5 115.5t87 75.5t126 26.5q39 0 78 -5t73 -17l-18 -62q-45 10 -70.5 12.5t-60.5 2.5q-102 0 -155.5 -80 t-69.5 -213q-6 -47 -14.5 -107.5t-12.5 -107.5h217v-66h-223q-6 -41 -17.5 -130t-23.5 -187.5t-22.5 -182t-16.5 -114.5q-31 -186 -99.5 -279.5t-201.5 -93.5q-39 0 -76 7t-72 24z" />
<glyph unicode="&#x1a0;" horiz-adv-x="1359" d="M117 684q0 143 27.5 276.5t94 234.5t175 161.5t270.5 60.5q154 0 255 -53t163 -145h37q68 0 102.5 35.5t34.5 123.5v148h70v-162q0 -39 -8.5 -76t-31 -65.5t-60.5 -47t-97 -20.5h-6q47 -98 66.5 -218t19.5 -247q0 -150 -34 -277.5t-102.5 -222t-171 -148.5t-237.5 -56 q-158 0 -265.5 48t-175 138t-97 219t-29.5 293zM209 682q0 -305 110.5 -465t356.5 -160q117 0 203 49.5t143 134.5t85 199.5t28 243.5q0 109 -16.5 225.5t-64.5 214t-136.5 160t-233.5 62.5q-143 0 -235.5 -57.5t-145.5 -151t-73.5 -213t-20.5 -242.5z" />
<glyph unicode="&#x1a1;" horiz-adv-x="1019" d="M96 485q0 96 21.5 190.5t70 168.5t126 120t192.5 46q123 0 200.5 -50.5t122.5 -128.5h2q66 2 100 38t34 124v135h71v-151q0 -37 -8 -72t-28.5 -63.5t-55.5 -48t-86 -25.5q23 -61 33 -133t10 -143q0 -92 -17.5 -182.5t-63.5 -162t-124 -116.5t-198 -45q-119 0 -196 42 t-123 111.5t-64.5 159.5t-18.5 186zM184 483q0 -82 11.5 -158.5t46 -137t98 -96.5t166.5 -36q96 0 156.5 40t94.5 101.5t46 138t12 150.5t-11 154t-45 147.5t-94.5 110.5t-158.5 43q-96 0 -158.5 -41t-98.5 -106.5t-50.5 -146.5t-14.5 -163z" />
<glyph unicode="&#x1af;" horiz-adv-x="1409" d="M160 494v905h86l2 -901q0 -438 414 -439q205 0 310 111t105 328v901h90v-185h54q68 0 104.5 32t36.5 120v162h74v-174q0 -39 -9.5 -76t-33 -66.5t-64.5 -47t-102 -17.5h-60v-653q0 -113 -31.5 -206t-94 -161t-158 -104.5t-224.5 -36.5q-262 0 -380.5 135t-118.5 373z" />
<glyph unicode="&#x1b0;" horiz-adv-x="1050" d="M123 281v714h82v-686q0 -59 6 -107t26.5 -82t60.5 -52.5t108 -18.5q33 0 75.5 9.5t88.5 28.5t92.5 48t89.5 68v792h82v-159h16q68 0 103.5 32.5t35.5 120.5v141h70v-151q0 -41 -9.5 -79t-33 -66.5t-64.5 -47t-102 -18.5h-16v-768h-82v131q-59 -51 -114.5 -81t-103 -45 t-83 -20t-58.5 -5q-102 0 -157.5 28.5t-80 73.5t-28.5 98t-4 101z" />
<glyph unicode="&#x1fc;" horiz-adv-x="1806" d="M20 0l891 1399h783v-74h-643l-2 -547h555v-73h-555v-631h680v-74h-771l3 408h-582l-258 -408h-101zM424 483h537v834h-9zM1102 1503l219 305l74 -65l-248 -273z" />
<glyph unicode="&#x1fd;" horiz-adv-x="1572" d="M76 262q0 70 24.5 123t68.5 90t105.5 55.5t133.5 18.5h313v108q0 152 -52.5 216.5t-191.5 64.5q-76 0 -156.5 -18.5t-154.5 -45.5l-23 62q86 35 177.5 54.5t175.5 19.5q121 0 193.5 -51.5t94.5 -170.5q20 45 49 85t71 71t96 48.5t126 17.5q94 0 159 -29t106 -74 t62.5 -100t30.5 -108.5t10 -97.5t1 -69v-47h-688q0 -86 13.5 -162.5t49 -136t98 -94.5t158.5 -35q90 0 161 17.5t155 58.5l24 -59q-84 -45 -162.5 -66.5t-175.5 -21.5q-129 0 -206.5 42t-124.5 113q-78 -59 -145.5 -90t-124 -46t-100.5 -17t-73 -2q-84 0 -137 26.5t-85 66.5 t-44 89t-12 94zM164 272q0 -219 225 -219q37 0 83 7.5t97.5 24.5t102.5 44t98 66q-29 59 -39 132.5t-10 157.5h-301q-125 0 -190.5 -59t-65.5 -154zM768 1157l219 303l74 -63l-250 -275zM809 549h602q0 86 -14.5 157.5t-47 124t-87 82t-136.5 29.5q-86 0 -143 -32.5t-94 -88 t-55.5 -126t-24.5 -146.5z" />
<glyph unicode="&#x1fe;" horiz-adv-x="1316" d="M102 -10l131 178q-70 90 -100.5 221t-30.5 297q0 143 29 275.5t94.5 233.5t175 162.5t271.5 61.5q129 0 219 -39t151 -104l107 145h74l-140 -190q74 -104 102.5 -244.5t28.5 -294.5q0 -152 -33.5 -279.5t-102 -222t-170 -148.5t-236.5 -56q-266 0 -402 139l-98 -135h-70z M195 682q0 -141 23.5 -250.5t72.5 -187.5l698 960q-51 66 -129 105t-188 39q-145 0 -237.5 -57.5t-145.5 -152t-73.5 -213t-20.5 -243.5zM324 195q113 -137 338 -138q117 0 203.5 49.5t143 135.5t84 200.5t27.5 243.5q0 117 -19.5 242t-78.5 225zM629 1503l219 305l74 -65 l-248 -273z" />
<glyph unicode="&#x1ff;" horiz-adv-x="968" d="M82 -12q4 6 18.5 24.5t29.5 41t29.5 41t18.5 24.5q-53 72 -74.5 168t-21.5 200q0 96 21.5 189.5t69.5 167.5t127 120t194 46q92 0 155.5 -28t108.5 -75q2 4 14 19.5t24.5 32t23.5 32t14 19.5h59q-4 -6 -18.5 -26.5t-32 -43t-32.5 -43t-19 -27.5q53 -76 74.5 -175 t21.5 -203q0 -92 -17.5 -182.5t-63.5 -162t-124 -116.5t-199 -45q-94 0 -160.5 25.5t-113.5 70.5l-68 -92q-8 0 -30.5 -1t-28.5 -1zM170 487q0 -86 12.5 -163.5t48.5 -137.5q10 12 47 62.5t86.5 119t105.5 146.5t105.5 146.5t86 118.5t47.5 65q-35 43 -87 69.5t-128 26.5 q-96 0 -159 -41t-99.5 -105.5t-51 -145.5t-14.5 -161zM258 145q37 -41 93.5 -64.5t142.5 -23.5q96 0 155.5 39t93 101.5t46 139t12.5 150.5q0 76 -13.5 161t-52.5 153zM436 1157l219 303l74 -63l-250 -275z" />
<glyph unicode="&#x218;" horiz-adv-x="1089" d="M88 86l33 70q115 -57 210 -76t181 -19q188 0 292.5 71t104.5 241q0 74 -26.5 124t-72.5 83.5t-109.5 56t-139.5 43.5q-90 23 -170 49.5t-141.5 66.5t-97 99t-35.5 149t31.5 161t90 119t138.5 72.5t176 24.5q70 0 166 -12t188 -51l-28 -74q-104 35 -184.5 47t-151.5 12 q-72 0 -132.5 -18t-105.5 -55t-69.5 -93.5t-24.5 -132.5q0 -68 30.5 -112.5t81 -75.5t115 -51.5t131.5 -38.5q76 -20 153 -45t139.5 -68t101 -109.5t38.5 -172.5q0 -104 -37.5 -177t-103 -119t-154 -67.5t-188.5 -21.5q-109 0 -223.5 23.5t-206.5 76.5zM438 -211 q0 29 19.5 50.5t52.5 21.5q35 0 56.5 -23.5t21.5 -66.5q-4 -113 -115 -195l-24 27q31 35 40 60.5t9 60.5q-27 4 -43.5 21t-16.5 44z" />
<glyph unicode="&#x219;" horiz-adv-x="856" d="M88 59l31 62q86 -43 158.5 -55.5t128.5 -12.5q59 0 110 12.5t89 37t59.5 62.5t21.5 91q0 47 -21.5 81t-56.5 59.5t-80 43t-92 33.5q-61 20 -119.5 43t-103.5 54.5t-71.5 75.5t-26.5 106q0 70 25.5 119t70.5 79.5t103.5 45t123.5 14.5q47 0 124 -11.5t143 -44.5 q-4 -8 -13.5 -32.5t-13.5 -32.5q-72 29 -132.5 40t-109.5 11q-102 0 -170.5 -45t-68.5 -145q0 -41 23.5 -73t58 -55.5t76.5 -40t79 -28.5q61 -20 121.5 -42t108 -53.5t76 -79.5t28.5 -120t-28.5 -123t-78 -85t-115 -49t-136.5 -15q-86 0 -172 17t-150 56zM328 -211 q0 29 19.5 50.5t51.5 21.5q35 0 56.5 -23.5t21.5 -66.5q-4 -113 -115 -195l-24 27q31 35 40 60.5t9 60.5q-27 4 -43 21t-16 44z" />
<glyph unicode="&#x2c6;" horiz-adv-x="976" d="M156 1149l276 264h74l276 -262l-28 -35l-285 205l-285 -207z" />
<glyph unicode="&#x2c7;" horiz-adv-x="976" d="M170 1403l29 33l284 -207l285 205l29 -35l-277 -262h-74z" />
<glyph unicode="&#x2d8;" horiz-adv-x="1028" d="M199 1348l63 41q49 -72 111.5 -117t128.5 -45q49 0 117.5 30.5t160.5 120.5l35 -28q-84 -113 -164.5 -157t-154.5 -44q-47 0 -90.5 16.5t-81 44t-69.5 63.5t-56 75z" />
<glyph unicode="&#x2d9;" horiz-adv-x="976" d="M422 1251q0 29 20.5 50.5t49.5 21.5t50 -21.5t21 -50.5t-21.5 -50t-49.5 -21q-29 0 -49.5 21.5t-20.5 49.5z" />
<glyph unicode="&#x2da;" horiz-adv-x="976" d="M303 1300q0 74 53.5 128.5t135.5 54.5t132 -53.5t50 -129.5t-51 -128t-131 -52q-86 0 -137.5 53.5t-51.5 126.5zM367 1296q0 -55 32.5 -88.5t92.5 -33.5q55 0 87.5 33.5t32.5 88.5t-32.5 91t-87.5 36q-59 0 -92 -34.5t-33 -92.5z" />
<glyph unicode="&#x2db;" horiz-adv-x="1032" d="M520 -270q0 29 9.5 64.5t32 77.5t63.5 87t106 94l25 -24q-86 -76 -119 -149t-33 -120q0 -61 37 -82.5t90 -21.5q41 0 78 6t65 14l13 -38q-47 -25 -96.5 -36.5t-94.5 -11.5q-92 0 -134 40t-42 100z" />
<glyph unicode="&#x2dc;" horiz-adv-x="976" d="M195 1208q20 57 60 92t89 35q33 0 73 -12t80 -25.5t77.5 -25.5t66.5 -12l100 81l35 -24q-20 -53 -56 -91t-85 -38q-33 0 -74 12t-82 27.5t-79 28t-64 12.5l-105 -84z" />
<glyph unicode="&#x2dd;" horiz-adv-x="976" d="M274 1153l215 309l74 -63l-246 -277zM483 1153l215 309l74 -63l-246 -277z" />
<glyph unicode="&#x3a9;" horiz-adv-x="1363" d="M86 0v70h279v2q-80 43 -127.5 115.5t-72 159.5t-32.5 183.5t-8 186.5q0 133 28.5 259t94 224t172 158.5t264.5 60.5q164 0 271.5 -60.5t170 -158.5t88 -223t25.5 -254q0 -96 -13.5 -192.5t-43 -182.5t-79.5 -157.5t-124 -118.5q2 0 2 -2h295v-70h-459v76q94 29 156.5 90 t100.5 146t53.5 189.5t15.5 219.5q0 104 -17.5 216t-68.5 202t-141.5 148.5t-233.5 58.5q-131 0 -220 -52.5t-142.5 -138.5t-77 -198.5t-23.5 -231.5q0 -121 11.5 -226.5t45 -189.5t94 -144.5t156.5 -88.5v-76h-440z" />
<glyph unicode="&#x3c0;" horiz-adv-x="976" d="M121 0v995h731v-101.5v-178t1 -217t1 -218v-179v-101.5h-86v926h-561v-926h-86z" />
<glyph unicode="&#x401;" horiz-adv-x="1048" d="M164 0v1399h776v-74h-686v-547h594v-73h-594v-631h721v-74h-811zM334 1542q0 27 18.5 45.5t42.5 18.5q29 0 47.5 -18.5t18.5 -45.5q0 -29 -18.5 -46t-47.5 -17q-27 0 -44 17t-17 46zM639 1542q0 27 18.5 45.5t42.5 18.5q29 0 47.5 -18.5t18.5 -45.5q0 -29 -18.5 -46 t-47.5 -17q-27 0 -44 17t-17 46z" />
<glyph unicode="&#x402;" horiz-adv-x="1462" d="M41 1323v76h1079v-76h-545v-555q43 18 93.5 34.5t102.5 28t104.5 18.5t97.5 7q106 0 183 -34t126 -90t71.5 -128.5t22.5 -148.5q0 -117 -31.5 -215.5t-83 -177t-115 -139t-126.5 -103.5l-39 53q63 43 118.5 102.5t97.5 131t66.5 154.5t24.5 175q0 166 -85 256t-251 90 q-86 0 -190.5 -25.5t-186.5 -60.5v-696h-88v1323h-446z" />
<glyph unicode="&#x403;" horiz-adv-x="966" d="M164 0v1399h774v-76h-684l-2 -1323h-88zM467 1505l219 305l74 -65l-248 -272z" />
<glyph unicode="&#x404;" horiz-adv-x="1136" d="M123 688q0 113 23.5 241t86 237.5t173 181t282.5 71.5q111 0 200 -16.5t146 -36.5l-22 -72q-78 25 -161 37t-155 12q-117 0 -203.5 -40.5t-146 -115.5t-91.5 -180.5t-38 -236.5q141 2 282.5 5t284.5 7v-86q-143 2 -285.5 4t-283.5 2v-33.5t2 -33.5q4 -111 23.5 -214.5 t72 -183t143.5 -129t238 -49.5q27 0 69 3.5t89 8.5t96 14t90 21l21 -65q-35 -12 -81 -22.5t-97.5 -17.5t-103.5 -11t-95 -4q-154 0 -261.5 49t-173 140t-95 221t-29.5 292z" />
<glyph unicode="&#x405;" horiz-adv-x="1089" d="M88 86l33 70q115 -57 210 -76t181 -19q188 0 292.5 71t104.5 241q0 74 -26.5 124t-72.5 83.5t-109.5 56t-139.5 43.5q-90 23 -170 49.5t-141.5 66.5t-97 99t-35.5 149t31.5 161t90 119t138.5 72.5t176 24.5q70 0 166 -12t188 -51l-28 -74q-104 35 -184.5 47t-151.5 12 q-72 0 -132.5 -18t-105.5 -55t-69.5 -93.5t-24.5 -132.5q0 -68 30.5 -112.5t81 -75.5t115 -51.5t131.5 -38.5q76 -20 153 -45t139.5 -68t101 -109.5t38.5 -172.5q0 -104 -37.5 -177t-103 -119t-154 -67.5t-188.5 -21.5q-109 0 -223.5 23.5t-206.5 76.5z" />
<glyph unicode="&#x406;" horiz-adv-x="456" d="M184 0v1399h88v-1399h-88z" />
<glyph unicode="&#x407;" horiz-adv-x="456" d="M12 1542q0 27 18.5 45.5t43.5 18.5q29 0 47 -18.5t18 -45.5q0 -29 -18.5 -46t-46.5 -17q-27 0 -44.5 17t-17.5 46zM184 0v1399h88v-1399h-88zM317 1542q0 27 18.5 45.5t43.5 18.5q29 0 47 -18.5t18 -45.5q0 -29 -18 -46t-47 -17q-27 0 -44.5 17t-17.5 46z" />
<glyph unicode="&#x408;" horiz-adv-x="548" d="M-84 -299q90 53 154.5 103.5t105.5 110.5t60.5 134t19.5 174v1176h88v-1172q0 -121 -26.5 -212t-77 -161.5t-125 -123t-168.5 -97.5z" />
<glyph unicode="&#x409;" horiz-adv-x="1894" d="M20 23q119 45 184.5 124.5t98.5 204.5t43 302t23 415l16 330h612v-602h402q117 0 195.5 -36t126.5 -93.5t69.5 -127t21.5 -137.5q0 -100 -31.5 -175.5t-85 -126t-126 -76t-154.5 -25.5h-508v1325h-446l-15 -276q-12 -233 -24 -419t-49 -322t-114 -224t-218 -127zM997 72 h416q66 0 122 20.5t97 61.5t64.5 102t23.5 143q0 94 -29.5 156.5t-76.5 100.5t-104.5 53.5t-114.5 15.5h-398v-653z" />
<glyph unicode="&#x40a;" horiz-adv-x="1867" d="M164 0v1399h92v-602h625v602h92v-602h403q117 0 195 -36t126 -93.5t68.5 -127t20.5 -137.5q0 -100 -31 -175.5t-84 -126t-124.5 -76t-153.5 -25.5h-510v723h-627v-723h-92zM973 72h418q66 0 121 20.5t96 61.5t64.5 102t23.5 143q0 94 -29 156.5t-75 99.5t-104 52.5 t-116 15.5h-399v-651z" />
<glyph unicode="&#x40b;" horiz-adv-x="1501" d="M41 1323v76h1063v-76h-545v-561q125 55 238.5 79.5t187.5 24.5q104 0 174 -26.5t112 -69.5t60.5 -98.5t18.5 -110.5v-561h-88v530q0 125 -68 193t-227 68q-43 0 -97.5 -9.5t-111 -25t-109.5 -33.5t-92 -39v-684h-88v1323h-428z" />
<glyph unicode="&#x40c;" horiz-adv-x="1118" d="M164 0v1399h90v-617h293q39 0 78 10.5t74.5 35t66.5 67.5t53 111l127 391h84l-117 -377q-35 -102 -82 -175t-126 -95q104 -23 153 -95.5t78 -175.5l141 -479h-90l-141 471q-23 70 -51.5 116t-63.5 71.5t-75 36t-85 10.5h-317v-705h-90zM471 1509l219 306l74 -66 l-248 -272z" />
<glyph unicode="&#x40e;" horiz-adv-x="1075" d="M53 1397h92q59 -145 119 -290.5t119 -291.5q41 -104 81 -208.5t81 -209.5h8l131 342l252 658h90l-471 -1215q-35 -92 -91 -143t-134 -51q-27 0 -72 3t-125 23l23 76q41 -10 80.5 -17t74.5 -7q61 0 99.5 33.5t68.5 117.5l45 121h-35zM256 1667l63 41q49 -72 112 -118 t128 -46q49 0 117.5 31t161.5 123l34 -27q-84 -115 -164.5 -158t-154.5 -43q-47 0 -90 16.5t-81 44.5t-69.5 62.5t-56.5 73.5z" />
<glyph unicode="&#x40f;" horiz-adv-x="1249" d="M164 0v1397h90v-1325h739v1325h90v-1397h-413v-334h-82v334h-424z" />
<glyph unicode="&#x410;" horiz-adv-x="1093" d="M35 0l452 1397h117l453 -1397h-92q-33 98 -64 195.5t-63 195.5h-588q-33 -98 -62.5 -195.5t-60.5 -195.5h-92zM274 465h541l-182 573q-23 70 -43.5 137.5t-42.5 139.5h-6q-41 -141 -86 -277z" />
<glyph unicode="&#x411;" horiz-adv-x="1136" d="M150 0v1399h759v-74h-667v-528h403q117 0 196 -35t127 -91.5t67.5 -125t19.5 -135.5q0 -100 -31 -177t-84 -128.5t-126 -78t-155 -26.5h-509zM242 72h420q129 0 216 84t87 247q0 94 -29 156t-75 98.5t-104.5 52t-115.5 15.5h-399v-653z" />
<glyph unicode="&#x412;" horiz-adv-x="1167" d="M164 0v1397h444q100 0 174 -25.5t123 -72t74 -110t25 -138.5q0 -35 -6.5 -77t-28 -85t-60.5 -83t-106 -71v-10q74 -23 121 -63.5t74.5 -90t39 -102.5t11.5 -98q0 -84 -29 -152.5t-79 -117t-117.5 -75t-143.5 -26.5h-516zM254 74h395q82 0 141.5 25.5t96.5 67.5t54 98.5 t17 117.5q0 59 -22.5 114.5t-64.5 97.5t-99 67.5t-127 25.5h-391v-614zM254 764h358q135 0 218 75.5t83 200.5q0 61 -18 112.5t-57 89.5t-99.5 59.5t-144.5 21.5h-340v-559z" />
<glyph unicode="&#x413;" horiz-adv-x="966" d="M164 0v1399h774v-76h-684l-2 -1323h-88z" />
<glyph unicode="&#x414;" horiz-adv-x="1327" d="M27 72h96q86 59 136 166.5t78 249t41 306t23 341.5l17 264h700v-1327h115v-396h-74v324h-1057v-324h-75v396zM236 72h792v1253h-532l-13 -201q-12 -176 -25.5 -337.5t-39 -299t-68.5 -244t-114 -171.5z" />
<glyph unicode="&#x415;" horiz-adv-x="1048" d="M164 0v1399h776v-74h-686v-547h594v-73h-594v-631h721v-74h-811z" />
<glyph unicode="&#x416;" horiz-adv-x="1779" d="M61 0l142 479q29 102 78 175t153 96q-80 23 -127 95.5t-80 174.5l-118 377h84l126 -391q20 -68 51 -111t67 -67.5t75 -35t78 -10.5h256v617h88v-617h256q39 0 78 10.5t74.5 35t65.5 67.5t52 111l127 391h82l-117 -377q-33 -102 -80 -175t-129 -95q104 -23 153.5 -95.5 t80.5 -175.5l139 -479h-86l-141 471q-23 70 -51.5 116t-64.5 72.5t-76 37t-85 10.5h-278v-707h-88v707h-279q-45 0 -85 -10.5t-75.5 -37t-64.5 -72.5t-51 -116l-139 -471h-91z" />
<glyph unicode="&#x417;" horiz-adv-x="1095" d="M49 63l25 66q115 -39 216 -52.5t161 -13.5q211 0 330.5 92.5t119.5 266.5q0 147 -105.5 231t-299.5 84h-164v72h164q174 0 270 79t96 210q0 119 -98 183.5t-264 64.5q-29 0 -70 -3.5t-90 -12.5t-104.5 -26.5t-110.5 -43.5l-29 65q88 47 194.5 70.5t223.5 23.5 q211 0 326.5 -86t115.5 -233q0 -113 -70.5 -199t-176.5 -117l-2 -10q123 -29 204.5 -116t81.5 -236q0 -104 -40 -185t-109.5 -136.5t-163.5 -84t-203 -28.5q-117 0 -229.5 19.5t-198.5 55.5z" />
<glyph unicode="&#x418;" horiz-adv-x="1280" d="M164 0v1397h88v-1241h8l768 1243l88 -2v-1397h-88v1247h-6l-768 -1247h-90z" />
<glyph unicode="&#x419;" horiz-adv-x="1280" d="M164 0v1397h88v-1241h8l768 1243l88 -2v-1397h-88v1247h-6l-768 -1247h-90zM317 1708l64 41q49 -72 111.5 -117t128.5 -45q49 0 117.5 31t160.5 121l35 -29q-84 -113 -165 -157t-155 -44q-47 0 -90 16.5t-80.5 44t-69.5 63.5t-57 75z" />
<glyph unicode="&#x41a;" horiz-adv-x="1118" d="M164 0v1399h90v-617h293q39 0 78 10.5t74.5 35t66.5 67.5t53 111l127 391h84l-117 -377q-35 -102 -82 -175t-126 -95q104 -23 153 -95.5t78 -175.5l141 -479h-90l-141 471q-23 70 -51.5 116t-63.5 71.5t-75 36t-85 10.5h-317v-705h-90z" />
<glyph unicode="&#x41b;" horiz-adv-x="1226" d="M20 23q121 49 186.5 129.5t97.5 204.5t41 299t22 413l16 330h680v-1399h-94v1325h-508l-15 -276q-12 -233 -24 -419t-49 -322t-114 -224t-218 -127z" />
<glyph unicode="&#x41c;" horiz-adv-x="1593" d="M164 0v1397h100q113 -246 221.5 -490.5t221.5 -492.5l86 -199h8l90 201l219 487q55 125 110.5 248t112.5 246h94v-1397h-86q0 303 -1 604t-1 606h-6l-78 -174l-413 -913h-92l-412 905l-82 189h-6v-1217h-86z" />
<glyph unicode="&#x41d;" horiz-adv-x="1249" d="M164 0v1399h92v-621h737v621h92v-1399h-92v700h-737v-700h-92z" />
<glyph unicode="&#x41e;" horiz-adv-x="1357" d="M123 686q0 143 28.5 275.5t94 233.5t175 162.5t271.5 61.5q164 0 269.5 -61.5t166 -162.5t84 -232.5t23.5 -270.5q0 -152 -34 -279.5t-102.5 -222t-170 -148.5t-236.5 -56q-158 0 -266.5 48t-176 139t-97 220t-29.5 293zM215 682q0 -305 110.5 -465t356.5 -160 q117 0 204 49.5t143 135.5t84 200.5t28 243.5q0 109 -16.5 225.5t-63.5 214t-136 160t-233 62.5q-145 0 -237.5 -57.5t-145.5 -152t-73.5 -213t-20.5 -243.5z" />
<glyph unicode="&#x41f;" horiz-adv-x="1249" d="M164 0v1399h921v-1399h-92v1319h-737v-1319h-92z" />
<glyph unicode="&#x420;" horiz-adv-x="1040" d="M164 0v1399h418q84 0 158.5 -23.5t130 -72t87 -122t31.5 -173.5q0 -61 -16.5 -133t-60.5 -132.5t-119.5 -101.5t-194.5 -41h-344l2 -600h-92zM254 674h338q55 0 109.5 15.5t98.5 53t70.5 100t26.5 158.5q0 82 -24.5 143.5t-66.5 101.5t-98.5 59.5t-121.5 19.5h-332v-651z " />
<glyph unicode="&#x421;" horiz-adv-x="1136" d="M123 690q0 113 23.5 241t86 236.5t173 180t284.5 71.5q111 0 200 -15t146 -38l-22 -72q-78 25 -161 37t-155 12q-127 0 -218 -47t-150.5 -133t-87 -206.5t-27.5 -270.5q0 -119 17.5 -231.5t68.5 -199.5t146.5 -140.5t248.5 -53.5q27 0 69 3.5t89 8.5t96 14t90 22l21 -66 q-35 -12 -82 -23.5t-98.5 -18.5t-102.5 -11t-96 -4q-154 0 -260.5 49t-173 141t-96 222t-29.5 292z" />
<glyph unicode="&#x422;" horiz-adv-x="1064" d="M39 1323v76h985v-76h-446l-3 -1323h-86v1323h-450z" />
<glyph unicode="&#x423;" horiz-adv-x="1075" d="M53 1397h92q59 -145 119 -290.5t119 -291.5q41 -104 81 -208.5t81 -209.5h8l131 342l252 658h90l-471 -1215q-35 -92 -91 -143t-134 -51q-27 0 -72 3t-125 23l23 76q41 -10 80.5 -17t74.5 -7q61 0 99.5 33.5t68.5 117.5l45 121h-35z" />
<glyph unicode="&#x424;" horiz-adv-x="1585" d="M96 711q0 98 38 192t118 170t206 125t302 57v142h86v-142q176 -6 299 -54t199.5 -124t110.5 -169t34 -191q0 -111 -44 -207t-127 -168t-202 -116t-270 -48v-178h-86v178q-176 8 -302 49t-206 110t-118 164t-38 210zM184 707q0 -219 149.5 -332t426.5 -125v934 q-154 -8 -263.5 -49t-178 -106.5t-101.5 -148.5t-33 -173zM846 250q131 4 233.5 41t174 99.5t109.5 144.5t38 176q0 80 -26.5 160.5t-90 148t-171 113t-267.5 51.5v-934z" />
<glyph unicode="&#x425;" horiz-adv-x="1046" d="M33 0l436 723l-408 674h99l362 -606l365 606h96q-102 -170 -204.5 -338t-205.5 -338q111 -182 219.5 -361.5t219.5 -359.5h-101l-391 653l-391 -653h-96z" />
<glyph unicode="&#x426;" horiz-adv-x="1296" d="M164 0v1397h90v-1325h739v1325h90l2 -1325h136v-396h-80v324h-977z" />
<glyph unicode="&#x427;" horiz-adv-x="1181" d="M117 870v527h90v-494q0 -125 67.5 -192.5t231.5 -67.5q43 0 95 4t107.5 13.5t112 24.5t107.5 38v674h90v-1397h-90v645q-61 -25 -126 -40t-123 -24.5t-107.5 -12.5t-77.5 -3q-104 0 -177 26.5t-117 70t-63.5 97.5t-19.5 111z" />
<glyph unicode="&#x428;" horiz-adv-x="1761" d="M164 0v1399h90v-1327h588v1327h88v-1327h575l2 1327h88l2 -1399h-1433z" />
<glyph unicode="&#x429;" horiz-adv-x="1808" d="M164 0v1399h90v-1327h588v1327h88v-1327h575l2 1327h90v-1327h136v-396h-80v324h-1489z" />
<glyph unicode="&#x42a;" horiz-adv-x="1476" d="M25 1323v76h548v-602h412q115 0 193.5 -36t127 -93.5t69 -127t20.5 -137.5q0 -100 -31 -175.5t-85 -126t-126 -76t-154 -25.5h-516v1323h-458zM573 72h426q129 0 216.5 82t87.5 245q0 94 -29 156.5t-75 100.5t-103.5 53.5t-114.5 15.5h-408v-653z" />
<glyph unicode="&#x42b;" horiz-adv-x="1517" d="M164 0v1399h90v-602h408q117 0 195.5 -37t126.5 -93.5t69.5 -127t21.5 -138.5q0 -100 -31.5 -175.5t-85 -126t-126 -75t-154.5 -24.5h-514zM254 72h422q66 0 122 20.5t98 61.5t65.5 102t23.5 143q0 94 -29.5 156.5t-77 100.5t-105.5 53.5t-116 15.5h-403v-653zM1264 0 v1399h90v-1399h-90z" />
<glyph unicode="&#x42c;" horiz-adv-x="1157" d="M164 0v1399h90v-602h408q117 0 195.5 -37t126.5 -93.5t69.5 -127t21.5 -138.5q0 -100 -31.5 -175.5t-85 -126t-126 -75t-154.5 -24.5h-514zM254 72h422q66 0 122 20.5t98 61.5t65.5 102t23.5 143q0 94 -29.5 156.5t-77 100.5t-105.5 53.5t-116 15.5h-403v-653z" />
<glyph unicode="&#x42d;" horiz-adv-x="1124" d="M55 41l21 70q102 -31 192 -40.5t148 -9.5q152 0 248 58.5t150 153t73.5 212t19.5 234.5q-12 0 -57 -1t-105.5 -3t-129 -3t-129 -2t-105.5 -2t-57 -1v88q12 0 57 -1t105.5 -2t129 -2.5t129 -2.5t104.5 -2t58 -1q-4 127 -29.5 230.5t-80 176.5t-140.5 112.5t-208 39.5 q-68 0 -156 -12t-170 -37l-19 70q55 23 149.5 39t195.5 16q174 0 282.5 -62.5t169 -160.5t80.5 -220t20 -239q0 -158 -31.5 -294t-100 -238.5t-177 -160.5t-262.5 -58q-113 0 -210 15t-165 40z" />
<glyph unicode="&#x42e;" horiz-adv-x="1759" d="M164 0v1397h88v-623h315q6 129 37 246t94.5 205t165 140t250.5 52q164 0 266.5 -61.5t158.5 -162.5t76.5 -232.5t20.5 -270.5q0 -152 -30.5 -279.5t-95 -221t-163 -147.5t-233.5 -56q-154 0 -259 49t-169.5 141t-92.5 225.5t-28 298.5h-313v-700h-88zM657 680 q0 -152 24 -268.5t77 -195.5t138 -119t208 -40q117 0 201 49.5t137 134.5t77.5 199.5t24.5 243.5q0 109 -13 225.5t-57 214t-130.5 160t-229.5 62.5q-145 0 -234 -57.5t-138.5 -152t-67 -213t-17.5 -243.5z" />
<glyph unicode="&#x42f;" horiz-adv-x="1142" d="M82 0l121 426q27 86 70.5 147.5t129.5 88.5q-68 16 -115.5 51t-78.5 82t-44 104.5t-13 116.5q0 76 23.5 145.5t72.5 122.5t127 84t186 31h418v-1399h-90v639h-283q-51 0 -99 -10.5t-88 -36t-73 -69.5t-53 -113l-121 -410h-90zM244 1014q0 -162 87 -231.5t226 -69.5h332 v610h-326q-70 0 -128 -19.5t-101 -58.5t-66.5 -97t-23.5 -134z" />
<glyph unicode="&#x430;" horiz-adv-x="1007" d="M82 260q0 70 25.5 122t70.5 88t108.5 55.5t139.5 23.5q12 0 55 3t93.5 5t93.5 4t53 2v92q0 76 -10.5 129.5t-38 87t-73.5 49t-116 15.5q-76 0 -155.5 -17.5t-155.5 -46.5l-22 62q86 35 178 54.5t174 19.5q147 0 225 -73t78 -249v-614h135q4 -12 4 -25.5t2 -26.5 q-35 -16 -71.5 -22t-65.5 -6q-59 0 -74.5 29.5t-15.5 93.5l-4 2q-66 -49 -120 -76t-99 -38t-79 -13t-59 -2q-82 0 -135 25.5t-85 65.5t-44 88t-12 93zM170 270q0 -215 225 -215q76 0 157 38t169 110v297l-299 -17q-123 -6 -187.5 -62t-64.5 -151z" />
<glyph unicode="&#x431;" horiz-adv-x="968" d="M82 481q0 154 5 265.5t19 181.5q29 145 109 253t236 171q33 12 78.5 30.5t94 39t93.5 41t76 36.5l32 -63q-37 -18 -81 -39t-88 -39.5t-86 -35.5t-74 -32q-90 -35 -150.5 -86t-98.5 -116.5t-57.5 -145.5t-25.5 -172h4q47 98 134 157.5t206 59.5q113 0 186.5 -45 t116.5 -116.5t59.5 -158.5t16.5 -173q0 -90 -18.5 -180.5t-64.5 -163t-126 -118.5t-205 -46q-119 0 -194.5 45t-119.5 115.5t-60.5 158.5t-16.5 176zM170 479q0 -74 10 -149.5t43 -137t95.5 -100.5t164.5 -39q100 0 162 40t96.5 102.5t47 139.5t12.5 150q0 61 -11.5 137 t-44 141.5t-92 111t-155.5 45.5t-159 -42t-100.5 -107.5t-53 -143.5t-15.5 -148z" />
<glyph unicode="&#x432;" horiz-adv-x="931" d="M121 0v997h389q160 0 237.5 -69.5t77.5 -179.5q0 -27 -6 -58t-23.5 -60.5t-47 -56t-76.5 -47.5q55 -16 91 -44.5t57.5 -63.5t29.5 -73t8 -71q0 -61 -22.5 -111t-62.5 -86t-93 -56.5t-115 -20.5h-444zM205 72h334q63 0 108 18.5t74 48t42 67.5t13 79q0 39 -16.5 74.5 t-47 63.5t-74.5 44t-101 16h-332v-411zM205 553h311q98 0 160.5 50t62.5 134q0 82 -57 135.5t-186 53.5h-291v-373z" />
<glyph unicode="&#x433;" horiz-adv-x="757" d="M121 0v997h620v-71h-538v-926h-82z" />
<glyph unicode="&#x434;" horiz-adv-x="1048" d="M20 70h86q61 43 97.5 119.5t57 176t28.5 212t14 225.5l10 194h572v-927h84v-338h-70v268h-807v-268h-72v338zM205 70h596v856h-418l-8 -138q-6 -111 -13.5 -218t-25 -202.5t-48 -172t-83.5 -125.5z" />
<glyph unicode="&#x435;" horiz-adv-x="972" d="M100 492q0 59 13.5 147t55.5 171t123 141.5t216 58.5q96 0 160.5 -29t105.5 -74t62.5 -100t31 -108.5t10.5 -97.5t1 -69v-47h-691q0 -86 13.5 -162.5t49.5 -136t98.5 -94.5t158.5 -35q90 0 161.5 17.5t155.5 58.5l25 -59q-84 -45 -164 -66.5t-176 -21.5q-123 0 -203 40 t-126 109.5t-63.5 161.5t-17.5 195zM190 551h605q0 86 -14.5 157.5t-47.5 124t-88 82t-137 29.5q-86 0 -143.5 -32.5t-94.5 -88t-55 -126t-25 -146.5z" />
<glyph unicode="&#x436;" horiz-adv-x="1423" d="M55 0l115 338q25 72 56.5 122t103.5 70q-55 18 -85 68.5t-57 122.5l-100 280h80l104 -290q20 -55 47 -86t58 -45.5t66.5 -17.5t76.5 -3h150v442h82v-442h147q41 0 77 3t66.5 17.5t57 45t47.5 86.5l106 290h80l-100 -280q-25 -72 -55.5 -122t-87.5 -69q72 -20 104.5 -70 t56.5 -122l115 -338h-84l-113 330q-18 61 -43.5 94t-59.5 48t-74 18.5t-85 3.5h-155v-494h-82v494h-156q-47 0 -87 -3.5t-72.5 -18.5t-58.5 -48t-46 -92l-113 -332h-82z" />
<glyph unicode="&#x437;" horiz-adv-x="862" d="M49 43l23 61q68 -25 147.5 -39t153.5 -14q139 0 228 59.5t89 186.5q0 53 -24.5 93t-64.5 66.5t-94 40t-112 13.5h-139v63h123q125 0 200.5 51.5t75.5 145.5q0 86 -67.5 129t-188.5 43q-66 0 -135 -15.5t-160 -52.5l-22 62q72 35 159 55.5t171 20.5q152 0 239.5 -60.5 t87.5 -177.5q0 -86 -53 -145.5t-135 -81.5v-2q45 -10 85 -30.5t70.5 -51.5t49 -74t18.5 -94q0 -74 -28.5 -131.5t-81 -97t-124 -60t-159.5 -20.5q-82 0 -172 14t-160 43z" />
<glyph unicode="&#x438;" horiz-adv-x="993" d="M121 0v995h82v-866h6q39 57 76 114.5t75 112.5l431 639h79v-995h-82v872h-6q-33 -47 -71.5 -107t-81.5 -126q-55 -82 -112.5 -169t-114 -171t-108.5 -161t-93 -138h-80z" />
<glyph unicode="&#x439;" horiz-adv-x="993" d="M121 0v995h82v-866h6q39 57 76 114.5t75 112.5l431 639h79v-995h-82v872h-6q-33 -47 -71.5 -107t-81.5 -126q-55 -82 -112.5 -169t-114 -171t-108.5 -161t-93 -138h-80zM188 1343l64 41q49 -72 111.5 -116.5t128.5 -44.5q49 0 117.5 30.5t160.5 120.5l35 -28 q-84 -113 -165 -157t-155 -44q-47 0 -90 16.5t-81 44t-69.5 63.5t-56.5 74z" />
<glyph unicode="&#x43a;" horiz-adv-x="901" d="M121 0v1001h82v-442h241q59 0 110.5 29.5t84.5 122.5q27 74 53.5 145.5t52.5 144.5h80l-100 -280q-25 -72 -55.5 -122t-87.5 -69q72 -20 104.5 -70t56.5 -122q4 -10 20.5 -60.5t37 -108.5t37 -108.5t20.5 -60.5h-82q-57 166 -112 332v-2q-35 100 -86.5 132t-120.5 32 h-254v-494h-82z" />
<glyph unicode="&#x43b;" horiz-adv-x="968" d="M14 33q82 31 129 88t73 146t36 210t20 281l15 239h561v-997h-84v926h-404l-12 -174q-10 -154 -21.5 -285t-41 -231.5t-88 -168t-162.5 -96.5z" />
<glyph unicode="&#x43c;" horiz-adv-x="1251" d="M121 0q0 250 1 497.5t1 497.5h88q37 -68 80 -152.5t88 -177t92 -184.5t90 -172l72 -137h2l133 272l274 551h86v-995h-81v844h-3q-16 -33 -30.5 -63.5t-30.5 -63.5l-315 -631h-70q-35 63 -78 147t-89 173.5t-91 176.5t-84 160l-53 107h-4v-850h-78z" />
<glyph unicode="&#x43d;" horiz-adv-x="974" d="M121 0v997h84v-432h563v432h84v-997h-84v492h-563v-492h-84z" />
<glyph unicode="&#x43e;" horiz-adv-x="1007" d="M100 487q0 96 21.5 189.5t71 167.5t128 120t193.5 46q117 0 193.5 -45t120.5 -119t61.5 -167t17.5 -187q0 -92 -17.5 -182.5t-63.5 -162t-124.5 -116.5t-199.5 -45q-117 0 -195 42t-124 111.5t-64.5 159.5t-18.5 188zM188 485q0 -84 12.5 -160.5t47.5 -136t98.5 -95.5 t167.5 -36q94 0 154.5 39t94.5 101.5t46 139t12 150.5t-11 154t-45 146.5t-93.5 109.5t-157.5 43t-160.5 -41t-99.5 -105.5t-51.5 -146.5t-14.5 -162z" />
<glyph unicode="&#x43f;" horiz-adv-x="976" d="M121 0v995h731v-101.5v-178t1 -217t1 -218v-179v-101.5h-86v926h-561v-926h-86z" />
<glyph unicode="&#x440;" horiz-adv-x="989" d="M121 -432v1429h78q0 -20 1 -53t1 -51l6 -6q72 55 154.5 89t168.5 34q100 0 169 -38t110 -104.5t59.5 -155.5t18.5 -194q0 -113 -20.5 -209t-66.5 -167.5t-120 -112.5t-178 -41q-59 0 -138 16t-161 64v-500h-82zM203 145q53 -35 132 -61.5t161 -26.5q63 0 118.5 23.5 t96.5 79t64.5 144.5t23.5 218q0 117 -20.5 197t-58.5 128t-92.5 68.5t-119.5 20.5q-37 0 -79 -10.5t-83 -28.5t-79 -42t-64 -50v-660z" />
<glyph unicode="&#x441;" horiz-adv-x="899" d="M100 481q0 76 16.5 168t62.5 173t129 135.5t216 54.5q72 0 143.5 -11.5t133.5 -37.5l-25 -68q-76 29 -137 37t-109 8q-88 0 -152.5 -33t-106.5 -93t-62.5 -144.5t-20.5 -186.5q0 -86 15.5 -163.5t52.5 -136t98.5 -92.5t155.5 -34q84 0 151.5 17.5t151.5 52.5l23 -61 q-59 -33 -144.5 -56.5t-181.5 -23.5q-113 0 -190.5 36.5t-127 103.5t-71 157t-21.5 198z" />
<glyph unicode="&#x442;" horiz-adv-x="851" d="M35 926v71h780v-71h-348v-926h-82v926h-350z" />
<glyph unicode="&#x443;" horiz-adv-x="858" d="M-16 -418l14 68q63 -12 97 -17.5t69 -5.5q27 0 51.5 3t45 17.5t39.5 45.5t38 86l72 223h-45q-8 25 -34 101.5t-59.5 179t-72.5 217t-74 217t-60.5 179.5t-33.5 101h84q4 -14 19.5 -62t37 -112.5t45 -137.5t45 -137.5l37.5 -112.5t20 -62l103 -314h8q4 10 13.5 39t22.5 72 t29.5 95t34.5 112l197 620h86q-6 -23 -25.5 -81t-46 -142t-59.5 -184.5t-65.5 -204.5t-65.5 -204.5t-60.5 -183.5t-46 -142.5t-26.5 -79.5q-33 -102 -83 -161.5t-149 -59.5q-31 2 -81 6t-121 22z" />
<glyph unicode="&#x444;" horiz-adv-x="1280" d="M82 485q0 106 28.5 199.5t91 162t161 111.5t237.5 50v442h82v-442q139 -4 237.5 -41t160 -103.5t90 -157t28.5 -198.5q0 -104 -26.5 -197.5t-88 -163t-160 -112.5t-241.5 -49l-2 -408h-80v408q-150 6 -249 46t-159.5 106.5t-85 154.5t-24.5 192zM164 492q0 -94 19.5 -172 t68.5 -135.5t134 -91.5t214 -40v885q-123 -6 -207 -43t-135 -96.5t-72.5 -138t-21.5 -168.5zM682 53q129 6 213 44t133 98.5t68.5 138.5t19.5 164q0 88 -18.5 165.5t-67.5 137t-133 96.5t-215 41v-885z" />
<glyph unicode="&#x445;" horiz-adv-x="800" d="M16 0q84 131 165 263t167 263q-74 119 -148.5 236t-146.5 233h94l250 -407l250 407h92l-295 -465l338 -530h-96l-289 469l-288 -469h-93z" />
<glyph unicode="&#x446;" horiz-adv-x="1026" d="M121 0v997h82v-925h567v925h82v-925h109v-342h-72v270h-768z" />
<glyph unicode="&#x447;" horiz-adv-x="919" d="M84 696v301h82v-270q0 -61 6 -109.5t27.5 -82t60.5 -51t107 -17.5q37 0 79.5 5t89 18.5t91.5 36t86 55.5v415h84v-997h-84v508q-96 -66 -190.5 -89.5t-166.5 -23.5q-102 0 -156.5 29t-81 74t-30.5 97t-4 101z" />
<glyph unicode="&#x448;" horiz-adv-x="1376" d="M123 0v997h82v-925h444v925h84v-925h441v925h81v-997h-1132z" />
<glyph unicode="&#x449;" horiz-adv-x="1417" d="M123 0v997h82v-925h444v925h84v-925h441v925h81v-925h107v-342h-72v270h-1167z" />
<glyph unicode="&#x44a;" horiz-adv-x="1191" d="M25 926v71h436v-407h352q92 0 152.5 -27.5t97.5 -70.5t52 -95.5t15 -101.5q0 -72 -24.5 -127t-65.5 -92t-97 -56.5t-120 -19.5h-444v926h-354zM461 70h356q100 0 165 57t65 168q0 63 -21.5 106t-56.5 70t-79 38t-89 11h-340v-450z" />
<glyph unicode="&#x44b;" horiz-adv-x="1216" d="M121 0v997h84v-407h352q92 0 152.5 -27.5t97.5 -70.5t52 -95.5t15 -101.5q0 -72 -24.5 -127t-65.5 -92t-98 -56.5t-121 -19.5h-444zM205 72h356q98 0 164 56t66 167q0 63 -21.5 106t-56.5 70t-79 38t-89 11h-340v-448zM1012 0v997h84v-997h-84z" />
<glyph unicode="&#x44c;" horiz-adv-x="935" d="M121 0v997h84v-407h352q92 0 152.5 -27.5t97.5 -70.5t52 -95.5t15 -101.5q0 -72 -24.5 -127t-65.5 -92t-98 -56.5t-121 -19.5h-444zM205 72h356q98 0 164 56t66 167q0 63 -21.5 106t-56.5 70t-79 38t-89 11h-340v-448z" />
<glyph unicode="&#x44d;" horiz-adv-x="882" d="M47 63l27 58q41 -18 74.5 -30.5t67.5 -20t68.5 -11.5t77.5 -4q86 0 148.5 36t103.5 97.5t60.5 141.5t19.5 168l-424 -4v71l426 -8q-6 172 -87 278.5t-244 106.5q-47 0 -107.5 -6t-146.5 -39l-23 61q55 25 129 39.5t152 14.5q131 0 213 -48.5t126 -122t59 -160.5t15 -167 q0 -102 -23.5 -197.5t-74.5 -169t-131 -117.5t-193 -44q-94 0 -172.5 21.5t-140.5 55.5z" />
<glyph unicode="&#x44e;" horiz-adv-x="1286" d="M121 0v995h80v-436h196q6 86 32 168t73 144.5t121 100.5t176 38q117 0 191.5 -47.5t117.5 -121t59.5 -165.5t16.5 -184q0 -88 -17.5 -178.5t-61.5 -163t-122 -118.5t-197 -46q-117 0 -192.5 45t-119.5 117.5t-61.5 163.5t-17.5 184h-194v-496h-80zM481 483 q0 -78 10.5 -154.5t44 -137t96 -98.5t167.5 -38q94 0 152.5 41t91 104.5t44 139t11.5 145.5q0 72 -10.5 152t-43 147.5t-91 111.5t-154.5 44t-157.5 -42t-97.5 -107.5t-49.5 -146.5t-13.5 -161z" />
<glyph unicode="&#x44f;" horiz-adv-x="950" d="M63 0l105 305q18 57 50 100.5t95 65.5q-104 29 -147 96.5t-43 151.5q0 49 16.5 99t54 89t100 63.5t152.5 24.5h381v-995h-84v444h-254q-80 0 -144 -30.5t-97 -124.5l-98 -289h-87zM209 719q0 -55 19.5 -94t53 -63.5t79 -36t98.5 -11.5h284v412h-288q-113 0 -179.5 -48.5 t-66.5 -158.5z" />
<glyph unicode="&#x451;" horiz-adv-x="972" d="M100 492q0 59 13.5 147t55.5 171t123 141.5t216 58.5q96 0 160.5 -29t105.5 -74t62.5 -100t31 -108.5t10.5 -97.5t1 -69v-47h-691q0 -86 13.5 -162.5t49.5 -136t98.5 -94.5t158.5 -35q90 0 161.5 17.5t155.5 58.5l25 -59q-84 -45 -164 -66.5t-176 -21.5q-123 0 -203 40 t-126 109.5t-63.5 161.5t-17.5 195zM190 551h605q0 86 -14.5 157.5t-47.5 124t-88 82t-137 29.5q-86 0 -143.5 -32.5t-94.5 -88t-55 -126t-25 -146.5zM289 1255q0 29 18.5 46.5t42.5 17.5q29 0 47.5 -17.5t18.5 -46.5q0 -27 -18.5 -44t-47.5 -17q-27 0 -44 17.5t-17 43.5z M594 1255q0 29 18.5 46.5t42.5 17.5q29 0 47.5 -17.5t18.5 -46.5q0 -27 -18.5 -44t-47.5 -17q-27 0 -44 17.5t-17 43.5z" />
<glyph unicode="&#x452;" horiz-adv-x="999" d="M16 1167v60h119v223h84v-223h436v-60h-436v-286q104 45 188.5 65.5t157.5 20.5q162 0 249 -121t87 -393q0 -100 -19.5 -190.5t-66.5 -158t-125 -107.5t-196 -40v63q80 2 140 27t101 76t61.5 133t20.5 201q0 125 -19.5 210t-54 136t-86 72.5t-114.5 21.5q-35 0 -77 -8 t-85 -20.5t-84 -28t-78 -31.5v-809h-82q0 293 -1 583.5t-1 583.5h-119z" />
<glyph unicode="&#x453;" horiz-adv-x="757" d="M121 0v997h620v-71h-538v-926h-82zM324 1206l219 303l73 -63l-249 -275z" />
<glyph unicode="&#x454;" horiz-adv-x="903" d="M100 479q0 76 16.5 169t62.5 174t128 135.5t215 54.5q74 0 145.5 -12.5t133.5 -38.5l-25 -66q-78 29 -138 36t-108 7q-166 0 -247.5 -108.5t-92.5 -290.5q106 4 213 5t213 3v-70q-109 0 -214 1t-214 1q0 -88 15.5 -164.5t52.5 -134t98.5 -91.5t153.5 -34q86 0 153.5 17.5 t149.5 52.5l25 -59q-61 -35 -146.5 -56.5t-179.5 -21.5q-115 0 -192.5 36.5t-126 101t-70 155t-21.5 198.5z" />
<glyph unicode="&#x455;" horiz-adv-x="856" d="M88 59l31 62q86 -43 158.5 -55.5t128.5 -12.5q59 0 110 12.5t89 37t59.5 62.5t21.5 91q0 47 -21.5 81t-56.5 59.5t-80 43t-92 33.5q-61 20 -119.5 43t-103.5 54.5t-71.5 75.5t-26.5 106q0 70 25.5 119t70.5 79.5t103.5 45t123.5 14.5q47 0 124 -11.5t143 -44.5 q-4 -8 -13.5 -32.5t-13.5 -32.5q-72 29 -132.5 40t-109.5 11q-102 0 -170.5 -45t-68.5 -145q0 -41 23.5 -73t58 -55.5t76.5 -40t79 -28.5q61 -20 121.5 -42t108 -53.5t76 -79.5t28.5 -120t-28.5 -123t-78 -85t-115 -49t-136.5 -15q-86 0 -172 17t-150 56z" />
<glyph unicode="&#x456;" horiz-adv-x="425" d="M145 1249q0 29 19.5 49.5t46.5 20.5q29 0 49.5 -20.5t20.5 -49.5q0 -27 -20.5 -46t-49.5 -19q-27 0 -46.5 19.5t-19.5 45.5zM170 0l2 997h82v-997h-84z" />
<glyph unicode="&#x457;" horiz-adv-x="425" d="M0 1241q0 29 18.5 46.5t42.5 17.5q29 0 47.5 -17.5t18.5 -46.5q0 -27 -18.5 -44t-47.5 -17q-27 0 -44 17t-17 44zM172 0v997h82v-997h-82zM305 1241q0 29 18.5 46.5t43.5 17.5q29 0 47 -17.5t18 -46.5q0 -27 -18.5 -44t-46.5 -17q-27 0 -44.5 17t-17.5 44z" />
<glyph unicode="&#x458;" horiz-adv-x="442" d="M-53 -381q74 39 120 77t72.5 79t36.5 89t10 111l-2 1022h84v-1007q-2 -84 -15 -147.5t-47 -114t-90.5 -91t-142.5 -77.5q-4 10 -13 30.5t-13 28.5zM160 1249q0 29 19.5 49.5t45.5 20.5q29 0 49.5 -20.5t20.5 -49.5q0 -27 -20.5 -46t-49.5 -19q-27 0 -46 19t-19 46z" />
<glyph unicode="&#x459;" horiz-adv-x="1503" d="M14 33q82 31 130.5 85t74 141t36.5 210t19 289l13 239h485v-407h352q92 0 153.5 -27.5t97.5 -70.5t51.5 -95.5t15.5 -101.5q0 -72 -23.5 -127t-65.5 -92t-98.5 -56.5t-119.5 -19.5h-445v926h-332l-8 -174q-8 -154 -19.5 -285t-42 -231.5t-90 -168t-163.5 -96.5zM772 72 h356q100 0 166 56t66 167q0 63 -21.5 106t-56.5 70t-79 38t-89 11h-342v-448z" />
<glyph unicode="&#x45a;" horiz-adv-x="1482" d="M121 997h82v-413h467v413h82v-413h346q92 0 154.5 -27t99.5 -69t53 -93t16 -102q0 -72 -23.5 -126t-65.5 -91t-98 -56.5t-120 -19.5h-444v512h-467v-512h-80zM752 72h356q100 0 165.5 55t65.5 166q0 63 -21.5 105t-56 68t-78.5 37t-89 11h-342v-442z" />
<glyph unicode="&#x45b;" horiz-adv-x="987" d="M0 1165v60h133v227h84v-227h416v-60h-416v-291q106 55 206.5 87t172.5 32q98 0 152.5 -29.5t80 -73.5t30.5 -97.5t5 -102.5v-690h-84v659q0 57 -6 105.5t-27.5 83.5t-61.5 53.5t-110 18.5q-84 0 -182 -37t-176 -80v-803h-84v1165h-133z" />
<glyph unicode="&#x45c;" horiz-adv-x="901" d="M121 0v1001h82v-442h241q59 0 110.5 29.5t84.5 122.5q27 74 53.5 145.5t52.5 144.5h80l-100 -280q-25 -72 -55.5 -122t-87.5 -69q72 -20 104.5 -70t56.5 -122q4 -10 20.5 -60.5t37 -108.5t37 -108.5t20.5 -60.5h-82q-57 166 -112 332v-2q-35 100 -86.5 132t-120.5 32 h-254v-494h-82zM369 1157l219 303l74 -63l-250 -275z" />
<glyph unicode="&#x45e;" horiz-adv-x="858" d="M-16 -418l14 68q63 -12 97 -17.5t69 -5.5q27 0 51.5 3t45 17.5t39.5 45.5t38 86l72 223h-45q-8 25 -34 101.5t-59.5 179t-72.5 217t-74 217t-60.5 179.5t-33.5 101h84q4 -14 19.5 -62t37 -112.5t45 -137.5t45 -137.5l37.5 -112.5t20 -62l103 -316h8q4 10 13.5 39t22.5 72 t29.5 96t34.5 113l197 620h86q-6 -23 -25.5 -81t-46 -142t-59.5 -184.5t-65.5 -204.5t-65.5 -204.5t-60.5 -183.5t-46 -142.5t-26.5 -79.5q-33 -102 -83 -161.5t-149 -59.5q-31 2 -81 6t-121 22zM121 1329l63 41q49 -72 111.5 -117t128.5 -45q49 0 117.5 31t160.5 121 l35 -29q-84 -113 -164.5 -157t-154.5 -44q-47 0 -90 16.5t-81 44.5t-70 63.5t-56 74.5z" />
<glyph unicode="&#x45f;" horiz-adv-x="974" d="M121 0v997h84v-925h567v925h82v-997h-330v-281h-73v281h-330z" />
<glyph unicode="&#x490;" horiz-adv-x="966" d="M164 0v1399h702v256h76v-330h-688l-2 -1325h-88z" />
<glyph unicode="&#x491;" horiz-adv-x="757" d="M121 0v997h549v199h65v-270h-532v-926h-82z" />
<glyph unicode="&#x4d9;" horiz-adv-x="931" d="M86 463v47h688q0 86 -13 163t-49 136t-97.5 94t-157.5 35q-90 0 -161 -17.5t-155 -56.5l-24 60q82 45 161.5 65.5t176.5 20.5q123 0 202.5 -40t124.5 -108.5t62.5 -161t17.5 -194.5q0 -39 -5 -93.5t-20.5 -111.5t-43 -113.5t-72.5 -101.5t-110.5 -72.5t-155.5 -27.5 q-94 0 -159 28.5t-105.5 73.5t-62.5 100.5t-31 108.5t-10 97t-1 69zM170 446q0 -86 14.5 -157.5t47 -123.5t88 -81t137.5 -29q84 0 141 33t94 87t55.5 125t24.5 146h-602z" />
<glyph unicode="&#x1e80;" horiz-adv-x="1615" d="M35 1397h88q10 -43 34.5 -146.5t56.5 -237.5t66.5 -282.5t65.5 -277.5t53.5 -225.5t28.5 -125.5h8l96 414l209 881h93q25 -92 56.5 -208t63 -234.5t63.5 -232.5t56 -204q2 -10 11.5 -42t20.5 -74t24.5 -90t24.5 -91t19.5 -75.5t10.5 -43.5h8q25 106 50.5 212t47.5 214 q53 217 102.5 434.5t102.5 434.5h86q-86 -358 -170 -706.5t-168 -690.5h-113q-57 217 -114.5 428t-116.5 432q-27 100 -52.5 198.5t-53.5 198.5h-11l-92 -397q-39 -160 -89 -374t-112 -486h-116zM569 1743l74 65l219 -303l-45 -35z" />
<glyph unicode="&#x1e81;" horiz-adv-x="1363" d="M27 997h86l166 -610l77 -305h9l90 324l172 591h86l207 -651l79 -264h9l71 274l172 641h86l-280 -997h-103l-198 621l-82 272h-6l-70 -250l-188 -643h-105zM432 1397l76 65l219 -303l-45 -37z" />
<glyph unicode="&#x1e82;" horiz-adv-x="1615" d="M35 1397h88q10 -43 34.5 -146.5t56.5 -237.5t66.5 -282.5t65.5 -277.5t53.5 -225.5t28.5 -125.5h8l96 414l209 881h93q25 -92 56.5 -208t63 -234.5t63.5 -232.5t56 -204q2 -10 11.5 -42t20.5 -74t24.5 -90t24.5 -91t19.5 -75.5t10.5 -43.5h8q25 106 50.5 212t47.5 214 q53 217 102.5 434.5t102.5 434.5h86q-86 -358 -170 -706.5t-168 -690.5h-113q-57 217 -114.5 428t-116.5 432q-27 100 -52.5 198.5t-53.5 198.5h-11l-92 -397q-39 -160 -89 -374t-112 -486h-116zM758 1505l219 305l74 -65l-248 -272z" />
<glyph unicode="&#x1e83;" horiz-adv-x="1363" d="M27 997h86l166 -610l77 -305h9l90 324l172 591h86l207 -651l79 -264h9l71 274l172 641h86l-280 -997h-103l-198 621l-82 272h-6l-70 -250l-188 -643h-105zM637 1157l219 303l74 -63l-250 -275z" />
<glyph unicode="&#x1e84;" horiz-adv-x="1615" d="M35 1397h88q10 -43 34.5 -146.5t56.5 -237.5t66.5 -282.5t65.5 -277.5t53.5 -225.5t28.5 -125.5h8l96 414l209 881h93q25 -92 56.5 -208t63 -234.5t63.5 -232.5t56 -204q2 -10 11.5 -42t20.5 -74t24.5 -90t24.5 -91t19.5 -75.5t10.5 -43.5h8q25 106 50.5 212t47.5 214 q53 217 102.5 434.5t102.5 434.5h86q-86 -358 -170 -706.5t-168 -690.5h-113q-57 217 -114.5 428t-116.5 432q-27 100 -52.5 198.5t-53.5 198.5h-11l-92 -397q-39 -160 -89 -374t-112 -486h-116zM569 1579q0 27 18.5 45t43.5 18q29 0 47 -18t18 -45q0 -29 -18.5 -46 t-46.5 -17q-27 0 -44.5 17t-17.5 46zM874 1579q0 27 18.5 45t43.5 18q29 0 47 -18t18 -45q0 -29 -18 -46t-47 -17q-27 0 -44.5 17t-17.5 46z" />
<glyph unicode="&#x1e85;" horiz-adv-x="1363" d="M27 997h86l166 -610l77 -305h9l90 324l172 591h86l207 -651l79 -264h9l71 274l172 641h86l-280 -997h-103l-198 621l-82 272h-6l-70 -250l-188 -643h-105zM453 1206q0 29 18 46.5t43 17.5q29 0 47.5 -17.5t18.5 -46.5q0 -27 -18.5 -44t-47.5 -17q-27 0 -44 17.5t-17 43.5 zM758 1206q0 29 18.5 46.5t42.5 17.5q29 0 47.5 -17.5t18.5 -46.5q0 -27 -18.5 -44t-47.5 -17q-27 0 -44 17.5t-17 43.5z" />
<glyph unicode="&#x1ef2;" horiz-adv-x="980" d="M27 1399h98l233 -443l121 -239h8l121 227l248 455h96l-422 -760v-639h-92v633zM281 1739l73 65l219 -303l-45 -35z" />
<glyph unicode="&#x1ef3;" horiz-adv-x="858" d="M-16 -418l14 68q63 -12 97 -17.5t69 -5.5q27 0 51.5 3t45 17.5t39.5 45.5t38 86l72 223h-45q-8 25 -34 101.5t-59.5 179t-72.5 217t-74 217t-60.5 179.5t-33.5 101h84q4 -14 19.5 -62t37 -112.5t45 -137.5t45 -137.5l37.5 -112.5t20 -62l103 -316h8q4 10 13.5 39t22.5 72 t29.5 96t34.5 113l197 620h86q-6 -23 -25.5 -81t-46 -142t-59.5 -184.5t-65.5 -204.5t-65.5 -204.5t-60.5 -183.5t-46 -142.5t-26.5 -79.5q-33 -102 -83 -161.5t-149 -59.5q-31 2 -81 6t-121 22zM209 1397l76 65l219 -303l-45 -37z" />
<glyph unicode="&#x2000;" horiz-adv-x="914" />
<glyph unicode="&#x2001;" horiz-adv-x="1829" />
<glyph unicode="&#x2002;" horiz-adv-x="914" />
<glyph unicode="&#x2003;" horiz-adv-x="1829" />
<glyph unicode="&#x2004;" horiz-adv-x="609" />
<glyph unicode="&#x2005;" horiz-adv-x="457" />
<glyph unicode="&#x2006;" horiz-adv-x="304" />
<glyph unicode="&#x2007;" horiz-adv-x="304" />
<glyph unicode="&#x2008;" horiz-adv-x="228" />
<glyph unicode="&#x2009;" horiz-adv-x="365" />
<glyph unicode="&#x200a;" horiz-adv-x="101" />
<glyph unicode="&#x2010;" horiz-adv-x="684" d="M104 481v80h476v-80h-476z" />
<glyph unicode="&#x2011;" horiz-adv-x="684" d="M104 481v80h476v-80h-476z" />
<glyph unicode="&#x2012;" horiz-adv-x="684" d="M104 481v80h476v-80h-476z" />
<glyph unicode="&#x2013;" horiz-adv-x="1024" d="M55 479v78h920v-78h-920z" />
<glyph unicode="&#x2014;" horiz-adv-x="2048" d="M55 479v78h1927v-78h-1927z" />
<glyph unicode="&#x2015;" horiz-adv-x="2048" d="M55 479v78h1927v-78h-1927z" />
<glyph unicode="&#x2018;" horiz-adv-x="399" d="M127 1212q0 29 9 62t26.5 65.5t42 62.5t55.5 50l23 -29q-63 -78 -64 -163q27 -4 43.5 -21.5t16.5 -46.5t-20.5 -51.5t-51.5 -22.5q-35 0 -57.5 24.5t-22.5 69.5z" />
<glyph unicode="&#x2019;" horiz-adv-x="399" d="M129 1149q35 41 49.5 82t16.5 82q-29 4 -45.5 21t-16.5 46t20.5 51.5t51.5 22.5q35 0 57.5 -24.5t22.5 -69.5q0 -29 -9.5 -61.5t-27 -65.5t-42 -62.5t-54.5 -50.5z" />
<glyph unicode="&#x201a;" horiz-adv-x="296" d="M68 -188q35 41 49 91t16 91q-29 4 -45 21t-16 44q0 31 20.5 53.5t50.5 22.5q35 0 57.5 -24.5t22.5 -69.5q0 -29 -9 -64.5t-26.5 -71.5t-41 -68t-54.5 -52z" />
<glyph unicode="&#x201c;" horiz-adv-x="571" d="M125 1212q0 59 37 128t96 112l25 -29q-35 -41 -49.5 -82t-16.5 -81q27 -4 43 -21.5t16 -46.5t-19 -51.5t-50 -22.5q-37 0 -59.5 24.5t-22.5 69.5zM317 1212q0 29 9.5 62t27 65.5t42 62.5t55.5 50l24 -29q-66 -78 -65 -163q27 -4 43 -21.5t16 -46.5t-19.5 -51.5 t-52.5 -22.5q-35 0 -57.5 24.5t-22.5 69.5z" />
<glyph unicode="&#x201d;" horiz-adv-x="571" d="M127 1149q35 41 50.5 82t17.5 82q-29 4 -45.5 21t-16.5 46t19.5 51.5t52.5 22.5q35 0 57.5 -24.5t22.5 -69.5q0 -29 -9.5 -61.5t-27 -65.5t-42 -62.5t-54.5 -50.5zM319 1149q35 41 49.5 82t16.5 82q-27 4 -43 21t-16 46t19.5 51.5t51.5 22.5q35 0 57.5 -24.5t22.5 -69.5 q0 -29 -9 -61.5t-26.5 -65.5t-42 -62.5t-55.5 -50.5z" />
<glyph unicode="&#x201e;" horiz-adv-x="495" d="M68 -188q35 41 49 91t16 91q-29 4 -45 21t-16 44q0 31 20.5 53.5t50.5 22.5q35 0 57.5 -24.5t22.5 -69.5q0 -29 -9 -64.5t-26.5 -71.5t-41 -68t-54.5 -52zM264 -188q35 41 49.5 91t14.5 91q-27 4 -43.5 21t-16.5 44q0 31 19.5 53.5t52.5 22.5q35 0 57.5 -24.5t22.5 -69.5 q0 -29 -9.5 -64.5t-26.5 -71.5t-41 -68t-54 -52z" />
<glyph unicode="&#x2020;" horiz-adv-x="933" d="M80 909v72h338v416h80v-416h336v-72h-336v-1024h-80v1024h-338z" />
<glyph unicode="&#x2021;" horiz-adv-x="933" d="M78 289v71h340v549h-338v72h338v416h80v-416h336v-72h-336v-549h333v-71h-333v-404h-80v404h-340z" />
<glyph unicode="&#x2022;" horiz-adv-x="555" d="M121 551q0 68 45 114t110 46q68 0 113 -46t45 -114q0 -66 -45 -112t-113 -46q-66 0 -110.5 46t-44.5 112z" />
<glyph unicode="&#x2023;" horiz-adv-x="1036" d="M184 156v792l760 -385z" />
<glyph unicode="&#x2026;" horiz-adv-x="1085" d="M88 66q0 29 22.5 50t51.5 21t50 -21t21 -50t-21.5 -51.5t-49.5 -22.5q-29 0 -51.5 22.5t-22.5 51.5zM451 66q0 29 21.5 50t51.5 21q29 0 49.5 -21t20.5 -50t-20.5 -51.5t-49.5 -22.5q-31 0 -52 22.5t-21 51.5zM825 66q0 29 22.5 50t51.5 21t50.5 -21t21.5 -50 t-21.5 -51.5t-50.5 -22.5t-51.5 22.5t-22.5 51.5z" />
<glyph unicode="&#x202f;" horiz-adv-x="365" />
<glyph unicode="&#x2030;" horiz-adv-x="2402" d="M63 944q0 66 11.5 139.5t45.5 137t97.5 104.5t165.5 41q104 0 164.5 -43t91.5 -107.5t39 -137.5t8 -132q0 -72 -14.5 -143.5t-49 -131t-94 -96t-149.5 -36.5q-102 0 -164.5 35.5t-96.5 93t-44.5 130t-10.5 146.5zM139 940q0 -70 9.5 -132.5t35 -108.5t73.5 -72.5 t126 -26.5q70 0 115 32t70.5 81t34.5 110.5t9 120.5q0 45 -5 107.5t-27.5 118t-68.5 94.5t-128 39t-130 -37t-73.5 -92.5t-33 -119t-7.5 -114.5zM500 -47l579 1477h66l-576 -1477h-69zM969 397q0 66 11 140.5t45 137t97.5 104.5t165.5 42q104 0 164.5 -43t91.5 -107.5 t39 -138.5t8 -133q0 -70 -14 -142.5t-49 -130.5t-94.5 -96t-149.5 -38q-102 0 -164.5 35.5t-96.5 93t-44 130.5t-10 146zM1044 395q0 -72 9.5 -133t35 -108.5t73.5 -74t126 -26.5q70 0 115 32t70.5 82t35 110.5t9.5 119.5q0 47 -5.5 109.5t-28 118t-68.5 94.5t-128 39 t-130 -37t-73.5 -92.5t-33 -119t-7.5 -114.5zM1718 397q0 66 11.5 140.5t45 137t97 104.5t166.5 42q104 0 164.5 -43t91 -107.5t39 -138.5t8.5 -133q0 -70 -14.5 -142.5t-49 -130.5t-94 -96t-149.5 -38q-102 0 -165 35.5t-96.5 93t-44 130.5t-10.5 146zM1794 395 q0 -72 9 -133t35 -108.5t74 -74t126 -26.5q70 0 115 32t70.5 82t34.5 110.5t9 119.5q0 47 -5 109.5t-27.5 118t-68.5 94.5t-128 39t-130 -37t-74 -92.5t-33 -119t-7 -114.5z" />
<glyph unicode="&#x2039;" horiz-adv-x="614" d="M137 338v68l283 299l39 -33l-230 -301l232 -299l-39 -33z" />
<glyph unicode="&#x203a;" horiz-adv-x="614" d="M127 72l229 299l-227 301l39 33l283 -299v-68l-285 -299z" />
<glyph unicode="&#x2044;" horiz-adv-x="219" d="M-217 -47l579 1477h66l-575 -1477h-70z" />
<glyph unicode="&#x205f;" horiz-adv-x="457" />
<glyph unicode="&#x20ab;" d="M123 0v61h805v-61h-805zM145 559q0 100 18.5 185t59.5 146.5t105.5 96.5t156.5 35q53 0 124 -16.5t139 -53.5v191h-285v61h285v193h79v-193h109v-61h-109v-993h-77v94h-2q-59 -47 -135 -76t-152 -29q-88 0 -148.5 32t-97.5 89t-53.5 133t-16.5 166zM227 557 q0 -100 18.5 -166.5t51.5 -106.5t80 -57.5t102 -17.5q31 0 69 9t74.5 24.5t69.5 36t56 43.5v552q-45 29 -116 51.5t-140 22.5q-53 0 -101.5 -19.5t-84.5 -64.5t-57.5 -120.5t-21.5 -186.5z" />
<glyph unicode="&#x20ac;" d="M49 567v58h832v-58h-656q4 -100 25.5 -192t72 -162t134.5 -112t215 -42q47 0 132 9.5t195 35.5l17 -65q-33 -12 -77 -21.5t-92 -16.5t-96.5 -11t-88.5 -4q-133 0 -229.5 41t-159 116.5t-95.5 183t-39 240.5h-90zM49 745v56h94q8 100 40 201.5t93.5 183.5t157.5 134 t236 52q102 0 186 -15.5t143 -37.5l-20 -70q-78 29 -163 39t-144 10q-104 0 -182 -35.5t-132.5 -100t-86 -157t-42.5 -204.5h652v-56h-832z" />
<glyph unicode="&#x2122;" horiz-adv-x="1329" d="M86 1341v56h469v-56h-205v-559h-63v559h-201zM627 780v617h65q27 -53 51.5 -106.5t51.5 -106.5q29 -59 56.5 -118.5t55.5 -119.5l117 238l104 213h62v-617h-60v500q-25 -49 -49 -99.5t-51 -99.5q-25 -49 -49.5 -98t-48.5 -102h-55q-25 51 -47.5 100t-47.5 98 q-23 49 -47 97.5t-47 99.5h-2v-496h-59z" />
<glyph unicode="&#x2202;" horiz-adv-x="1103" d="M121 430q0 100 30.5 181t86 139.5t131 90t163.5 31.5q37 0 83.5 -8t97.5 -26.5t102 -49t94 -73.5q0 162 -34.5 291t-98 219t-152.5 138t-200 48q-29 0 -55.5 -1t-55.5 -5l-2 65q35 6 67 7.5t58 1.5q143 0 247.5 -62.5t172.5 -168t100.5 -244t32.5 -291.5 q0 -172 -33.5 -308.5t-95 -230.5t-147 -144t-187.5 -50q-88 0 -161.5 28.5t-128 86t-85 141t-30.5 194.5zM201 434q0 -100 26.5 -173t70.5 -120t104 -69.5t128 -22.5q94 0 166 51.5t119 134t70.5 186t23.5 206.5q-90 98 -191.5 137t-187.5 39q-80 0 -141 -30t-103 -80 t-63.5 -116.5t-21.5 -142.5z" />
<glyph unicode="&#x2206;" horiz-adv-x="1148" d="M41 0v61q8 25 31.5 90.5t55.5 156.5t71 200.5t79.5 222.5t79.5 222.5t72 199.5t56.5 155.5t31.5 90.5h111l477 -1331v-68h-1065zM131 72h883l-332 946l-104 299l-9 2l-106 -307z" />
<glyph unicode="&#x220f;" horiz-adv-x="1249" d="M164 -184v1583h921v-1583h-92v1503h-737v-1503h-92z" />
<glyph unicode="&#x2211;" horiz-adv-x="1044" d="M74 -111l391 752l-385 684v74h895v-74h-793l377 -666v-34l-385 -736h832v-73h-932v73z" />
<glyph unicode="&#x221a;" horiz-adv-x="1064" d="M53 727l180 94l185 -585q12 -45 26.5 -90.5t26.5 -92.5h8l58 187q23 72 54.5 182t68 240.5t76.5 269.5t77 270t68.5 241.5t54.5 184.5h72q-31 -94 -70 -228t-84 -288t-91 -315.5t-91 -314t-84 -287t-70 -228.5h-90q-35 106 -63.5 197.5t-56 180.5t-56.5 181t-64 201 q-29 -16 -57.5 -29.5t-56.5 -29.5q-6 14 -11.5 28.5t-9.5 30.5z" />
<glyph unicode="&#x221e;" horiz-adv-x="1560" d="M129 510q0 57 21.5 108.5t61.5 90.5t93 60.5t119 21.5q51 0 102.5 -19.5t98.5 -52.5t92 -74t88 -86q43 45 87 86t91 74t99.5 52.5t113.5 19.5t113.5 -20.5t89.5 -56.5t58.5 -85t21.5 -109q0 -61 -23.5 -114.5t-65.5 -91.5t-97.5 -59.5t-116.5 -21.5q-43 0 -84 11.5 t-85 37t-95.5 68.5t-112.5 107q-41 -41 -84 -81t-91.5 -72t-101.5 -51.5t-112 -19.5t-109.5 23t-89.5 60.5t-60.5 88t-21.5 105.5zM199 512q0 -92 63.5 -153.5t159.5 -61.5q45 0 91 20.5t90 51t84 66.5t73 69q-37 39 -76 79t-82 71.5t-90 52t-98 20.5q-47 0 -86 -17.5 t-68 -47t-45 -68.5t-16 -82zM848 508l91 -91t77 -66.5t75.5 -40t86.5 -13.5q49 0 91 18.5t71.5 49t47 70.5t17.5 83q0 51 -18.5 90t-49 65.5t-70.5 40t-83 13.5q-47 0 -93.5 -21.5t-89.5 -53t-82.5 -70.5t-70.5 -74z" />
<glyph unicode="&#x222b;" horiz-adv-x="657" d="M8 -309l12 55q63 -14 123 -14q104 0 138 64.5t34 187.5q0 164 -11 315.5t-25.5 300t-25.5 296.5t-11 308q0 150 64.5 240t193.5 90q18 0 32.5 -1t28.5 -2t30.5 -4t39.5 -9l-13 -58q-35 4 -56 7t-50 3q-59 0 -98 -21.5t-61.5 -57t-32 -83.5t-9.5 -104q0 -168 12.5 -313.5 t25.5 -286.5t25.5 -290.5t12.5 -327.5q0 -156 -56.5 -236t-176.5 -80q-37 0 -69 5.5t-77 15.5z" />
<glyph unicode="&#x2248;" d="M139 465q33 66 68 96.5t86 30.5q45 0 112.5 -12.5t138 -26.5t134 -26.5t102.5 -12.5l101 80l34 -25q-29 -66 -62.5 -95.5t-82.5 -29.5q-55 0 -120.5 12.5t-132 27t-128 26.5t-106.5 12l-105 -86zM139 711q33 66 68 97.5t86 31.5q45 0 112.5 -12.5t138 -27t134 -26.5 t102.5 -12l101 80l34 -23q-29 -66 -62.5 -96.5t-82.5 -30.5q-55 0 -120.5 12.5t-132 26.5t-128 26.5t-106.5 12.5l-105 -86z" />
<glyph unicode="&#x2260;" d="M147 436v70h232l223 217h-455v72h523l178 178l51 -43l-137 -135h147v-72h-215l-223 -217h438v-70h-506l-200 -200l-49 43l159 157h-166z" />
<glyph unicode="&#x2264;" d="M141 242v69h768v-69h-768zM145 739v72l764 291v-82l-673 -244l673 -250v-84z" />
<glyph unicode="&#x2265;" d="M145 442v84l678 250q-2 0 -53 18.5t-125 45t-161 58.5t-160.5 58.5t-125 45t-53.5 18.5v82l766 -291v-72zM147 244v69h768v-69h-768z" />
<glyph unicode="&#x25ca;" horiz-adv-x="942" d="M41 539q96 174 192.5 351t192.5 351h90l379 -702q-94 -178 -188.5 -352.5t-190.5 -348.5h-90zM145 539q82 -147 164 -297t160 -297h4l320 594l-322 596h-2q-80 -150 -161 -298.5t-163 -297.5z" />
<glyph unicode="&#x25fc;" horiz-adv-x="993" d="M0 0v993h993v-993h-993z" />
</font>
</defs>
</svg>
