<?xml version="1.0" standalone="no"?>
<!DOCTYPE svg PUBLIC "-//W3C//DTD SVG 1.1//EN" "http://www.w3.org/Graphics/SVG/1.1/DTD/svg11.dtd" >
<svg xmlns="http://www.w3.org/2000/svg" xmlns:xlink="http://www.w3.org/1999/xlink" version="1.1">
<metadata></metadata>
<defs>
<font id="pf_agora_sans_problack" horiz-adv-x="1259" >
<font-face units-per-em="2048" ascent="1536" descent="-512" />
<missing-glyph horiz-adv-x="636" />
<glyph unicode="&#xfb01;" horiz-adv-x="1423" d="M53 764v213l148 45v76q0 80 18.5 157.5t70.5 139t148.5 99.5t249.5 38q33 0 84 -3t110.5 -9.5t126 -18.5t134.5 -31q0 -4 -7.5 -46t-16.5 -91t-16 -91t-9 -46q-111 16 -182.5 24.5t-133.5 8.5q-98 0 -148 -34t-50 -126v-55h704l2 -1014h-391l-2 764h-313q0 -188 -1 -381 t-1 -383h-381l2 764h-146z" />
<glyph unicode="&#xfb02;" horiz-adv-x="1443" d="M51 764v211q39 12 75 22.5t73 22.5v47q0 96 21.5 180t76.5 145.5t149.5 96.5t239.5 35q72 0 146.5 -6.5t158.5 -22.5l316 31q0 -383 -1 -763t-1 -763h-392q0 305 1 606t1 606q-41 4 -73.5 7.5t-65.5 3.5q-80 0 -138 -36t-58 -124v-51h235v-248h-235q0 -190 -1 -383 t-1 -381h-383q0 193 1 382t1 382h-146z" />
<glyph horiz-adv-x="0" />
<glyph horiz-adv-x="682" />
<glyph unicode=" "  horiz-adv-x="636" />
<glyph unicode="&#x09;" horiz-adv-x="636" />
<glyph unicode="&#xa0;" horiz-adv-x="636" />
<glyph unicode="!" horiz-adv-x="671" d="M143 152q0 76 45 123t144 47q100 0 146 -47t46 -123q0 -72 -47 -120t-145 -48t-143.5 48t-45.5 120zM150 1458h362v-495l-35 -527h-293l-32 527z" />
<glyph unicode="&#x22;" horiz-adv-x="892" d="M119 1417h303l-45 -557h-215zM481 1417h303l-45 -557h-215z" />
<glyph unicode="#" horiz-adv-x="1243" d="M125 406l4 172h188l52 206h-174l4 166h211l90 369h196l-88 -369h178l93 369h194l-86 -369h156l-2 -166h-197l-51 -206h176l-2 -172h-209l-98 -406h-199l94 406h-178l-98 -406h-199l96 406h-151zM518 578h178l52 206h-181z" />
<glyph unicode="$" d="M111 981q0 84 26.5 152.5t75.5 119t116.5 83t149.5 44.5v146h107v-1680h-107v168q-86 10 -184 32t-180 60l80 244q74 -25 120.5 -36t77.5 -17t49.5 -9t36.5 -7v315q-72 23 -138.5 54.5t-117.5 77.5t-81.5 108.5t-30.5 144.5zM385 1001q0 -43 21.5 -70.5t72.5 -39.5v225 q-94 -19 -94 -115zM651 -154v1680h109v-144q74 -8 155.5 -26.5t143.5 -48.5q-16 -59 -31.5 -115.5t-30.5 -116.5q-41 14 -72.5 22.5t-59 14.5t-53.5 9t-52 7v-305q70 -23 141.5 -52.5t130 -75.5t95 -110.5t36.5 -156.5q0 -86 -29.5 -155.5t-83 -120t-127 -84t-163.5 -48.5 v-174h-109zM760 279q55 10 79.5 42.5t24.5 79.5q0 45 -27.5 74t-76.5 45v-241z" />
<glyph unicode="%" horiz-adv-x="1986" d="M74 954q0 86 19.5 163t65.5 135.5t120.5 93t187.5 34.5t187.5 -34.5t119.5 -93t63.5 -136.5t18.5 -162q0 -86 -20.5 -162.5t-66.5 -135t-121 -92.5t-181 -34q-113 0 -187.5 34t-120.5 91.5t-65.5 135t-19.5 163.5zM344 954q0 -102 23.5 -164.5t99.5 -62.5q70 0 93.5 65.5 t23.5 161.5q0 43 -4.5 85t-16.5 74t-35.5 52.5t-60.5 20.5q-39 0 -63.5 -20.5t-38 -53.5t-17.5 -74t-4 -84zM541 -39l680 1501h229l-680 -1501h-229zM1128 408q0 86 19.5 162.5t66 135t121 93.5t187.5 35t187.5 -35t119.5 -93.5t63.5 -135t18.5 -162.5t-20.5 -163 t-66.5 -135.5t-121 -92t-181 -33.5q-113 0 -187.5 33.5t-121 91t-66 134t-19.5 165.5zM1399 408q0 -102 23.5 -165t99.5 -63q35 0 57.5 17.5t35.5 48t18 72t5 90.5q0 43 -4 85t-16 73.5t-35.5 52t-60.5 20.5q-39 0 -63.5 -20.5t-38 -53.5t-17.5 -73.5t-4 -83.5z" />
<glyph unicode="&#x26;" horiz-adv-x="1720" d="M111 399q0 119 69.5 235t235.5 206q-43 63 -65.5 132.5t-22.5 131.5q0 49 16 107.5t59 110.5t117 87t187 35q125 0 203.5 -34t122.5 -83t59.5 -103.5t15.5 -97.5q0 -63 -24.5 -117.5t-63.5 -98.5t-87 -79.5t-95 -64.5q61 -80 131.5 -163t144.5 -159q33 31 59.5 70t48 90 t38 117.5t30.5 152.5h283q-4 -98 -19.5 -182t-45 -158.5t-73.5 -142t-108 -135.5q66 -53 143.5 -105.5t139.5 -80.5q-33 -53 -67 -108.5t-66 -111.5q-45 18 -94.5 45t-99.5 58t-98 63.5t-89 65.5q-193 -113 -449 -113q-115 0 -213 27t-169.5 81t-112.5 134t-41 188zM461 424 q0 -96 68.5 -142t168.5 -46q41 0 85 12t83 31q-92 96 -159.5 179t-122.5 156q-51 -35 -87 -83t-36 -107zM633 1120q0 -29 16.5 -70.5t42.5 -82.5q49 29 92 66.5t43 90.5q0 45 -28.5 69t-75.5 24q-43 0 -66.5 -31t-23.5 -66z" />
<glyph unicode="'" horiz-adv-x="563" d="M127 1417h303l-45 -557h-215z" />
<glyph unicode="(" horiz-adv-x="755" d="M131 565q0 131 28.5 257t79 241t119 215t146.5 182l166 -104q-29 -41 -67 -109.5t-73.5 -166t-60.5 -224.5t-25 -281q0 -170 25 -304t60.5 -233t73.5 -167t67 -104l-162 -109q-80 82 -148.5 181.5t-120 215t-80 243.5t-28.5 267z" />
<glyph unicode=")" horiz-adv-x="757" d="M88 1356l168 104q78 -82 145.5 -182t118.5 -214t80 -240t29 -259q0 -139 -30 -267t-80 -242.5t-119.5 -214t-149.5 -181.5l-160 107q27 37 66 105.5t73.5 167.5t59 233.5t24.5 304.5q0 154 -24.5 280.5t-59 224t-73.5 166t-68 107.5z" />
<glyph unicode="*" horiz-adv-x="915" d="M84 1071q16 66 34.5 126t43.5 120q53 -33 109.5 -63.5t111.5 -63.5q-12 59 -25.5 121.5t-23.5 122.5q33 4 65.5 4h65.5h65.5t63.5 -4q-12 -59 -24.5 -121t-26.5 -123l223 125q29 -59 46 -120.5t34 -125.5l-258 -33l186 -172q-51 -41 -101 -76.5t-104 -70.5 q-29 57 -54.5 114.5t-51.5 112.5l-107 -227q-53 35 -104 70.5t-102 76.5q47 45 94 88t92 86z" />
<glyph unicode="+" d="M211 520v209h338v346h215v-346h336v-209h-336v-352h-215v352h-338z" />
<glyph unicode="," horiz-adv-x="622" d="M102 -227q117 102 134 231q-66 10 -96.5 51t-30.5 107q0 74 51 125t143 51q57 0 97 -17.5t64.5 -46t36 -66.5t11.5 -81q0 -68 -24.5 -138.5t-67.5 -135t-100.5 -117.5t-122.5 -86z" />
<glyph unicode="-" horiz-adv-x="847" d="M129 430v254h590v-254h-590z" />
<glyph unicode="." horiz-adv-x="589" d="M94 162q0 78 47 127t150 49q104 0 152.5 -49t48.5 -127t-48.5 -128t-152.5 -50t-150.5 50t-46.5 128z" />
<glyph unicode="/" horiz-adv-x="821" d="M6 -76l535 1530h270l-537 -1530h-268z" />
<glyph unicode="0" d="M33 682q0 141 29.5 269t98 225.5t182.5 155t282 57.5t280.5 -58.5t180 -156t96 -225.5t28.5 -265q0 -143 -30.5 -271t-100 -223.5t-181.5 -151.5t-273 -56q-168 0 -282 55t-182.5 150.5t-98 222.5t-29.5 272zM422 680q0 -88 8 -163t30.5 -130t62.5 -86t102 -31 q59 0 97 33t60.5 89.5t31.5 131t9 158.5q0 76 -7 151.5t-27.5 134t-60.5 95.5t-103 37q-66 0 -105 -38t-61.5 -97.5t-29.5 -134t-7 -150.5z" />
<glyph unicode="1" d="M195 1001v259l309 110h346v-1370h-385v1032z" />
<glyph unicode="2" d="M72 1223q135 88 274 125.5t258 37.5q238 0 367 -112.5t129 -317.5q0 -102 -43 -195t-108.5 -179t-147.5 -162t-158 -139l6 -13h516v-268h-1061v233q94 78 201 165t196 178.5t147.5 183.5t58.5 178q0 66 -40 104.5t-132 38.5q-57 0 -150.5 -19.5t-196.5 -74.5z" />
<glyph unicode="3" d="M88 88l94 264q63 -20 111.5 -33.5t88.5 -20.5t73.5 -10t64.5 -3q123 0 186.5 46t63.5 132q0 35 -12.5 65.5t-42 54t-80.5 38t-127 14.5q-41 0 -90 -6l-41 196q18 18 54 52t76 70t77 70t55 52q-2 2 -4 8t-2 8h-475v285h929l46 -235l-312 -269l2 -16q72 -16 133.5 -48 t107.5 -80t71.5 -113.5t25.5 -151.5q0 -119 -44 -208t-123 -149.5t-186.5 -90t-234.5 -29.5q-39 0 -97 5t-124.5 17t-135.5 32.5t-128 53.5z" />
<glyph unicode="4" d="M51 326v221q16 23 60.5 86t101.5 147t120.5 178.5t121 178.5t101.5 147.5t62 85.5h402v-780h197v-264h-197v-326h-375v326h-594zM393 590h262v368h-14q-20 -27 -53 -77t-70 -106t-70.5 -107.5t-54.5 -77.5z" />
<glyph unicode="5" d="M90 90l90 260q127 -41 205 -54t143 -13q248 0 248 186q0 90 -66.5 131t-160.5 41q-90 0 -189 -45l-196 84l59 690h867v-283h-568l-16 -188q23 4 58.5 9t76.5 5q115 0 211 -29.5t164.5 -88t107.5 -142.5t39 -194q0 -119 -44 -208t-122.5 -149.5t-184 -90t-228.5 -29.5 q-37 0 -96.5 4t-128 16t-139 33.5t-130.5 54.5z" />
<glyph unicode="6" d="M78 614q0 158 32.5 298.5t109.5 245t200 165.5t305 61q106 0 186 -14t133 -31q-2 -8 -10 -48t-16 -88t-16.5 -88t-10.5 -48q-72 20 -133 26.5t-104 6.5q-74 0 -126.5 -25.5t-86 -65.5t-52 -88.5t-26.5 -93.5l14 -10q72 37 141.5 53.5t131.5 16.5q92 0 169.5 -28t134 -81 t89.5 -135t33 -188q0 -117 -39 -205t-110 -147.5t-168 -90t-212 -30.5q-154 0 -262.5 47t-176 132t-99 200.5t-31.5 252.5zM465 520q0 -41 7 -84t27.5 -77.5t55.5 -57t90 -22.5q76 0 120 46t44 126q0 70 -32 118.5t-126 48.5q-70 0 -117 -24.5t-69 -38.5v-35z" />
<glyph unicode="7" d="M166 1087v283h956v-240l-520 -1130h-383l520 1087h-573z" />
<glyph unicode="8" d="M63 377q0 43 11.5 91t38 98t69.5 97.5t109 88.5q-78 51 -117 110.5t-39 151.5q0 82 38 152.5t105.5 120.5t159.5 79t203 29q86 0 175 -19.5t163 -64.5t121 -116t47 -171q0 -66 -35 -147.5t-135 -159.5q98 -51 155.5 -132t57.5 -198q0 -86 -41 -160.5t-114.5 -128 t-178 -84t-233.5 -30.5q-262 0 -411 104.5t-149 288.5zM444 408q0 -59 45.5 -104.5t137.5 -45.5q45 0 79.5 14.5t57 36t34 48t11.5 53.5q2 61 -52.5 107t-195.5 99q-70 -53 -93.5 -105t-23.5 -103zM485 1008q0 -33 17.5 -56.5t47.5 -43t69.5 -37t85.5 -37.5q59 49 80.5 90 t21.5 80q0 49 -39 91t-129 42q-39 0 -67.5 -13.5t-48 -33t-29 -42t-9.5 -40.5z" />
<glyph unicode="9" d="M74 911q0 117 39 205t109.5 148.5t167.5 91t212 30.5q154 0 261.5 -48t175 -133t99 -200.5t31.5 -252.5q0 -158 -32.5 -298.5t-109.5 -245t-201 -164.5t-304 -60q-106 0 -189 14t-136 31l57 270q72 -20 134.5 -26.5t105.5 -6.5q74 0 125 25.5t84.5 65.5t53 88.5 t27.5 93.5l-14 10q-72 -39 -142.5 -54.5t-129.5 -15.5q-92 0 -169 26.5t-134.5 81t-89 135.5t-31.5 189zM438 915q0 -70 32 -118.5t124 -48.5q70 0 118 25.5t70 37.5v35q0 41 -7 83t-26.5 76.5t-55.5 57t-91 22.5q-76 0 -120 -45t-44 -125z" />
<glyph unicode=":" horiz-adv-x="618" d="M111 162q0 78 47 127t149 49q104 0 152.5 -49t48.5 -127q0 -76 -48 -127t-153 -51q-104 0 -150 51t-46 127zM111 762q0 78 47 127t149 49q104 0 152.5 -49t48.5 -127q0 -76 -48 -126t-153 -50q-104 0 -150 50t-46 126z" />
<glyph unicode=";" horiz-adv-x="618" d="M98 -227q117 104 133 231q-66 10 -96.5 51t-30.5 107q0 74 51.5 125t143.5 51q57 0 97 -17.5t64.5 -46t36 -66.5t11.5 -81q0 -68 -24.5 -138.5t-66.5 -135t-99.5 -117.5t-122.5 -86zM111 762q0 78 47 127t149 49q104 0 152.5 -49t48.5 -127q0 -76 -48 -126t-153 -50 q-104 0 -150 50t-46 126z" />
<glyph unicode="&#x3c;" horiz-adv-x="1288" d="M158 528v170l983 471v-243l-690 -312l690 -315v-240z" />
<glyph unicode="=" horiz-adv-x="1288" d="M190 336v201h906v-201h-906zM190 690v203h906v-203h-906z" />
<glyph unicode="&#x3e;" horiz-adv-x="1288" d="M158 59v240l690 315l-690 312v243l985 -471v-170z" />
<glyph unicode="?" horiz-adv-x="1105" d="M96 1378q141 53 257 69.5t208 16.5q115 0 204 -26.5t150.5 -75.5t94 -115.5t32.5 -146.5q0 -111 -51 -188.5t-127 -143.5q-88 -78 -150.5 -143.5t-62.5 -143.5q0 -14 1 -36.5t5 -38.5q-16 0 -63 -1.5t-99.5 -1.5t-98.5 -1t-60 -1q-4 12 -5 32t-3 39.5t-2 36.5v26 q0 61 15 109t42 89t61.5 78t73.5 74q47 43 77 81t30 91q0 57 -40 87t-112 30q-68 0 -139.5 -12.5t-157.5 -41.5q-4 12 -14 50t-23.5 79t-26 79t-16.5 50zM317 141q0 74 46.5 121t142.5 47q100 0 146 -47t46 -121t-46 -122t-144 -48t-144.5 48.5t-46.5 121.5z" />
<glyph unicode="@" horiz-adv-x="2058" d="M164 655q0 178 68.5 331t190.5 264.5t287.5 174t362.5 62.5q193 0 344.5 -53.5t257 -151.5t161.5 -237.5t56 -311.5q0 -115 -35.5 -204t-98 -151.5t-148.5 -95t-187 -32.5q-39 0 -81 7t-81.5 24.5t-71.5 44t-48 65.5q-59 -61 -131 -85.5t-131 -24.5q-80 0 -131.5 25.5 t-79 62.5t-37.5 80t-10 77q0 63 20.5 105.5t72.5 70t144 45t238 35.5v21q0 45 -17.5 66.5t-83.5 21.5q-49 0 -111.5 -9.5t-121.5 -25.5l-49 191q78 29 166 45t178 16q72 0 134 -13.5t107 -45t71 -84t26 -131.5v-295q0 -31 17.5 -51.5t70.5 -20.5q27 0 57.5 14.5t57 45 t43 77.5t16.5 113q0 123 -39 223t-115 172t-184.5 112t-245.5 40q-141 0 -265 -46.5t-214 -128t-142.5 -191.5t-52.5 -239q0 -131 46.5 -242.5t128 -192.5t196.5 -126t250 -45q55 0 131 11.5t186 46.5q18 -49 36 -95.5t38 -95.5q-98 -49 -202.5 -68.5t-190.5 -19.5 q-207 0 -365.5 62.5t-267.5 172t-165 260t-56 328.5zM940 557q0 -33 15.5 -52.5t50.5 -19.5q43 0 90 37v111q-27 -2 -54.5 -6t-50 -11.5t-37 -21.5t-14.5 -37z" />
<glyph unicode="A" horiz-adv-x="1499" d="M14 0l494 1413h508l469 -1413h-414l-86 289h-483l-90 -289h-398zM586 551h323l-84 297l-67 293h-13l-75 -303z" />
<glyph unicode="B" horiz-adv-x="1425" d="M135 0v1413h701q115 0 199.5 -28.5t141 -80t84 -123t27.5 -157.5q0 -27 -7 -64.5t-27.5 -76.5t-54.5 -75t-89 -58v-13q72 -23 115 -62.5t66.5 -86.5t30.5 -93t7 -77q0 -96 -34.5 -173t-98 -131.5t-154 -84t-200.5 -29.5h-707zM539 279h198q90 0 131 45t41 116 q0 68 -42 114t-130 46h-198v-321zM539 850h176q78 0 118.5 36t40.5 103q0 68 -37.5 108t-121.5 40h-176v-287z" />
<glyph unicode="C" horiz-adv-x="1339" d="M94 698q0 133 33 266.5t117 240t225 173t360 66.5q102 0 200.5 -15.5t191.5 -44.5l-50 -290q-80 18 -153.5 26t-132.5 8q-84 0 -150.5 -21.5t-114 -70.5t-73 -127t-25.5 -190q0 -121 22.5 -202t68.5 -130t117 -70.5t167 -21.5q25 0 63.5 3t85 9t93.5 13.5t86 17.5 l61 -279q-104 -39 -234 -60.5t-247 -21.5q-215 0 -352.5 58.5t-217 158t-110.5 229.5t-31 275z" />
<glyph unicode="D" horiz-adv-x="1486" d="M137 0v1413h586q199 0 328 -56.5t204.5 -152.5t105.5 -223t30 -270q0 -141 -34 -269.5t-113 -226.5t-208 -156.5t-319 -58.5h-580zM543 281h143q59 0 111.5 23.5t90.5 74.5t60.5 131t22.5 195q0 117 -21.5 198.5t-60.5 134t-93.5 77t-117.5 24.5h-135v-858z" />
<glyph unicode="E" horiz-adv-x="1310" d="M135 0v1413h1061v-274h-653v-269h547v-270h-547v-321h680v-279h-1088z" />
<glyph unicode="F" horiz-adv-x="1241" d="M135 0v1413h1051v-276h-647v-303h481v-269h-481v-565h-404z" />
<glyph unicode="G" horiz-adv-x="1425" d="M94 705q0 133 33 265t118 237.5t232.5 171t376.5 65.5q102 0 209.5 -15.5t200.5 -44.5l-47 -282q-82 16 -165 25.5t-145 9.5q-193 0 -289 -104.5t-96 -348.5q0 -201 72 -296t227 -95q31 0 68 4t72 10v455h364v-699q-129 -45 -267 -65.5t-255 -20.5q-213 0 -350.5 61.5 t-217 163t-110.5 232.5t-31 271z" />
<glyph unicode="H" horiz-adv-x="1546" d="M135 0v1411h406q0 -135 -1 -268t-1 -269h460v537h408v-1411h-408v594h-460q0 -150 1 -298.5t1 -295.5h-406z" />
<glyph unicode="I" horiz-adv-x="702" d="M150 0v1413h401v-1413h-401z" />
<glyph unicode="J" horiz-adv-x="839" d="M-111 -139q117 59 190 111.5t113.5 109.5t55 125.5t14.5 161.5l2 1046h402v-1073q0 -317 -173.5 -504.5t-512.5 -249.5z" />
<glyph unicode="K" horiz-adv-x="1501" d="M135 0v1411h400v-483q10 0 16 -2l80 96q86 98 172 194.5t172 194.5h471l-531 -545l570 -866h-484q-92 152 -182 300.5t-182 301.5l-102 -104v-498h-400z" />
<glyph unicode="L" horiz-adv-x="1255" d="M135 0v1413h404v-1137h694v-276h-1098z" />
<glyph unicode="M" horiz-adv-x="1935" d="M137 0v1413h510l191 -506l116 -325h19l131 346l196 485h496v-1413h-393v829h-8l-129 -325l-150 -361h-315l-150 379l-116 309h-9v-831h-389z" />
<glyph unicode="N" horiz-adv-x="1617" d="M135 0v1411h410q106 -158 203.5 -312.5t201.5 -314.5l123 -204h14v831h392v-1411h-408q-111 168 -214 336t-212 340q-29 47 -55.5 92t-52.5 92q-4 0 -6.5 -1t-6.5 -1v-858h-389z" />
<glyph unicode="O" horiz-adv-x="1605" d="M96 709q0 156 42 290t130 232t221.5 154.5t315.5 56.5t315 -56.5t220 -154.5t129 -232t42 -288q0 -158 -45 -292t-133 -232.5t-221 -154t-307 -55.5q-180 0 -313.5 53.5t-221.5 151t-131 231.5t-43 296zM522 707q0 -104 13.5 -187.5t46 -139.5t87 -87t136.5 -31 q78 0 130 33t85 91t46 141.5t13 181.5q0 90 -11 172t-42 143t-84 98t-137 37q-86 0 -141.5 -37t-86 -100.5t-43 -145t-12.5 -169.5z" />
<glyph unicode="P" horiz-adv-x="1288" d="M135 0v1413h594q139 0 238.5 -33.5t162 -93t91 -141.5t28.5 -180q0 -86 -29.5 -167t-90 -144.5t-152.5 -101.5t-219 -38h-217v-514h-406zM541 780h133q70 0 118 41t48 135q0 100 -50.5 141.5t-125.5 41.5h-123v-359z" />
<glyph unicode="Q" horiz-adv-x="1622" d="M94 707q0 156 42 289.5t130 233t221.5 156t315.5 56.5t315 -56.5t219 -156t128 -233t42 -289.5q0 -199 -67.5 -355.5t-206.5 -249.5q74 -23 150.5 -43t148.5 -39q-29 -72 -56.5 -145.5t-56.5 -144.5l-735 258q-152 18 -262.5 76.5t-183 151.5t-108.5 217t-36 274z M520 705q0 -104 14.5 -187.5t48 -141t88 -88t132.5 -30.5q76 0 128 33t85 92t47 141.5t14 182.5q0 90 -12 172t-43 143t-84 97t-135 36q-84 0 -138.5 -37t-86 -99.5t-45 -144t-13.5 -169.5z" />
<glyph unicode="R" horiz-adv-x="1415" d="M135 0v1413h645q135 0 229.5 -35t153 -93t85 -134t26.5 -156q0 -55 -14.5 -109.5t-43 -101.5t-72.5 -86t-104 -63v-4q45 -16 78 -42t54.5 -58.5t36 -69.5t26.5 -76l111 -385h-400l-104 356q-29 104 -78 141.5t-133 37.5h-92v-535h-404zM539 801h157q33 0 64 10t54.5 30.5 t37.5 53.5t14 78q0 78 -46 121t-124 43h-157v-336z" />
<glyph unicode="S" horiz-adv-x="1355" d="M70 92l92 281q84 -31 162.5 -48.5t144.5 -26.5t118 -11t83 -2q98 0 142 30.5t44 96.5q0 59 -47 86.5t-131 48.5q-113 29 -215.5 57.5t-179 75.5t-121.5 120.5t-45 190.5q0 98 32.5 181t103.5 143.5t182.5 94.5t269.5 34q117 0 247.5 -24.5t245.5 -84.5l-96 -270 q-106 41 -218 54.5t-192 13.5q-149 0 -149 -119q0 -31 20.5 -51.5t54 -36t79.5 -27.5t100 -25q70 -16 154.5 -41.5t158.5 -74.5t124 -132t50 -214q0 -96 -37 -177t-115.5 -138.5t-202.5 -89.5t-298 -32q-53 0 -122 6.5t-143.5 19.5t-151.5 35.5t-144 55.5z" />
<glyph unicode="T" horiz-adv-x="1327" d="M20 1130v283h1287v-283h-443v-1130h-401v1130h-443z" />
<glyph unicode="U" horiz-adv-x="1523" d="M131 530v883h397v-901q0 -133 61.5 -191.5t178.5 -58.5q49 0 91 13.5t74 43t49 76.5t17 117l-2 901h396l-2 -883q0 -131 -36 -233t-113 -173t-195.5 -107.5t-282.5 -36.5q-172 0 -293 37.5t-195.5 108.5t-109.5 173t-35 231z" />
<glyph unicode="V" horiz-adv-x="1476" d="M14 1415h432l207 -741q4 -16 14.5 -62.5t22.5 -98.5t22.5 -99t14.5 -64h16q10 33 20.5 74t20 84t18.5 84t17 76q10 39 26.5 99t36 130t41 144.5t41 144t36 130t28.5 99.5h434q-20 -61 -57 -173t-84 -248t-97 -286.5t-97.5 -286.5t-84 -248t-57.5 -173h-500 q-20 61 -57 173t-83 248t-96 286.5t-95 286.5t-83 248t-57 173z" />
<glyph unicode="W" horiz-adv-x="2103" d="M14 1413h430q4 -23 14.5 -72t23 -111.5t26.5 -132t26.5 -132t21.5 -110.5t15 -71q6 -35 12.5 -78.5t13.5 -91t14 -92.5t14 -80h14q6 35 13 78t13.5 89t13.5 89t13 78q6 25 16.5 75t23.5 112.5t27.5 132t27 132t22.5 112t16 73.5h439q4 -10 14 -58t25.5 -114.5t33 -142.5 t31.5 -141.5t25.5 -112.5t13.5 -56q0 -2 4 -27.5t11.5 -61t14.5 -78.5t13 -81t11 -64.5t7 -33.5h17q6 37 13 83t13.5 93.5t13.5 92.5t13 82q4 23 13.5 70.5t21.5 109t25.5 130t25.5 130t21.5 110t15.5 70.5h428q-10 -41 -35.5 -151.5t-59.5 -256t-73 -308t-72.5 -306 t-59.5 -250t-34 -141.5h-508q-10 35 -26.5 108.5t-35 155.5t-35.5 157t-28 111q-2 8 -7 38t-12 70t-15.5 86t-15.5 87t-12 70.5t-7 38.5l-17 2q-8 -43 -16 -93.5t-16.5 -102.5t-15.5 -103.5t-15 -92.5l-113 -532h-510z" />
<glyph unicode="X" horiz-adv-x="1468" d="M10 0q121 184 242 365.5t242 367.5l-443 678h463l234 -436q59 104 119.5 218t119.5 218h459l-463 -682q115 -180 234.5 -364.5t236.5 -364.5h-459l-266 473l-260 -473h-459z" />
<glyph unicode="Y" horiz-adv-x="1427" d="M12 1411h422q41 -90 82 -178t80 -178l109 -279h16q29 63 57.5 145.5t57.5 145.5q41 86 80.5 172t80.5 172h414q-121 -225 -239.5 -453.5t-239.5 -453.5v-504h-436v471z" />
<glyph unicode="Z" horiz-adv-x="1316" d="M31 0v256l663 864l-6 17h-600v276h1165v-246l-678 -874l7 -12h706v-281h-1257z" />
<glyph unicode="[" horiz-adv-x="724" d="M143 -328v1764h510v-205h-192v-1366h192v-193h-510z" />
<glyph unicode="\" horiz-adv-x="821" d="M6 1454h270l535 -1530h-268z" />
<glyph unicode="]" horiz-adv-x="724" d="M88 -135h193v1366h-193v205h510v-1764h-510v193z" />
<glyph unicode="^" horiz-adv-x="1067" d="M37 688l399 698h170l402 -698h-246l-240 445l-241 -445h-244z" />
<glyph unicode="_" horiz-adv-x="1024" d="M0 -137h1024v-182h-1024v182z" />
<glyph unicode="`" horiz-adv-x="1114" d="M332 1360l196 229q8 -12 35 -38.5t63 -61.5t76.5 -75t76.5 -74.5t62.5 -62.5t35.5 -38l-134 -156z" />
<glyph unicode="a" horiz-adv-x="1265" d="M49 274q0 51 14.5 99.5t48 89.5t88 69.5t132.5 40.5q78 14 180 20.5t197 16.5v17q0 66 -36 98.5t-130 32.5q-37 0 -80 -3t-86 -9.5t-85 -15.5t-75 -19l-57 237q45 18 104.5 34.5t122 28t127 17.5t123.5 6q98 0 180 -18.5t140.5 -61.5t90 -112.5t31.5 -171.5v-418h127 q4 -53 8.5 -107.5t8.5 -109.5q-57 -27 -137 -43.5t-166 -16.5q-70 0 -122.5 24t-64.5 95q0 -2 -6 4q-49 -45 -102.5 -69.5t-101.5 -36.5t-86 -14.5t-58 -2.5q-100 0 -163.5 30t-100.5 75t-51.5 97t-14.5 97zM453 317q4 -55 26.5 -79.5t73.5 -24.5q31 0 76 14.5t78 42.5v160 q-45 -6 -90.5 -9t-82 -12.5t-59 -30t-22.5 -61.5z" />
<glyph unicode="b" horiz-adv-x="1261" d="M90 90v1385h389v-301q0 -10 -1 -42t-3 -68t-3 -67.5t-1 -42.5q0 -2 8 -4t10 -4q82 57 161 75.5t124 18.5q119 0 199 -39.5t129 -111.5t69.5 -169t20.5 -214q0 -104 -22.5 -199.5t-83 -168t-165 -115.5t-266.5 -43q-41 0 -106.5 4t-142 15t-159.5 32.5t-157 58.5zM483 279 q41 -16 82 -22.5t72 -6.5q33 0 62.5 9t53 36t37 76t13.5 131q0 88 -14.5 139t-37 77.5t-50 35t-56.5 8.5q-41 0 -83 -15.5t-79 -33.5v-434z" />
<glyph unicode="c" horiz-adv-x="1038" d="M66 496q0 96 22.5 192t80.5 173t161.5 125t265.5 48q63 0 152.5 -9t181.5 -38l-49 -270q-59 12 -112.5 16t-94.5 4q-109 0 -160 -60t-51 -173q0 -117 44 -171t159 -54q66 0 131 12t125 28q16 -66 32.5 -130t32.5 -130q-86 -41 -192.5 -60t-212.5 -19q-160 0 -260.5 41.5 t-158 113.5t-77.5 165t-20 196z" />
<glyph unicode="d" horiz-adv-x="1263" d="M68 481q0 119 23.5 221.5t76.5 177t140 116.5t214 42q20 0 52 -3t67 -9t72 -16.5t67 -26.5v490h391v-1473h-358q-4 23 -4 43t-4 43l-10 6q-82 -66 -169 -87t-141 -21q-125 0 -205.5 39.5t-128 108.5t-65.5 159t-18 190zM459 487q0 -78 13 -125t35.5 -71.5t51.5 -32.5 t59 -8q33 0 80 17.5t82 37.5v414q-35 18 -81 30.5t-81 12.5q-27 0 -54 -9.5t-51 -38t-39 -82.5t-15 -145z" />
<glyph unicode="e" horiz-adv-x="1177" d="M70 504q0 96 24.5 191.5t86 172t163.5 123.5t256 47q172 0 272.5 -47t152.5 -119.5t67.5 -161.5t15.5 -173v-91h-647q2 -98 59.5 -139t167.5 -41q76 0 163 17.5t163 40.5l73 -240q-111 -59 -235.5 -81.5t-233.5 -22.5q-166 0 -272 43t-167.5 115.5t-85 167.5t-23.5 198z M465 631h293q-2 74 -29.5 123t-107.5 49q-84 0 -117 -52.5t-39 -119.5z" />
<glyph unicode="f" horiz-adv-x="917" d="M41 766v213l147 43v96q0 70 15.5 137.5t61.5 121t129 85t220 31.5q59 0 152.5 -9t177.5 -34l-45 -258q-47 10 -102.5 15t-89.5 5q-66 0 -102 -22.5t-36 -79.5v-98h285v-246h-285v-163.5t-1 -219.5t-1 -219.5v-163.5h-381v766h-145z" />
<glyph unicode="g" horiz-adv-x="1300" d="M66 -168q0 68 31.5 121t88.5 88q-49 20 -73.5 59t-24.5 90q0 66 38 115t103 78l4 10q-55 35 -88.5 99.5t-33.5 156.5q0 102 42 175t112.5 120t162.5 69.5t193 22.5q68 0 128 -6t101 -18h391v-178h-135l-6 -11q23 -35 31 -81t8 -80q0 -90 -40 -158t-107.5 -112t-158 -66.5 t-190.5 -22.5l-121 -2q-96 0 -96 -53q0 -37 59 -37h322q96 0 174 -15.5t132 -50t84 -91t30 -136.5q0 -66 -31 -131.5t-106.5 -117.5t-202.5 -83.5t-318 -31.5q-168 0 -267 25.5t-151.5 65.5t-68.5 89t-16 98zM440 -96q0 -20 6.5 -39t27 -33t55 -22.5t94.5 -8.5 q111 0 158.5 28t47.5 77q0 35 -22.5 62.5t-87.5 27.5h-215q-29 -16 -46.5 -42t-17.5 -50zM489 662q0 -129 129 -130q59 0 100.5 31t41.5 103q0 59 -32 97t-105 38q-74 0 -104 -42t-30 -97z" />
<glyph unicode="h" horiz-adv-x="1255" d="M88 0v1473h385v-330q-2 -53 -3 -107.5t-5 -107.5l16 -10q39 27 85 49t91 37.5t88 23.5t80 8q100 0 166 -25.5t105 -73.5t53 -115.5t14 -149.5v-672h-393v594q0 68 -21.5 105.5t-97.5 37.5q-35 0 -81 -15t-87 -42v-680h-395z" />
<glyph unicode="i" horiz-adv-x="684" d="M125 1303q0 86 52 139t163 53q115 0 168 -53t53 -139q0 -82 -53 -137.5t-168 -55.5q-113 0 -164 55.5t-51 137.5zM145 0v1010h392v-1010h-392z" />
<glyph unicode="j" horiz-adv-x="694" d="M-106 -217q84 49 135 86t78.5 80t37 97t9.5 138v826h395v-161v-182.5v-182.5v-159.5t-1 -115.5t-1 -49q0 -143 -32 -251t-98.5 -184.5t-170 -127t-248.5 -80.5q-2 6 -18.5 46t-35 88t-33.5 88t-17 44zM137 1303q0 86 52.5 139t162.5 53q115 0 167 -53t52 -139 q0 -84 -52 -138.5t-167 -54.5q-113 0 -164 54.5t-51 138.5z" />
<glyph unicode="k" horiz-adv-x="1216" d="M88 0v1468h399q0 -111 -1 -220t-1 -220q-2 -72 -5 -153.5t-7 -155.5q4 -2 12 -2l258 295h439l-373 -394q18 -23 43 -47t35 -41q29 -51 71.5 -120.5t87 -144.5t87.5 -144.5t71 -120.5h-432q-55 98 -109.5 195.5t-107.5 195.5l-68 -72v-319h-399z" />
<glyph unicode="l" horiz-adv-x="628" d="M117 0v1475h391v-1475h-391z" />
<glyph unicode="m" horiz-adv-x="1857" d="M90 0v1012h363q4 -27 5 -53.5t3 -53.5l8 -4q45 37 93 62.5t96.5 42t91.5 23.5t77 7q92 0 149.5 -33.5t96.5 -105.5q37 31 85 56.5t97.5 44t96.5 28.5t86 10q96 0 158.5 -26.5t99.5 -75.5t52 -116.5t15 -149.5v-668h-395v621q0 61 -20.5 88.5t-71.5 27.5q-35 0 -80 -16 t-78 -39q2 -33 3 -65.5t1 -63.5v-553h-387q0 158 -1 314.5t-1 316.5q0 104 -88 104q-35 0 -77 -14t-83 -41v-680h-395z" />
<glyph unicode="n" horiz-adv-x="1255" d="M88 0v1012h367l6 -99l12 -4q90 63 188.5 95t169.5 32q98 0 162 -25.5t102 -73.5t53 -115.5t15 -149.5v-672h-393v594q0 70 -22.5 106.5t-96.5 36.5q-35 0 -81 -15t-87 -42v-680h-395z" />
<glyph unicode="o" d="M70 506q0 113 30.5 209t98 166.5t175 111.5t259.5 41q154 0 260 -41t173 -111.5t96.5 -166.5t29.5 -207t-31 -208t-98.5 -168t-175 -111.5t-260.5 -40.5q-154 0 -260.5 39.5t-172 110.5t-95 167t-29.5 209zM471 506q0 -59 6 -107.5t24.5 -82t50.5 -52t81 -18.5 q47 0 76.5 19.5t47 53t24.5 82t7 105.5q0 55 -6 102t-23.5 83t-48 55.5t-77.5 19.5t-79 -21.5t-50.5 -57.5t-25.5 -83t-7 -98z" />
<glyph unicode="p" horiz-adv-x="1263" d="M90 -428v1440h363l8 -90l12 -9q84 70 164 93.5t141 23.5q123 0 204 -41t128 -111.5t65.5 -167t18.5 -204.5q0 -113 -24.5 -209t-78 -166t-140.5 -109.5t-210 -39.5q-23 0 -55.5 2t-68 8t-71.5 16t-67 25v-461h-389zM481 295q35 -18 79 -29.5t83 -11.5q27 0 55.5 11t51 40 t38 81t15.5 134q0 78 -13.5 125t-36 71.5t-50 33t-58.5 8.5q-35 0 -83 -17.5t-81 -40.5v-405z" />
<glyph unicode="q" horiz-adv-x="1263" d="M68 457q0 113 25.5 217t92 184t179 128t288.5 48q37 0 99.5 -4t135.5 -14t147.5 -27.5t133.5 -44.5q0 -346 1 -686t1 -684h-385v254v90t2 107l-12 14q-72 -35 -145.5 -48.5t-116.5 -13.5q-119 0 -204 34t-138 96.5t-78.5 151.5t-25.5 198zM457 504q0 -84 13 -134.5 t35.5 -77t51 -33.5t57.5 -7q41 0 83 13.5t81 33.5v436q-66 25 -133 25q-39 0 -72.5 -12.5t-59.5 -42t-41 -78.5t-15 -123z" />
<glyph unicode="r" horiz-adv-x="956" d="M115 0v1012h387q0 -18 -2 -46t-4 -56.5t-6.5 -55.5t-6.5 -45l9 -6q45 47 97 90t106.5 75.5t107.5 52t100 19.5q35 0 47.5 -23.5t12.5 -58.5q0 -41 -11.5 -97t-29 -113.5t-38 -107.5t-40.5 -79l-338 43v-604h-391z" />
<glyph unicode="s" horiz-adv-x="1079" d="M51 66l72 235q147 -47 240.5 -57.5t140.5 -10.5q53 0 90 15.5t37 56.5q0 23 -14.5 37t-38 23.5t-51 16.5t-54.5 15q-72 20 -140.5 42t-121.5 55.5t-86 86t-33 132.5q0 72 26.5 132t85 103t147.5 66.5t216 23.5q94 0 200.5 -19.5t199.5 -64.5q-2 -4 -13.5 -38.5t-25 -75.5 t-23.5 -76t-12 -39q-88 31 -166 43t-139 12q-45 0 -75 -13t-30 -52q0 -12 13.5 -22.5t35 -18.5t48 -15.5t53.5 -13.5q63 -14 133 -35.5t128 -60.5t96 -100.5t38 -155.5q0 -72 -29.5 -129.5t-92 -98t-162 -63t-240.5 -22.5q-43 0 -98.5 4t-116 14t-122 26.5t-116.5 41.5z" />
<glyph unicode="t" horiz-adv-x="907" d="M23 766v213l165 49q8 23 19.5 57.5t24 71.5t23.5 72t19 57l273 23v-295h284v-248h-284v-348q0 -86 29.5 -117t103.5 -31q20 0 65.5 5.5t98.5 15.5l43 -252q-72 -31 -161 -45t-155 -14q-135 0 -216 30.5t-124 79.5t-57 109.5t-14 119.5v447h-137z" />
<glyph unicode="u" horiz-adv-x="1230" d="M88 338v674h393v-594q0 -31 4 -56.5t15.5 -45t33 -31t56.5 -11.5q31 0 73 15.5t82 50.5v672h394v-1012h-359l-12 106l-12 5q-88 -74 -186.5 -104t-161.5 -30q-98 0 -161 26t-97.5 73t-48 113.5t-13.5 148.5z" />
<glyph unicode="v" horiz-adv-x="1271" d="M18 1010h416q6 -20 24.5 -82t39 -132.5t38 -132t23.5 -81.5q4 -14 15.5 -63.5t24.5 -106t24.5 -104.5t15.5 -62h10q2 6 13.5 53t24.5 106.5t26.5 114.5t19.5 76q8 27 27.5 92.5t39 135t36 125t18.5 61.5h397q-10 -27 -35.5 -105t-60.5 -181t-73 -219t-72.5 -219.5 t-60 -181t-36.5 -104.5h-555q-10 27 -35.5 104.5t-60.5 181t-73.5 219.5t-72.5 219t-60.5 181t-37.5 105z" />
<glyph unicode="w" horiz-adv-x="1839" d="M43 1012h385l90 -424l49 -301h11l55 307l100 418h371l104 -424l58 -297h14l47 297l90 424h379l-254 -1012h-469l-96 403l-55 304h-15l-51 -301l-88 -406h-467z" />
<glyph unicode="x" horiz-adv-x="1208" d="M8 0l354 526q-82 119 -164.5 242t-162.5 242h426l149 -299q41 76 80 151.5t80 147.5h416l-336 -482l346 -528h-426q-41 84 -82 165t-82 165q-51 -100 -93 -175t-87 -155h-418z" />
<glyph unicode="y" horiz-adv-x="1220" d="M23 1012h387q6 -18 16 -58.5t22.5 -90.5t26.5 -106.5t27.5 -106.5t24 -91t16.5 -61q14 -59 25.5 -133t21.5 -121h16q10 43 26.5 118.5t33.5 143.5q8 31 27.5 102.5t41 150.5t41 150.5t29.5 102.5h399q-12 -37 -44 -131.5t-72.5 -216t-88 -258t-88.5 -258t-73.5 -215 t-44.5 -130.5q-47 -133 -143.5 -192.5t-229.5 -59.5q-59 0 -131 9.5t-164 33.5l51 256q49 -6 78 -11t55 -5q39 0 65.5 5t46 18.5t33 35t23.5 54.5l27 90h-170q-10 33 -35 108.5t-55.5 173t-65.5 206t-66.5 206.5t-55 173t-33.5 108z" />
<glyph unicode="z" horiz-adv-x="1046" d="M18 0v203l465 538l-4 15h-420l2 258h940v-199l-471 -545l7 -14h493v-256h-1012z" />
<glyph unicode="{" horiz-adv-x="765" d="M66 473v197q47 6 76.5 19t46 40t22.5 64.5t6 93.5v241q0 68 15.5 125.5t49 99.5t87 65.5t129.5 23.5h231v-203h-61q-78 0 -102.5 -40t-24.5 -93v-262q0 -55 -6.5 -99.5t-22.5 -78t-47 -55t-82 -31.5v-7q92 -25 125 -88t33 -155v-336q0 -27 4 -51.5t17 -43t38 -29.5 t64 -11h65v-195h-227q-92 0 -148.5 27.5t-87 73t-40 98.5t-9.5 106v334q0 86 -39 124t-112 46z" />
<glyph unicode="|" horiz-adv-x="751" d="M248 -311v1771h256v-1771h-256z" />
<glyph unicode="}" horiz-adv-x="765" d="M43 -141h66q39 0 63.5 11t37.5 29.5t17 43t4 51.5v336q0 92 33 155.5t125 87.5v7q-78 16 -118 72.5t-40 138.5v315q0 53 -23.5 93t-103.5 40h-61v203h233q76 0 129.5 -19.5t86 -54.5t48 -84t15.5 -108v-334q0 -88 40 -125t112 -47v-197q-152 -18 -152 -170v-332 q0 -61 -15.5 -116.5t-50 -97.5t-89 -67.5t-130.5 -25.5h-227v195z" />
<glyph unicode="~" d="M117 537q53 141 126.5 198.5t164.5 57.5q59 0 123.5 -14.5t129 -32t127 -32t117.5 -14.5l135 99l125 -92q-47 -131 -116.5 -196t-167.5 -65q-68 0 -138.5 14.5t-136 32t-123 32t-102.5 14.5l-139 -95z" />
<glyph unicode="&#xa1;" horiz-adv-x="671" d="M147 860q0 72 45.5 121t145.5 49q98 0 144 -49t46 -121q0 -74 -45 -122t-147 -48q-98 0 -143.5 48t-45.5 122zM154 -309q0 47 1 100t1 100.5t1 83t1 50.5q0 14 3 57t6 99.5t6 120t6 119.5t6 98t3 56h293q0 -18 3 -63t6.5 -104.5t7.5 -126t8 -126t6 -105.5t2 -62 q0 -4 1 -37t1 -80t1 -100.5t1 -100.5v-78.5v-35.5h-364v51v84z" />
<glyph unicode="&#xa2;" d="M166 496q0 96 22.5 192t81 173t162 125t264.5 48v146h119v-152q49 -4 104.5 -14t110.5 -27l-49 -270q-47 10 -89 14t-77 6v-456q53 4 105.5 14t101.5 24q16 -66 32.5 -130t32.5 -130q-59 -29 -128.5 -46t-143.5 -25v-156h-119v148h-14q-160 0 -260 41.5t-157.5 113.5 t-78 165t-20.5 196zM563 504q0 -96 30 -149.5t103 -69.5v442q-68 -20 -100.5 -76.5t-32.5 -146.5z" />
<glyph unicode="&#xa3;" d="M82 0l2 242q74 57 101.5 127.5t35.5 146.5q0 4 1 15.5t2 25.5t2 25.5t1 15.5h-121v186h136q0 10 1 32t3 46.5t4 47t2 32.5q18 223 137 344t354 121q129 0 230.5 -26.5t175.5 -57.5l-90 -248q-104 41 -174 46t-101 5q-90 0 -131 -48t-49 -154q0 -10 -2 -30t-4 -41.5 t-3 -40.5t-1 -28h272v-186h-286q0 -4 -1 -15.5t-2.5 -24.5t-2.5 -24.5t-1 -15.5q-4 -80 -24.5 -152.5t-65.5 -119.5h654v-246h-1055z" />
<glyph unicode="&#xa4;" horiz-adv-x="1177" d="M82 279l135 131q-33 51 -46 106t-13 109q0 55 15 112.5t44 104.5l-135 135l154 151l133 -133q47 29 103 45.5t116 16.5q57 0 113.5 -15.5t105.5 -48.5l131 135l154 -153l-136 -131q59 -100 60 -217q0 -55 -16.5 -112.5t-43.5 -106.5l136 -127l-154 -156l-133 133 q-51 -33 -104.5 -46t-112.5 -13t-113.5 13t-105.5 46l-133 -133zM375 627q0 -43 16.5 -82t45 -67.5t67.5 -45t82 -16.5t81 16.5t66.5 45t45 66.5t16.5 83q0 43 -16.5 80.5t-44 66.5t-65.5 46.5t-83 17.5q-43 0 -82 -16.5t-67.5 -46.5t-45 -67.5t-16.5 -80.5z" />
<glyph unicode="&#xa5;" d="M27 1372h385q8 -16 25.5 -66.5t36 -107.5t35.5 -108.5t26 -65.5l83 -244h11q4 10 16 46t26.5 76t27 76t16.5 46q2 6 22.5 59.5t43 116t42 114.5t21.5 58h379q-10 -18 -31 -65t-48.5 -107.5t-57 -128t-57.5 -128t-49.5 -108t-29.5 -65.5h197v-133h-1043v133h185 q-8 18 -28.5 65.5t-46.5 108t-55.5 128t-55 128t-47 107.5t-29.5 65zM104 418v133h1043v-133h-326v-418h-393v418h-324z" />
<glyph unicode="&#xa6;" horiz-adv-x="751" d="M248 -311v794h256v-794h-256zM248 733v727h256v-727h-256z" />
<glyph unicode="&#xa7;" horiz-adv-x="1134" d="M119 625q0 86 33.5 149.5t97.5 114.5q-53 41 -87 94t-34 133q0 90 37 155.5t101.5 107.5t150.5 62.5t184 20.5q53 0 107.5 -6t104.5 -15t93 -22.5t74 -27.5q-16 -53 -34.5 -104.5t-35.5 -104.5q-82 23 -160.5 34t-144.5 11q-70 0 -109.5 -25.5t-39.5 -66.5 q0 -27 30.5 -52.5t72.5 -47t88 -39t77 -29.5q55 -23 108.5 -47.5t94.5 -59.5t65.5 -81.5t24.5 -114.5q0 -82 -30 -144.5t-95 -116.5q78 -53 114.5 -119.5t36.5 -125.5q0 -76 -30.5 -141.5t-95 -112.5t-162 -75t-230.5 -28q-115 0 -218 20.5t-179 49.5l68 209 q174 -51 276 -51q131 0 180 28.5t49 73.5q0 18 -7 34.5t-26.5 32t-53 31t-87.5 35.5q-76 29 -148.5 59.5t-131 70.5t-94 95.5t-35.5 135.5zM414 674q0 -33 17.5 -51.5t50 -35t81.5 -34.5t115 -49q25 23 39 53.5t14 50.5q0 53 -74.5 92t-185.5 82q-57 -49 -57 -108z" />
<glyph unicode="&#xa8;" horiz-adv-x="1226" d="M184 1309q0 70 41 113.5t133 43.5q96 0 141.5 -43.5t45.5 -113.5q0 -66 -45 -112t-142 -46q-92 0 -133 46t-41 112zM657 1309q0 70 43 113.5t134 43.5q96 0 139 -43.5t43 -113.5q0 -66 -43 -112t-139 -46q-92 0 -134.5 46t-42.5 112z" />
<glyph unicode="&#xa9;" horiz-adv-x="1769" d="M78 672q0 166 63.5 310t173 252.5t255 171t311.5 62.5q164 0 309 -62.5t253.5 -171t172 -252.5t63.5 -310t-63.5 -310.5t-172 -253t-254 -171t-308.5 -62.5q-166 0 -311.5 62.5t-255 171t-173 253t-63.5 310.5zM227 672q0 -133 51.5 -251t140.5 -206t207.5 -139 t254.5 -51q135 0 252.5 51t207 139t140.5 206t51 251q0 135 -51 252.5t-140.5 207t-207 140.5t-252.5 51t-254 -51t-208 -140.5t-140.5 -207t-51.5 -252.5zM424 655q0 88 22.5 177.5t80 161t155.5 115.5t250 44q76 0 133 -9t121 -30l-33 -182q-51 12 -98 17t-92 5 q-119 0 -193 -67t-74 -221q0 -84 18.5 -140.5t52.5 -90.5t84 -47t116 -13q16 0 42.5 1t57.5 4t61.5 7t53.5 10l37 -176q-66 -25 -155 -38t-167 -13q-141 0 -232.5 40t-145.5 106.5t-74.5 154.5t-20.5 184z" />
<glyph unicode="&#xaa;" horiz-adv-x="851" d="M33 733q0 27 8 57.5t28.5 56t56.5 46t91 27.5q53 6 111.5 11t130.5 9v21q0 41 -19.5 57t-74.5 16q-45 0 -106.5 -8t-108.5 -22l-50 170q72 29 161 44t171 15q139 0 219 -54.5t80 -191.5v-254h76l10 -162q-41 -20 -101.5 -30.5t-101.5 -10.5q-47 0 -84.5 19.5t-50.5 60.5 q-31 -31 -63.5 -47t-61 -24.5t-52 -9.5t-36.5 -1q-72 0 -117 20.5t-70.5 51.5t-35.5 66.5t-10 66.5zM315 758q0 -29 13.5 -43.5t48.5 -14.5q16 0 40.5 9.5t43.5 19.5v96q-45 0 -90 -10q-55 -12 -56 -57z" />
<glyph unicode="&#xab;" horiz-adv-x="1107" d="M82 379v76l371 399l153 -104l-217 -332l215 -328l-158 -110zM522 379v76l371 399l156 -104l-218 -332l213 -328l-155 -110z" />
<glyph unicode="&#xac;" d="M211 520v209h889v-561h-217v352h-672z" />
<glyph unicode="&#xad;" horiz-adv-x="847" d="M129 430v254h590v-254h-590z" />
<glyph unicode="&#xae;" horiz-adv-x="1263" d="M78 946q0 115 41 215.5t114.5 174t175 116.5t222.5 43q119 0 220 -43t174 -116.5t114 -174t41 -215.5t-41 -214t-115 -174t-174 -118t-219 -43t-220.5 43t-175 118t-115.5 174t-42 214zM190 946q0 -90 32 -170t89.5 -139t139 -94t180.5 -35q102 0 183 35t137.5 94t86 139 t29.5 170t-33 170t-90 139.5t-138 94t-175 34.5q-96 0 -177 -34.5t-139.5 -94t-91.5 -139.5t-33 -170zM410 668v592h270q57 0 97 -15.5t64.5 -40t36 -57.5t11.5 -70q0 -39 -22.5 -83t-71.5 -66l116 -260h-168l-90 231h-75l-3 -231h-165zM578 1001h55q35 0 57.5 16.5 t22.5 63.5q0 37 -20.5 54.5t-51.5 17.5h-63v-152z" />
<glyph unicode="&#xaf;" horiz-adv-x="1224" d="M215 1180v229h799v-229h-799z" />
<glyph unicode="&#xb0;" horiz-adv-x="808" d="M72 1102q0 68 26.5 128t70.5 104t103.5 70t126.5 26q68 0 128.5 -26t104.5 -70t70.5 -104t26.5 -128t-26.5 -128.5t-70.5 -104.5t-104.5 -70.5t-128.5 -26.5q-70 0 -129 23.5t-103 67.5t-69.5 104.5t-25.5 134.5zM248 1100q0 -66 43 -109t108 -43q66 0 109 42t43 110 t-43 110.5t-109 42.5t-108.5 -43t-42.5 -110z" />
<glyph unicode="&#xb1;" d="M211 0v207h887v-207h-887zM211 582v209h338v299h215v-299h334v-209h-334v-291h-215v291h-338z" />
<glyph unicode="&#xb2;" horiz-adv-x="847" d="M41 1466q92 59 185 84t171 25q172 0 254 -72.5t82 -199.5q0 -57 -21.5 -106.5t-58.5 -95.5t-83 -90t-95 -89h291v-197h-709v172q59 43 126 96.5t123 106.5t93 102t37 84q0 61 -90 62q-31 0 -89 -10.5t-126 -47.5q-23 45 -45.5 89t-44.5 87z" />
<glyph unicode="&#xb3;" horiz-adv-x="847" d="M43 788q16 47 32.5 94.5t35.5 94.5q84 -27 142 -36t99 -9q68 0 98.5 25.5t30.5 54.5q0 53 -62.5 67.5t-176.5 14.5q-4 33 -5 64.5t-4 66.5q37 35 76 68.5t76 68.5q0 2 -1 4t-1 4h-285v193h625q10 -37 17.5 -74t15.5 -76q-45 -41 -89 -81t-92 -81q197 -51 197 -239 q0 -74 -29.5 -129.5t-82 -92t-124 -55t-153.5 -18.5q-27 0 -67 2t-86 10t-94 21.5t-93 37.5z" />
<glyph unicode="&#xb4;" horiz-adv-x="1118" d="M373 1227l344 360l182 -215l-401 -287z" />
<glyph unicode="&#xb5;" horiz-adv-x="1220" d="M88 -428v1440h393v-594q0 -31 4 -56.5t15.5 -45t33 -31t56.5 -11.5q31 0 73 15.5t82 50.5v672h394v-1012h-359l-12 106l-12 5q-66 -55 -130.5 -87t-140.5 -28l-2 -424h-395z" />
<glyph unicode="&#xb6;" horiz-adv-x="1355" d="M86 997q0 94 30.5 178.5t89 146.5t140.5 99t186 37h658v-1902h-252v1656h-115v-1656h-254l2 999h-39q-96 0 -178 30.5t-141 89t-93 139.5t-34 183z" />
<glyph unicode="&#xb7;" horiz-adv-x="618" d="M111 547q0 78 47 127t149 49q104 0 152.5 -49t48.5 -127t-48 -128t-153 -50q-104 0 -150 51t-46 127z" />
<glyph unicode="&#xb8;" horiz-adv-x="1028" d="M371 -420q104 10 156.5 39t52.5 70q0 37 -36 48t-71 11q-16 0 -30.5 -1t-24.5 -1l-41 66l215 282l100 -59q-27 -35 -54.5 -72t-55.5 -76q98 -10 155.5 -56t57.5 -124q0 -47 -23.5 -91t-75 -78t-131.5 -54.5t-192 -22.5q0 31 -1 60.5t-1 58.5z" />
<glyph unicode="&#xb9;" horiz-adv-x="800" d="M86 1481l240 82h243v-836h-290v602l-164 -14z" />
<glyph unicode="&#xba;" horiz-adv-x="876" d="M47 887q0 74 23.5 137t73 109.5t123 73t173.5 26.5t174 -26.5t121 -73t70.5 -109.5t23.5 -137t-23.5 -138.5t-71.5 -111.5t-122.5 -73.5t-177.5 -26.5q-100 0 -173 26.5t-121 72.5t-70.5 110.5t-22.5 140.5zM338 885q0 -66 19.5 -112t82.5 -46q59 0 78 47t19 113 q0 29 -4.5 56.5t-15.5 49t-29.5 34.5t-47.5 13q-31 0 -50 -13t-31.5 -35.5t-16.5 -50.5t-4 -56z" />
<glyph unicode="&#xbb;" horiz-adv-x="1107" d="M76 750l153 104l371 -399v-76l-364 -399l-156 110l213 328zM518 750l154 104l372 -399v-76l-366 -399l-156 110l211 328z" />
<glyph unicode="&#xbc;" horiz-adv-x="1986" d="M180 1296l240 82h244v-835h-291v602l-164 -15zM510 -39l680 1501h229l-680 -1501h-229zM1028 205v151l361 473h303v-444h114v-180h-114v-207h-281v207h-383zM1262 385h151v172h-12z" />
<glyph unicode="&#xbd;" horiz-adv-x="1986" d="M150 1296l239 82h244v-835h-291v602l-164 -15zM461 -39l680 1501h229l-680 -1501h-229zM1096 735q92 59 185 84t171 25q172 0 254 -73t82 -200q0 -55 -21.5 -105t-57.5 -96t-83 -90t-96 -90h305v-194h-723v170q59 43 126 96t123 105.5t93 101.5t37 84q0 63 -90 63 q-31 0 -89.5 -10t-125.5 -47q-23 45 -45.5 89t-44.5 87z" />
<glyph unicode="&#xbe;" horiz-adv-x="1986" d="M113 604q16 47 32.5 94t34.5 95q84 -27 142.5 -36t99.5 -9q68 0 98.5 25.5t30.5 53.5q0 53 -62.5 67.5t-177.5 14.5q-4 33 -5 65t-3 66q37 35 76 69t76 69q0 2 -1 4t-1 4h-285v192h625q10 -37 17 -73.5t15 -75.5q-45 -41 -89 -81t-91 -81q197 -51 197 -240 q0 -74 -30 -129t-82 -92t-123.5 -55.5t-153.5 -18.5q-27 0 -67 2.5t-86 10.5t-94 21.5t-93 37.5zM573 -39l680 1501h230l-680 -1501h-230zM1094 205v151l360 473h303v-444h115v-180h-115v-207h-280v207h-383zM1327 385h152v172h-13z" />
<glyph unicode="&#xbf;" horiz-adv-x="1105" d="M106 -98q0 111 51.5 188.5t127.5 142.5q88 78 150.5 143.5t62.5 143.5q0 14 -1 37t-5 39q16 0 63 1t99.5 1t98.5 1t60 1q2 -12 4 -31.5t4 -40t2 -37v-24.5q0 -61 -15 -109.5t-42 -89.5t-61.5 -77.5t-73.5 -73.5q-47 -43 -77 -81t-30 -91q0 -57 40 -87t112 -30 q68 0 139.5 12.5t157.5 40.5q2 -12 13 -50t24.5 -79t26 -79t16.5 -50q-141 -53 -257 -69.5t-208 -16.5q-115 0 -204 26.5t-150.5 76t-94.5 116t-33 146.5zM451 860q0 74 46 122t144 48t144 -48t46 -122t-46 -121t-142 -47q-100 0 -146 47t-46 121z" />
<glyph unicode="&#xc0;" horiz-adv-x="1499" d="M14 0l494 1413h508l469 -1413h-414l-86 289h-483l-90 -289h-398zM397 1780l172 202l346 -358l-116 -129zM586 551h323l-84 297l-67 293h-13l-75 -303z" />
<glyph unicode="&#xc1;" horiz-adv-x="1499" d="M14 0l494 1413h508l469 -1413h-414l-86 289h-483l-90 -289h-398zM586 551h323l-84 297l-67 293h-13l-75 -303zM649 1614l342 360l180 -202l-407 -287z" />
<glyph unicode="&#xc2;" horiz-adv-x="1499" d="M14 0l494 1413h508l469 -1413h-414l-86 289h-483l-90 -289h-398zM328 1577l319 317h234l325 -315l-90 -104l-354 190l-348 -190zM586 551h323l-84 297l-67 293h-13l-75 -303z" />
<glyph unicode="&#xc3;" horiz-adv-x="1499" d="M14 0l494 1413h508l469 -1413h-414l-86 289h-483l-90 -289h-398zM326 1628q43 121 103 169t132 48q49 0 101.5 -12t103.5 -25.5t100 -26t92 -12.5l115 84l103 -81q-74 -224 -232 -224q-55 0 -112.5 12.5t-109.5 28t-98 27.5t-81 12l-113 -80zM586 551h323l-84 297 l-67 293h-13l-75 -303z" />
<glyph unicode="&#xc4;" horiz-adv-x="1499" d="M14 0l494 1413h508l469 -1413h-414l-86 289h-483l-90 -289h-398zM336 1638q0 70 41 114t133 44q96 0 141 -44t45 -114q0 -66 -45 -111.5t-141 -45.5q-92 0 -133 46t-41 111zM586 551h323l-84 297l-67 293h-13l-75 -303zM809 1638q0 70 43 114t133 44q96 0 139 -44 t43 -114q0 -66 -43 -111.5t-139 -45.5q-92 0 -134 46t-42 111z" />
<glyph unicode="&#xc5;" horiz-adv-x="1499" d="M14 0l494 1413h154q-82 29 -133.5 96.5t-51.5 155.5q0 55 21.5 104.5t60.5 86t89 58t110 21.5q59 0 109.5 -21.5t86 -58t55 -86t19.5 -104.5q0 -90 -49 -156.5t-127 -95.5h164l469 -1413h-414l-86 289h-483l-90 -289h-398zM586 551h323l-84 297l-67 293h-13l-75 -303z M645 1659q0 -41 30 -75t83 -34q49 0 76.5 34t27.5 75q0 47 -26.5 81t-77.5 34q-49 0 -81 -34t-32 -81z" />
<glyph unicode="&#xc6;" horiz-adv-x="2277" d="M14 0q37 61 105.5 173t153.5 248t177.5 285.5t177.5 285.5t153.5 248t107.5 173h1245v-274h-608v-277h506v-260h-506v-326h628v-276h-1032v330h-477q-70 -115 -115 -191t-84 -139h-432zM795 592h325v541h-12q-25 -47 -67 -122t-87 -149z" />
<glyph unicode="&#xc7;" horiz-adv-x="1339" d="M94 698q0 133 33 266.5t117 240t225 173t360 66.5q102 0 200.5 -15.5t191.5 -44.5l-50 -290q-80 18 -153.5 26t-132.5 8q-84 0 -150.5 -21.5t-114 -70.5t-73 -127t-25.5 -190q0 -121 22.5 -202t68.5 -130t117 -70.5t167 -21.5q25 0 63.5 3t85 9t93.5 13.5t86 17.5 l61 -279q-92 -35 -203.5 -55t-218.5 -24l-92 -127q98 -10 155.5 -56.5t57.5 -124.5q0 -47 -23.5 -91t-74.5 -77.5t-131 -54t-193 -22.5q0 31 -1 60.5t-1 57.5q104 10 156.5 39t52.5 70q0 37 -36 48t-70 11q-16 0 -31 -1t-25 -1l-41 66l154 203q-188 12 -309 73.5 t-191.5 159.5t-98.5 223t-28 262z" />
<glyph unicode="&#xc8;" horiz-adv-x="1310" d="M135 0v1413h1061v-274h-653v-269h547v-270h-547v-321h680v-279h-1088zM389 1780l172 202l346 -358l-116 -129z" />
<glyph unicode="&#xc9;" horiz-adv-x="1310" d="M135 0v1413h1061v-274h-653v-269h547v-270h-547v-321h680v-279h-1088zM539 1620l342 360l180 -202l-408 -287z" />
<glyph unicode="&#xca;" horiz-adv-x="1310" d="M135 0v1413h1061v-274h-653v-269h547v-270h-547v-321h680v-279h-1088zM250 1604l319 317h234l325 -315l-90 -105l-354 191l-348 -191z" />
<glyph unicode="&#xcb;" horiz-adv-x="1310" d="M135 0v1413h1061v-274h-653v-269h547v-270h-547v-321h680v-279h-1088zM258 1638q0 70 41 114t133 44q96 0 141 -44t45 -114q0 -66 -45 -111.5t-141 -45.5q-92 0 -133 46t-41 111zM731 1638q0 70 43 114t133 44q96 0 139.5 -44t43.5 -114q0 -66 -43 -111.5t-140 -45.5 q-92 0 -134 46t-42 111z" />
<glyph unicode="&#xcc;" horiz-adv-x="702" d="M10 1782l172 203l346 -359l-116 -129zM150 0v1413h401v-1413h-401z" />
<glyph unicode="&#xcd;" horiz-adv-x="702" d="M150 0v1413h401v-1413h-401zM213 1634l342 361l180 -203l-407 -287z" />
<glyph unicode="&#xce;" horiz-adv-x="702" d="M-92 1610l319 317h234l325 -315l-90 -105l-354 191l-348 -191zM150 0v1413h401v-1413h-401z" />
<glyph unicode="&#xcf;" horiz-adv-x="702" d="M-66 1663q0 70 41 114t134 44q96 0 141 -44t45 -114q0 -66 -45 -112t-141 -46q-92 0 -133.5 46t-41.5 112zM150 0v1413h401v-1413h-401zM408 1663q0 70 43 114t133 44q96 0 139 -44t43 -114q0 -66 -43 -112t-139 -46q-92 0 -134 46t-42 112z" />
<glyph unicode="&#xd0;" horiz-adv-x="1486" d="M23 645v168h114v600h586q199 0 328 -56.5t204.5 -152.5t105.5 -223t30 -270q0 -141 -34 -269.5t-113 -226.5t-208 -156.5t-319 -58.5h-580v645h-114zM543 281h143q59 0 111.5 23.5t90.5 74.5t60.5 131t22.5 195q0 117 -21.5 198.5t-60.5 134t-93.5 77t-117.5 24.5h-135 v-326h196v-168h-196v-364z" />
<glyph unicode="&#xd1;" horiz-adv-x="1617" d="M135 0v1411h410q106 -158 203.5 -312.5t201.5 -314.5l123 -204h14v831h392v-1411h-408q-111 168 -214 336t-212 340q-29 47 -55.5 92t-52.5 92q-4 0 -6.5 -1t-6.5 -1v-858h-389zM389 1632q43 121 103.5 169t132.5 48q49 0 101 -12t103.5 -25.5t100.5 -25.5t92 -12l115 84 l102 -82q-73 -224 -231 -224q-55 0 -112.5 12.5t-110 28t-98.5 27.5t-81 12l-112 -80z" />
<glyph unicode="&#xd2;" horiz-adv-x="1605" d="M96 709q0 156 42 290t130 232t221.5 154.5t315.5 56.5t315 -56.5t220 -154.5t129 -232t42 -288q0 -158 -45 -292t-133 -232.5t-221 -154t-307 -55.5q-180 0 -313.5 53.5t-221.5 151t-131 231.5t-43 296zM473 1802l172 203l346 -358l-117 -129zM522 707 q0 -104 13.5 -187.5t46 -139.5t87 -87t136.5 -31q78 0 130 33t85 91t46 141.5t13 181.5q0 90 -11 172t-42 143t-84 98t-137 37q-86 0 -141.5 -37t-86 -100.5t-43 -145t-12.5 -169.5z" />
<glyph unicode="&#xd3;" horiz-adv-x="1605" d="M96 709q0 156 42 290t130 232t221.5 154.5t315.5 56.5t315 -56.5t220 -154.5t129 -232t42 -288q0 -158 -45 -292t-133 -232.5t-221 -154t-307 -55.5q-180 0 -313.5 53.5t-221.5 151t-131 231.5t-43 296zM522 707q0 -104 13.5 -187.5t46 -139.5t87 -87t136.5 -31 q78 0 130 33t85 91t46 141.5t13 181.5q0 90 -11 172t-42 143t-84 98t-137 37q-86 0 -141.5 -37t-86 -100.5t-43 -145t-12.5 -169.5zM698 1647l342 360l181 -203l-408 -286z" />
<glyph unicode="&#xd4;" horiz-adv-x="1605" d="M96 709q0 156 42 290t130 232t221.5 154.5t315.5 56.5t315 -56.5t220 -154.5t129 -232t42 -288q0 -158 -45 -292t-133 -232.5t-221 -154t-307 -55.5q-180 0 -313.5 53.5t-221.5 151t-131 231.5t-43 296zM377 1604l319 317h234l325 -315l-90 -105l-354 191l-348 -191z M522 707q0 -104 13.5 -187.5t46 -139.5t87 -87t136.5 -31q78 0 130 33t85 91t46 141.5t13 181.5q0 90 -11 172t-42 143t-84 98t-137 37q-86 0 -141.5 -37t-86 -100.5t-43 -145t-12.5 -169.5z" />
<glyph unicode="&#xd5;" horiz-adv-x="1605" d="M96 709q0 156 42 290t130 232t221.5 154.5t315.5 56.5t315 -56.5t220 -154.5t129 -232t42 -288q0 -158 -45 -292t-133 -232.5t-221 -154t-307 -55.5q-180 0 -313.5 53.5t-221.5 151t-131 231.5t-43 296zM385 1653q43 121 103.5 169t132.5 48q49 0 101 -12.5t103.5 -25.5 t100.5 -25.5t92 -12.5l115 84l102 -82q-73 -223 -231 -223q-55 0 -112.5 12t-110 27.5t-98.5 28t-81 12.5l-113 -80zM522 707q0 -104 13.5 -187.5t46 -139.5t87 -87t136.5 -31q78 0 130 33t85 91t46 141.5t13 181.5q0 90 -11 172t-42 143t-84 98t-137 37q-86 0 -141.5 -37 t-86 -100.5t-43 -145t-12.5 -169.5z" />
<glyph unicode="&#xd6;" horiz-adv-x="1605" d="M96 709q0 156 42 290t130 232t221.5 154.5t315.5 56.5t315 -56.5t220 -154.5t129 -232t42 -288q0 -158 -45 -292t-133 -232.5t-221 -154t-307 -55.5q-180 0 -313.5 53.5t-221.5 151t-131 231.5t-43 296zM383 1677q0 70 41 114t133 44q96 0 141 -44t45 -114 q0 -66 -45 -111.5t-141 -45.5q-92 0 -133 46t-41 111zM522 707q0 -104 13.5 -187.5t46 -139.5t87 -87t136.5 -31q78 0 130 33t85 91t46 141.5t13 181.5q0 90 -11 172t-42 143t-84 98t-137 37q-86 0 -141.5 -37t-86 -100.5t-43 -145t-12.5 -169.5zM856 1677q0 70 43 114 t133 44q96 0 139 -44t43 -114q0 -66 -43 -111.5t-139 -45.5q-92 0 -134 46t-42 111z" />
<glyph unicode="&#xd7;" horiz-adv-x="1288" d="M248 362l258 259l-256 256l147 149l258 -258l252 254l152 -154l-250 -254l254 -254l-150 -149l-254 256l-258 -256z" />
<glyph unicode="&#xd8;" horiz-adv-x="1593" d="M88 709q0 156 43 290t130 232t221 154.5t317 56.5q141 0 249.5 -34t192.5 -93l111 129h166l-185 -211q86 -98 129 -233t43 -289q0 -158 -45 -292t-133 -232.5t-221 -154t-307 -55.5q-141 0 -253 34t-198 95l-106 -124h-146l168 196q-90 98 -133 232.5t-43 298.5zM516 707 q0 -133 27 -215l463 557q-31 51 -83.5 80.5t-123.5 29.5q-86 0 -141.5 -37t-86 -100.5t-43 -145t-12.5 -169.5zM584 365q35 -51 86 -77t129 -26t130 33t85 91t46 141.5t13 181.5q0 53 -6 107t-23 102z" />
<glyph unicode="&#xd9;" horiz-adv-x="1523" d="M131 530v883h397v-901q0 -133 61.5 -191.5t178.5 -58.5q49 0 91 13.5t74 43t49 76.5t17 117l-2 901h396l-2 -883q0 -131 -36 -233t-113 -173t-195.5 -107.5t-282.5 -36.5q-172 0 -293 37.5t-195.5 108.5t-109.5 173t-35 231zM420 1802l172 203l346 -358l-117 -129z" />
<glyph unicode="&#xda;" horiz-adv-x="1523" d="M131 530v883h397v-901q0 -133 61.5 -191.5t178.5 -58.5q49 0 91 13.5t74 43t49 76.5t17 117l-2 901h396l-2 -883q0 -131 -36 -233t-113 -173t-195.5 -107.5t-282.5 -36.5q-172 0 -293 37.5t-195.5 108.5t-109.5 173t-35 231zM623 1647l342 360l180 -203l-408 -286z" />
<glyph unicode="&#xdb;" horiz-adv-x="1523" d="M131 530v883h397v-901q0 -133 61.5 -191.5t178.5 -58.5q49 0 91 13.5t74 43t49 76.5t17 117l-2 901h396l-2 -883q0 -131 -36 -233t-113 -173t-195.5 -107.5t-282.5 -36.5q-172 0 -293 37.5t-195.5 108.5t-109.5 173t-35 231zM303 1620l332 311h244l338 -309l-95 -102 l-368 186l-361 -186z" />
<glyph unicode="&#xdc;" horiz-adv-x="1523" d="M131 530v883h397v-901q0 -133 61.5 -191.5t178.5 -58.5q49 0 91 13.5t74 43t49 76.5t17 117l-2 901h396l-2 -883q0 -131 -36 -233t-113 -173t-195.5 -107.5t-282.5 -36.5q-172 0 -293 37.5t-195.5 108.5t-109.5 173t-35 231zM344 1653q0 70 41 113.5t133 43.5 q96 0 141.5 -43.5t45.5 -113.5q0 -66 -45.5 -112t-141.5 -46q-92 0 -133 46t-41 112zM817 1653q0 70 43 113.5t133 43.5q96 0 139.5 -43.5t43.5 -113.5q0 -66 -43 -112t-140 -46q-92 0 -134 46t-42 112z" />
<glyph unicode="&#xdd;" horiz-adv-x="1427" d="M12 1411h422q41 -90 82 -178t80 -178l109 -279h16q29 63 57.5 145.5t57.5 145.5q41 86 80.5 172t80.5 172h414q-121 -225 -239.5 -453.5t-239.5 -453.5v-504h-436v471zM592 1620l342 360l180 -202l-407 -287z" />
<glyph unicode="&#xde;" horiz-adv-x="1288" d="M135 0v1413h406v-260h188q139 0 238.5 -34t162 -93t91 -142.5t28.5 -181.5q0 -86 -29.5 -166.5t-90 -143t-152.5 -101.5t-219 -39h-217v-252h-406zM541 520h133q70 0 118 41t48 135q0 100 -50.5 140.5t-125.5 40.5h-123v-357z" />
<glyph unicode="&#xdf;" horiz-adv-x="1462" d="M49 754v207h129v161q0 51 21.5 121t80 131.5t160 104.5t260.5 43q147 0 241.5 -34t150 -83t77 -104.5t21.5 -98.5q0 -74 -31 -129t-66.5 -97t-66.5 -74t-31 -56q0 -27 31 -54.5t78 -60.5t100 -73t100.5 -91t78 -115.5t30.5 -146.5q0 -160 -117.5 -252t-334.5 -92 q-80 0 -148 9.5t-147 29.5l55 250q78 -23 119 -26t63 -3q49 0 81 20.5t32 61.5q0 43 -26.5 82t-66.5 77t-87.5 77t-87 84t-66.5 97t-27 116q0 66 28 111.5t61.5 80.5t62.5 65.5t29 65.5q0 29 -30 61.5t-101 32.5q-82 0 -113 -50t-31 -122v-1081h-383v754h-129z" />
<glyph unicode="&#xe0;" horiz-adv-x="1265" d="M49 274q0 51 14.5 99.5t48 89.5t88 69.5t132.5 40.5q78 14 180 20.5t197 16.5v17q0 66 -36 98.5t-130 32.5q-37 0 -80 -3t-86 -9.5t-85 -15.5t-75 -19l-57 237q45 18 104.5 34.5t122 28t127 17.5t123.5 6q98 0 180 -18.5t140.5 -61.5t90 -112.5t31.5 -171.5v-418h127 q4 -53 8.5 -107.5t8.5 -109.5q-57 -27 -137 -43.5t-166 -16.5q-70 0 -122.5 24t-64.5 95q0 -2 -6 4q-49 -45 -102.5 -69.5t-101.5 -36.5t-86 -14.5t-58 -2.5q-100 0 -163.5 30t-100.5 75t-51.5 97t-14.5 97zM299 1360l197 229q8 -12 34.5 -38.5t62.5 -61.5t77 -75 t76.5 -74.5t62.5 -62.5t35 -38l-133 -156zM453 317q4 -55 26.5 -79.5t73.5 -24.5q31 0 76 14.5t78 42.5v160q-45 -6 -90.5 -9t-82 -12.5t-59 -30t-22.5 -61.5z" />
<glyph unicode="&#xe1;" horiz-adv-x="1265" d="M49 274q0 51 14.5 99.5t48 89.5t88 69.5t132.5 40.5q78 14 180 20.5t197 16.5v17q0 66 -36 98.5t-130 32.5q-37 0 -80 -3t-86 -9.5t-85 -15.5t-75 -19l-57 237q45 18 104.5 34.5t122 28t127 17.5t123.5 6q98 0 180 -18.5t140.5 -61.5t90 -112.5t31.5 -171.5v-418h127 q4 -53 8.5 -107.5t8.5 -109.5q-57 -27 -137 -43.5t-166 -16.5q-70 0 -122.5 24t-64.5 95q0 -2 -6 4q-49 -45 -102.5 -69.5t-101.5 -36.5t-86 -14.5t-58 -2.5q-100 0 -163.5 30t-100.5 75t-51.5 97t-14.5 97zM444 1227l344 360l183 -215l-402 -287zM453 317q4 -55 26.5 -79.5 t73.5 -24.5q31 0 76 14.5t78 42.5v160q-45 -6 -90.5 -9t-82 -12.5t-59 -30t-22.5 -61.5z" />
<glyph unicode="&#xe2;" horiz-adv-x="1265" d="M49 274q0 51 14.5 99.5t48 89.5t88 69.5t132.5 40.5q78 14 180 20.5t197 16.5v17q0 66 -36 98.5t-130 32.5q-37 0 -80 -3t-86 -9.5t-85 -15.5t-75 -19l-57 237q45 18 104.5 34.5t122 28t127 17.5t123.5 6q98 0 180 -18.5t140.5 -61.5t90 -112.5t31.5 -171.5v-418h127 q4 -53 8.5 -107.5t8.5 -109.5q-57 -27 -137 -43.5t-166 -16.5q-70 0 -122.5 24t-64.5 95q0 -2 -6 4q-49 -45 -102.5 -69.5t-101.5 -36.5t-86 -14.5t-58 -2.5q-100 0 -163.5 30t-100.5 75t-51.5 97t-14.5 97zM176 1186l322 332h233l326 -330l-92 -107l-353 199l-354 -197z M453 317q4 -55 26.5 -79.5t73.5 -24.5q31 0 76 14.5t78 42.5v160q-45 -6 -90.5 -9t-82 -12.5t-59 -30t-22.5 -61.5z" />
<glyph unicode="&#xe3;" horiz-adv-x="1265" d="M49 274q0 51 14.5 99.5t48 89.5t88 69.5t132.5 40.5q78 14 180 20.5t197 16.5v17q0 66 -36 98.5t-130 32.5q-37 0 -80 -3t-86 -9.5t-85 -15.5t-75 -19l-57 237q45 18 104.5 34.5t122 28t127 17.5t123.5 6q98 0 180 -18.5t140.5 -61.5t90 -112.5t31.5 -171.5v-418h127 q4 -53 8.5 -107.5t8.5 -109.5q-57 -27 -137 -43.5t-166 -16.5q-70 0 -122.5 24t-64.5 95q0 -2 -6 4q-49 -45 -102.5 -69.5t-101.5 -36.5t-86 -14.5t-58 -2.5q-100 0 -163.5 30t-100.5 75t-51.5 97t-14.5 97zM197 1235q43 121 103 169t132 48q49 0 101.5 -12.5t103.5 -25.5 t100 -25.5t92 -12.5l115 84l103 -82q-74 -223 -232 -223q-55 0 -112.5 12.5t-109.5 27.5t-98 27.5t-81 12.5l-113 -80zM453 317q4 -55 26.5 -79.5t73.5 -24.5q31 0 76 14.5t78 42.5v160q-45 -6 -90.5 -9t-82 -12.5t-59 -30t-22.5 -61.5z" />
<glyph unicode="&#xe4;" horiz-adv-x="1265" d="M49 274q0 51 14.5 99.5t48 89.5t88 69.5t132.5 40.5q78 14 180 20.5t197 16.5v17q0 66 -36 98.5t-130 32.5q-37 0 -80 -3t-86 -9.5t-85 -15.5t-75 -19l-57 237q45 18 104.5 34.5t122 28t127 17.5t123.5 6q98 0 180 -18.5t140.5 -61.5t90 -112.5t31.5 -171.5v-418h127 q4 -53 8.5 -107.5t8.5 -109.5q-57 -27 -137 -43.5t-166 -16.5q-70 0 -122.5 24t-64.5 95q0 -2 -6 4q-49 -45 -102.5 -69.5t-101.5 -36.5t-86 -14.5t-58 -2.5q-100 0 -163.5 30t-100.5 75t-51.5 97t-14.5 97zM195 1309q0 70 40.5 113.5t133.5 43.5q96 0 141 -43.5t45 -113.5 q0 -66 -45 -112t-141 -46q-92 0 -133 46t-41 112zM453 317q4 -55 26.5 -79.5t73.5 -24.5q31 0 76 14.5t78 42.5v160q-45 -6 -90.5 -9t-82 -12.5t-59 -30t-22.5 -61.5zM668 1309q0 70 43 113.5t133 43.5q96 0 139 -43.5t43 -113.5q0 -66 -43 -112t-139 -46q-92 0 -134 46 t-42 112z" />
<glyph unicode="&#xe5;" horiz-adv-x="1265" d="M49 274q0 51 14.5 99.5t48 89.5t88 69.5t132.5 40.5q78 14 180 20.5t197 16.5v17q0 66 -36 98.5t-130 32.5q-37 0 -80 -3t-86 -9.5t-85 -15.5t-75 -19l-57 237q45 18 104.5 34.5t122 28t127 17.5t123.5 6q98 0 180 -18.5t140.5 -61.5t90 -112.5t31.5 -171.5v-418h127 q4 -53 8.5 -107.5t8.5 -109.5q-57 -27 -137 -43.5t-166 -16.5q-70 0 -122.5 24t-64.5 95q0 -2 -6 4q-49 -45 -102.5 -69.5t-101.5 -36.5t-86 -14.5t-58 -2.5q-100 0 -163.5 30t-100.5 75t-51.5 97t-14.5 97zM358 1386q0 55 21.5 104.5t60.5 86.5t89.5 58.5t109.5 21.5 t109.5 -21.5t86 -58.5t55 -86t19.5 -105q0 -57 -21.5 -106t-58 -85t-86 -56.5t-104.5 -20.5q-59 0 -109.5 21.5t-89.5 57.5t-60.5 85t-21.5 104zM453 317q4 -55 26.5 -79.5t73.5 -24.5q31 0 76 14.5t78 42.5v160q-45 -6 -90.5 -9t-82 -12.5t-59 -30t-22.5 -61.5zM526 1380 q0 -41 30 -74.5t83 -33.5q49 0 76.5 33.5t27.5 74.5q0 47 -26.5 81t-77.5 34q-49 0 -81 -34t-32 -81z" />
<glyph unicode="&#xe6;" horiz-adv-x="1767" d="M55 274q0 43 12.5 99.5t52.5 106.5t112.5 85t193.5 35h293v27q0 72 -41 102.5t-137 30.5q-94 0 -181.5 -13.5t-150.5 -33.5q-16 59 -30.5 117.5t-31.5 117.5q84 35 194 57.5t216 26.5q37 0 87 -2t102.5 -14t99.5 -38t78 -71q53 53 132 91t179 38q145 0 236.5 -47 t143.5 -119.5t70.5 -162t18.5 -172.5v-89h-608q4 -98 53 -144t160 -46q72 0 149.5 16.5t151.5 38.5q16 -57 35.5 -113.5t35.5 -115.5q-106 -59 -224 -79.5t-220 -20.5q-160 0 -252 34.5t-151 106.5q-55 -47 -112.5 -76t-113 -45t-105.5 -21.5t-93 -5.5q-109 0 -177.5 31 t-108.5 76t-54.5 97t-14.5 95zM455 328q0 -59 29.5 -86t82.5 -27q29 0 81 16.5t91 51.5q-12 39 -17 76.5t-7 82.5h-70q-39 0 -73.5 -4t-60.5 -16t-41 -34.5t-15 -59.5zM1102 602h260q0 76 -23.5 124t-99.5 48q-39 0 -63.5 -14.5t-40 -38t-23.5 -55t-10 -64.5z" />
<glyph unicode="&#xe7;" horiz-adv-x="1038" d="M66 496q0 96 22.5 192t80.5 173t161.5 125t265.5 48q63 0 152.5 -9t181.5 -38l-49 -270q-59 12 -112.5 16t-94.5 4q-109 0 -160 -60t-51 -173q0 -117 44 -171t159 -54q66 0 131 12t125 28q16 -66 32.5 -130t32.5 -130q-80 -37 -178 -56t-199 -23q-16 -23 -33.5 -46.5 t-33.5 -46.5q98 -10 155.5 -56t57.5 -124q0 -47 -23.5 -91t-75 -78t-131.5 -54.5t-192 -22.5q0 31 -1 60.5t-1 58.5q104 10 156.5 39t52.5 70q0 37 -36 48t-71 11q-16 0 -30.5 -1t-24.5 -1l-41 66l133 174q-125 14 -204 61t-124 115.5t-61 154.5t-16 179z" />
<glyph unicode="&#xe8;" horiz-adv-x="1177" d="M70 504q0 96 24.5 191.5t86 172t163.5 123.5t256 47q172 0 272.5 -47t152.5 -119.5t67.5 -161.5t15.5 -173v-91h-647q2 -98 59.5 -139t167.5 -41q76 0 163 17.5t163 40.5l73 -240q-111 -59 -235.5 -81.5t-233.5 -22.5q-166 0 -272 43t-167.5 115.5t-85 167.5t-23.5 198z M299 1360l197 229q8 -12 34.5 -38.5t62.5 -61.5t77 -75t76.5 -74.5t62.5 -62.5t35 -38l-133 -156zM465 631h293q-2 74 -29.5 123t-107.5 49q-84 0 -117 -52.5t-39 -119.5z" />
<glyph unicode="&#xe9;" horiz-adv-x="1177" d="M70 504q0 96 24.5 191.5t86 172t163.5 123.5t256 47q172 0 272.5 -47t152.5 -119.5t67.5 -161.5t15.5 -173v-91h-647q2 -98 59.5 -139t167.5 -41q76 0 163 17.5t163 40.5l73 -240q-111 -59 -235.5 -81.5t-233.5 -22.5q-166 0 -272 43t-167.5 115.5t-85 167.5t-23.5 198z M440 1227l344 360l183 -215l-402 -287zM465 631h293q-2 74 -29.5 123t-107.5 49q-84 0 -117 -52.5t-39 -119.5z" />
<glyph unicode="&#xea;" horiz-adv-x="1177" d="M70 504q0 96 24.5 191.5t86 172t163.5 123.5t256 47q172 0 272.5 -47t152.5 -119.5t67.5 -161.5t15.5 -173v-91h-647q2 -98 59.5 -139t167.5 -41q76 0 163 17.5t163 40.5l73 -240q-111 -59 -235.5 -81.5t-233.5 -22.5q-166 0 -272 43t-167.5 115.5t-85 167.5t-23.5 198z M190 1186l322 332h233l326 -330l-92 -107l-352 199l-355 -197zM465 631h293q-2 74 -29.5 123t-107.5 49q-84 0 -117 -52.5t-39 -119.5z" />
<glyph unicode="&#xeb;" horiz-adv-x="1177" d="M70 504q0 96 24.5 191.5t86 172t163.5 123.5t256 47q172 0 272.5 -47t152.5 -119.5t67.5 -161.5t15.5 -173v-91h-647q2 -98 59.5 -139t167.5 -41q76 0 163 17.5t163 40.5l73 -240q-111 -59 -235.5 -81.5t-233.5 -22.5q-166 0 -272 43t-167.5 115.5t-85 167.5t-23.5 198z M197 1309q0 70 41 113.5t133 43.5q96 0 141 -43.5t45 -113.5q0 -66 -45 -112t-141 -46q-92 0 -133 46t-41 112zM465 631h293q-2 74 -29.5 123t-107.5 49q-84 0 -117 -52.5t-39 -119.5zM670 1309q0 70 43 113.5t133 43.5q96 0 139 -43.5t43 -113.5q0 -66 -43 -112t-139 -46 q-92 0 -134 46t-42 112z" />
<glyph unicode="&#xec;" horiz-adv-x="684" d="M-2 1360l197 229q8 -12 34.5 -38.5t62.5 -61.5t77 -75t76.5 -74.5t62.5 -62.5t35 -38l-133 -156zM145 0v1010h392v-1010h-392z" />
<glyph unicode="&#xed;" horiz-adv-x="684" d="M145 0v1010h392v-1010h-392zM197 1227l344 360l182 -215l-401 -287z" />
<glyph unicode="&#xee;" horiz-adv-x="684" d="M-94 1186l321 332h234l325 -330l-92 -107l-352 199l-354 -197zM145 0v1010h392v-1010h-392z" />
<glyph unicode="&#xef;" horiz-adv-x="684" d="M-61 1317q0 70 40.5 114t133.5 44q96 0 141 -44t45 -114q0 -66 -45 -112t-141 -46q-92 0 -133 46t-41 112zM145 0v1010h392v-1010h-392zM412 1317q0 70 43 114t133 44q96 0 139 -44t43 -114q0 -66 -43 -112t-139 -46q-92 0 -134 46t-42 112z" />
<glyph unicode="&#xf0;" horiz-adv-x="1290" d="M84 467q0 100 36 190.5t101.5 158t157.5 107.5t207 40q41 0 96 -7.5t109 -35.5q-20 72 -53 132t-79 111l-178 -116l-63 96l153 100q-37 33 -79.5 61.5t-90.5 57.5l97 182q164 -61 299 -151l168 114l69 -96l-137 -88q172 -141 248 -331.5t59 -444.5q-6 -92 -33.5 -192.5 t-92 -183.5t-174 -137t-279.5 -54q-156 0 -259.5 43t-166 112.5t-89 156.5t-26.5 175zM471 483q0 -41 5 -85t22.5 -80.5t51.5 -60.5t89 -24q57 0 93 29t56.5 73t27.5 97t7 105q0 35 -2 64.5t-6 62.5q-86 53 -168 53q-51 0 -85 -20.5t-54.5 -53.5t-28.5 -75t-8 -85z" />
<glyph unicode="&#xf1;" horiz-adv-x="1255" d="M88 0v1012h367l6 -99l12 -4q90 63 188.5 95t169.5 32q98 0 162 -25.5t102 -73.5t53 -115.5t15 -149.5v-672h-393v594q0 70 -22.5 106.5t-96.5 36.5q-35 0 -81 -15t-87 -42v-680h-395zM176 1245q43 121 103.5 169t132.5 48q49 0 101 -12t103.5 -25.5t100.5 -26t92 -12.5 l115 84l102 -81q-73 -224 -231 -224q-55 0 -112.5 12.5t-110 28t-98.5 27.5t-81 12l-112 -80z" />
<glyph unicode="&#xf2;" d="M70 506q0 113 30.5 209t98 166.5t175 111.5t259.5 41q154 0 260 -41t173 -111.5t96.5 -166.5t29.5 -207t-31 -208t-98.5 -168t-175 -111.5t-260.5 -40.5q-154 0 -260.5 39.5t-172 110.5t-95 167t-29.5 209zM293 1360l196 229q8 -12 35 -38.5t63 -61.5t77 -75t76.5 -74.5 t62 -62.5t35.5 -38l-133 -156zM471 506q0 -59 6 -107.5t24.5 -82t50.5 -52t81 -18.5q47 0 76.5 19.5t47 53t24.5 82t7 105.5q0 55 -6 102t-23.5 83t-48 55.5t-77.5 19.5t-79 -21.5t-50.5 -57.5t-25.5 -83t-7 -98z" />
<glyph unicode="&#xf3;" d="M70 506q0 113 30.5 209t98 166.5t175 111.5t259.5 41q154 0 260 -41t173 -111.5t96.5 -166.5t29.5 -207t-31 -208t-98.5 -168t-175 -111.5t-260.5 -40.5q-154 0 -260.5 39.5t-172 110.5t-95 167t-29.5 209zM471 506q0 -59 6 -107.5t24.5 -82t50.5 -52t81 -18.5 q47 0 76.5 19.5t47 53t24.5 82t7 105.5q0 55 -6 102t-23.5 83t-48 55.5t-77.5 19.5t-79 -21.5t-50.5 -57.5t-25.5 -83t-7 -98zM494 1227l344 360l182 -215l-402 -287z" />
<glyph unicode="&#xf4;" d="M70 506q0 113 30.5 209t98 166.5t175 111.5t259.5 41q154 0 260 -41t173 -111.5t96.5 -166.5t29.5 -207t-31 -208t-98.5 -168t-175 -111.5t-260.5 -40.5q-154 0 -260.5 39.5t-172 110.5t-95 167t-29.5 209zM197 1186l321 332h234l325 -330l-92 -107l-352 199l-354 -197z M471 506q0 -59 6 -107.5t24.5 -82t50.5 -52t81 -18.5q47 0 76.5 19.5t47 53t24.5 82t7 105.5q0 55 -6 102t-23.5 83t-48 55.5t-77.5 19.5t-79 -21.5t-50.5 -57.5t-25.5 -83t-7 -98z" />
<glyph unicode="&#xf5;" d="M70 506q0 113 30.5 209t98 166.5t175 111.5t259.5 41q154 0 260 -41t173 -111.5t96.5 -166.5t29.5 -207t-31 -208t-98.5 -168t-175 -111.5t-260.5 -40.5q-154 0 -260.5 39.5t-172 110.5t-95 167t-29.5 209zM209 1217q43 121 103.5 169t131.5 48q49 0 101.5 -12.5 t103.5 -26t100.5 -25.5t92.5 -12l114 84l103 -82q-74 -223 -232 -223q-55 0 -112.5 12t-109.5 27.5t-98 28t-81 12.5l-113 -80zM471 506q0 -59 6 -107.5t24.5 -82t50.5 -52t81 -18.5q47 0 76.5 19.5t47 53t24.5 82t7 105.5q0 55 -6 102t-23.5 83t-48 55.5t-77.5 19.5 t-79 -21.5t-50.5 -57.5t-25.5 -83t-7 -98z" />
<glyph unicode="&#xf6;" d="M70 506q0 113 30.5 209t98 166.5t175 111.5t259.5 41q154 0 260 -41t173 -111.5t96.5 -166.5t29.5 -207t-31 -208t-98.5 -168t-175 -111.5t-260.5 -40.5q-154 0 -260.5 39.5t-172 110.5t-95 167t-29.5 209zM217 1309q0 70 41 113.5t133 43.5q96 0 141.5 -43.5 t45.5 -113.5q0 -66 -45.5 -112t-141.5 -46q-92 0 -133 46t-41 112zM471 506q0 -59 6 -107.5t24.5 -82t50.5 -52t81 -18.5q47 0 76.5 19.5t47 53t24.5 82t7 105.5q0 55 -6 102t-23.5 83t-48 55.5t-77.5 19.5t-79 -21.5t-50.5 -57.5t-25.5 -83t-7 -98zM690 1309q0 70 43 113.5 t133 43.5q96 0 139.5 -43.5t43.5 -113.5q0 -66 -43 -112t-140 -46q-92 0 -134 46t-42 112z" />
<glyph unicode="&#xf7;" d="M176 522v209h905v-209h-905zM469 254q0 68 47 114t113 46t112.5 -46t46.5 -114q0 -66 -46 -113t-111 -47q-68 0 -115 47t-47 113zM469 999q0 66 47 113t113 47t112.5 -47t46.5 -113q0 -33 -12 -62.5t-33.5 -51t-50 -33.5t-61.5 -12q-68 0 -115 47t-47 112z" />
<glyph unicode="&#xf8;" horiz-adv-x="1249" d="M63 506q0 113 31 209t98.5 166.5t175 111.5t259.5 41q113 0 199.5 -23.5t152.5 -64.5q2 4 14.5 16.5t24.5 25.5t23.5 25.5t13.5 16.5h129q-4 -6 -23.5 -26.5t-42 -43t-42 -43t-23.5 -26.5q70 -72 101.5 -170t31.5 -213q0 -111 -31 -208t-98.5 -168t-175 -111.5 t-260.5 -40.5q-113 0 -200 21.5t-151 61.5l-69 -77h-129q4 4 22.5 23.5t40 42t40 42t22.5 25.5q-72 72 -103 171t-31 216zM465 508q0 -20 3 -54t9 -51q16 23 53 65t78 87t78 87t53 65q-34 57 -112 57q-47 0 -79 -20.5t-50.5 -56.5t-25.5 -82t-7 -97zM506 299q37 -53 121 -53 q47 0 76.5 19.5t47 53t24.5 82t7 105.5q0 20 -2 49t-12 47q-16 -23 -53 -64.5t-78 -86.5t-78 -87t-53 -65z" />
<glyph unicode="&#xf9;" horiz-adv-x="1230" d="M88 338v674h393v-594q0 -31 4 -56.5t15.5 -45t33 -31t56.5 -11.5q31 0 73 15.5t82 50.5v672h394v-1012h-359l-12 106l-12 5q-88 -74 -186.5 -104t-161.5 -30q-98 0 -161 26t-97.5 73t-48 113.5t-13.5 148.5zM303 1360l197 229q8 -12 34.5 -38.5t62.5 -61.5t77 -75 t76.5 -74.5t62.5 -62.5t35 -38l-133 -156z" />
<glyph unicode="&#xfa;" horiz-adv-x="1230" d="M88 338v674h393v-594q0 -31 4 -56.5t15.5 -45t33 -31t56.5 -11.5q31 0 73 15.5t82 50.5v672h394v-1012h-359l-12 106l-12 5q-88 -74 -186.5 -104t-161.5 -30q-98 0 -161 26t-97.5 73t-48 113.5t-13.5 148.5zM477 1227l344 360l183 -215l-402 -287z" />
<glyph unicode="&#xfb;" horiz-adv-x="1230" d="M88 338v674h393v-594q0 -31 4 -56.5t15.5 -45t33 -31t56.5 -11.5q31 0 73 15.5t82 50.5v672h394v-1012h-359l-12 106l-12 5q-88 -74 -186.5 -104t-161.5 -30q-98 0 -161 26t-97.5 73t-48 113.5t-13.5 148.5zM172 1186l322 332h233l326 -330l-92 -107l-353 199l-354 -197z " />
<glyph unicode="&#xfc;" horiz-adv-x="1230" d="M88 338v674h393v-594q0 -31 4 -56.5t15.5 -45t33 -31t56.5 -11.5q31 0 73 15.5t82 50.5v672h394v-1012h-359l-12 106l-12 5q-88 -74 -186.5 -104t-161.5 -30q-98 0 -161 26t-97.5 73t-48 113.5t-13.5 148.5zM199 1317q0 70 41 114t133 44q96 0 141 -44t45 -114 q0 -66 -45 -112t-141 -46q-92 0 -133 46t-41 112zM672 1317q0 70 43 114t133 44q96 0 139 -44t43 -114q0 -66 -43 -112t-139 -46q-92 0 -134 46t-42 112z" />
<glyph unicode="&#xfd;" horiz-adv-x="1220" d="M23 1012h387q6 -18 16 -58.5t22.5 -90.5t26.5 -106.5t27.5 -106.5t24 -91t16.5 -61q14 -59 25.5 -133t21.5 -121h16q10 43 26.5 118.5t33.5 143.5q8 31 27.5 102.5t41 150.5t41 150.5t29.5 102.5h399q-12 -37 -44 -131.5t-72.5 -216t-88 -258t-88.5 -258t-73.5 -215 t-44.5 -130.5q-47 -133 -143.5 -192.5t-229.5 -59.5q-59 0 -131 9.5t-164 33.5l51 256q49 -6 78 -11t55 -5q39 0 65.5 5t46 18.5t33 35t23.5 54.5l27 90h-170q-10 33 -35 108.5t-55.5 173t-65.5 206t-66.5 206.5t-55 173t-33.5 108zM451 1227l344 360l182 -215l-402 -287z " />
<glyph unicode="&#xfe;" horiz-adv-x="1263" d="M88 -426v1837h371v-496q4 0 6 -2t6 -4q82 70 163 95.5t142 25.5q123 0 204 -41t128 -111.5t65.5 -167t18.5 -204.5q0 -115 -24.5 -212t-79 -167t-140.5 -108.5t-211 -38.5q-23 0 -54.5 3t-67 9t-71.5 16t-67 23v-457h-389zM479 295q35 -20 79 -30.5t85 -10.5 q27 0 54.5 10t50 40t38 81t15.5 135q0 78 -13.5 125t-36 71.5t-50 33t-58.5 8.5q-35 0 -83 -17.5t-81 -38.5v-407z" />
<glyph unicode="&#xff;" horiz-adv-x="1220" d="M23 1012h387q6 -18 16 -58.5t22.5 -90.5t26.5 -106.5t27.5 -106.5t24 -91t16.5 -61q14 -59 25.5 -133t21.5 -121h16q10 43 26.5 118.5t33.5 143.5q8 31 27.5 102.5t41 150.5t41 150.5t29.5 102.5h399q-12 -37 -44 -131.5t-72.5 -216t-88 -258t-88.5 -258t-73.5 -215 t-44.5 -130.5q-47 -133 -143.5 -192.5t-229.5 -59.5q-59 0 -131 9.5t-164 33.5l51 256q49 -6 78 -11t55 -5q39 0 65.5 5t46 18.5t33 35t23.5 54.5l27 90h-170q-10 33 -35 108.5t-55.5 173t-65.5 206t-66.5 206.5t-55 173t-33.5 108zM197 1309q0 70 41 113.5t133 43.5 q96 0 141 -43.5t45 -113.5q0 -66 -45 -112t-141 -46q-92 0 -133 46t-41 112zM670 1309q0 70 43 113.5t133 43.5q96 0 139 -43.5t43 -113.5q0 -66 -43 -112t-139 -46q-92 0 -134 46t-42 112z" />
<glyph unicode="&#x100;" horiz-adv-x="1499" d="M14 0l494 1413h508l469 -1413h-414l-86 289h-483l-90 -289h-398zM371 1532v231h770v-231h-770zM586 551h323l-84 297l-67 293h-13l-75 -303z" />
<glyph unicode="&#x101;" horiz-adv-x="1265" d="M49 274q0 51 14.5 99.5t48 89.5t88 69.5t132.5 40.5q78 14 180 20.5t197 16.5v17q0 66 -36 98.5t-130 32.5q-37 0 -80 -3t-86 -9.5t-85 -15.5t-75 -19l-57 237q45 18 104.5 34.5t122 28t127 17.5t123.5 6q98 0 180 -18.5t140.5 -61.5t90 -112.5t31.5 -171.5v-418h127 q4 -53 8.5 -107.5t8.5 -109.5q-57 -27 -137 -43.5t-166 -16.5q-70 0 -122.5 24t-64.5 95q0 -2 -6 4q-49 -45 -102.5 -69.5t-101.5 -36.5t-86 -14.5t-58 -2.5q-100 0 -163.5 30t-100.5 75t-51.5 97t-14.5 97zM215 1180v229h799v-229h-799zM453 317q4 -55 26.5 -79.5 t73.5 -24.5q31 0 76 14.5t78 42.5v160q-45 -6 -90.5 -9t-82 -12.5t-59 -30t-22.5 -61.5z" />
<glyph unicode="&#x102;" horiz-adv-x="1499" d="M14 0l494 1413h508l469 -1413h-414l-86 289h-483l-90 -289h-398zM332 1790l139 111q68 -92 147.5 -135.5t133.5 -43.5q18 0 46.5 3.5t69.5 19.5t92.5 49t116.5 94l99 -98q-51 -84 -106.5 -139.5t-112 -89t-111 -48t-103.5 -14.5q-66 0 -123 22.5t-108 62.5t-96 92.5 t-84 113.5zM586 551h323l-84 297l-67 293h-13l-75 -303z" />
<glyph unicode="&#x103;" horiz-adv-x="1265" d="M49 274q0 51 14.5 99.5t48 89.5t88 69.5t132.5 40.5q78 14 180 20.5t197 16.5v17q0 66 -36 98.5t-130 32.5q-37 0 -80 -3t-86 -9.5t-85 -15.5t-75 -19l-57 237q45 18 104.5 34.5t122 28t127 17.5t123.5 6q98 0 180 -18.5t140.5 -61.5t90 -112.5t31.5 -171.5v-418h127 q4 -53 8.5 -107.5t8.5 -109.5q-57 -27 -137 -43.5t-166 -16.5q-70 0 -122.5 24t-64.5 95q0 -2 -6 4q-49 -45 -102.5 -69.5t-101.5 -36.5t-86 -14.5t-58 -2.5q-100 0 -163.5 30t-100.5 75t-51.5 97t-14.5 97zM190 1417l146 111q72 -98 149.5 -139t130.5 -41q18 0 46 1t67 15 t91 49t122 100l115 -102q-51 -84 -109.5 -140.5t-117 -91t-115 -50t-105.5 -15.5q-66 0 -125 24.5t-112.5 66.5t-99.5 96.5t-83 115.5zM453 317q4 -55 26.5 -79.5t73.5 -24.5q31 0 76 14.5t78 42.5v160q-45 -6 -90.5 -9t-82 -12.5t-59 -30t-22.5 -61.5z" />
<glyph unicode="&#x104;" horiz-adv-x="1499" d="M14 0l494 1413h508l469 -1413h-285q-37 -61 -53.5 -125.5t-16.5 -112.5q0 -88 97 -88q43 0 74.5 7.5t70.5 17.5l33 -117q-66 -35 -134.5 -52t-133.5 -17q-117 0 -177.5 48t-60.5 134q0 59 33 146t133 179l-80 269h-483l-90 -289h-398zM586 551h323l-84 297l-67 293h-13 l-75 -303z" />
<glyph unicode="&#x105;" horiz-adv-x="1265" d="M49 274q0 51 14.5 99.5t48 89.5t88 69.5t132.5 40.5q78 14 180 20.5t197 16.5v17q0 66 -36 98.5t-130 32.5q-37 0 -80 -3t-86 -9.5t-85 -15.5t-75 -19l-57 237q45 18 104.5 34.5t122 28t127 17.5t123.5 6q98 0 180 -18.5t140.5 -61.5t90 -112.5t31.5 -171.5v-418h127 q4 -53 8.5 -107.5t8.5 -109.5q-43 -20 -99.5 -34.5t-119.5 -20.5q-25 -53 -37.5 -106.5t-12.5 -92.5q0 -88 97 -88q43 0 74.5 7t70.5 17l33 -116q-66 -35 -134.5 -52.5t-133.5 -17.5q-117 0 -177.5 48t-60.5 134q0 51 22.5 123t90.5 150q-41 10 -68 34.5t-35 73.5q0 -2 -6 4 q-49 -45 -102.5 -69.5t-101.5 -36.5t-86 -14.5t-58 -2.5q-100 0 -163.5 30t-100.5 75t-51.5 97t-14.5 97zM453 317q4 -55 26.5 -79.5t73.5 -24.5q31 0 76 14.5t78 42.5v160q-45 -6 -90.5 -9t-82 -12.5t-59 -30t-22.5 -61.5z" />
<glyph unicode="&#x106;" horiz-adv-x="1339" d="M94 698q0 133 33 266.5t117 240t225 173t360 66.5q102 0 200.5 -15.5t191.5 -44.5l-50 -290q-80 18 -153.5 26t-132.5 8q-84 0 -150.5 -21.5t-114 -70.5t-73 -127t-25.5 -190q0 -121 22.5 -202t68.5 -130t117 -70.5t167 -21.5q25 0 63.5 3t85 9t93.5 13.5t86 17.5 l61 -279q-104 -39 -234 -60.5t-247 -21.5q-215 0 -352.5 58.5t-217 158t-110.5 229.5t-31 275zM635 1647l342 360l180 -203l-407 -286z" />
<glyph unicode="&#x107;" horiz-adv-x="1038" d="M66 496q0 96 22.5 192t80.5 173t161.5 125t265.5 48q63 0 152.5 -9t181.5 -38l-49 -270q-59 12 -112.5 16t-94.5 4q-109 0 -160 -60t-51 -173q0 -117 44 -171t159 -54q66 0 131 12t125 28q16 -66 32.5 -130t32.5 -130q-86 -41 -192.5 -60t-212.5 -19q-160 0 -260.5 41.5 t-158 113.5t-77.5 165t-20 196zM342 1227l344 360l182 -215l-401 -287z" />
<glyph unicode="&#x108;" horiz-adv-x="1339" d="M94 698q0 133 33 266.5t117 240t225 173t360 66.5q102 0 200.5 -15.5t191.5 -44.5l-50 -290q-80 18 -153.5 26t-132.5 8q-84 0 -150.5 -21.5t-114 -70.5t-73 -127t-25.5 -190q0 -121 22.5 -202t68.5 -130t117 -70.5t167 -21.5q25 0 63.5 3t85 9t93.5 13.5t86 17.5 l61 -279q-104 -39 -234 -60.5t-247 -21.5q-215 0 -352.5 58.5t-217 158t-110.5 229.5t-31 275zM344 1622l320 317h233l326 -315l-90 -104l-355 190l-348 -190z" />
<glyph unicode="&#x109;" horiz-adv-x="1038" d="M66 496q0 96 22.5 192t80.5 173t161.5 125t265.5 48q63 0 152.5 -9t181.5 -38l-49 -270q-59 12 -112.5 16t-94.5 4q-109 0 -160 -60t-51 -173q0 -117 44 -171t159 -54q66 0 131 12t125 28q16 -66 32.5 -130t32.5 -130q-86 -41 -192.5 -60t-212.5 -19q-160 0 -260.5 41.5 t-158 113.5t-77.5 165t-20 196zM145 1186l322 332h233l326 -330l-92 -107l-352 199l-355 -197z" />
<glyph unicode="&#x10a;" horiz-adv-x="1339" d="M94 698q0 133 33 266.5t117 240t225 173t360 66.5q102 0 200.5 -15.5t191.5 -44.5l-50 -290q-80 18 -153.5 26t-132.5 8q-84 0 -150.5 -21.5t-114 -70.5t-73 -127t-25.5 -190q0 -121 22.5 -202t68.5 -130t117 -70.5t167 -21.5q25 0 63.5 3t85 9t93.5 13.5t86 17.5 l61 -279q-104 -39 -234 -60.5t-247 -21.5q-215 0 -352.5 58.5t-217 158t-110.5 229.5t-31 275zM524 1724q0 86 49.5 139.5t157.5 53.5q111 0 163 -53.5t52 -139.5q0 -80 -52 -134t-163 -54q-109 0 -158 54.5t-49 133.5z" />
<glyph unicode="&#x10b;" horiz-adv-x="1038" d="M66 496q0 96 22.5 192t80.5 173t161.5 125t265.5 48q63 0 152.5 -9t181.5 -38l-49 -270q-59 12 -112.5 16t-94.5 4q-109 0 -160 -60t-51 -173q0 -117 44 -171t159 -54q66 0 131 12t125 28q16 -66 32.5 -130t32.5 -130q-86 -41 -192.5 -60t-212.5 -19q-160 0 -260.5 41.5 t-158 113.5t-77.5 165t-20 196zM354 1346q0 84 44 135t143 51q98 0 145 -51t47 -135q0 -78 -47 -130.5t-145 -52.5t-142.5 52.5t-44.5 130.5z" />
<glyph unicode="&#x10c;" horiz-adv-x="1339" d="M94 698q0 133 33 266.5t117 240t225 173t360 66.5q102 0 200.5 -15.5t191.5 -44.5l-50 -290q-80 18 -153.5 26t-132.5 8q-84 0 -150.5 -21.5t-114 -70.5t-73 -127t-25.5 -190q0 -121 22.5 -202t68.5 -130t117 -70.5t167 -21.5q25 0 63.5 3t85 9t93.5 13.5t86 17.5 l61 -279q-104 -39 -234 -60.5t-247 -21.5q-215 0 -352.5 58.5t-217 158t-110.5 229.5t-31 275zM291 1835l88 102l348 -192l354 194l90 -106l-327 -313h-232z" />
<glyph unicode="&#x10d;" horiz-adv-x="1038" d="M66 496q0 96 22.5 192t80.5 173t161.5 125t265.5 48q63 0 152.5 -9t181.5 -38l-49 -270q-59 12 -112.5 16t-94.5 4q-109 0 -160 -60t-51 -173q0 -117 44 -171t159 -54q66 0 131 12t125 28q16 -66 32.5 -130t32.5 -130q-86 -41 -192.5 -60t-212.5 -19q-160 0 -260.5 41.5 t-158 113.5t-77.5 165t-20 196zM123 1446l82 100l354 -196l352 198l93 -104l-326 -332h-234z" />
<glyph unicode="&#x10e;" horiz-adv-x="1486" d="M137 0v1413h586q199 0 328 -56.5t204.5 -152.5t105.5 -223t30 -270q0 -141 -34 -269.5t-113 -226.5t-208 -156.5t-319 -58.5h-580zM231 1835l88 102l349 -192l354 194l90 -106l-328 -313h-231zM543 281h143q59 0 111.5 23.5t90.5 74.5t60.5 131t22.5 195 q0 117 -21.5 198.5t-60.5 134t-93.5 77t-117.5 24.5h-135v-858z" />
<glyph unicode="&#x10f;" horiz-adv-x="1646" d="M68 481q0 119 23.5 221.5t76.5 177t140 116.5t214 42q20 0 52 -3t67 -9t72 -16.5t67 -26.5v490h391v-1473h-358q-4 23 -4 43t-4 43l-10 6q-82 -66 -169 -87t-141 -21q-125 0 -205.5 39.5t-128 108.5t-65.5 159t-18 190zM459 487q0 -78 13 -125t35.5 -71.5t51.5 -32.5 t59 -8q33 0 80 17.5t82 37.5v414q-35 18 -81 30.5t-81 12.5q-27 0 -54 -9.5t-51 -38t-39 -82.5t-15 -145zM1296 1384q0 61 48.5 106.5t125.5 45.5q47 0 81 -16.5t55.5 -42t32 -59.5t10.5 -68q0 -55 -23.5 -110.5t-60.5 -102.5t-84 -86t-99 -64l-84 105q47 35 76 72.5 t33 84.5q-57 10 -84 46t-27 89z" />
<glyph unicode="&#x110;" horiz-adv-x="1486" d="M23 645v168h114v600h586q199 0 328 -56.5t204.5 -152.5t105.5 -223t30 -270q0 -141 -34 -269.5t-113 -226.5t-208 -156.5t-319 -58.5h-580v645h-114zM543 281h143q59 0 111.5 23.5t90.5 74.5t60.5 131t22.5 195q0 117 -21.5 198.5t-60.5 134t-93.5 77t-117.5 24.5h-135 v-326h196v-168h-196v-364z" />
<glyph unicode="&#x111;" horiz-adv-x="1263" d="M68 461q0 113 23.5 211t76.5 169.5t138 112.5t210 41q63 0 133 -8t131 -26v149h-237v125h237v238h391v-238h117v-125h-117v-1110h-356l-10 86l-10 6q-82 -66 -169 -87t-141 -21q-125 0 -205.5 37.5t-128 103t-65.5 153t-18 183.5zM459 467q0 -68 13 -110t35.5 -65.5 t51.5 -31.5t59 -8q33 0 80 14.5t82 38.5v371q-39 23 -83 32t-79 9q-27 0 -54 -11.5t-51 -39t-39 -76.5t-15 -123z" />
<glyph unicode="&#x112;" horiz-adv-x="1310" d="M135 0v1413h1061v-274h-653v-269h547v-270h-547v-321h680v-279h-1088zM293 1532v231h770v-231h-770z" />
<glyph unicode="&#x113;" horiz-adv-x="1177" d="M70 504q0 96 24.5 191.5t86 172t163.5 123.5t256 47q172 0 272.5 -47t152.5 -119.5t67.5 -161.5t15.5 -173v-91h-647q2 -98 59.5 -139t167.5 -41q76 0 163 17.5t163 40.5l73 -240q-111 -59 -235.5 -81.5t-233.5 -22.5q-166 0 -272 43t-167.5 115.5t-85 167.5t-23.5 198z M217 1180v229h799v-229h-799zM465 631h293q-2 74 -29.5 123t-107.5 49q-84 0 -117 -52.5t-39 -119.5z" />
<glyph unicode="&#x114;" horiz-adv-x="1310" d="M135 0v1413h1061v-274h-653v-269h547v-270h-547v-321h680v-279h-1088zM256 1784l139 110q68 -92 148 -135t133 -43q18 0 47 3t70 19.5t92 49.5t116 94l99 -98q-51 -84 -106.5 -139.5t-112 -89t-110.5 -48t-103 -14.5q-66 0 -123.5 22.5t-108.5 62.5t-96 92t-84 114z" />
<glyph unicode="&#x115;" horiz-adv-x="1177" d="M70 504q0 96 24.5 191.5t86 172t163.5 123.5t256 47q172 0 272.5 -47t152.5 -119.5t67.5 -161.5t15.5 -173v-91h-647q2 -98 59.5 -139t167.5 -41q76 0 163 17.5t163 40.5l73 -240q-111 -59 -235.5 -81.5t-233.5 -22.5q-166 0 -272 43t-167.5 115.5t-85 167.5t-23.5 198z M184 1417l146 111q72 -98 149.5 -139t130.5 -41q18 0 46 1t67 15t91 49t122 100l115 -102q-51 -84 -109.5 -140.5t-117 -91t-115 -50t-105.5 -15.5q-66 0 -125 24.5t-112.5 66.5t-99.5 96.5t-83 115.5zM465 631h293q-2 74 -29.5 123t-107.5 49q-84 0 -117 -52.5t-39 -119.5z " />
<glyph unicode="&#x116;" horiz-adv-x="1310" d="M135 0v1413h1061v-274h-653v-269h547v-270h-547v-321h680v-279h-1088zM496 1716q0 86 49 139.5t157 53.5q111 0 163.5 -53.5t52.5 -139.5q0 -80 -52.5 -134t-163.5 -54q-109 0 -157.5 54t-48.5 134z" />
<glyph unicode="&#x117;" horiz-adv-x="1177" d="M70 504q0 96 24.5 191.5t86 172t163.5 123.5t256 47q172 0 272.5 -47t152.5 -119.5t67.5 -161.5t15.5 -173v-91h-647q2 -98 59.5 -139t167.5 -41q76 0 163 17.5t163 40.5l73 -240q-111 -59 -235.5 -81.5t-233.5 -22.5q-166 0 -272 43t-167.5 115.5t-85 167.5t-23.5 198z M397 1348q0 86 49.5 139t157.5 53q111 0 163 -53t52 -139q0 -80 -52 -134.5t-163 -54.5q-109 0 -158 54.5t-49 134.5zM465 631h293q-2 74 -29.5 123t-107.5 49q-84 0 -117 -52.5t-39 -119.5z" />
<glyph unicode="&#x118;" horiz-adv-x="1310" d="M135 0v1413h1061v-274h-653v-269h547v-270h-547v-321h680v-279h-80q-35 -59 -49.5 -120.5t-14.5 -106.5q0 -88 97 -88q43 0 74.5 7t70.5 17l33 -117q-66 -35 -134.5 -52t-134.5 -17q-117 0 -177 48t-60 134q0 53 26.5 131t106.5 164h-846z" />
<glyph unicode="&#x119;" horiz-adv-x="1177" d="M70 504q0 96 24.5 191.5t86 172t163.5 123.5t256 47q172 0 272.5 -47t152.5 -119.5t67.5 -161.5t15.5 -173v-91h-647q2 -98 59.5 -139t167.5 -41q76 0 163 17.5t163 40.5l73 -240q-39 -20 -78.5 -36.5t-80.5 -27.5q-23 -51 -33 -100t-10 -86q0 -88 96 -88q43 0 74.5 7 t70.5 18l33 -117q-66 -35 -134.5 -52.5t-133.5 -17.5q-117 0 -177.5 48.5t-60.5 134.5q0 41 15.5 97t56.5 120q-29 -2 -55.5 -3t-51.5 -1q-166 0 -272 43t-167.5 115.5t-85 167.5t-23.5 198zM465 631h293q-2 74 -29.5 123t-107.5 49q-84 0 -117 -52.5t-39 -119.5z" />
<glyph unicode="&#x11a;" horiz-adv-x="1310" d="M135 0v1413h1061v-274h-653v-269h547v-270h-547v-321h680v-279h-1088zM227 1815l88 102l349 -193l354 195l90 -107l-328 -313h-231z" />
<glyph unicode="&#x11b;" horiz-adv-x="1177" d="M70 504q0 96 24.5 191.5t86 172t163.5 123.5t256 47q172 0 272.5 -47t152.5 -119.5t67.5 -161.5t15.5 -173v-91h-647q2 -98 59.5 -139t167.5 -41q76 0 163 17.5t163 40.5l73 -240q-111 -59 -235.5 -81.5t-233.5 -22.5q-166 0 -272 43t-167.5 115.5t-85 167.5t-23.5 198z M156 1446l82 100l354 -196l352 198l92 -104l-325 -332h-234zM465 631h293q-2 74 -29.5 123t-107.5 49q-84 0 -117 -52.5t-39 -119.5z" />
<glyph unicode="&#x11c;" horiz-adv-x="1425" d="M94 705q0 133 33 265t118 237.5t232.5 171t376.5 65.5q102 0 209.5 -15.5t200.5 -44.5l-47 -282q-82 16 -165 25.5t-145 9.5q-193 0 -289 -104.5t-96 -348.5q0 -201 72 -296t227 -95q31 0 68 4t72 10v455h364v-699q-129 -45 -267 -65.5t-255 -20.5q-213 0 -350.5 61.5 t-217 163t-110.5 232.5t-31 271zM346 1614l320 317h233l326 -315l-90 -105l-355 191l-348 -191z" />
<glyph unicode="&#x11d;" horiz-adv-x="1300" d="M66 -168q0 68 31.5 121t88.5 88q-49 20 -73.5 59t-24.5 90q0 66 38 115t103 78l4 10q-55 35 -88.5 99.5t-33.5 156.5q0 102 42 175t112.5 120t162.5 69.5t193 22.5q68 0 128 -6t101 -18h391v-178h-135l-6 -11q23 -35 31 -81t8 -80q0 -90 -40 -158t-107.5 -112t-158 -66.5 t-190.5 -22.5l-121 -2q-96 0 -96 -53q0 -37 59 -37h322q96 0 174 -15.5t132 -50t84 -91t30 -136.5q0 -66 -31 -131.5t-106.5 -117.5t-202.5 -83.5t-318 -31.5q-168 0 -267 25.5t-151.5 65.5t-68.5 89t-16 98zM180 1186l322 332h233l326 -330l-92 -107l-353 199l-354 -197z M440 -96q0 -20 6.5 -39t27 -33t55 -22.5t94.5 -8.5q111 0 158.5 28t47.5 77q0 35 -22.5 62.5t-87.5 27.5h-215q-29 -16 -46.5 -42t-17.5 -50zM489 662q0 -129 129 -130q59 0 100.5 31t41.5 103q0 59 -32 97t-105 38q-74 0 -104 -42t-30 -97z" />
<glyph unicode="&#x11e;" horiz-adv-x="1425" d="M94 705q0 133 33 265t118 237.5t232.5 171t376.5 65.5q102 0 209.5 -15.5t200.5 -44.5l-47 -282q-82 16 -165 25.5t-145 9.5q-193 0 -289 -104.5t-96 -348.5q0 -201 72 -296t227 -95q31 0 68 4t72 10v455h364v-699q-129 -45 -267 -65.5t-255 -20.5q-213 0 -350.5 61.5 t-217 163t-110.5 232.5t-31 271zM346 1802l139 111q68 -92 148 -135t133 -43q18 0 47 3t70 19.5t92 49t117 94.5l98 -99q-51 -84 -106.5 -139t-112 -89t-110.5 -48.5t-103 -14.5q-66 0 -123 22.5t-108.5 62.5t-96.5 92.5t-84 113.5z" />
<glyph unicode="&#x11f;" horiz-adv-x="1300" d="M66 -168q0 68 31.5 121t88.5 88q-49 20 -73.5 59t-24.5 90q0 66 38 115t103 78l4 10q-55 35 -88.5 99.5t-33.5 156.5q0 102 42 175t112.5 120t162.5 69.5t193 22.5q68 0 128 -6t101 -18h391v-178h-135l-6 -11q23 -35 31 -81t8 -80q0 -90 -40 -158t-107.5 -112t-158 -66.5 t-190.5 -22.5l-121 -2q-96 0 -96 -53q0 -37 59 -37h322q96 0 174 -15.5t132 -50t84 -91t30 -136.5q0 -66 -31 -131.5t-106.5 -117.5t-202.5 -83.5t-318 -31.5q-168 0 -267 25.5t-151.5 65.5t-68.5 89t-16 98zM190 1417l146 111q72 -98 149.5 -139t130.5 -41q18 0 46 1t67 15 t91 49t122 100l115 -102q-51 -84 -109.5 -140.5t-117 -91t-115 -50t-105.5 -15.5q-66 0 -125 24.5t-112.5 66.5t-99.5 96.5t-83 115.5zM440 -96q0 -20 6.5 -39t27 -33t55 -22.5t94.5 -8.5q111 0 158.5 28t47.5 77q0 35 -22.5 62.5t-87.5 27.5h-215q-29 -16 -46.5 -42 t-17.5 -50zM489 662q0 -129 129 -130q59 0 100.5 31t41.5 103q0 59 -32 97t-105 38q-74 0 -104 -42t-30 -97z" />
<glyph unicode="&#x120;" horiz-adv-x="1425" d="M94 705q0 133 33 265t118 237.5t232.5 171t376.5 65.5q102 0 209.5 -15.5t200.5 -44.5l-47 -282q-82 16 -165 25.5t-145 9.5q-193 0 -289 -104.5t-96 -348.5q0 -201 72 -296t227 -95q31 0 68 4t72 10v455h364v-699q-129 -45 -267 -65.5t-255 -20.5q-213 0 -350.5 61.5 t-217 163t-110.5 232.5t-31 271zM569 1731q0 86 49.5 139t157.5 53q111 0 163 -53t52 -139q0 -80 -52 -134.5t-163 -54.5q-109 0 -158 54.5t-49 134.5z" />
<glyph unicode="&#x121;" horiz-adv-x="1300" d="M66 -168q0 68 31.5 121t88.5 88q-49 20 -73.5 59t-24.5 90q0 66 38 115t103 78l4 10q-55 35 -88.5 99.5t-33.5 156.5q0 102 42 175t112.5 120t162.5 69.5t193 22.5q68 0 128 -6t101 -18h391v-178h-135l-6 -11q23 -35 31 -81t8 -80q0 -90 -40 -158t-107.5 -112t-158 -66.5 t-190.5 -22.5l-121 -2q-96 0 -96 -53q0 -37 59 -37h322q96 0 174 -15.5t132 -50t84 -91t30 -136.5q0 -66 -31 -131.5t-106.5 -117.5t-202.5 -83.5t-318 -31.5q-168 0 -267 25.5t-151.5 65.5t-68.5 89t-16 98zM406 1348q0 86 49 139t157 53q111 0 163 -53t52 -139 q0 -80 -52 -134.5t-163 -54.5q-109 0 -157.5 54.5t-48.5 134.5zM440 -96q0 -20 6.5 -39t27 -33t55 -22.5t94.5 -8.5q111 0 158.5 28t47.5 77q0 35 -22.5 62.5t-87.5 27.5h-215q-29 -16 -46.5 -42t-17.5 -50zM489 662q0 -129 129 -130q59 0 100.5 31t41.5 103q0 59 -32 97 t-105 38q-74 0 -104 -42t-30 -97z" />
<glyph unicode="&#x122;" horiz-adv-x="1425" d="M94 705q0 133 33 265t118 237.5t232.5 171t376.5 65.5q102 0 209.5 -15.5t200.5 -44.5l-47 -282q-82 16 -165 25.5t-145 9.5q-193 0 -289 -104.5t-96 -348.5q0 -201 72 -296t227 -95q31 0 68 4t72 10v455h364v-699q-129 -45 -267 -65.5t-255 -20.5q-213 0 -350.5 61.5 t-217 163t-110.5 232.5t-31 271zM651 -236q0 61 48.5 106.5t125.5 45.5q47 0 81 -16.5t55.5 -42t32 -59.5t10.5 -68q0 -55 -24 -110.5t-60.5 -102.5t-84 -86t-98.5 -64l-84 105q47 35 76 72.5t33 84.5q-57 10 -84 46t-27 89z" />
<glyph unicode="&#x123;" horiz-adv-x="1300" d="M66 -168q0 68 31.5 121t88.5 88q-49 20 -73.5 59t-24.5 90q0 66 38 115t103 78l4 10q-55 35 -88.5 99.5t-33.5 156.5q0 102 42 175t112.5 120t162.5 69.5t193 22.5q68 0 128 -6t101 -18h391v-178h-135l-6 -11q23 -35 31 -81t8 -80q0 -90 -40 -158t-107.5 -112t-158 -66.5 t-190.5 -22.5l-121 -2q-96 0 -96 -53q0 -37 59 -37h322q96 0 174 -15.5t132 -50t84 -91t30 -136.5q0 -66 -31 -131.5t-106.5 -117.5t-202.5 -83.5t-318 -31.5q-168 0 -267 25.5t-151.5 65.5t-68.5 89t-16 98zM440 -96q0 -20 6.5 -39t27 -33t55 -22.5t94.5 -8.5 q111 0 158.5 28t47.5 77q0 35 -22.5 62.5t-87.5 27.5h-215q-29 -16 -46.5 -42t-17.5 -50zM446 1317q0 61 25 118.5t64.5 108.5t91 91t106.5 67l90 -111q-51 -41 -80.5 -77.5t-35.5 -90.5q59 -10 89.5 -48t30.5 -95q0 -66 -52 -114t-138 -48q-51 0 -87 17.5t-59.5 45 t-34 63.5t-10.5 73zM489 662q0 -129 129 -130q59 0 100.5 31t41.5 103q0 59 -32 97t-105 38q-74 0 -104 -42t-30 -97z" />
<glyph unicode="&#x124;" horiz-adv-x="1546" d="M135 0v1411h406q0 -135 -1 -268t-1 -269h460v537h408v-1411h-408v594h-460q0 -150 1 -298.5t1 -295.5h-406zM328 1597l319 318h234l325 -316l-90 -104l-354 191l-348 -191z" />
<glyph unicode="&#x125;" horiz-adv-x="1255" d="M-152 1622l320 317h233l326 -315l-90 -104l-354 190l-349 -190zM88 0v1473h385v-330q-2 -53 -3 -107.5t-5 -107.5l16 -10q39 27 85 49t91 37.5t88 23.5t80 8q100 0 166 -25.5t105 -73.5t53 -115.5t14 -149.5v-672h-393v594q0 68 -21.5 105.5t-97.5 37.5q-35 0 -81 -15 t-87 -42v-680h-395z" />
<glyph unicode="&#x126;" horiz-adv-x="1546" d="M12 1053v133h125v227h404v-227h460v227h408v-227h119v-133h-119v-1053h-408v596h-460v-596h-404v1053h-125zM541 877h460v176h-460v-176z" />
<glyph unicode="&#x127;" horiz-adv-x="1290" d="M10 1114v146h115v213h385v-213h367q0 -37 -1.5 -74t-1.5 -72h-366q0 -63 -2 -120.5t-2 -121.5q106 53 185 78t171 25q100 0 166 -25.5t104.5 -74t53 -116t14.5 -149.5v-610h-393v532q0 63 -20.5 103.5t-96.5 40.5q-35 0 -82 -15.5t-88 -42.5v-618h-393v1114h-115z" />
<glyph unicode="&#x128;" horiz-adv-x="702" d="M-70 1612q43 121 103.5 169t132.5 48q49 0 101 -12.5t103.5 -25.5t100.5 -25.5t92 -12.5l115 84l102 -82q-73 -223 -231 -223q-55 0 -112.5 12t-110 27.5t-98.5 28t-81 12.5l-112 -80zM150 0v1413h401v-1413h-401z" />
<glyph unicode="&#x129;" horiz-adv-x="712" d="M-74 1247q43 121 103.5 169t132.5 48q49 0 101 -12t103.5 -25.5t100.5 -25.5t92 -12l115 84l102 -82q-73 -224 -231 -224q-55 0 -112.5 12.5t-110 28t-98.5 27.5t-81 12l-112 -80zM145 0v1010h392v-1010h-392z" />
<glyph unicode="&#x12a;" horiz-adv-x="702" d="M-29 1532v231h770v-231h-770zM150 0v1413h401v-1413h-401z" />
<glyph unicode="&#x12b;" horiz-adv-x="684" d="M-55 1180v229h798v-229h-798zM145 0v1010h392v-1010h-392z" />
<glyph unicode="&#x12c;" horiz-adv-x="702" d="M-59 1788l139 110q68 -92 147.5 -135t132.5 -43q18 0 47 3t70 19.5t92.5 49.5t116.5 94l98 -98q-51 -84 -106 -139.5t-111.5 -89t-111 -48t-103.5 -14.5q-66 0 -123 22.5t-108 62.5t-96 92t-84 114zM150 0v1413h401v-1413h-401z" />
<glyph unicode="&#x12d;" horiz-adv-x="741" d="M-70 1417l146 111q72 -98 149.5 -139t130.5 -41q18 0 46 1t67 15t91 49t122 100l115 -102q-51 -84 -109.5 -140.5t-117 -91t-115 -50t-105.5 -15.5q-66 0 -125 24.5t-112.5 66.5t-99.5 96.5t-83 115.5zM145 0v1010h392v-1010h-392z" />
<glyph unicode="&#x12e;" horiz-adv-x="702" d="M145 -293q0 53 27 130t104 163h-126v1413h401v-1413h-113q-33 -59 -47 -120.5t-14 -104.5q0 -88 96 -88q43 0 75 7t70 17l33 -117q-66 -35 -134 -52t-134 -17q-117 0 -177.5 48t-60.5 134z" />
<glyph unicode="&#x12f;" horiz-adv-x="684" d="M125 1303q0 86 52 139t163 53q115 0 168 -53t53 -139q0 -82 -53 -137.5t-168 -55.5q-113 0 -164 55.5t-51 137.5zM127 -276q0 51 23.5 123.5t93.5 152.5h-99v1010h392v-1010h-125q-29 -55 -41.5 -111.5t-12.5 -97.5q0 -88 97 -88q43 0 74.5 7t70.5 18l33 -117 q-66 -35 -134.5 -52.5t-133.5 -17.5q-117 0 -177.5 48.5t-60.5 134.5z" />
<glyph unicode="&#x130;" horiz-adv-x="702" d="M139 1741q0 86 49.5 139t157.5 53q111 0 163 -53t52 -139q0 -80 -52 -134.5t-163 -54.5q-109 0 -158 54.5t-49 134.5zM150 0v1413h401v-1413h-401z" />
<glyph unicode="&#x131;" horiz-adv-x="684" d="M145 0v1010h392v-1010h-392z" />
<glyph unicode="&#x132;" horiz-adv-x="1515" d="M150 0v1413h401v-1413h-401zM565 -139q117 59 189.5 111.5t113.5 109.5t55.5 125.5t14.5 161.5l2 1046h401v-1073q0 -317 -173 -504.5t-513 -249.5z" />
<glyph unicode="&#x133;" horiz-adv-x="1359" d="M125 1303q0 86 52 139t163 53q115 0 168 -53t53 -139q0 -82 -53 -137.5t-168 -55.5q-113 0 -164 55.5t-51 137.5zM145 0v1010h392v-1010h-392zM559 -217q84 49 135 86t79 80t37 97t9 138v826h395v-161v-182.5v-182.5v-159.5t-1 -115.5t-1 -49q0 -143 -31.5 -251 t-98 -184.5t-170 -127t-248.5 -80.5q-2 6 -18.5 46t-35 88t-34 88t-17.5 44zM803 1303q0 86 52 139t163 53q115 0 167 -53t52 -139q0 -84 -52 -138.5t-167 -54.5q-113 0 -164 54.5t-51 138.5z" />
<glyph unicode="&#x134;" horiz-adv-x="839" d="M-111 -137q117 59 190 111.5t113.5 109.5t55 126t14.5 161l2 1046h402v-1073q0 -317 -173.5 -504.5t-512.5 -249.5zM29 1610l319 317h234l325 -315l-90 -105l-354 191l-348 -191z" />
<glyph unicode="&#x135;" horiz-adv-x="720" d="M-102 -215q82 47 132 85t77.5 80t37 96t9.5 136v826h393v-760q0 -113 -12 -211q-23 -217 -151 -340t-384 -176q-29 66 -53.5 132t-48.5 132zM-76 1184q78 84 157 166t161 166h233l326 -332l-92 -105q-88 51 -176.5 99.5t-176.5 99.5l-352 -197q-18 25 -37.5 50.5 t-42.5 52.5z" />
<glyph unicode="&#x136;" horiz-adv-x="1501" d="M135 0v1411h400v-483q10 0 16 -2l80 96q86 98 172 194.5t172 194.5h471l-531 -545l570 -866h-484q-92 152 -182 300.5t-182 301.5l-102 -104v-498h-400zM553 -236q0 61 48 106.5t126 45.5q47 0 81 -16.5t55.5 -42t31.5 -59.5t10 -68q0 -55 -23.5 -110.5t-60.5 -102.5 t-84 -86t-98 -64l-84 105q47 35 75.5 72.5t33.5 84.5q-57 10 -84 46t-27 89z" />
<glyph unicode="&#x137;" horiz-adv-x="1216" d="M88 0v1468h399q0 -111 -1 -220t-1 -220q-2 -72 -5 -153.5t-7 -155.5q4 -2 12 -2l258 295h439l-373 -394q18 -23 43 -47t35 -41q29 -51 71.5 -120.5t87 -144.5t87.5 -144.5t71 -120.5h-432q-55 98 -109.5 195.5t-107.5 195.5l-68 -72v-319h-399zM438 -236q0 61 48.5 106.5 t125.5 45.5q47 0 81 -16.5t55.5 -42t32 -59.5t10.5 -68q0 -55 -24 -110.5t-60.5 -102.5t-84 -86t-98.5 -64l-84 105q47 35 76 72.5t33 84.5q-57 10 -84 46t-27 89z" />
<glyph unicode="&#x138;" horiz-adv-x="1212" d="M88 0v1010h399v-84q0 -18 -1 -43t-2 -52.5t-3 -54t-2 -47.5q4 -2 13 -2l251 285h439l-373 -394q18 -23 40.5 -47t37.5 -41l317 -530h-432q-55 98 -109.5 195.5t-107.5 195.5l-68 -72v-319h-399z" />
<glyph unicode="&#x139;" horiz-adv-x="1255" d="M135 0v1413h404v-1137h694v-276h-1098zM236 1634l342 361l180 -203l-408 -287z" />
<glyph unicode="&#x13a;" horiz-adv-x="628" d="M117 0v1475h391v-1475h-391zM166 1667l342 361l180 -203l-407 -287z" />
<glyph unicode="&#x13b;" horiz-adv-x="1255" d="M135 0v1413h404v-1137h694v-276h-1098zM526 -236q0 61 48.5 106.5t125.5 45.5q47 0 81 -16.5t55.5 -42t32 -59.5t10.5 -68q0 -55 -24 -110.5t-60.5 -102.5t-83.5 -86t-99 -64l-84 105q47 35 76 72.5t33 84.5q-57 10 -84 46t-27 89z" />
<glyph unicode="&#x13c;" horiz-adv-x="628" d="M117 0v1475h391v-1475h-391zM152 -236q0 61 48 106.5t126 45.5q47 0 80.5 -16.5t55 -42t32 -59.5t10.5 -68q0 -55 -23.5 -110.5t-60.5 -102.5t-84 -86t-98 -64l-84 105q47 35 75.5 72.5t32.5 84.5q-57 10 -83.5 46t-26.5 89z" />
<glyph unicode="&#x13d;" horiz-adv-x="1255" d="M135 0v1413h404v-1137h694v-276h-1098zM864 1286q0 61 48.5 106.5t125.5 45.5q47 0 81 -16.5t55.5 -42t32 -59.5t10.5 -69q0 -55 -24 -110.5t-60.5 -102.5t-84 -86t-98.5 -63l-84 104q47 35 76 73t33 85q-57 10 -84 46t-27 89z" />
<glyph unicode="&#x13e;" horiz-adv-x="999" d="M117 0v1475h391v-1475h-391zM649 1352q0 61 48 106t126 45q47 0 81 -16.5t55.5 -42t31.5 -59t10 -68.5q0 -55 -23.5 -110.5t-60 -102.5t-84 -86t-98.5 -64l-84 105q47 35 76 72.5t33 85.5q-57 10 -84 46t-27 89z" />
<glyph unicode="&#x13f;" horiz-adv-x="1255" d="M135 0v1413h404v-1137h694v-276h-1098zM815 836q0 86 49 139t158 53q111 0 163 -53t52 -139q0 -80 -52 -134.5t-163 -54.5q-109 0 -158 54.5t-49 134.5z" />
<glyph unicode="&#x140;" horiz-adv-x="1067" d="M117 0v1475h391v-1475h-391zM637 803q0 86 49 139t158 53q111 0 163 -53t52 -139q0 -80 -52.5 -134.5t-162.5 -54.5q-109 0 -158 54.5t-49 134.5z" />
<glyph unicode="&#x141;" horiz-adv-x="1255" d="M-63 522l198 113v778h404v-543l206 119l80 -153l-286 -166v-394h694v-276h-1098v432l-117 -67z" />
<glyph unicode="&#x142;" horiz-adv-x="684" d="M-61 596l198 117v760h391v-537l144 84q4 -8 15 -27.5t24.5 -42t25 -43t15.5 -26.5q-14 -10 -45 -28.5t-66 -38t-66.5 -38t-46.5 -26.5v-750h-391v524q-10 -6 -26.5 -15t-35 -20.5t-35.5 -21.5t-26 -16z" />
<glyph unicode="&#x143;" horiz-adv-x="1617" d="M135 0v1411h410q106 -158 203.5 -312.5t201.5 -314.5l123 -204h14v831h392v-1411h-408q-111 168 -214 336t-212 340q-29 47 -55.5 92t-52.5 92q-4 0 -6.5 -1t-6.5 -1v-858h-389zM688 1604l342 360l180 -203l-407 -286z" />
<glyph unicode="&#x144;" horiz-adv-x="1255" d="M88 0v1012h367l6 -99l12 -4q90 63 188.5 95t169.5 32q98 0 162 -25.5t102 -73.5t53 -115.5t15 -149.5v-672h-393v594q0 70 -22.5 106.5t-96.5 36.5q-35 0 -81 -15t-87 -42v-680h-395zM432 1227l344 360l182 -215l-401 -287z" />
<glyph unicode="&#x145;" horiz-adv-x="1617" d="M135 0v1411h410q106 -158 203.5 -312.5t201.5 -314.5l123 -204h14v831h392v-1411h-408q-111 168 -214 336t-212 340q-29 47 -55.5 92t-52.5 92q-4 0 -6.5 -1t-6.5 -1v-858h-389zM629 -236q0 61 48 106.5t126 45.5q47 0 81 -16.5t55.5 -42t31.5 -59.5t10 -68 q0 -55 -23.5 -110.5t-60.5 -102.5t-84 -86t-98 -64l-84 105q47 35 75.5 72.5t32.5 84.5q-57 10 -83.5 46t-26.5 89z" />
<glyph unicode="&#x146;" horiz-adv-x="1255" d="M88 0v1012h367l6 -99l12 -4q90 63 188.5 95t169.5 32q98 0 162 -25.5t102 -73.5t53 -115.5t15 -149.5v-672h-393v594q0 70 -22.5 106.5t-96.5 36.5q-35 0 -81 -15t-87 -42v-680h-395zM469 -236q0 61 48 106.5t126 45.5q47 0 81 -16.5t55.5 -42t31.5 -59.5t10 -68 q0 -55 -23.5 -110.5t-60.5 -102.5t-84 -86t-98 -64l-84 105q47 35 75.5 72.5t33.5 84.5q-57 10 -84 46t-27 89z" />
<glyph unicode="&#x147;" horiz-adv-x="1617" d="M135 0v1411h410q106 -158 203.5 -312.5t201.5 -314.5l123 -204h14v831h392v-1411h-408q-111 168 -214 336t-212 340q-29 47 -55.5 92t-52.5 92q-4 0 -6.5 -1t-6.5 -1v-858h-389zM393 1812l88 103l348 -193l355 195l90 -107l-328 -313h-231z" />
<glyph unicode="&#x148;" horiz-adv-x="1255" d="M88 0v1012h367l6 -99l12 -4q90 63 188.5 95t169.5 32q98 0 162 -25.5t102 -73.5t53 -115.5t15 -149.5v-672h-393v594q0 70 -22.5 106.5t-96.5 36.5q-35 0 -81 -15t-87 -42v-680h-395zM182 1446l82 100l354 -196l353 198l92 -104l-326 -332h-233z" />
<glyph unicode="&#x149;" horiz-adv-x="1509" d="M25 1378q0 61 48 106.5t126 45.5q47 0 80.5 -16.5t55 -42t32 -59.5t10.5 -69q0 -55 -23.5 -110t-60.5 -102.5t-84 -86t-98 -63.5l-84 104q47 35 75.5 73t32.5 85q-57 10 -83.5 46t-26.5 89zM342 0v1012h367l6 -99l12 -4q90 63 188.5 95t169.5 32q98 0 162 -25.5 t101.5 -73.5t53 -115.5t15.5 -149.5v-672h-393v594q0 70 -22.5 106.5t-96.5 36.5q-35 0 -81 -15t-87 -42v-680h-395z" />
<glyph unicode="&#x14a;" horiz-adv-x="1617" d="M135 0v1411h410q94 -147 187 -293.5t186 -296.5q41 -66 78.5 -130t76.5 -130h14v850h392v-1440q0 -98 -18.5 -180t-68 -141.5t-136.5 -93t-224 -33.5q-23 0 -54.5 2t-65 6t-66.5 9t-60 14l29 268q45 -4 74 -5t45 -1q66 0 113 21.5t47 88.5v58q-111 166 -222.5 340 t-216.5 348l-118 200q-4 0 -6.5 -1t-6.5 -1v-870h-389z" />
<glyph unicode="&#x14b;" horiz-adv-x="1255" d="M88 0v1012h367l6 -97l12 -4q90 63 187 94t171 31q96 0 160 -25.5t101.5 -73.5t53 -115.5t15.5 -149.5v-662q0 -80 -14 -157.5t-61.5 -138t-136.5 -97.5t-236 -37q-23 0 -53.5 2t-64.5 6t-64.5 8.5t-53.5 10.5l27 258q29 -4 58.5 -5t51.5 -1q68 0 111 28.5t43 108.5v598 q0 61 -22.5 102t-94.5 41q-35 0 -81 -15t-87 -42v-680h-395z" />
<glyph unicode="&#x14c;" horiz-adv-x="1605" d="M96 709q0 156 42 290t130 232t221.5 154.5t315.5 56.5t315 -56.5t220 -154.5t129 -232t42 -288q0 -158 -45 -292t-133 -232.5t-221 -154t-307 -55.5q-180 0 -313.5 53.5t-221.5 151t-131 231.5t-43 296zM416 1532v231h770v-231h-770zM522 707q0 -104 13.5 -187.5 t46 -139.5t87 -87t136.5 -31q78 0 130 33t85 91t46 141.5t13 181.5q0 90 -11 172t-42 143t-84 98t-137 37q-86 0 -141.5 -37t-86 -100.5t-43 -145t-12.5 -169.5z" />
<glyph unicode="&#x14d;" d="M70 506q0 113 30.5 209t98 166.5t175 111.5t259.5 41q154 0 260 -41t173 -111.5t96.5 -166.5t29.5 -207t-31 -208t-98.5 -168t-175 -111.5t-260.5 -40.5q-154 0 -260.5 39.5t-172 110.5t-95 167t-29.5 209zM227 1180v229h799v-229h-799zM471 506q0 -59 6 -107.5t24.5 -82 t50.5 -52t81 -18.5q47 0 76.5 19.5t47 53t24.5 82t7 105.5q0 55 -6 102t-23.5 83t-48 55.5t-77.5 19.5t-79 -21.5t-50.5 -57.5t-25.5 -83t-7 -98z" />
<glyph unicode="&#x14e;" horiz-adv-x="1605" d="M96 709q0 156 42 290t130 232t221.5 154.5t315.5 56.5t315 -56.5t220 -154.5t129 -232t42 -288q0 -158 -45 -292t-133 -232.5t-221 -154t-307 -55.5q-180 0 -313.5 53.5t-221.5 151t-131 231.5t-43 296zM379 1810l139 111q68 -92 147.5 -135t133.5 -43q18 0 46.5 3 t69.5 19.5t92.5 49t116.5 94.5l99 -99q-51 -84 -106.5 -139t-112 -89t-110.5 -48t-103 -14q-66 0 -123.5 22.5t-108.5 62.5t-96 92t-84 113zM522 707q0 -104 13.5 -187.5t46 -139.5t87 -87t136.5 -31q78 0 130 33t85 91t46 141.5t13 181.5q0 90 -11 172t-42 143t-84 98 t-137 37q-86 0 -141.5 -37t-86 -100.5t-43 -145t-12.5 -169.5z" />
<glyph unicode="&#x14f;" d="M70 506q0 113 30.5 209t98 166.5t175 111.5t259.5 41q154 0 260 -41t173 -111.5t96.5 -166.5t29.5 -207t-31 -208t-98.5 -168t-175 -111.5t-260.5 -40.5q-154 0 -260.5 39.5t-172 110.5t-95 167t-29.5 209zM201 1417l145 111q72 -98 149.5 -139t131.5 -41q18 0 45.5 1 t66.5 15t91.5 49t121.5 100l115 -102q-51 -84 -109.5 -140.5t-117 -91t-114.5 -50t-105 -15.5q-66 0 -125.5 24.5t-112.5 66.5t-99 96.5t-83 115.5zM471 506q0 -59 6 -107.5t24.5 -82t50.5 -52t81 -18.5q47 0 76.5 19.5t47 53t24.5 82t7 105.5q0 55 -6 102t-23.5 83 t-48 55.5t-77.5 19.5t-79 -21.5t-50.5 -57.5t-25.5 -83t-7 -98z" />
<glyph unicode="&#x150;" horiz-adv-x="1605" d="M96 709q0 156 42 290t130 232t221.5 154.5t315.5 56.5t315 -56.5t220 -154.5t129 -232t42 -288q0 -158 -45 -292t-133 -232.5t-221 -154t-307 -55.5q-180 0 -313.5 53.5t-221.5 151t-131 231.5t-43 296zM502 1620l286 410l211 -170l-362 -349zM522 707 q0 -104 13.5 -187.5t46 -139.5t87 -87t136.5 -31q78 0 130 33t85 91t46 141.5t13 181.5q0 90 -11 172t-42 143t-84 98t-137 37q-86 0 -141.5 -37t-86 -100.5t-43 -145t-12.5 -169.5zM877 1620l284 410l213 -170l-362 -349z" />
<glyph unicode="&#x151;" d="M70 506q0 113 30.5 209t98 166.5t175 111.5t259.5 41q154 0 260 -41t173 -111.5t96.5 -166.5t29.5 -207t-31 -208t-98.5 -168t-175 -111.5t-260.5 -40.5q-154 0 -260.5 39.5t-172 110.5t-95 167t-29.5 209zM264 1190l287 409l209 -167l-363 -351zM471 506q0 -59 6 -107.5 t24.5 -82t50.5 -52t81 -18.5q47 0 76.5 19.5t47 53t24.5 82t7 105.5q0 55 -6 102t-23.5 83t-48 55.5t-77.5 19.5t-79 -21.5t-50.5 -57.5t-25.5 -83t-7 -98zM641 1190l285 409l211 -167l-365 -351z" />
<glyph unicode="&#x152;" horiz-adv-x="1961" d="M88 709q0 156 42 290t130 232t221 154.5t316 56.5q129 0 239 -29h830v-274h-631v-275h526v-262h-526v-326h651v-276h-889q-47 -10 -97 -15t-103 -5q-182 0 -315.5 53t-220.5 149.5t-130 230.5t-43 296zM512 707q0 -104 15.5 -187.5t49 -140.5t88 -88t132.5 -31h16t16 2 v895h-43q-78 -4 -130 -43t-84.5 -100.5t-46 -141t-13.5 -165.5z" />
<glyph unicode="&#x153;" horiz-adv-x="1867" d="M63 498q0 113 34 210t103.5 169.5t176 114.5t250.5 42q223 0 348 -125q57 66 144 102t210 36q147 0 240.5 -47.5t146.5 -120t72.5 -160.5t19.5 -172v-92h-626q4 -102 56 -146.5t165 -44.5q74 0 153.5 15.5t155.5 42.5l74 -230q-111 -57 -229.5 -80.5t-223.5 -23.5 q-123 0 -208 29.5t-144 86.5q-63 -57 -152.5 -90.5t-207.5 -33.5q-143 0 -249 38.5t-174.5 107.5t-101.5 164t-33 208zM465 506q0 -55 6 -102.5t24.5 -82t50.5 -55t81 -20.5q47 0 77.5 20.5t48 56t24.5 83t7 100.5q0 51 -7 98t-24.5 83t-48 57.5t-77.5 21.5q-49 0 -80 -22.5 t-49.5 -59.5t-25.5 -83t-7 -95zM1188 616h270q-4 78 -30.5 125t-94.5 47q-72 0 -105.5 -52t-39.5 -120z" />
<glyph unicode="&#x154;" horiz-adv-x="1415" d="M135 0v1413h645q135 0 229.5 -35t153 -93t85 -134t26.5 -156q0 -55 -14.5 -109.5t-43 -101.5t-72.5 -86t-104 -63v-4q45 -16 78 -42t54.5 -58.5t36 -69.5t26.5 -76l111 -385h-400l-104 356q-29 104 -78 141.5t-133 37.5h-92v-535h-404zM510 1620l342 360l180 -202 l-407 -287zM539 801h157q33 0 64 10t54.5 30.5t37.5 53.5t14 78q0 78 -46 121t-124 43h-157v-336z" />
<glyph unicode="&#x155;" horiz-adv-x="956" d="M115 0v1012h387q0 -18 -2 -46t-4 -56.5t-6.5 -55.5t-6.5 -45l9 -6q45 47 97 90t106.5 75.5t107.5 52t100 19.5q35 0 47.5 -23.5t12.5 -58.5q0 -41 -11.5 -97t-29 -113.5t-38 -107.5t-40.5 -79l-338 43v-604h-391zM233 1227l345 360l182 -215l-402 -287z" />
<glyph unicode="&#x156;" horiz-adv-x="1415" d="M135 0v1413h645q135 0 229.5 -35t153 -93t85 -134t26.5 -156q0 -55 -14.5 -109.5t-43 -101.5t-72.5 -86t-104 -63v-4q45 -16 78 -42t54.5 -58.5t36 -69.5t26.5 -76l111 -385h-400l-104 356q-29 104 -78 141.5t-133 37.5h-92v-535h-404zM539 801h157q33 0 64 10t54.5 30.5 t37.5 53.5t14 78q0 78 -46 121t-124 43h-157v-336zM543 -236q0 61 48 106.5t126 45.5q47 0 80.5 -16.5t55 -42t32 -59.5t10.5 -68q0 -55 -23.5 -110.5t-60.5 -102.5t-84 -86t-98 -64l-84 105q47 35 75.5 72.5t32.5 84.5q-57 10 -83.5 46t-26.5 89z" />
<glyph unicode="&#x157;" horiz-adv-x="956" d="M115 0v1012h387q0 -18 -2 -46t-4 -56.5t-6.5 -55.5t-6.5 -45l9 -6q45 47 97 90t106.5 75.5t107.5 52t100 19.5q35 0 47.5 -23.5t12.5 -58.5q0 -41 -11.5 -97t-29 -113.5t-38 -107.5t-40.5 -79l-338 43v-604h-391zM152 -236q0 61 48 106.5t126 45.5q47 0 80.5 -16.5 t55 -42t32 -59.5t10.5 -68q0 -55 -23.5 -110.5t-60.5 -102.5t-84 -86t-98 -64l-84 105q47 35 75.5 72.5t32.5 84.5q-57 10 -83.5 46t-26.5 89z" />
<glyph unicode="&#x158;" horiz-adv-x="1415" d="M135 0v1413h645q135 0 229.5 -35t153 -93t85 -134t26.5 -156q0 -55 -14.5 -109.5t-43 -101.5t-72.5 -86t-104 -63v-4q45 -16 78 -42t54.5 -58.5t36 -69.5t26.5 -76l111 -385h-400l-104 356q-29 104 -78 141.5t-133 37.5h-92v-535h-404zM231 1817l88 102l349 -193l354 195 l90 -106l-328 -314h-231zM539 801h157q33 0 64 10t54.5 30.5t37.5 53.5t14 78q0 78 -46 121t-124 43h-157v-336z" />
<glyph unicode="&#x159;" horiz-adv-x="956" d="M4 1446l82 100l354 -196l353 198l92 -104l-326 -332h-233zM115 0v1012h387q0 -18 -2 -46t-4 -56.5t-6.5 -55.5t-6.5 -45l9 -6q45 47 97 90t106.5 75.5t107.5 52t100 19.5q35 0 47.5 -23.5t12.5 -58.5q0 -41 -11.5 -97t-29 -113.5t-38 -107.5t-40.5 -79l-338 43v-604h-391 z" />
<glyph unicode="&#x15a;" horiz-adv-x="1355" d="M70 92l92 281q84 -31 162.5 -48.5t144.5 -26.5t118 -11t83 -2q98 0 142 30.5t44 96.5q0 59 -47 86.5t-131 48.5q-113 29 -215.5 57.5t-179 75.5t-121.5 120.5t-45 190.5q0 98 32.5 181t103.5 143.5t182.5 94.5t269.5 34q117 0 247.5 -24.5t245.5 -84.5l-96 -270 q-106 41 -218 54.5t-192 13.5q-150 0 -149 -121q0 -29 20.5 -49.5t54 -36t79.5 -27.5t100 -25q70 -16 154.5 -41.5t158.5 -74.5t124 -132t50 -214q0 -96 -37 -177t-115.5 -138.5t-202.5 -89.5t-298 -32q-53 0 -122 6.5t-143.5 19.5t-151.5 35.5t-144 55.5zM526 1630l342 361 l181 -203l-408 -287z" />
<glyph unicode="&#x15b;" horiz-adv-x="1079" d="M51 66l72 235q147 -47 240.5 -57.5t140.5 -10.5q53 0 90 15.5t37 56.5q0 23 -14.5 37t-38 23.5t-51 16.5t-54.5 15q-72 20 -140.5 42t-121.5 55.5t-86 86t-33 132.5q0 72 26.5 132t85 103t147.5 66.5t216 23.5q94 0 200.5 -19.5t199.5 -64.5q-2 -4 -13.5 -38.5t-25 -75.5 t-23.5 -76t-12 -39q-88 31 -166 43t-139 12q-45 0 -75 -13t-30 -52q0 -12 13.5 -22.5t35 -18.5t48 -15.5t53.5 -13.5q63 -14 133 -35.5t128 -60.5t96 -100.5t38 -155.5q0 -72 -29.5 -129.5t-92 -98t-162 -63t-240.5 -22.5q-43 0 -98.5 4t-116 14t-122 26.5t-116.5 41.5z M365 1227l344 360l182 -215l-402 -287z" />
<glyph unicode="&#x15c;" horiz-adv-x="1355" d="M70 92l92 281q84 -31 162.5 -48.5t144.5 -26.5t118 -11t83 -2q98 0 142 30.5t44 96.5q0 59 -47 86.5t-131 48.5q-113 29 -215.5 57.5t-179 75.5t-121.5 120.5t-45 190.5q0 98 32.5 181t103.5 143.5t182.5 94.5t269.5 34q117 0 247.5 -24.5t245.5 -84.5l-96 -270 q-106 41 -218 54.5t-192 13.5q-150 0 -149 -121q0 -29 20.5 -49.5t54 -36t79.5 -27.5t100 -25q70 -16 154.5 -41.5t158.5 -74.5t124 -132t50 -214q0 -96 -37 -177t-115.5 -138.5t-202.5 -89.5t-298 -32q-53 0 -122 6.5t-143.5 19.5t-151.5 35.5t-144 55.5zM279 1602l319 317 h233l326 -315l-90 -105l-354 191l-348 -191z" />
<glyph unicode="&#x15d;" horiz-adv-x="1079" d="M51 66l72 235q147 -47 240.5 -57.5t140.5 -10.5q53 0 90 15.5t37 56.5q0 23 -14.5 37t-38 23.5t-51 16.5t-54.5 15q-72 20 -140.5 42t-121.5 55.5t-86 86t-33 132.5q0 72 26.5 132t85 103t147.5 66.5t216 23.5q94 0 200.5 -19.5t199.5 -64.5q-2 -4 -13.5 -38.5t-25 -75.5 t-23.5 -76t-12 -39q-88 31 -166 43t-139 12q-45 0 -75 -13t-30 -52q0 -12 13.5 -22.5t35 -18.5t48 -15.5t53.5 -13.5q63 -14 133 -35.5t128 -60.5t96 -100.5t38 -155.5q0 -72 -29.5 -129.5t-92 -98t-162 -63t-240.5 -22.5q-43 0 -98.5 4t-116 14t-122 26.5t-116.5 41.5z M109 1186l321 332h234l325 -330l-92 -107l-352 199l-355 -197z" />
<glyph unicode="&#x15e;" horiz-adv-x="1355" d="M70 92l92 281q84 -31 162.5 -48.5t144.5 -26.5t118 -11t83 -2q98 0 142 30.5t44 96.5q0 59 -47 86.5t-131 48.5q-113 29 -215.5 57.5t-179 75.5t-121.5 120.5t-45 190.5q0 98 32.5 181t103.5 143.5t182.5 94.5t269.5 34q117 0 247.5 -24.5t245.5 -84.5l-96 -270 q-106 41 -218 54.5t-192 13.5q-150 0 -149 -121q0 -29 20.5 -49.5t54 -36t79.5 -27.5t100 -25q70 -16 154.5 -41.5t158.5 -74.5t124 -132t50 -214q0 -88 -30.5 -163t-95 -131.5t-167 -92t-243.5 -45.5q-16 -23 -36 -48.5t-36 -50.5q98 -10 155.5 -56t57.5 -124 q0 -47 -23.5 -91t-75 -78t-131 -54.5t-192.5 -22.5q0 31 -1 60.5t-1 58.5q104 10 156.5 39t52.5 70q0 37 -36 48t-71 11q-16 0 -30.5 -1t-24.5 -1l-41 65l129 170q-53 2 -118.5 9.5t-136.5 20.5t-141.5 34.5t-133.5 52.5z" />
<glyph unicode="&#x15f;" horiz-adv-x="1079" d="M51 66l72 235q147 -47 240.5 -57.5t140.5 -10.5q53 0 90 15.5t37 56.5q0 23 -14.5 37t-38 23.5t-51 16.5t-54.5 15q-72 20 -140.5 42t-121.5 55.5t-86 86t-33 132.5q0 72 26.5 132t85 103t147.5 66.5t216 23.5q94 0 200.5 -19.5t199.5 -64.5q-2 -4 -13.5 -38.5t-25 -75.5 t-23.5 -76t-12 -39q-88 31 -166 43t-139 12q-45 0 -75 -13t-30 -52q0 -12 13.5 -22.5t35 -18.5t48 -15.5t53.5 -13.5q63 -14 133 -35.5t128 -60.5t96 -100.5t38 -155.5q0 -127 -95 -209t-310 -98q-18 -25 -37 -49.5t-35 -49.5q98 -10 155.5 -56t57.5 -124q0 -47 -23.5 -91 t-75 -78t-131 -54.5t-192.5 -22.5q0 31 -1 60.5t-1 58.5q104 10 156.5 39t52.5 70q0 37 -36 48t-71 11q-16 0 -30.5 -1t-24.5 -1l-41 66l127 168q-43 2 -96 7t-108.5 15t-112 25.5t-105.5 38.5z" />
<glyph unicode="&#x160;" horiz-adv-x="1355" d="M70 92l92 281q84 -31 162.5 -48.5t144.5 -26.5t118 -11t83 -2q98 0 142 30.5t44 96.5q0 59 -47 86.5t-131 48.5q-113 29 -215.5 57.5t-179 75.5t-121.5 120.5t-45 190.5q0 98 32.5 181t103.5 143.5t182.5 94.5t269.5 34q117 0 247.5 -24.5t245.5 -84.5l-96 -270 q-106 41 -218 54.5t-192 13.5q-150 0 -149 -121q0 -29 20.5 -49.5t54 -36t79.5 -27.5t100 -25q70 -16 154.5 -41.5t158.5 -74.5t124 -132t50 -214q0 -96 -37 -177t-115.5 -138.5t-202.5 -89.5t-298 -32q-53 0 -122 6.5t-143.5 19.5t-151.5 35.5t-144 55.5zM240 1835l88 102 l348 -192l354 194l90 -106l-327 -313h-232z" />
<glyph unicode="&#x161;" horiz-adv-x="1079" d="M51 66l72 235q147 -47 240.5 -57.5t140.5 -10.5q53 0 90 15.5t37 56.5q0 23 -14.5 37t-38 23.5t-51 16.5t-54.5 15q-72 20 -140.5 42t-121.5 55.5t-86 86t-33 132.5q0 72 26.5 132t85 103t147.5 66.5t216 23.5q94 0 200.5 -19.5t199.5 -64.5q-2 -4 -13.5 -38.5t-25 -75.5 t-23.5 -76t-12 -39q-88 31 -166 43t-139 12q-45 0 -75 -13t-30 -52q0 -12 13.5 -22.5t35 -18.5t48 -15.5t53.5 -13.5q63 -14 133 -35.5t128 -60.5t96 -100.5t38 -155.5q0 -72 -29.5 -129.5t-92 -98t-162 -63t-240.5 -22.5q-43 0 -98.5 4t-116 14t-122 26.5t-116.5 41.5z M100 1454l82 100l355 -196l352 198l92 -104l-326 -332h-233z" />
<glyph unicode="&#x162;" horiz-adv-x="1327" d="M20 1130v283h1287v-283h-443v-1130h-401v1130h-443zM504 -236q0 61 48 106.5t126 45.5q47 0 81 -16.5t55.5 -42t31.5 -59.5t10 -68q0 -55 -23.5 -110.5t-60.5 -102.5t-84 -86t-98 -64l-84 105q47 35 75.5 72.5t32.5 84.5q-57 10 -83.5 46t-26.5 89z" />
<glyph unicode="&#x163;" horiz-adv-x="907" d="M23 766v213l165 49q8 23 19.5 57.5t24 71.5t23.5 72t19 57l273 23v-295h284v-248h-284v-348q0 -86 29.5 -117t103.5 -31q20 0 65.5 5.5t98.5 15.5l43 -252q-72 -31 -161 -45t-155 -14q-135 0 -216 30.5t-124 79.5t-57 109.5t-14 119.5v447h-137zM303 -236q0 61 48 106.5 t126 45.5q47 0 81 -16.5t55.5 -42t31.5 -59.5t10 -68q0 -55 -23.5 -110.5t-60 -102.5t-84 -86t-98.5 -64l-84 105q47 35 76 72.5t33 84.5q-57 10 -84 46t-27 89z" />
<glyph unicode="&#x164;" horiz-adv-x="1327" d="M20 1130v283h1287v-283h-443v-1130h-401v1130h-443zM221 1821l88 102l348 -192l355 194l90 -106l-328 -314h-231z" />
<glyph unicode="&#x165;" horiz-adv-x="1136" d="M23 766v213l165 49q8 23 19.5 57.5t24 71.5t23.5 72t19 57l273 23v-295h284v-248h-284v-348q0 -86 29.5 -117t103.5 -31q20 0 65.5 5.5t98.5 15.5l43 -252q-72 -31 -161 -45t-155 -14q-135 0 -216 30.5t-124 79.5t-57 109.5t-14 119.5v447h-137zM791 1419q0 61 48 106.5 t126 45.5q47 0 80.5 -16.5t55 -42t32 -59.5t10.5 -69q0 -55 -23.5 -110t-60.5 -102.5t-84 -86t-98 -63.5l-84 104q47 35 75.5 73t32.5 85q-57 10 -83.5 46t-26.5 89z" />
<glyph unicode="&#x166;" horiz-adv-x="1327" d="M20 1130v283h1287v-283h-443v-362h254v-162h-254v-606h-401v606h-262v162h262v362h-443z" />
<glyph unicode="&#x167;" horiz-adv-x="950" d="M25 772v203q43 10 84 23.5t81 25.5q23 66 45.5 130.5t45.5 129.5l262 21v-297h286v-236h-286v-115h266v-153h-266v-107q0 -90 41 -117.5t125 -21.5q23 2 57.5 6t75.5 12l43 -241q-72 -29 -158 -41t-152 -12q-125 0 -203.5 26.5t-123.5 71.5t-62.5 104.5t-19.5 126.5v193 h-125v153h125v115h-141z" />
<glyph unicode="&#x168;" horiz-adv-x="1523" d="M131 530v883h397v-901q0 -133 61.5 -191.5t178.5 -58.5q49 0 91 13.5t74 43t49 76.5t17 117l-2 901h396l-2 -883q0 -131 -36 -233t-113 -173t-195.5 -107.5t-282.5 -36.5q-172 0 -293 37.5t-195.5 108.5t-109.5 173t-35 231zM340 1618q43 121 103.5 169t131.5 48 q49 0 101.5 -12.5t103.5 -25.5t100.5 -25.5t92.5 -12.5l114 84l103 -82q-74 -223 -232 -223q-55 0 -112.5 12.5t-109.5 27.5t-98 27.5t-81 12.5l-113 -80z" />
<glyph unicode="&#x169;" horiz-adv-x="1230" d="M88 338v674h393v-594q0 -31 4 -56.5t15.5 -45t33 -31t56.5 -11.5q31 0 73 15.5t82 50.5v672h394v-1012h-359l-12 106l-12 5q-88 -74 -186.5 -104t-161.5 -30q-98 0 -161 26t-97.5 73t-48 113.5t-13.5 148.5zM193 1231q43 121 103 169t132 48q49 0 101.5 -12.5 t103.5 -25.5t100 -25.5t92 -12.5l115 84l102 -82q-73 -223 -231 -223q-55 0 -112.5 12.5t-109.5 27.5t-98.5 27.5t-80.5 12.5l-113 -80z" />
<glyph unicode="&#x16a;" horiz-adv-x="1523" d="M131 530v883h397v-901q0 -133 61.5 -191.5t178.5 -58.5q49 0 91 13.5t74 43t49 76.5t17 117l-2 901h396l-2 -883q0 -131 -36 -233t-113 -173t-195.5 -107.5t-282.5 -36.5q-172 0 -293 37.5t-195.5 108.5t-109.5 173t-35 231zM379 1532v231h770v-231h-770z" />
<glyph unicode="&#x16b;" horiz-adv-x="1230" d="M88 338v674h393v-594q0 -31 4 -56.5t15.5 -45t33 -31t56.5 -11.5q31 0 73 15.5t82 50.5v672h394v-1012h-359l-12 106l-12 5q-88 -74 -186.5 -104t-161.5 -30q-98 0 -161 26t-97.5 73t-48 113.5t-13.5 148.5zM217 1180v229h799v-229h-799z" />
<glyph unicode="&#x16c;" horiz-adv-x="1523" d="M131 530v883h397v-901q0 -133 61.5 -191.5t178.5 -58.5q49 0 91 13.5t74 43t49 76.5t17 117l-2 901h396l-2 -883q0 -131 -36 -233t-113 -173t-195.5 -107.5t-282.5 -36.5q-172 0 -293 37.5t-195.5 108.5t-109.5 173t-35 231zM346 1800l146 111q72 -98 149.5 -139 t130.5 -41q18 0 46 1t67 15t91 49t122 100l114 -102q-51 -84 -109.5 -140.5t-116.5 -91t-114.5 -50t-105.5 -15.5q-66 0 -125 24.5t-112.5 66.5t-99.5 96.5t-83 115.5z" />
<glyph unicode="&#x16d;" horiz-adv-x="1230" d="M88 338v674h393v-594q0 -31 4 -56.5t15.5 -45t33 -31t56.5 -11.5q31 0 73 15.5t82 50.5v672h394v-1012h-359l-12 106l-12 5q-88 -74 -186.5 -104t-161.5 -30q-98 0 -161 26t-97.5 73t-48 113.5t-13.5 148.5zM186 1417l146 111q72 -98 149.5 -139t130.5 -41q18 0 46 1 t67 15t91 49t122 100l115 -102q-51 -84 -109.5 -140.5t-117 -91t-115 -50t-105.5 -15.5q-66 0 -125 24.5t-112.5 66.5t-99.5 96.5t-83 115.5z" />
<glyph unicode="&#x16e;" horiz-adv-x="1523" d="M131 530v883h397v-901q0 -133 61.5 -191.5t178.5 -58.5q49 0 91 13.5t74 43t49 76.5t17 117l-2 901h396l-2 -883q0 -131 -36 -233t-113 -173t-195.5 -107.5t-282.5 -36.5q-172 0 -293 37.5t-195.5 108.5t-109.5 173t-35 231zM485 1731q0 55 21.5 104t60.5 86t89.5 58.5 t109.5 21.5t109.5 -21.5t86 -58.5t55 -86t19.5 -104q0 -57 -21.5 -106.5t-58 -85.5t-86 -56.5t-104.5 -20.5q-59 0 -109.5 21.5t-89.5 57.5t-60.5 85t-21.5 105zM653 1724q0 -41 30 -74.5t83 -33.5q49 0 76.5 33.5t27.5 74.5q0 47 -26.5 81t-77.5 34q-49 0 -81 -33.5 t-32 -81.5z" />
<glyph unicode="&#x16f;" horiz-adv-x="1230" d="M88 338v674h393v-594q0 -31 4 -56.5t15.5 -45t33 -31t56.5 -11.5q31 0 73 15.5t82 50.5v672h394v-1012h-359l-12 106l-12 5q-88 -74 -186.5 -104t-161.5 -30q-98 0 -161 26t-97.5 73t-48 113.5t-13.5 148.5zM348 1386q0 55 21.5 104.5t60.5 86.5t89 58.5t110 21.5 q59 0 109 -21.5t86 -58.5t55.5 -86t19.5 -105q0 -57 -21.5 -106t-58.5 -85t-86 -56.5t-104 -20.5q-59 0 -109.5 21.5t-89.5 57.5t-60.5 85t-21.5 104zM516 1380q0 -41 29.5 -74.5t83.5 -33.5q49 0 76.5 33.5t27.5 74.5q0 47 -26.5 81t-77.5 34q-49 0 -81 -34t-32 -81z" />
<glyph unicode="&#x170;" horiz-adv-x="1523" d="M131 530v883h397v-901q0 -133 61.5 -191.5t178.5 -58.5q49 0 91 13.5t74 43t49 76.5t17 117l-2 901h396l-2 -883q0 -131 -36 -233t-113 -173t-195.5 -107.5t-282.5 -36.5q-172 0 -293 37.5t-195.5 108.5t-109.5 173t-35 231zM440 1630l287 410l211 -170l-363 -348z M815 1630l285 410l213 -170l-363 -348z" />
<glyph unicode="&#x171;" horiz-adv-x="1230" d="M88 338v674h393v-594q0 -31 4 -56.5t15.5 -45t33 -31t56.5 -11.5q31 0 73 15.5t82 50.5v672h394v-1012h-359l-12 106l-12 5q-88 -74 -186.5 -104t-161.5 -30q-98 0 -161 26t-97.5 73t-48 113.5t-13.5 148.5zM262 1190l287 409l209 -167l-363 -351zM639 1190l285 409 l211 -167l-365 -351z" />
<glyph unicode="&#x172;" horiz-adv-x="1523" d="M131 530v883h397v-901q0 -133 61.5 -191.5t178.5 -58.5q49 0 91 13.5t74 43t49 76.5t17 117l-2 901h396l-2 -883q0 -127 -34 -227t-106.5 -171t-183.5 -109.5t-264 -42.5q-31 -59 -45.5 -118t-14.5 -102q0 -88 97 -88q43 0 74.5 7.5t70.5 17.5l33 -117 q-66 -35 -134.5 -52t-133.5 -17q-117 0 -177.5 48t-60.5 134q0 53 26.5 130t104.5 163q-139 12 -236.5 55t-159 112.5t-89 165t-27.5 211.5z" />
<glyph unicode="&#x173;" horiz-adv-x="1230" d="M88 338v674h393v-594q0 -31 4 -56.5t15.5 -45t33 -31t56.5 -11.5q31 0 73 15.5t82 50.5v672h394v-1012h-213q-29 -57 -42.5 -113.5t-13.5 -97.5q0 -88 97 -88q43 0 74.5 7t70.5 18l33 -117q-66 -35 -134.5 -52.5t-133.5 -17.5q-117 0 -177.5 48t-60.5 134q0 55 26.5 134 t110.5 165l-8 86l-12 5q-88 -74 -186.5 -104t-161.5 -30q-98 0 -161 26t-97.5 73t-48 113.5t-13.5 148.5z" />
<glyph unicode="&#x174;" horiz-adv-x="2103" d="M14 1413h430q4 -23 14.5 -72t23 -111.5t26.5 -132t26.5 -132t21.5 -110.5t15 -71q6 -35 12.5 -78.5t13.5 -91t14 -92.5t14 -80h14q6 35 13 78t13.5 89t13.5 89t13 78q6 25 16.5 75t23.5 112.5t27.5 132t27 132t22.5 112t16 73.5h439q4 -10 14 -58t25.5 -114.5t33 -142.5 t31.5 -141.5t25.5 -112.5t13.5 -56q0 -2 4 -27.5t11.5 -61t14.5 -78.5t13 -81t11 -64.5t7 -33.5h17q6 37 13 83t13.5 93.5t13.5 92.5t13 82q4 23 13.5 70.5t21.5 109t25.5 130t25.5 130t21.5 110t15.5 70.5h428q-10 -41 -35.5 -151.5t-59.5 -256t-73 -308t-72.5 -306 t-59.5 -250t-34 -141.5h-508q-10 35 -26.5 108.5t-35 155.5t-35.5 157t-28 111q-2 8 -7 38t-12 70t-15.5 86t-15.5 87t-12 70.5t-7 38.5l-17 2q-8 -43 -16 -93.5t-16.5 -102.5t-15.5 -103.5t-15 -92.5l-113 -532h-510zM604 1622l320 317h233l326 -315l-90 -104l-355 190 l-348 -190z" />
<glyph unicode="&#x175;" horiz-adv-x="1839" d="M43 1012h385l90 -424l49 -301h11l55 307l100 418h371l104 -424l58 -297h14l47 297l90 424h379l-254 -1012h-469l-96 403l-55 304h-15l-51 -301l-88 -406h-467zM473 1186l322 332h233l326 -330l-92 -107l-353 199l-354 -197z" />
<glyph unicode="&#x176;" horiz-adv-x="1427" d="M12 1411h422q41 -90 82 -178t80 -178l109 -279h16q29 63 57.5 145.5t57.5 145.5q41 86 80.5 172t80.5 172h414q-121 -225 -239.5 -453.5t-239.5 -453.5v-504h-436v471zM279 1602l319 317h233l326 -315l-90 -105l-354 191l-348 -191z" />
<glyph unicode="&#x177;" horiz-adv-x="1220" d="M23 1012h387q6 -18 16 -58.5t22.5 -90.5t26.5 -106.5t27.5 -106.5t24 -91t16.5 -61q14 -59 25.5 -133t21.5 -121h16q10 43 26.5 118.5t33.5 143.5q8 31 27.5 102.5t41 150.5t41 150.5t29.5 102.5h399q-12 -37 -44 -131.5t-72.5 -216t-88 -258t-88.5 -258t-73.5 -215 t-44.5 -130.5q-47 -133 -143.5 -192.5t-229.5 -59.5q-59 0 -131 9.5t-164 33.5l51 256q49 -6 78 -11t55 -5q39 0 65.5 5t46 18.5t33 35t23.5 54.5l27 90h-170q-10 33 -35 108.5t-55.5 173t-65.5 206t-66.5 206.5t-55 173t-33.5 108zM176 1186l322 332h233l326 -330l-92 -107 l-353 199l-354 -197z" />
<glyph unicode="&#x178;" horiz-adv-x="1427" d="M12 1411h422q41 -90 82 -178t80 -178l109 -279h16q29 63 57.5 145.5t57.5 145.5q41 86 80.5 172t80.5 172h414q-121 -225 -239.5 -453.5t-239.5 -453.5v-504h-436v471zM287 1630q0 70 41 114t133 44q96 0 141 -44t45 -114q0 -66 -45 -111.5t-141 -45.5q-92 0 -133 46 t-41 111zM760 1630q0 70 43 114t133 44q96 0 139 -44t43 -114q0 -66 -43 -111.5t-139 -45.5q-92 0 -134 46t-42 111z" />
<glyph unicode="&#x179;" horiz-adv-x="1316" d="M31 0v256l663 864l-6 17h-600v276h1165v-246l-678 -874l7 -12h706v-281h-1257zM559 1620l342 360l180 -202l-407 -287z" />
<glyph unicode="&#x17a;" horiz-adv-x="1046" d="M18 0v203l465 538l-4 15h-420l2 258h940v-199l-471 -545l7 -14h493v-256h-1012zM362 1227l345 360l182 -215l-402 -287z" />
<glyph unicode="&#x17b;" horiz-adv-x="1316" d="M31 0v256l663 864l-6 17h-600v276h1165v-246l-678 -874l7 -12h706v-281h-1257zM504 1735q0 86 49 139t158 53q111 0 163 -53t52 -139q0 -80 -52.5 -134.5t-162.5 -54.5q-109 0 -158 54.5t-49 134.5z" />
<glyph unicode="&#x17c;" horiz-adv-x="1046" d="M18 0v203l465 538l-4 15h-420l2 258h940v-199l-471 -545l7 -14h493v-256h-1012zM338 1348q0 86 49 139t158 53q111 0 163 -53t52 -139q0 -80 -52.5 -134.5t-162.5 -54.5q-109 0 -158 54.5t-49 134.5z" />
<glyph unicode="&#x17d;" horiz-adv-x="1316" d="M31 0v256l663 864l-6 17h-600v276h1165v-246l-678 -874l7 -12h706v-281h-1257zM299 1835l88 102l348 -192l355 194l90 -106l-328 -313h-231z" />
<glyph unicode="&#x17e;" horiz-adv-x="1046" d="M18 0v203l465 538l-4 15h-420l2 258h940v-199l-471 -545l7 -14h493v-256h-1012zM111 1446l82 100l354 -196l352 198l92 -104l-325 -332h-234z" />
<glyph unicode="&#x192;" d="M27 -188l67 254q51 -10 80 -13.5t57 -3.5q78 0 117 43t58 154q6 43 12 89t12 91t11 87t10 75h-164v237l186 4l14 97q10 76 33 159.5t71 153.5t130 116t215 46q59 0 139 -7.5t160 -33.5l-68 -254q-51 10 -79.5 13t-59.5 3q-78 0 -117 -41t-53 -153l-12 -103h201v-237h-224 q-4 -31 -9 -77t-11 -95t-13.5 -97.5t-13.5 -85.5q-10 -74 -32.5 -155.5t-71.5 -150t-132 -113.5t-214 -45q-57 0 -138.5 8t-160.5 35z" />
<glyph unicode="&#x1a0;" horiz-adv-x="1691" d="M88 709q0 156 43 290t130 232t221 154.5t317 56.5q166 0 289.5 -46t209.5 -130h33q61 0 94 31.5t33 113.5v154h217v-181q0 -51 -10 -105t-36.5 -98t-73 -74t-119.5 -34q69 -157 69 -362q0 -158 -45 -292t-133 -232.5t-221 -154t-307 -55.5q-180 0 -314.5 53.5t-222.5 151 t-131 231.5t-43 296zM516 707q0 -104 13.5 -187.5t46 -139.5t87 -87t136.5 -31q78 0 130 33t85 91t46 141.5t13 181.5q0 90 -11 172t-42 143t-84 98t-137 37q-86 0 -141.5 -37t-86 -100.5t-43 -145t-12.5 -169.5z" />
<glyph unicode="&#x1a1;" horiz-adv-x="1404" d="M76 504q0 111 31.5 208t100 168.5t176.5 112.5t259 41q147 0 252.5 -44t175.5 -118h16q86 6 87 146v153h221v-178q0 -117 -48.5 -197.5t-170.5 -109.5q24 -84 24 -180q0 -111 -33.5 -207t-102.5 -167t-175.5 -111.5t-251.5 -40.5q-152 0 -258.5 39.5t-174 110.5t-98 166 t-30.5 208zM479 506q0 -121 32 -190.5t130 -69.5q47 0 77 19.5t47 53t24.5 82t7.5 105.5q0 55 -7.5 102t-24.5 83t-47 55.5t-77 19.5t-79 -21.5t-50 -57.5t-25.5 -83t-7.5 -98z" />
<glyph unicode="&#x1af;" horiz-adv-x="1771" d="M131 530v883h397v-901q0 -133 61.5 -191.5t178.5 -58.5q49 0 91 13.5t74 43t49 76.5t17 117l-2 901h396v-180h39q61 0 96 26.5t35 108.5v176h219v-198q0 -55 -12.5 -110.5t-45 -100.5t-88 -73t-143.5 -28h-102v-504q0 -131 -36 -233t-113 -173t-195.5 -107.5 t-282.5 -36.5q-172 0 -293 37.5t-195.5 108.5t-109.5 173t-35 231z" />
<glyph unicode="&#x1b0;" horiz-adv-x="1501" d="M90 338v676h393v-594q0 -37 3 -64.5t14.5 -45t33 -26t56.5 -8.5q33 0 75 15.5t83 50.5v672h391v-131h16q59 0 87 29.5t28 109.5v158h221v-179q0 -57 -12.5 -113.5t-45 -100.5t-89 -71.5t-144.5 -27.5h-61v-688h-359l-8 109l-14 4q-88 -74 -186.5 -105t-163.5 -31 q-98 0 -160 26t-96.5 73t-48 113.5t-13.5 148.5z" />
<glyph unicode="&#x1fc;" horiz-adv-x="2277" d="M14 0q37 61 105.5 173t153.5 248t177.5 285.5t177.5 285.5t153.5 248t107.5 173h1245v-274h-608v-277h506v-260h-506v-326h628v-276h-1032v330h-477q-70 -115 -115 -191t-84 -139h-432zM795 592h325v541h-12q-25 -47 -67 -122t-87 -149zM1217 1647l342 360l180 -203 l-408 -286z" />
<glyph unicode="&#x1fd;" horiz-adv-x="1767" d="M55 274q0 43 12.5 99.5t52.5 106.5t112.5 85t193.5 35h293v27q0 72 -41 102.5t-137 30.5q-94 0 -181.5 -13.5t-150.5 -33.5q-16 59 -30.5 117.5t-31.5 117.5q84 35 194 57.5t216 26.5q37 0 87 -2t102.5 -14t99.5 -38t78 -71q53 53 132 91t179 38q145 0 236.5 -47 t143.5 -119.5t70.5 -162t18.5 -172.5v-89h-608q4 -98 53 -144t160 -46q72 0 149.5 16.5t151.5 38.5q16 -57 35.5 -113.5t35.5 -115.5q-106 -59 -224 -79.5t-220 -20.5q-160 0 -252 34.5t-151 106.5q-55 -47 -112.5 -76t-113 -45t-105.5 -21.5t-93 -5.5q-109 0 -177.5 31 t-108.5 76t-54.5 97t-14.5 95zM455 328q0 -59 29.5 -86t82.5 -27q29 0 81 16.5t91 51.5q-12 39 -17 76.5t-7 82.5h-70q-39 0 -73.5 -4t-60.5 -16t-41 -34.5t-15 -59.5zM791 1227l344 360l182 -215l-402 -287zM1102 602h260q0 76 -23.5 124t-99.5 48q-39 0 -63.5 -14.5 t-40 -38t-23.5 -55t-10 -64.5z" />
<glyph unicode="&#x1fe;" horiz-adv-x="1593" d="M88 709q0 156 43 290t130 232t221 154.5t317 56.5q141 0 249.5 -34t192.5 -93l111 129h166l-185 -211q86 -98 129 -233t43 -289q0 -158 -45 -292t-133 -232.5t-221 -154t-307 -55.5q-141 0 -253 34t-198 95l-106 -124h-146l168 196q-90 98 -133 232.5t-43 298.5zM516 707 q0 -133 27 -215l463 557q-31 51 -83.5 80.5t-123.5 29.5q-86 0 -141.5 -37t-86 -100.5t-43 -145t-12.5 -169.5zM584 365q35 -51 86 -77t129 -26t130 33t85 91t46 141.5t13 181.5q0 53 -6 107t-23 102zM690 1624l342 361l180 -203l-407 -287z" />
<glyph unicode="&#x1ff;" horiz-adv-x="1249" d="M63 506q0 113 31 209t98.5 166.5t175 111.5t259.5 41q113 0 199.5 -23.5t152.5 -64.5q2 4 14.5 16.5t24.5 25.5t23.5 25.5t13.5 16.5h129q-4 -6 -23.5 -26.5t-42 -43t-42 -43t-23.5 -26.5q70 -72 101.5 -170t31.5 -213q0 -111 -31 -208t-98.5 -168t-175 -111.5 t-260.5 -40.5q-113 0 -200 21.5t-151 61.5l-69 -77h-129q4 4 22.5 23.5t40 42t40 42t22.5 25.5q-72 72 -103 171t-31 216zM465 508q0 -20 3 -54t9 -51q16 23 53 65t78 87t78 87t53 65q-34 57 -112 57q-47 0 -79 -20.5t-50.5 -56.5t-25.5 -82t-7 -97zM502 1227l344 360 l182 -215l-401 -287zM506 299q37 -53 121 -53q47 0 76.5 19.5t47 53t24.5 82t7 105.5q0 20 -2 49t-12 47q-16 -23 -53 -64.5t-78 -86.5t-78 -87t-53 -65z" />
<glyph unicode="&#x218;" horiz-adv-x="1355" d="M70 92l92 281q84 -31 162.5 -48.5t144.5 -26.5t118 -11t83 -2q98 0 142 30.5t44 96.5q0 59 -47 86.5t-131 48.5q-113 29 -215.5 57.5t-179 75.5t-121.5 120.5t-45 190.5q0 98 32.5 181t103.5 143.5t182.5 94.5t269.5 34q117 0 247.5 -24.5t245.5 -84.5l-96 -270 q-106 41 -218 54.5t-192 13.5q-150 0 -149 -121q0 -29 20.5 -49.5t54 -36t79.5 -27.5t100 -25q70 -16 154.5 -41.5t158.5 -74.5t124 -132t50 -214q0 -96 -37 -177t-115.5 -138.5t-202.5 -89.5t-298 -32q-53 0 -122 6.5t-143.5 19.5t-151.5 35.5t-144 55.5zM502 -236 q0 61 48 106.5t126 45.5q47 0 81 -16.5t55.5 -42t31.5 -59.5t10 -68q0 -55 -23.5 -110.5t-60.5 -102.5t-84 -86t-98 -64l-84 105q47 35 75.5 72.5t32.5 84.5q-57 10 -83.5 46t-26.5 89z" />
<glyph unicode="&#x219;" horiz-adv-x="1079" d="M51 66l72 235q147 -47 240.5 -57.5t140.5 -10.5q53 0 90 15.5t37 56.5q0 23 -14.5 37t-38 23.5t-51 16.5t-54.5 15q-72 20 -140.5 42t-121.5 55.5t-86 86t-33 132.5q0 72 26.5 132t85 103t147.5 66.5t216 23.5q94 0 200.5 -19.5t199.5 -64.5q-2 -4 -13.5 -38.5t-25 -75.5 t-23.5 -76t-12 -39q-88 31 -166 43t-139 12q-45 0 -75 -13t-30 -52q0 -12 13.5 -22.5t35 -18.5t48 -15.5t53.5 -13.5q63 -14 133 -35.5t128 -60.5t96 -100.5t38 -155.5q0 -72 -29.5 -129.5t-92 -98t-162 -63t-240.5 -22.5q-43 0 -98.5 4t-116 14t-122 26.5t-116.5 41.5z M360 -236q0 61 48.5 106.5t126.5 45.5q47 0 80.5 -16.5t55 -42t32 -59.5t10.5 -68q0 -55 -23.5 -110.5t-60.5 -102.5t-84 -86t-99 -64l-84 105q47 35 76 72.5t33 84.5q-57 10 -84 46t-27 89z" />
<glyph unicode="&#x2c6;" horiz-adv-x="1224" d="M176 1186l322 332h233l326 -330l-92 -107l-353 199l-354 -197z" />
<glyph unicode="&#x2c7;" horiz-adv-x="1224" d="M176 1446l82 100l354 -196l353 198l92 -104l-326 -332h-233z" />
<glyph unicode="&#x2d8;" horiz-adv-x="1247" d="M201 1417l145 111q72 -98 149.5 -139t131.5 -41q18 0 45.5 1t66.5 15t91.5 49t121.5 100l115 -102q-51 -84 -109.5 -140.5t-117 -91t-114.5 -50t-105 -15.5q-66 0 -125.5 24.5t-112.5 66.5t-99 96.5t-83 115.5z" />
<glyph unicode="&#x2d9;" horiz-adv-x="1234" d="M428 1348q0 86 49 139t158 53q111 0 163 -53t52 -139q0 -80 -52.5 -134.5t-162.5 -54.5q-109 0 -158 54.5t-49 134.5z" />
<glyph unicode="&#x2da;" horiz-adv-x="1234" d="M356 1386q0 55 21.5 104.5t60.5 86.5t89.5 58.5t109.5 21.5t109.5 -21.5t86 -58.5t55 -86t19.5 -105q0 -57 -21.5 -106t-58 -85t-86 -56.5t-104.5 -20.5q-59 0 -109.5 21.5t-89.5 57.5t-60.5 85t-21.5 104zM524 1380q0 -41 30 -74.5t83 -33.5q49 0 76.5 33.5t27.5 74.5 q0 47 -26.5 81t-77.5 34q-49 0 -81 -34t-32 -81z" />
<glyph unicode="&#x2db;" horiz-adv-x="1249" d="M610 -319q0 37 11.5 84t41 100t83 111.5t137.5 113.5l63 -53q-53 -70 -78.5 -152t-25.5 -137q0 -88 96 -88q43 0 74.5 7t70.5 18l33 -117q-66 -35 -134.5 -52.5t-133.5 -17.5q-117 0 -177.5 48t-60.5 135z" />
<glyph unicode="&#x2dc;" horiz-adv-x="1224" d="M203 1219q43 121 103.5 169t131.5 48q49 0 101.5 -12.5t103.5 -26t100.5 -25.5t92.5 -12l114 84l103 -82q-74 -223 -232 -223q-55 0 -112.5 12t-109.5 27.5t-98 28t-81 12.5l-113 -80z" />
<glyph unicode="&#x2dd;" horiz-adv-x="1234" d="M231 1190l287 409l209 -167l-362 -351zM608 1190l285 409l211 -167l-365 -351z" />
<glyph unicode="&#x3a9;" horiz-adv-x="1617" d="M45 0v260h186l9 16q-80 72 -109 192t-29 263q0 154 44 284t133.5 225t221.5 149.5t308 54.5t309 -53.5t223.5 -146.5t135.5 -222t45 -281q0 -135 -35 -261t-115 -208q4 -8 8 -12h183v-260h-670v262q55 16 93 50t61.5 89.5t35 134t11.5 185.5q0 213 -63.5 323.5 t-215.5 110.5q-147 0 -217 -113.5t-70 -318.5q0 -209 43 -318.5t148 -140.5v-264h-674z" />
<glyph unicode="&#x3c0;" horiz-adv-x="1257" d="M90 0v1010h1077v-105v-181t-1 -219t-1 -219.5v-181v-104.5h-393v764h-295v-764h-387z" />
<glyph unicode="&#x401;" horiz-adv-x="1310" d="M135 0v1413h1061v-274h-653v-269h547v-270h-547v-321h680v-279h-1088zM268 1634q0 70 41 114t133 44q96 0 141.5 -44t45.5 -114q0 -66 -45 -111.5t-142 -45.5q-92 0 -133 46t-41 111zM741 1634q0 70 43 114t134 44q96 0 139 -44t43 -114q0 -66 -43 -111.5t-139 -45.5 q-92 0 -134.5 46t-42.5 111z" />
<glyph unicode="&#x402;" horiz-adv-x="1871" d="M57 1130v283h1397v-283h-551v-292q84 27 174 40t176 13q106 0 201.5 -26.5t167.5 -82t113 -142.5t41 -208q0 -127 -43 -237.5t-108.5 -200.5t-146.5 -158.5t-155 -111.5l-176 204q86 82 144.5 186.5t58.5 250.5q0 135 -62.5 192t-161.5 57q-49 0 -107 -10t-116 -31v-573 h-403l2 1130h-445z" />
<glyph unicode="&#x403;" horiz-adv-x="1269" d="M150 0v1413h1064v-276h-661v-1137h-403zM508 1649l342 360l180 -203l-407 -286z" />
<glyph unicode="&#x404;" horiz-adv-x="1339" d="M92 696q0 133 34 267.5t117 241t225 173t361 66.5q102 0 200.5 -16.5t191.5 -43.5q-4 -14 -10.5 -55t-14.5 -89t-15 -89t-12 -55q-78 16 -151.5 24t-134.5 8q-137 0 -230.5 -62t-115.5 -204q31 0 93 1t130.5 2t132 3t96.5 2v-276q-33 0 -96.5 1t-134 2t-134 3t-96.5 2 q16 -168 106.5 -237.5t262.5 -69.5q23 0 62.5 3t86 8t93.5 13.5t86 18.5q2 -14 10 -54t18.5 -86t18.5 -86t12 -55q-51 -18 -110.5 -33.5t-123 -24.5t-127 -14t-120.5 -5q-213 0 -351.5 58t-218 156.5t-110.5 228.5t-31 273z" />
<glyph unicode="&#x405;" horiz-adv-x="1355" d="M70 92l92 281q84 -31 162.5 -48.5t144.5 -26.5t118 -11t83 -2q98 0 142 30.5t44 96.5q0 59 -47 86.5t-131 48.5q-113 29 -215.5 57.5t-179 75.5t-121.5 120.5t-45 190.5q0 98 32.5 181t103.5 143.5t182.5 94.5t269.5 34q117 0 247.5 -24.5t245.5 -84.5l-96 -270 q-106 41 -218 54.5t-192 13.5q-150 0 -149 -121q0 -29 20.5 -49.5t54 -36t79.5 -27.5t100 -25q70 -16 154.5 -41.5t158.5 -74.5t124 -132t50 -214q0 -96 -37 -177t-115.5 -138.5t-202.5 -89.5t-298 -32q-53 0 -122 6.5t-143.5 19.5t-151.5 35.5t-144 55.5z" />
<glyph unicode="&#x406;" horiz-adv-x="702" d="M150 0v1413h401v-1413h-401z" />
<glyph unicode="&#x407;" horiz-adv-x="702" d="M-70 1642q0 70 41 114t133 44q96 0 141.5 -44t45.5 -114q0 -66 -45 -111.5t-142 -45.5q-92 0 -133 46t-41 111zM150 0v1413h401v-1413h-401zM403 1642q0 70 43 114t134 44q96 0 139 -44t43 -114q0 -66 -43 -111.5t-139 -45.5q-92 0 -134.5 46t-42.5 111z" />
<glyph unicode="&#x408;" horiz-adv-x="839" d="M-111 -139q117 59 190 111.5t113.5 109.5t55 125.5t14.5 161.5l2 1046h402v-1073q0 -317 -173.5 -504.5t-512.5 -249.5z" />
<glyph unicode="&#x409;" horiz-adv-x="2246" d="M35 201q113 45 174 100t91 140t40 208t22 307l29 457h979l-2 -528h270q104 0 199.5 -24.5t167.5 -77t115 -135.5t43 -202q0 -100 -34 -183t-96.5 -141.5t-151.5 -90t-200 -31.5h-716v1145h-228l-8 -125q-16 -240 -35.5 -425t-77 -320.5t-169 -222.5t-310.5 -130z M1368 272h199q68 0 119 42t51 135q0 88 -53.5 128.5t-124.5 40.5h-191v-346z" />
<glyph unicode="&#x40a;" horiz-adv-x="2195" d="M137 0v1413h402v-530h374v530h408v-528h270q104 0 198.5 -24.5t167.5 -77t115 -135.5t42 -202q0 -100 -33 -183t-95.5 -141.5t-151.5 -90t-202 -31.5h-719v618h-374v-618h-402zM1321 272h199q68 0 120 42t52 135q0 88 -54.5 128.5t-126.5 40.5h-190v-346z" />
<glyph unicode="&#x40b;" horiz-adv-x="1804" d="M27 1130v283h1359v-283h-534v-276q82 25 176 39t180 14q98 0 186.5 -19.5t155 -63.5t106.5 -115.5t40 -178.5v-530h-406v477q0 86 -56 120t-136 34q-68 0 -134.5 -15.5t-113.5 -37.5v-578h-404v1130h-419z" />
<glyph unicode="&#x40c;" horiz-adv-x="1447" d="M135 0v1409h397v-530h119q33 0 65 6t59.5 24.5t50 52t36.5 87.5l96 358h394l-113 -420q-23 -78 -71 -144.5t-115 -94.5v-13q53 -16 89 -42.5t60.5 -58.5t41 -70t28.5 -79l135 -485h-410l-116 422q-23 88 -75 129t-142 41h-132v-592h-397zM592 1642l342 361l180 -203 l-407 -287z" />
<glyph unicode="&#x40e;" horiz-adv-x="1439" d="M27 1413h401l176 -455l115 -327h14l115 327l170 455h395l-502 -1212q-53 -131 -140 -185.5t-210 -54.5q-66 0 -144.5 9.5t-178.5 37.5l53 256q66 -12 103.5 -16t66.5 -4q35 0 57.5 12t38.5 53l29 72h-86zM315 1772l140 110q68 -92 147.5 -135t132.5 -43q18 0 47 3 t70 19.5t92 49t117 94.5l98 -98q-51 -84 -106.5 -139.5t-111.5 -89.5t-110.5 -48t-103.5 -14q-66 0 -123 22.5t-108.5 62.5t-96.5 92t-84 114z" />
<glyph unicode="&#x40f;" horiz-adv-x="1574" d="M137 0v1413h402v-1137h493l-2 1137h408v-1413h-484v-399h-319v399h-498z" />
<glyph unicode="&#x410;" horiz-adv-x="1499" d="M14 0l494 1413h508l469 -1413h-414l-86 289h-483l-90 -289h-398zM586 551h323l-84 297l-67 293h-13l-75 -303z" />
<glyph unicode="&#x411;" horiz-adv-x="1411" d="M121 0v1413h1061v-270h-654v-258h271q106 0 200.5 -23.5t166 -75t113.5 -134.5t42 -201q0 -100 -33 -183.5t-95.5 -142.5t-151.5 -92t-201 -33h-719zM528 272h201q66 0 117 44t51 137q0 88 -51 126.5t-127 38.5h-191v-346z" />
<glyph unicode="&#x412;" horiz-adv-x="1425" d="M135 0v1413h701q115 0 199.5 -28.5t141 -80t84 -123t27.5 -157.5q0 -27 -7 -64.5t-27.5 -76.5t-54.5 -75t-89 -58v-13q72 -23 115 -62.5t66.5 -86.5t30.5 -93t7 -77q0 -96 -34.5 -173t-98 -131.5t-154 -84t-200.5 -29.5h-707zM539 279h198q90 0 131 45t41 116 q0 68 -42 114t-130 46h-198v-321zM539 850h176q78 0 118.5 36t40.5 103q0 68 -37.5 108t-121.5 40h-176v-287z" />
<glyph unicode="&#x413;" horiz-adv-x="1269" d="M150 0v1413h1064v-276h-661v-1137h-403z" />
<glyph unicode="&#x414;" horiz-adv-x="1640" d="M27 270l145 6q63 70 103 157t65 188.5t37 216t22 243.5l25 332h1006v-1137l149 -6v-645h-309v375h-934v-375h-309v645zM573 276h457v867h-266l-10 -121q-12 -135 -23.5 -244.5t-30 -200t-48 -164t-79.5 -137.5z" />
<glyph unicode="&#x415;" horiz-adv-x="1310" d="M135 0v1413h1061v-274h-653v-269h547v-270h-547v-321h680v-279h-1088z" />
<glyph unicode="&#x416;" horiz-adv-x="2174" d="M47 0q6 20 17.5 58t23.5 85t26.5 98.5t28 98.5t23.5 85t16 60q25 82 71 148.5t153 101.5v8q-78 35 -122 97.5t-65 132.5l-119 434h392q6 -23 20 -73t29.5 -106.5t30 -106.5t20.5 -72q14 -53 36.5 -87t50.5 -52.5t58.5 -24.5t65.5 -6h86v530h397v-530h86q33 0 64.5 6 t59.5 24.5t49.5 52t37.5 87.5q6 23 19.5 72.5t29 106t29.5 106.5t20 73h390q-6 -27 -21.5 -85t-34 -125t-35 -125t-22.5 -85q-23 -78 -71 -144.5t-115 -94.5v-13q53 -18 89.5 -45.5t62.5 -60.5t41 -70t26 -74l135 -485h-408l-114 422q-27 100 -88.5 135t-133.5 35h-96v-592 h-397v592h-96q-72 0 -132.5 -35t-89.5 -135q-2 -6 -11 -38t-21.5 -77t-25.5 -96t-25.5 -96t-21.5 -77t-11 -38h-408z" />
<glyph unicode="&#x417;" horiz-adv-x="1333" d="M47 80q23 66 42.5 130t39.5 128q115 -35 212 -50.5t183 -15.5q145 0 212 49.5t67 141.5q0 76 -57.5 113.5t-153.5 37.5h-186v244h159q49 0 86 14.5t61.5 37t37 49t12.5 53.5q0 70 -52.5 104.5t-174.5 34.5q-43 0 -92.5 -4t-97.5 -11.5t-92 -17.5t-77 -20 q-14 66 -28.5 128t-30.5 126q49 18 110.5 34.5t129 30t139 20.5t143.5 7q109 0 208 -18.5t175 -62.5t121 -115.5t45 -178.5q0 -39 -10.5 -81t-34 -82t-58 -75.5t-84.5 -62.5q2 0 3 -4q61 -23 103 -57.5t69.5 -76.5t40 -88t12.5 -91q0 -113 -47 -200t-132 -146.5t-204 -90 t-260 -30.5q-41 0 -106.5 4t-140.5 14t-151.5 28.5t-140.5 49.5z" />
<glyph unicode="&#x418;" horiz-adv-x="1589" d="M135 0v1411h402q0 -213 -1 -425t-1 -427h8q20 33 53 85t70 116l391 651h393v-1411h-395v821h-11l-319 -520l-188 -301h-402z" />
<glyph unicode="&#x419;" horiz-adv-x="1589" d="M135 0v1411h402q0 -213 -1 -425t-1 -427h8q20 33 53 85t70 116l391 651h393v-1411h-395v821h-11l-319 -520l-188 -301h-402zM346 1835l146 111q72 -98 149.5 -139.5t130.5 -41.5q18 0 46 1t67 15.5t91 49.5t122 100l114 -102q-51 -84 -109.5 -140.5t-116.5 -91 t-114.5 -50t-105.5 -15.5q-66 0 -125 24.5t-112.5 66.5t-99.5 96.5t-83 115.5z" />
<glyph unicode="&#x41a;" horiz-adv-x="1447" d="M135 0v1409h397v-530h119q33 0 65 6t59.5 24.5t50 52t36.5 87.5l96 358h394l-113 -420q-23 -78 -71 -144.5t-115 -94.5v-13q53 -16 89 -42.5t60.5 -58.5t41 -70t28.5 -79l135 -485h-410l-116 422q-23 88 -75 129t-142 41h-132v-592h-397z" />
<glyph unicode="&#x41b;" horiz-adv-x="1542" d="M35 201q113 45 173 98t90 135t40 206t22 312l31 461h1016v-1413h-401l-2 1139h-265l-6 -119q-12 -240 -33.5 -425t-83 -320.5t-177 -222.5t-314.5 -130z" />
<glyph unicode="&#x41c;" horiz-adv-x="1935" d="M137 0v1413h510l191 -506l116 -325h19l131 346l196 485h496v-1413h-393v829h-8l-129 -325l-150 -361h-315l-150 379l-116 309h-9v-831h-389z" />
<glyph unicode="&#x41d;" horiz-adv-x="1546" d="M135 0v1411h406q0 -135 -1 -268t-1 -269h460v537h408v-1411h-408v594h-460q0 -150 1 -298.5t1 -295.5h-406z" />
<glyph unicode="&#x41e;" horiz-adv-x="1605" d="M96 709q0 156 42 290t130 232t221.5 154.5t315.5 56.5t315 -56.5t220 -154.5t129 -232t42 -288q0 -158 -45 -292t-133 -232.5t-221 -154t-307 -55.5q-180 0 -313.5 53.5t-221.5 151t-131 231.5t-43 296zM522 707q0 -104 13.5 -187.5t46 -139.5t87 -87t136.5 -31 q78 0 130 33t85 91t46 141.5t13 181.5q0 90 -11 172t-42 143t-84 98t-137 37q-86 0 -141.5 -37t-86 -100.5t-43 -145t-12.5 -169.5z" />
<glyph unicode="&#x41f;" horiz-adv-x="1601" d="M164 0v1413h1274v-1413h-408v1133h-463l2 -1133h-405z" />
<glyph unicode="&#x420;" horiz-adv-x="1288" d="M135 0v1413h594q139 0 238.5 -33.5t162 -93t91 -141.5t28.5 -180q0 -86 -29.5 -167t-90 -144.5t-152.5 -101.5t-219 -38h-217v-514h-406zM541 780h133q70 0 118 41t48 135q0 100 -50.5 141.5t-125.5 41.5h-123v-359z" />
<glyph unicode="&#x421;" horiz-adv-x="1339" d="M94 698q0 133 33 266.5t117 240t225 173t360 66.5q102 0 200.5 -15.5t191.5 -44.5l-50 -290q-80 18 -153.5 26t-132.5 8q-84 0 -150.5 -21.5t-114 -70.5t-73 -127t-25.5 -190q0 -121 22.5 -202t68.5 -130t117 -70.5t167 -21.5q25 0 63.5 3t85 9t93.5 13.5t86 17.5 l61 -279q-104 -39 -234 -60.5t-247 -21.5q-215 0 -352.5 58.5t-217 158t-110.5 229.5t-31 275z" />
<glyph unicode="&#x422;" horiz-adv-x="1327" d="M20 1130v283h1287v-283h-443v-1130h-401v1130h-443z" />
<glyph unicode="&#x423;" horiz-adv-x="1439" d="M27 1413h401l176 -455l115 -327h14l115 327l170 455h395l-502 -1212q-53 -131 -140 -185.5t-210 -54.5q-66 0 -144.5 9.5t-178.5 37.5l53 256q66 -12 103.5 -16t66.5 -4q35 0 57.5 12t38.5 53l29 72h-86z" />
<glyph unicode="&#x424;" horiz-adv-x="1886" d="M70 723q0 121 47 227.5t135 186.5t214 129t284 57v90h395v-90q168 -8 293 -57t209 -128t126 -184.5t42 -228.5q0 -129 -43 -236.5t-128 -185.5t-210 -125t-289 -59v-119h-395v119q-166 8 -293 55t-213 125t-130 185.5t-44 238.5zM475 717q0 -135 66.5 -220t208.5 -104 v656q-145 -18 -210 -110.5t-65 -221.5zM1145 393q123 18 192.5 104.5t69.5 221.5q0 63 -13.5 119.5t-44 100.5t-80.5 72.5t-124 37.5v-656z" />
<glyph unicode="&#x425;" horiz-adv-x="1468" d="M10 0q121 184 242 365.5t242 367.5l-443 678h463l234 -436q59 104 119.5 218t119.5 218h459l-463 -682q115 -180 234.5 -364.5t236.5 -364.5h-459l-266 473l-260 -473h-459z" />
<glyph unicode="&#x426;" horiz-adv-x="1679" d="M137 0v1413h404v-1137h463l-3 1137h408v-1137h209v-649h-295v373h-1186z" />
<glyph unicode="&#x427;" horiz-adv-x="1482" d="M88 893v518h406v-442q0 -102 59 -141.5t154 -39.5q55 0 119.5 10.5t117.5 26.5v586h402v-1411h-402v528q-72 -14 -153.5 -23t-155.5 -9q-104 0 -202.5 18t-175.5 64.5t-123 122t-46 192.5z" />
<glyph unicode="&#x428;" horiz-adv-x="2177" d="M137 0v1413h402v-1137h352v1137h389v-1137h354l-2 1137h408v-1413h-1903z" />
<glyph unicode="&#x429;" horiz-adv-x="2308" d="M137 0v1413h402v-1137h352v1137h389v-1137h354l-2 1137h408v-1137h207v-651h-293v375h-1817z" />
<glyph unicode="&#x42a;" horiz-adv-x="1777" d="M39 1139v274h862l-2 -528h244q104 0 203.5 -21.5t177.5 -73t125 -135.5t47 -209q0 -115 -36 -198.5t-100.5 -139t-156.5 -82t-205 -26.5h-700l2 1139h-461zM899 258h195q78 0 127 49t49 142q0 88 -50.5 136t-134.5 48h-186v-375z" />
<glyph unicode="&#x42b;" horiz-adv-x="2023" d="M137 0v1413h406v-528h270q104 0 199.5 -24.5t167 -77t114.5 -135.5t43 -202q0 -100 -32.5 -183t-95 -141.5t-151.5 -90t-202 -31.5h-719zM543 272h198q66 0 118 42t52 135q0 88 -53 128.5t-125 40.5h-190v-346zM1487 0v1413h401v-1413h-401z" />
<glyph unicode="&#x42c;" horiz-adv-x="1419" d="M137 0v1413h406v-528h270q104 0 199.5 -24.5t167 -77t114.5 -135.5t43 -202q0 -100 -32.5 -183t-95 -141.5t-151.5 -90t-202 -31.5h-719zM543 272h198q66 0 118 42t52 135q0 88 -53 128.5t-125 40.5h-190v-346z" />
<glyph unicode="&#x42d;" horiz-adv-x="1335" d="M47 55l59 281q39 -10 84.5 -17.5t88.5 -12.5t80.5 -8t62.5 -3q170 0 264 68.5t117 242.5q-33 0 -96.5 -1t-134 -2t-134 -2t-96.5 -1v274l455 -8q-23 133 -111 197.5t-231 64.5q-59 0 -133 -7t-152 -23q-4 14 -11 55t-14.5 88t-15.5 88t-10 53q92 29 192.5 45.5 t192.5 16.5q221 0 363.5 -57.5t225.5 -153.5t114.5 -223t31.5 -267q0 -139 -32.5 -275t-115.5 -244.5t-223.5 -176t-355.5 -67.5q-115 0 -240 18t-225 57z" />
<glyph unicode="&#x42e;" horiz-adv-x="2228" d="M137 0v1413h402l-2 -563h231q16 129 64.5 237.5t131.5 187.5t202.5 123t281.5 44q182 0 312 -56.5t213 -154.5t122 -232t39 -290q0 -158 -42 -291t-126 -230.5t-214 -152.5t-304 -55q-164 0 -286 45t-206 126.5t-131 197.5t-59 257h-229l2 -606h-402zM1182 707 q0 -104 13 -186.5t44 -138.5t82 -87t127 -31q72 0 121 33t79.5 91t44 140.5t13.5 180.5q0 88 -10 168.5t-38 142t-79 97.5t-131 36t-131 -37t-82 -98.5t-42 -142t-11 -168.5z" />
<glyph unicode="&#x42f;" horiz-adv-x="1423" d="M53 0l113 385q25 86 69 149.5t130 94.5v10q-111 47 -168.5 142.5t-57.5 201.5q0 80 24.5 158t81 138t148.5 97t228 37h665v-1413h-403v535h-101q-90 0 -142 -37t-83 -142l-102 -356h-402zM547 967q0 -90 52 -128t118 -38h166v336h-166q-78 0 -124 -46t-46 -124z" />
<glyph unicode="&#x430;" horiz-adv-x="1265" d="M49 274q0 51 14.5 99.5t48 89.5t88 69.5t132.5 40.5q78 14 180 20.5t197 16.5v17q0 66 -36 98.5t-130 32.5q-37 0 -80 -3t-86 -9.5t-85 -15.5t-75 -19l-57 237q45 18 104.5 34.5t122 28t127 17.5t123.5 6q98 0 180 -18.5t140.5 -61.5t90 -112.5t31.5 -171.5v-418h127 q4 -53 8.5 -107.5t8.5 -109.5q-57 -27 -137 -43.5t-166 -16.5q-70 0 -122.5 24t-64.5 95q0 -2 -6 4q-49 -45 -102.5 -69.5t-101.5 -36.5t-86 -14.5t-58 -2.5q-100 0 -163.5 30t-100.5 75t-51.5 97t-14.5 97zM453 317q4 -55 26.5 -79.5t73.5 -24.5q31 0 76 14.5t78 42.5v160 q-45 -6 -90.5 -9t-82 -12.5t-59 -30t-22.5 -61.5z" />
<glyph unicode="&#x431;" horiz-adv-x="1249" d="M68 547q0 141 11 232t30 151q47 150 163.5 261t296.5 183q35 14 93.5 36t120 46.5t116.5 48t84 39.5q27 -55 53.5 -109.5t50.5 -107.5q-55 -35 -112 -62.5t-105 -50.5q-84 -35 -156.5 -65.5t-133 -68.5t-106.5 -88t-73 -124q4 0 11 -6q57 59 136 92t171 33q125 0 213 -37 t143 -103.5t81 -157.5t26 -197q0 -104 -33 -197.5t-102.5 -163.5t-175 -109.5t-253.5 -39.5q-158 0 -263 43t-169.5 118.5t-91 179t-26.5 224.5zM463 487q0 -49 6 -93t23.5 -77.5t49 -53t81.5 -19.5q47 0 77.5 19.5t48 53t24.5 79.5t7 98q0 51 -6 94t-23.5 75.5t-47 51 t-76.5 18.5q-43 0 -75 -21.5t-51.5 -56t-28.5 -79t-9 -89.5z" />
<glyph unicode="&#x432;" horiz-adv-x="1234" d="M90 0v1012h709q147 0 237 -64.5t90 -195.5q0 -51 -27.5 -108.5t-105.5 -92.5v-8q55 -18 89 -48t52.5 -64t24.5 -68.5t6 -65.5q0 -141 -101 -219t-263 -78h-711zM481 236h178q53 0 79 25.5t26 66.5q0 39 -22.5 63.5t-79.5 24.5h-181v-180zM481 618h170q37 0 61.5 18.5 t24.5 59.5q0 37 -24.5 60.5t-65.5 23.5h-166v-162z" />
<glyph unicode="&#x433;" horiz-adv-x="999" d="M90 0v1014h893v-256h-502v-758h-391z" />
<glyph unicode="&#x434;" horiz-adv-x="1388" d="M41 244l119 6q72 68 101.5 191.5t43.5 328.5l17 242h897l-2 -762l120 -6v-563h-297v319h-706v-319h-293v563zM545 250h293v510h-191l-4 -62q-10 -160 -30.5 -270.5t-67.5 -177.5z" />
<glyph unicode="&#x435;" horiz-adv-x="1177" d="M70 504q0 96 24.5 191.5t86 172t163.5 123.5t256 47q172 0 272.5 -47t152.5 -119.5t67.5 -161.5t15.5 -173v-91h-647q2 -98 59.5 -139t167.5 -41q76 0 163 17.5t163 40.5l73 -240q-111 -59 -235.5 -81.5t-233.5 -22.5q-166 0 -272 43t-167.5 115.5t-85 167.5t-23.5 198z M465 631h293q-2 74 -29.5 123t-107.5 49q-84 0 -117 -52.5t-39 -119.5z" />
<glyph unicode="&#x436;" horiz-adv-x="1921" d="M41 0l115 352q10 31 23.5 58.5t33.5 50t51 41t74 30.5v7q-61 23 -102 71.5t-58 108.5q-4 18 -15 59t-24.5 87t-25 87t-15.5 60h367q4 -16 14 -50t21.5 -72t21.5 -72t17 -50q23 -74 66.5 -98.5t99.5 -24.5h63v367h383v-367h66q59 0 101 26.5t62 96.5q4 16 14.5 50t23 72 t22.5 71.5t16 50.5h367l-82 -293q-16 -59 -56 -108.5t-104 -71.5v-7q88 -25 125 -71.5t57 -108.5q8 -23 24.5 -72t34 -104t34 -104t22.5 -72h-387q-6 18 -19.5 59t-26.5 86t-26.5 86t-19.5 62q-27 78 -69 101.5t-107 23.5h-72v-418h-383v418h-70q-70 0 -110.5 -24.5 t-65.5 -100.5l-92 -293h-389z" />
<glyph unicode="&#x437;" horiz-adv-x="1052" d="M37 49l67 240q86 -23 148.5 -33t120.5 -10q98 0 149 25.5t51 78.5q0 47 -30.5 64.5t-79.5 17.5h-152v197h131q49 0 79 19.5t30 56.5t-34 59t-107 22q-51 0 -111.5 -7t-167.5 -36l-49 224q98 37 211 54t229 17q123 0 206 -22.5t133 -60t72.5 -88t22.5 -107.5t-36.5 -117.5 t-108.5 -89.5v-10q96 -31 136 -97.5t40 -132.5q0 -68 -28.5 -128t-90 -106t-159 -72.5t-234.5 -26.5t-242.5 18t-195.5 51z" />
<glyph unicode="&#x438;" horiz-adv-x="1296" d="M88 0v1012h393v-527h13l88 142q61 98 122.5 192t124.5 193h375v-1012h-393v522q-4 0 -6 -1t-6 -1l-111 -174q-55 -88 -110.5 -174t-114.5 -172h-375z" />
<glyph unicode="&#x439;" horiz-adv-x="1296" d="M88 0v1012h393v-527h13l88 142q61 98 122.5 192t124.5 193h375v-1012h-393v522q-4 0 -6 -1t-6 -1l-111 -174q-55 -88 -110.5 -174t-114.5 -172h-375zM223 1415l146 111q72 -98 149.5 -139t130.5 -41q18 0 46 1t67 15t91 49t122 100l115 -102q-51 -84 -109.5 -140.5 t-117 -91t-115 -50t-105.5 -15.5q-66 0 -125 24.5t-112.5 66.5t-99.5 96.5t-83 115.5z" />
<glyph unicode="&#x43a;" horiz-adv-x="1277" d="M88 0v1012h385v-367h98q59 0 101.5 27.5t62.5 95.5q6 16 16.5 50t22.5 72t22.5 71.5t14.5 50.5h367q-4 -18 -15.5 -59.5t-25 -87.5t-24.5 -87t-17 -59q-16 -59 -56.5 -108.5t-101.5 -71.5v-7q86 -25 123 -71.5t59 -108.5q6 -23 22.5 -72t34 -104t34 -104t22.5 -72h-389 q-6 18 -18.5 59t-26 86t-26.5 86t-19 62q-27 78 -69 101.5t-107 23.5h-105v-418h-385z" />
<glyph unicode="&#x43b;" horiz-adv-x="1253" d="M10 201q74 37 116 66.5t65.5 77.5t32.5 123t16 202l16 344h903v-1014h-393v760h-168l-6 -96q-10 -141 -25.5 -260t-60.5 -213.5t-129 -163t-230 -111.5z" />
<glyph unicode="&#x43c;" horiz-adv-x="1550" d="M88 1012h428l154 -287l102 -209h16l101 209l149 287h422v-1012h-375v512h-12l-84 -182l-102 -203h-205l-111 205l-88 188h-10v-520h-383z" />
<glyph unicode="&#x43d;" horiz-adv-x="1265" d="M88 0v1012h395v-363h297v363h394v-1012h-394v408h-297v-408h-395z" />
<glyph unicode="&#x43e;" d="M70 506q0 113 30.5 209t98 166.5t175 111.5t259.5 41q154 0 260 -41t173 -111.5t96.5 -166.5t29.5 -207t-31 -208t-98.5 -168t-175 -111.5t-260.5 -40.5q-154 0 -260.5 39.5t-172 110.5t-95 167t-29.5 209zM471 506q0 -59 6 -107.5t24.5 -82t50.5 -52t81 -18.5 q47 0 76.5 19.5t47 53t24.5 82t7 105.5q0 55 -6 102t-23.5 83t-48 55.5t-77.5 19.5t-79 -21.5t-50.5 -57.5t-25.5 -83t-7 -98z" />
<glyph unicode="&#x43f;" horiz-adv-x="1257" d="M90 0v1010h1077v-105v-181t-1 -219t-1 -219.5v-181v-104.5h-393v764h-295v-764h-387z" />
<glyph unicode="&#x440;" horiz-adv-x="1263" d="M90 -428v1440h363l8 -90l12 -9q84 70 164 93.5t141 23.5q123 0 204 -41t128 -111.5t65.5 -167t18.5 -204.5q0 -113 -24.5 -209t-78 -166t-140.5 -109.5t-210 -39.5q-23 0 -55.5 2t-68 8t-71.5 16t-67 25v-461h-389zM481 295q35 -18 79 -29.5t83 -11.5q27 0 55.5 11t51 40 t38 81t15.5 134q0 78 -13.5 125t-36 71.5t-50 33t-58.5 8.5q-35 0 -83 -17.5t-81 -40.5v-405z" />
<glyph unicode="&#x441;" horiz-adv-x="1038" d="M66 496q0 96 22.5 192t80.5 173t161.5 125t265.5 48q63 0 152.5 -9t181.5 -38l-49 -270q-59 12 -112.5 16t-94.5 4q-109 0 -160 -60t-51 -173q0 -117 44 -171t159 -54q66 0 131 12t125 28q16 -66 32.5 -130t32.5 -130q-86 -41 -192.5 -60t-212.5 -19q-160 0 -260.5 41.5 t-158 113.5t-77.5 165t-20 196z" />
<glyph unicode="&#x442;" horiz-adv-x="1105" d="M20 758v256h1065v-256h-335l-2 -758h-390l-2 758h-336z" />
<glyph unicode="&#x443;" horiz-adv-x="1220" d="M23 1012h385q6 -18 16 -58.5t23.5 -90.5t27.5 -106.5t26.5 -106.5t23 -91t16.5 -61q6 -31 13 -65t13 -67.5t11.5 -65.5t11.5 -54l14 -2q12 45 28.5 119.5t33.5 142.5q8 31 27.5 102.5t41 150.5t40 150.5t28.5 102.5h401l-411 -1209q-47 -135 -141.5 -193.5t-225.5 -58.5 q-63 0 -135 9.5t-166 33.5l51 252q49 -4 78 -8t55 -4q39 0 65.5 5t46 18.5t33 35t23.5 54.5q2 4 6 17t8.5 27.5t8.5 28t4 17.5h-170q-10 33 -35 108.5t-55.5 173t-65.5 206t-66.5 206.5t-55 173t-33.5 108z" />
<glyph unicode="&#x444;" horiz-adv-x="1687" d="M76 510q0 115 35.5 209t107.5 163.5t179.5 109.5t252.5 44v437h383v-437q150 -4 259.5 -43t180 -106.5t104.5 -160.5t34 -208t-33 -211t-102.5 -165.5t-179 -111.5t-263.5 -48v-90.5t-1 -116t-1 -115.5v-88h-381v412q-176 6 -287.5 55t-176 125t-88 166t-23.5 180z M442 508q0 -131 49.5 -201.5t159.5 -81.5v563q-61 -10 -101 -34.5t-64.5 -62.5t-34 -85t-9.5 -98zM1034 225q111 14 159 84t48 195q0 53 -8 101t-30.5 87t-63.5 64.5t-105 31.5v-563z" />
<glyph unicode="&#x445;" horiz-adv-x="1208" d="M8 0l354 526q-82 119 -164.5 242t-162.5 242h426l149 -299q41 76 80 151.5t80 147.5h416l-336 -482l346 -528h-426q-41 84 -82 165t-82 165q-51 -100 -93 -175t-87 -155h-418z" />
<glyph unicode="&#x446;" horiz-adv-x="1341" d="M90 0v1012h391v-762h291v762h393v-760h127v-571h-297v319h-905z" />
<glyph unicode="&#x447;" horiz-adv-x="1204" d="M59 649v363h394v-297q0 -63 27.5 -96t88.5 -33q31 0 74 6t74 20v400h395v-1012h-395v354q-63 -25 -142 -39t-153 -14q-172 0 -267.5 84t-95.5 264z" />
<glyph unicode="&#x448;" horiz-adv-x="1792" d="M90 0v1012h391v-762h219v762h390v-762h219v762h393v-1012h-1612z" />
<glyph unicode="&#x449;" horiz-adv-x="1869" d="M90 0v1012h391v-762h219v762h390v-762h219v762h393v-760h127v-571h-297v319h-1442z" />
<glyph unicode="&#x44a;" horiz-adv-x="1540" d="M23 760v252h774v-318h303q72 0 141.5 -20.5t123.5 -63.5t87 -108.5t33 -153.5q0 -78 -27.5 -142.5t-76 -110.5t-115 -70.5t-146.5 -24.5h-714v760h-383zM797 236h186q59 0 87 36.5t28 83.5t-32 83t-89 36h-180v-239z" />
<glyph unicode="&#x44b;" horiz-adv-x="1744" d="M88 0v1010h391v-316h305q66 0 133.5 -20.5t123 -63.5t91 -108.5t35.5 -153.5q0 -78 -26.5 -142.5t-74.5 -110.5t-114.5 -70.5t-144.5 -24.5h-719zM479 238h187q59 0 86.5 35.5t27.5 82.5t-30.5 83t-90.5 36h-180v-237zM1260 0v1012h393v-1012h-393z" />
<glyph unicode="&#x44c;" horiz-adv-x="1230" d="M88 0v1010h391v-316h305q66 0 133.5 -20.5t123 -63.5t91 -108.5t35.5 -153.5q0 -78 -26.5 -142.5t-74.5 -110.5t-114.5 -70.5t-144.5 -24.5h-719zM479 238h187q59 0 86.5 35.5t27.5 82.5t-30.5 83t-90.5 36h-180v-237z" />
<glyph unicode="&#x44d;" horiz-adv-x="1032" d="M41 53l61 223q53 -14 118 -26t130 -12q96 0 152.5 48t60.5 146l-282 -6v184l286 -6q-8 86 -56 130t-153 44q-41 0 -92 -6t-129 -27l-49 230q78 31 165 45t173 14q164 0 267.5 -42t162.5 -111.5t80.5 -161.5t21.5 -191q0 -98 -21.5 -196.5t-81.5 -177t-167.5 -128 t-277.5 -49.5q-102 0 -196.5 18.5t-172.5 57.5z" />
<glyph unicode="&#x44e;" horiz-adv-x="1763" d="M90 0v1014h391v-391h142q14 88 54 163.5t105.5 131t158.5 87t214 31.5q137 0 239.5 -41t168 -111.5t98.5 -166.5t33 -209q0 -111 -33 -208t-100.5 -168t-170 -111.5t-243.5 -40.5q-127 0 -221.5 32.5t-159 91t-101 140.5t-47.5 178h-137v-422h-391zM1001 508 q0 -55 6.5 -103.5t23 -83t47 -55t77.5 -20.5q43 0 71.5 20.5t45 56t22.5 84t6 101.5q0 51 -6 98t-22.5 82t-45 56.5t-71.5 21.5t-72.5 -22.5t-48 -58.5t-26 -82t-7.5 -95z" />
<glyph unicode="&#x44f;" horiz-adv-x="1261" d="M37 0l92 258q16 51 47 100.5t100 71.5l-2 6q-45 12 -75.5 39t-50 60.5t-27.5 72.5t-8 76q0 57 19.5 116.5t65.5 107.5t123.5 78t194.5 30h651v-1016h-389v377h-98q-59 0 -96 -24.5t-62 -96.5l-90 -256h-395zM506 694q0 -61 39 -87.5t90 -26.5h143v227h-143q-59 0 -94 -30 t-35 -83z" />
<glyph unicode="&#x451;" horiz-adv-x="1177" d="M70 504q0 96 24.5 191.5t86 172t163.5 123.5t256 47q172 0 272.5 -47t152.5 -119.5t67.5 -161.5t15.5 -173v-91h-647q2 -98 59.5 -139t167.5 -41q76 0 163 17.5t163 40.5l73 -240q-111 -59 -235.5 -81.5t-233.5 -22.5q-166 0 -272 43t-167.5 115.5t-85 167.5t-23.5 198z M184 1296q0 70 41 114t133 44q96 0 141.5 -44t45.5 -114q0 -66 -45 -111.5t-142 -45.5q-92 0 -133 46t-41 111zM465 631h293q-2 74 -29.5 123t-107.5 49q-84 0 -117 -52.5t-39 -119.5zM657 1296q0 70 43 114t134 44q96 0 139 -44t43 -114q0 -66 -43 -111.5t-139 -45.5 q-92 0 -134.5 46t-42.5 111z" />
<glyph unicode="&#x452;" horiz-adv-x="1282" d="M10 1106v147h103v220h387v-220h387v-106q0 -10 -1 -20.5t-1 -20.5h-387l-4 -234q84 33 148.5 46.5t135.5 13.5q119 0 203 -34t135 -100.5t74.5 -161.5t23.5 -218q0 -104 -23.5 -198.5t-85 -166t-165.5 -113.5t-266 -42q-10 0 -19.5 1t-19.5 1l2 264q49 4 85 17.5t59.5 42 t34.5 76.5t11 124q0 98 -38.5 168t-118.5 70q-39 0 -81 -13.5t-81 -32.5v-616h-395v1106h-103z" />
<glyph unicode="&#x453;" horiz-adv-x="999" d="M90 0v1014h893v-256h-502v-758h-391zM328 1274l344 360l182 -215l-401 -286z" />
<glyph unicode="&#x454;" horiz-adv-x="1044" d="M66 487q0 94 20 191.5t79.5 176.5t164 128t274.5 49q80 0 166 -12t168 -41q-10 -59 -23.5 -116.5t-25.5 -117.5q-59 12 -109.5 20.5t-91.5 8.5q-117 0 -169 -44t-62 -136q72 4 142.5 4t139.5 2v-182l-280 4q8 -100 65.5 -141t151.5 -41q66 0 133.5 14t120.5 31l65 -228 q-82 -41 -183 -59t-208 -18q-170 0 -275.5 40.5t-164 111.5t-78.5 162t-20 193z" />
<glyph unicode="&#x455;" horiz-adv-x="1079" d="M51 66l72 235q147 -47 240.5 -57.5t140.5 -10.5q53 0 90 15.5t37 56.5q0 23 -14.5 37t-38 23.5t-51 16.5t-54.5 15q-72 20 -140.5 42t-121.5 55.5t-86 86t-33 132.5q0 72 26.5 132t85 103t147.5 66.5t216 23.5q94 0 200.5 -19.5t199.5 -64.5q-2 -4 -13.5 -38.5t-25 -75.5 t-23.5 -76t-12 -39q-88 31 -166 43t-139 12q-45 0 -75 -13t-30 -52q0 -12 13.5 -22.5t35 -18.5t48 -15.5t53.5 -13.5q63 -14 133 -35.5t128 -60.5t96 -100.5t38 -155.5q0 -72 -29.5 -129.5t-92 -98t-162 -63t-240.5 -22.5q-43 0 -98.5 4t-116 14t-122 26.5t-116.5 41.5z" />
<glyph unicode="&#x456;" horiz-adv-x="684" d="M125 1303q0 86 52 139t163 53q115 0 168 -53t53 -139q0 -82 -53 -137.5t-168 -55.5q-113 0 -164 55.5t-51 137.5zM145 0v1010h392v-1010h-392z" />
<glyph unicode="&#x457;" horiz-adv-x="684" d="M-63 1309q0 70 40.5 113.5t133.5 43.5q96 0 141 -43.5t45 -113.5q0 -66 -45 -112t-141 -46q-92 0 -133 46t-41 112zM145 0v1010h392v-1010h-392zM410 1309q0 70 43 113.5t133 43.5q96 0 139 -43.5t43 -113.5q0 -66 -43 -112t-139 -46q-92 0 -134 46t-42 112z" />
<glyph unicode="&#x458;" horiz-adv-x="694" d="M-106 -217q84 49 135 86t78.5 80t37 97t9.5 138v826h395v-161v-182.5v-182.5v-159.5t-1 -115.5t-1 -49q0 -143 -32 -251t-98.5 -184.5t-170 -127t-248.5 -80.5q-2 6 -18.5 46t-35 88t-33.5 88t-17 44zM137 1303q0 86 52.5 139t162.5 53q115 0 167 -53t52 -139 q0 -84 -52 -138.5t-167 -54.5q-113 0 -164 54.5t-51 138.5z" />
<glyph unicode="&#x459;" horiz-adv-x="1841" d="M8 147q74 37 114 76t60.5 96.5t27.5 140.5t15 210l21 344l864 -2v-316h293q66 0 133.5 -20.5t122.5 -63.5t91 -108.5t36 -153.5q0 -78 -26.5 -142.5t-75 -110.5t-114 -71.5t-145.5 -25.5h-706v760h-154l-6 -96q-10 -141 -25.5 -264.5t-59.5 -221.5t-128 -169.5 t-229 -114.5zM1110 240h174q59 0 87 36.5t28 81.5q0 47 -31 82t-90 35h-168v-235z" />
<glyph unicode="&#x45a;" horiz-adv-x="1855" d="M90 0v1014h393v-355h265l-3 355h394v-344h291q59 0 124.5 -16.5t120 -54.5t90 -100.5t35.5 -154.5q0 -78 -26.5 -141.5t-72.5 -108.5t-108.5 -69.5t-134.5 -24.5h-708v416h-267v-416h-393zM1137 240h174q43 0 72.5 27.5t29.5 76.5q0 47 -29.5 74.5t-78.5 27.5h-168v-206z " />
<glyph unicode="&#x45b;" horiz-adv-x="1290" d="M10 1114v146h115v213h385v-213h367q0 -37 -1.5 -74t-1.5 -72h-366q0 -63 -2 -119.5t-2 -117.5q100 47 182 72.5t174 25.5q100 0 166 -25.5t104.5 -74t53 -116t14.5 -149.5v-610h-393v532q0 63 -20.5 103.5t-96.5 40.5q-35 0 -82 -15.5t-88 -42.5v-618h-393v1114h-115z " />
<glyph unicode="&#x45c;" horiz-adv-x="1277" d="M88 0v1012h385v-367h98q59 0 101.5 27.5t62.5 95.5q6 16 16.5 50t22.5 72t22.5 71.5t14.5 50.5h367q-4 -18 -15.5 -59.5t-25 -87.5t-24.5 -87t-17 -59q-16 -59 -56.5 -108.5t-101.5 -71.5v-7q86 -25 123 -71.5t59 -108.5q6 -23 22.5 -72t34 -104t34 -104t22.5 -72h-389 q-6 18 -18.5 59t-26 86t-26.5 86t-19 62q-27 78 -69 101.5t-107 23.5h-105v-418h-385zM463 1227l344 360l182 -215l-401 -287z" />
<glyph unicode="&#x45e;" horiz-adv-x="1220" d="M23 1012h387q6 -18 16 -58.5t22.5 -90.5t26.5 -106.5t27.5 -106.5t24 -91t16.5 -61q14 -59 25.5 -133t21.5 -121h16q10 43 26.5 118.5t33.5 143.5q8 31 27.5 102.5t41 150.5t41 150.5t29.5 102.5h399q-12 -37 -44 -131.5t-72.5 -216t-88 -258t-88.5 -258t-73.5 -215 t-44.5 -130.5q-47 -133 -143.5 -192.5t-229.5 -59.5q-59 0 -131 9.5t-164 33.5l51 256q49 -6 78 -11t55 -5q39 0 65.5 5t46 18.5t33 35t23.5 54.5l27 90h-170q-10 33 -35 108.5t-55.5 173t-65.5 206t-66.5 206.5t-55 173t-33.5 108zM172 1417l145 111q72 -98 150 -139 t131 -41q18 0 46 1t67 15t91 49t122 100l114 -102q-51 -84 -109.5 -140.5t-116.5 -91t-114.5 -50t-105.5 -15.5q-66 0 -125 24.5t-112.5 66.5t-99.5 96.5t-83 115.5z" />
<glyph unicode="&#x45f;" horiz-adv-x="1269" d="M88 0v1012h391v-762h305v762h394v-1012h-383v-332h-310v332h-397z" />
<glyph unicode="&#x490;" horiz-adv-x="1271" d="M147 0v1413h801v268h269v-107.5t1 -162.5t1 -164v-108h-666v-1139h-406z" />
<glyph unicode="&#x491;" horiz-adv-x="1073" d="M90 0v1012h674v245h260v-491h-543v-766h-391z" />
<glyph unicode="&#x4d9;" horiz-adv-x="1169" d="M86 479v80h625q0 104 -48.5 156.5t-160.5 52.5q-74 0 -154 -15.5t-151 -41.5l-68 221q113 55 226.5 78.5t217.5 23.5q164 0 265.5 -43t159 -115.5t77 -167t19.5 -196.5q0 -96 -27 -191.5t-88 -171t-162.5 -122.5t-253.5 -47q-147 0 -240.5 46t-145.5 118.5t-71.5 161.5 t-19.5 173zM428 403q2 -80 30.5 -126t100.5 -46t105.5 45.5t37.5 126.5h-274z" />
<glyph unicode="&#x1e80;" horiz-adv-x="2103" d="M14 1413h430q4 -23 14.5 -72t23 -111.5t26.5 -132t26.5 -132t21.5 -110.5t15 -71q6 -35 12.5 -78.5t13.5 -91t14 -92.5t14 -80h14q6 35 13 78t13.5 89t13.5 89t13 78q6 25 16.5 75t23.5 112.5t27.5 132t27 132t22.5 112t16 73.5h439q4 -10 14 -58t25.5 -114.5t33 -142.5 t31.5 -141.5t25.5 -112.5t13.5 -56q0 -2 4 -27.5t11.5 -61t14.5 -78.5t13 -81t11 -64.5t7 -33.5h17q6 37 13 83t13.5 93.5t13.5 92.5t13 82q4 23 13.5 70.5t21.5 109t25.5 130t25.5 130t21.5 110t15.5 70.5h428q-10 -41 -35.5 -151.5t-59.5 -256t-73 -308t-72.5 -306 t-59.5 -250t-34 -141.5h-508q-10 35 -26.5 108.5t-35 155.5t-35.5 157t-28 111q-2 8 -7 38t-12 70t-15.5 86t-15.5 87t-12 70.5t-7 38.5l-17 2q-8 -43 -16 -93.5t-16.5 -102.5t-15.5 -103.5t-15 -92.5l-113 -532h-510zM696 1784l172 203l346 -359l-116 -129z" />
<glyph unicode="&#x1e81;" horiz-adv-x="1839" d="M43 1012h385l90 -424l49 -301h11l55 307l100 418h371l104 -424l58 -297h14l47 297l90 424h379l-254 -1012h-469l-96 403l-55 304h-15l-51 -301l-88 -406h-467zM565 1360l197 229q8 -12 34.5 -38.5t62.5 -61.5t77 -75t77 -74.5t62.5 -62.5t34.5 -38l-133 -156z" />
<glyph unicode="&#x1e82;" horiz-adv-x="2103" d="M14 1413h430q4 -23 14.5 -72t23 -111.5t26.5 -132t26.5 -132t21.5 -110.5t15 -71q6 -35 12.5 -78.5t13.5 -91t14 -92.5t14 -80h14q6 35 13 78t13.5 89t13.5 89t13 78q6 25 16.5 75t23.5 112.5t27.5 132t27 132t22.5 112t16 73.5h439q4 -10 14 -58t25.5 -114.5t33 -142.5 t31.5 -141.5t25.5 -112.5t13.5 -56q0 -2 4 -27.5t11.5 -61t14.5 -78.5t13 -81t11 -64.5t7 -33.5h17q6 37 13 83t13.5 93.5t13.5 92.5t13 82q4 23 13.5 70.5t21.5 109t25.5 130t25.5 130t21.5 110t15.5 70.5h428q-10 -41 -35.5 -151.5t-59.5 -256t-73 -308t-72.5 -306 t-59.5 -250t-34 -141.5h-508q-10 35 -26.5 108.5t-35 155.5t-35.5 157t-28 111q-2 8 -7 38t-12 70t-15.5 86t-15.5 87t-12 70.5t-7 38.5l-17 2q-8 -43 -16 -93.5t-16.5 -102.5t-15.5 -103.5t-15 -92.5l-113 -532h-510zM911 1614l342 360l181 -202l-408 -287z" />
<glyph unicode="&#x1e83;" horiz-adv-x="1839" d="M43 1012h385l90 -424l49 -301h11l55 307l100 418h371l104 -424l58 -297h14l47 297l90 424h379l-254 -1012h-469l-96 403l-55 304h-15l-51 -301l-88 -406h-467zM788 1227l345 360l182 -215l-402 -287z" />
<glyph unicode="&#x1e84;" horiz-adv-x="2103" d="M14 1413h430q4 -23 14.5 -72t23 -111.5t26.5 -132t26.5 -132t21.5 -110.5t15 -71q6 -35 12.5 -78.5t13.5 -91t14 -92.5t14 -80h14q6 35 13 78t13.5 89t13.5 89t13 78q6 25 16.5 75t23.5 112.5t27.5 132t27 132t22.5 112t16 73.5h439q4 -10 14 -58t25.5 -114.5t33 -142.5 t31.5 -141.5t25.5 -112.5t13.5 -56q0 -2 4 -27.5t11.5 -61t14.5 -78.5t13 -81t11 -64.5t7 -33.5h17q6 37 13 83t13.5 93.5t13.5 92.5t13 82q4 23 13.5 70.5t21.5 109t25.5 130t25.5 130t21.5 110t15.5 70.5h428q-10 -41 -35.5 -151.5t-59.5 -256t-73 -308t-72.5 -306 t-59.5 -250t-34 -141.5h-508q-10 35 -26.5 108.5t-35 155.5t-35.5 157t-28 111q-2 8 -7 38t-12 70t-15.5 86t-15.5 87t-12 70.5t-7 38.5l-17 2q-8 -43 -16 -93.5t-16.5 -102.5t-15.5 -103.5t-15 -92.5l-113 -532h-510zM614 1661q0 70 41 114t133 44q96 0 141.5 -44 t45.5 -114q0 -66 -45 -112t-142 -46q-92 0 -133 46t-41 112zM1087 1661q0 70 43.5 114t133.5 44q96 0 139 -44t43 -114q0 -66 -43 -112t-139 -46q-92 0 -134.5 46t-42.5 112z" />
<glyph unicode="&#x1e85;" horiz-adv-x="1839" d="M43 1012h385l90 -424l49 -301h11l55 307l100 418h371l104 -424l58 -297h14l47 297l90 424h379l-254 -1012h-469l-96 403l-55 304h-15l-51 -301l-88 -406h-467zM489 1300q0 70 41 114t134 44q96 0 141 -44t45 -114q0 -66 -45 -111.5t-141 -45.5q-92 0 -133.5 46t-41.5 111 zM963 1300q0 70 43 114t133 44q96 0 139 -44t43 -114q0 -66 -43 -111.5t-139 -45.5q-92 0 -134 46t-42 111z" />
<glyph unicode="&#x1ef2;" horiz-adv-x="1427" d="M12 1411h422q41 -90 82 -178t80 -178l109 -279h16q29 63 57.5 145.5t57.5 145.5q41 86 80.5 172t80.5 172h414q-121 -225 -239.5 -453.5t-239.5 -453.5v-504h-436v471zM362 1769l173 203l346 -358l-117 -129z" />
<glyph unicode="&#x1ef3;" horiz-adv-x="1220" d="M23 1012h387q6 -18 16 -58.5t22.5 -90.5t26.5 -106.5t27.5 -106.5t24 -91t16.5 -61q14 -59 25.5 -133t21.5 -121h16q10 43 26.5 118.5t33.5 143.5q8 31 27.5 102.5t41 150.5t41 150.5t29.5 102.5h399q-12 -37 -44 -131.5t-72.5 -216t-88 -258t-88.5 -258t-73.5 -215 t-44.5 -130.5q-47 -133 -143.5 -192.5t-229.5 -59.5q-59 0 -131 9.5t-164 33.5l51 256q49 -6 78 -11t55 -5q39 0 65.5 5t46 18.5t33 35t23.5 54.5l27 90h-170q-10 33 -35 108.5t-55.5 173t-65.5 206t-66.5 206.5t-55 173t-33.5 108zM250 1348l196 229q8 -12 35 -39t63 -61.5 t77 -74.5t76.5 -75t62 -62.5t35.5 -37.5l-133 -156z" />
<glyph unicode="&#x2000;" horiz-adv-x="1020" />
<glyph unicode="&#x2001;" horiz-adv-x="2040" />
<glyph unicode="&#x2002;" horiz-adv-x="1020" />
<glyph unicode="&#x2003;" horiz-adv-x="2040" />
<glyph unicode="&#x2004;" horiz-adv-x="680" />
<glyph unicode="&#x2005;" horiz-adv-x="510" />
<glyph unicode="&#x2006;" horiz-adv-x="340" />
<glyph unicode="&#x2007;" horiz-adv-x="340" />
<glyph unicode="&#x2008;" horiz-adv-x="255" />
<glyph unicode="&#x2009;" horiz-adv-x="408" />
<glyph unicode="&#x200a;" horiz-adv-x="113" />
<glyph unicode="&#x2010;" horiz-adv-x="847" d="M129 430v254h590v-254h-590z" />
<glyph unicode="&#x2011;" horiz-adv-x="847" d="M129 430v254h590v-254h-590z" />
<glyph unicode="&#x2012;" horiz-adv-x="847" d="M129 430v254h590v-254h-590z" />
<glyph unicode="&#x2013;" horiz-adv-x="1024" d="M94 418v221h836v-221h-836z" />
<glyph unicode="&#x2014;" horiz-adv-x="2048" d="M127 418v219h1792v-219h-1792z" />
<glyph unicode="&#x2015;" horiz-adv-x="2048" d="M127 418v219h1792v-219h-1792z" />
<glyph unicode="&#x2018;" horiz-adv-x="591" d="M102 1055q0 68 25 136.5t65.5 129.5t97 112.5t118.5 82.5q2 -2 16 -19.5t30.5 -38t30 -39t15.5 -20.5q-115 -104 -129 -225q123 -21 123 -152q0 -72 -50.5 -121t-138.5 -49q-55 0 -94 16.5t-62.5 45t-35 64.5t-11.5 77z" />
<glyph unicode="&#x2019;" horiz-adv-x="591" d="M102 971q113 104 131 223q-124 21 -124 154q0 72 50 120t138 48q111 0 157 -60.5t46 -140.5q0 -68 -24.5 -136.5t-65.5 -130t-96.5 -112.5t-118.5 -84z" />
<glyph unicode="&#x201a;" horiz-adv-x="622" d="M102 -227q117 102 134 231q-66 10 -96.5 51t-30.5 107q0 74 51 125t143 51q57 0 97 -17.5t64.5 -46t36 -66.5t11.5 -81q0 -68 -24.5 -138.5t-67.5 -135t-100.5 -117.5t-122.5 -86z" />
<glyph unicode="&#x201c;" horiz-adv-x="993" d="M90 1055q0 68 23.5 136.5t65.5 129.5t97.5 112.5t118.5 82.5l90 -117q-55 -53 -87.5 -107.5t-41.5 -117.5q125 -21 125 -152q0 -72 -51 -121t-139 -49q-55 0 -93 16.5t-61.5 45t-35 64.5t-11.5 77zM518 1055q0 68 23.5 136.5t65.5 129.5t97.5 112.5t118.5 82.5l92 -117 q-57 -53 -89.5 -107.5t-41.5 -117.5q125 -21 125 -152q0 -72 -50 -121t-138 -49q-55 0 -94 16.5t-62.5 45t-35 64.5t-11.5 77z" />
<glyph unicode="&#x201d;" horiz-adv-x="993" d="M92 971q111 102 129 223q-123 21 -123 154q0 72 49.5 120t139.5 48q109 0 155.5 -60.5t46.5 -140.5q0 -68 -24.5 -136.5t-65.5 -130t-97 -112.5t-120 -84zM520 971q115 104 129 223q-123 21 -123 154q0 72 50.5 120t138.5 48q111 0 157 -60.5t46 -140.5q0 -68 -25 -136.5 t-66 -130t-97 -112.5t-120 -84z" />
<glyph unicode="&#x201e;" horiz-adv-x="1071" d="M102 -227q117 102 134 231q-66 10 -96.5 51t-30.5 107q0 74 51 125t143 51q57 0 97 -17.5t64.5 -46t36 -66.5t11.5 -81q0 -68 -24.5 -138.5t-67.5 -135t-100.5 -117.5t-122.5 -86zM565 -227q115 102 133 231q-66 10 -97.5 51t-31.5 107q0 74 52.5 125t144.5 51 q57 0 97 -17.5t64.5 -46t36 -66.5t11.5 -81q0 -68 -24.5 -138.5t-67.5 -135t-100.5 -117.5t-123.5 -86z" />
<glyph unicode="&#x2020;" horiz-adv-x="1026" d="M70 786v240h284v397h305v-397h297v-240h-297v-942h-305v942h-284z" />
<glyph unicode="&#x2021;" horiz-adv-x="1026" d="M70 195v241h284v350h-284v240h284v397h305v-397h297v-240h-297v-350h297v-241h-297v-351h-305v351h-284z" />
<glyph unicode="&#x2022;" horiz-adv-x="915" d="M160 549q0 61 23.5 115.5t63.5 94.5t95 63.5t117 23.5q61 0 114.5 -23.5t94.5 -63.5t64.5 -94.5t23.5 -115.5t-23.5 -115.5t-64.5 -95.5t-94.5 -64.5t-114.5 -23.5t-116.5 23.5t-95.5 64.5t-63.5 95t-23.5 116z" />
<glyph unicode="&#x2023;" horiz-adv-x="1036" d="M166 121v883l846 -431z" />
<glyph unicode="&#x2026;" horiz-adv-x="1665" d="M117 162q0 76 47 124t147 48q102 0 149.5 -48t47.5 -124t-48 -126t-147 -50q-102 0 -149 50t-47 126zM637 162q0 76 47 124t147 48q102 0 149.5 -48t47.5 -124t-48 -126t-149 -50q-102 0 -148 50t-46 126zM1155 162q0 76 47 124t148 48q102 0 149 -48t47 -124t-48 -126 t-148 -50t-147.5 50t-47.5 126z" />
<glyph unicode="&#x202f;" horiz-adv-x="408" />
<glyph unicode="&#x2030;" horiz-adv-x="2809" d="M74 954q0 86 19.5 163t65.5 135.5t120.5 93t187.5 34.5t187.5 -34.5t119.5 -93t63.5 -136.5t18.5 -162q0 -86 -20.5 -162.5t-66.5 -135t-121 -92.5t-181 -34q-113 0 -187.5 34t-120.5 91.5t-65.5 135t-19.5 163.5zM344 954q0 -102 23.5 -164.5t99.5 -62.5q70 0 93.5 65.5 t23.5 161.5q0 43 -4.5 85t-16.5 74t-35.5 52.5t-60.5 20.5q-39 0 -63.5 -20.5t-38 -53.5t-17.5 -74t-4 -84zM532 -39l680 1501h230l-680 -1501h-230zM1110 408q0 86 19.5 162.5t65.5 135t121 93.5t187 35q113 0 187.5 -35t119.5 -93.5t63.5 -135t18.5 -162.5t-20.5 -163 t-66.5 -135.5t-120.5 -92t-181.5 -33.5q-113 0 -187.5 33.5t-120.5 91t-65.5 134t-19.5 165.5zM1380 408q0 -102 23.5 -165t99.5 -63q35 0 57.5 17.5t36 48t18.5 72t5 90.5q0 43 -4 85t-16.5 73.5t-36 52t-60.5 20.5q-39 0 -63.5 -20.5t-37.5 -53.5t-17.5 -73.5t-4.5 -83.5z M1952 408q0 86 19.5 162.5t65.5 135t120.5 93.5t187.5 35t187.5 -35t119.5 -93.5t63.5 -135t18.5 -162.5t-20.5 -163t-66.5 -135.5t-121 -92t-181 -33.5q-113 0 -187.5 33.5t-120.5 91t-65.5 134t-19.5 165.5zM2222 408q0 -102 23.5 -165t99.5 -63q35 0 57.5 17.5t35.5 48 t18.5 72t5.5 90.5q0 43 -4 85t-16.5 73.5t-36 52t-60.5 20.5q-39 0 -63.5 -20.5t-38 -53.5t-17.5 -73.5t-4 -83.5z" />
<glyph unicode="&#x2039;" horiz-adv-x="761" d="M102 379v76l371 399l154 -104l-217 -332l213 -328l-156 -110z" />
<glyph unicode="&#x203a;" horiz-adv-x="761" d="M102 750l154 104l373 -399v-76l-365 -399l-155 110l213 328z" />
<glyph unicode="&#x2044;" horiz-adv-x="219" d="M-315 -39l680 1501h229l-680 -1501h-229z" />
<glyph unicode="&#x205f;" horiz-adv-x="510" />
<glyph unicode="&#x20ab;" horiz-adv-x="1288" d="M133 612q0 90 20.5 169t65.5 137.5t119 92t182 33.5q51 0 111.5 -8t109.5 -26v104h-213v121h213v154h330v-154h82v-121h-82v-889h-301q0 18 -2 38t-4 38q-2 2 -4 2t-6 2q-72 -55 -144.5 -75.5t-120.5 -20.5q-106 0 -175.5 32.5t-109.5 89t-55.5 129t-15.5 152.5zM164 0 v158h975v-158h-975zM463 612q0 -53 11 -86.5t29.5 -52t42 -26t50.5 -7.5q29 0 73 14.5t70 32.5v283q-29 16 -68.5 26.5t-68.5 10.5q-23 0 -47.5 -7t-45 -27.5t-33.5 -59.5t-13 -101z" />
<glyph unicode="&#x20ac;" d="M51 522v123h893v-123h-397q16 -123 94 -181t205 -58q63 0 141 7t174 25l41 -280q-43 -12 -94 -22.5t-106.5 -17.5t-109.5 -11t-101 -4q-164 0 -279 41.5t-189.5 115.5t-114.5 172.5t-52 212.5h-105zM51 723v131h105q14 106 54 203.5t116.5 173.5t194.5 121t286 45 q90 0 183 -13.5t179 -40.5l-49 -272q-98 23 -170.5 28t-105.5 5q-135 0 -213 -60.5t-90 -189.5h403v-131h-893z" />
<glyph unicode="&#x2122;" horiz-adv-x="1826" d="M49 1249v164h725v-164h-248v-579h-229v579h-248zM836 670v743h276l88 -192q4 -8 14.5 -31t21.5 -49.5t21.5 -50t14.5 -31.5l12 2l68 166l86 186h288v-743h-223l-2 420h-6l-41 -99l-82 -184h-182l-76 158l-53 120h-8v-415h-217z" />
<glyph unicode="&#x2202;" horiz-adv-x="1091" d="M39 463q0 111 33.5 199t94 150t140.5 96t172 34q57 0 118.5 -16.5t119.5 -59.5q-27 203 -131.5 295t-259.5 92q-23 0 -49.5 -2t-61.5 -6v215q45 8 86 11.5t76 3.5q160 0 276.5 -58.5t192.5 -160t112.5 -239.5t36.5 -300q0 -184 -37.5 -322.5t-105.5 -230.5t-161 -138 t-204 -46q-96 0 -178 30.5t-141 92t-94 151.5t-35 209zM301 467q0 -137 57.5 -196.5t135.5 -59.5q61 0 106 35t75 90t44 124.5t14 139.5q-66 72 -125 97.5t-116 25.5q-47 0 -82 -22.5t-59.5 -59.5t-37 -83t-12.5 -91z" />
<glyph unicode="&#x2206;" horiz-adv-x="1568" d="M70 0v137q117 322 237.5 638.5t241.5 635.5h483q117 -322 231.5 -640t231.5 -640v-131h-1425zM494 260h548q-39 115 -64.5 197t-46 151.5t-40 134t-43.5 144.5l-62 227h-18q-16 -57 -33.5 -113.5t-34.5 -115.5q-18 -72 -47.5 -160t-60.5 -175t-57.5 -164t-40.5 -126z" />
<glyph unicode="&#x220f;" horiz-adv-x="1601" d="M164 -242v1655h1274v-1655h-408v1375h-463l2 -1375h-405z" />
<glyph unicode="&#x2211;" horiz-adv-x="1400" d="M61 -10l369 608q-27 45 -76 128t-103 175t-103.5 175t-75.5 128v209h1185v-276h-655l-10 -19l287 -487v-64l-299 -516l12 -14h698v-277h-1229v230z" />
<glyph unicode="&#x221a;" horiz-adv-x="1153" d="M135 676l299 160q6 -18 18.5 -57.5t28 -88.5t31.5 -103.5t31.5 -103.5t28 -88t18.5 -57h10q12 39 39 131t60.5 211t71.5 251t72 250.5t60.5 211t38.5 131.5h250l-487 -1628h-226q-6 18 -21.5 65t-33.5 108.5t-41 129t-41 129t-33.5 108.5t-21.5 66q-4 -2 -14.5 -8.5 t-23.5 -12.5t-24.5 -12t-15.5 -8z" />
<glyph unicode="&#x221e;" horiz-adv-x="1638" d="M72 569q0 74 27.5 138.5t76.5 112.5t120 77t157 29q49 0 97 -14.5t95 -39t89 -56.5t79 -64q72 76 160 125t209 49q82 0 150.5 -27t117.5 -74t76.5 -111.5t27.5 -142.5q0 -74 -28.5 -139t-79.5 -114.5t-123 -78t-158 -28.5q-96 0 -185 51t-167 129q-37 -37 -76 -69.5 t-84 -57t-96 -39t-113 -14.5q-80 0 -147.5 26.5t-117.5 73.5t-78.5 114t-28.5 144zM338 569q0 -59 35 -99t84 -40q53 0 105 42t97 93q-45 53 -97 96.5t-107 43.5q-49 0 -83 -40t-34 -96zM967 569q57 -59 105 -99t97 -40q51 0 84 42t33 99q0 59 -34 96.5t-81 37.5 q-49 0 -103 -42t-101 -94z" />
<glyph unicode="&#x222b;" horiz-adv-x="679" d="M-53 -315q2 6 7 37.5t11 66.5t11.5 65.5t7.5 36.5q37 -4 65.5 -7t54.5 -3q72 0 103 35t31 117q-2 147 -8.5 279t-16.5 261q-10 145 -18.5 290t-8.5 311t86 266t250 100q47 0 92 -4t111 -20l-29 -207q-35 4 -60.5 7t-53.5 3q-82 0 -110 -38t-28 -130q0 -156 8.5 -288 t16.5 -261q12 -131 20.5 -271.5t8.5 -310.5q0 -84 -26 -150.5t-72 -114.5t-108.5 -73.5t-135.5 -25.5q-47 0 -95.5 6t-113.5 23z" />
<glyph unicode="&#x2248;" horiz-adv-x="1288" d="M141 395q47 127 112.5 177.5t143.5 50.5q51 0 107.5 -12.5t113 -28t109.5 -27.5t102 -14q8 6 24.5 19t35 26.5t35 26t24.5 18.5l111 -84q-78 -232 -252 -232q-57 0 -116.5 12.5t-115 28t-105.5 27.5t-91 12l-123 -84zM141 731q47 125 112.5 176t143.5 51q51 0 107.5 -12 t113 -26.5t109.5 -26.5t102 -14l119 88l111 -80q-76 -236 -252 -236q-57 0 -116.5 12.5t-115 28t-105.5 27.5t-91 14q-8 -6 -25.5 -18.5t-36 -24.5t-36 -23.5t-25.5 -17.5z" />
<glyph unicode="&#x2260;" horiz-adv-x="1288" d="M168 117l168 215h-154v213h316q8 10 24.5 29.5t33.5 39t32.5 39t25.5 29.5h-432v215h596q8 12 27.5 35.5t40 49.5t39 49.5t28.5 35.5h195l-133 -170h117v-215h-283q-8 -10 -22.5 -28.5t-31 -39t-30.5 -40t-23 -29.5h390v-213h-555q-12 -16 -36 -45t-49.5 -61.5t-49 -62.5 t-35.5 -46h-199z" />
<glyph unicode="&#x2264;" horiz-adv-x="1288" d="M86 0v223h1001v-223h-1001zM88 666v186l1002 362v-268l-650 -186q57 -18 144.5 -48t181.5 -62t181 -60.5t143 -46.5v-269z" />
<glyph unicode="&#x2265;" horiz-adv-x="1288" d="M133 276v269l653 215q-2 0 -51 14t-120.5 34.5t-154.5 44.5t-155 44.5t-121 34.5t-51 14v268l1004 -362v-186zM135 0v223h1006v-223h-1006z" />
<glyph unicode="&#x25ca;" horiz-adv-x="1085" d="M61 651l359 692h182l352 -692l-354 -688h-182zM324 653l190 -374l184 372l-188 377z" />
<glyph unicode="&#x25fc;" horiz-adv-x="1013" d="M0 0v1014h1014v-1014h-1014z" />
</font>
</defs>
</svg>
